<!-- Generator: Adobe Illustrator 22.0.1, SVG Export Plug-In  -->
<svg version="1.1"
	 xmlns="http://www.w3.org/2000/svg" xmlns:xlink="http://www.w3.org/1999/xlink" xmlns:a="http://ns.adobe.com/AdobeSVGViewerExtensions/3.0/"
	 x="0px" y="0px" width="565.172px" height="446.854px" viewBox="0 0 565.172 446.854"
	 style="overflow:inherit;enable-background:new 0 0 565.172 446.854;" xml:space="preserve">
<style type="text/css">
	.st0{fill:#F5C792;}
	.st1{fill:none;stroke:#A84F3D;stroke-width:2.4787;stroke-linecap:round;stroke-linejoin:round;stroke-miterlimit:3.8637;}
	.st2{fill:none;stroke:#808080;stroke-width:2.4787;stroke-linecap:round;stroke-linejoin:round;stroke-miterlimit:3.8637;}
	.st3{fill:#808080;}
	.st4{fill:#7F2A22;}
	.st5{fill:none;stroke:#A84F3D;stroke-width:2.7509;stroke-linecap:round;stroke-linejoin:round;stroke-miterlimit:3.8637;}
	.st6{fill:none;stroke:#A84F3D;stroke-width:2.6935;stroke-linecap:round;stroke-linejoin:round;stroke-miterlimit:3.8637;}
	.st7{fill:#A84F3D;}
	.st8{fill:none;stroke:#7F2A22;stroke-width:3;stroke-linecap:round;stroke-linejoin:round;stroke-miterlimit:3.8637;}
	.st9{clip-path:url(#SVGID_7_);}
	.st10{fill:#095AA3;}
	.st11{clip-path:url(#SVGID_8_);}
	.st12{fill:none;stroke:#A84F3D;stroke-width:3.2198;stroke-linecap:round;stroke-linejoin:round;stroke-miterlimit:3.8637;}
	.st13{fill:#990000;}
	.st14{fill:none;stroke:#990000;stroke-width:3.2198;stroke-miterlimit:3.8637;}
	.st15{fill:#FD5B27;}
	.st16{fill:none;stroke:#A84F3D;stroke-width:3.2198;stroke-linejoin:round;stroke-miterlimit:3.8637;}
	.st17{fill:#5A727D;}
	.st18{fill:none;stroke:#095AA3;stroke-width:3;stroke-linecap:round;stroke-linejoin:round;stroke-miterlimit:3.8637;}
	.st19{fill:#302835;}
	.st20{fill:none;stroke:#A84F3D;stroke-width:3;stroke-linecap:round;stroke-linejoin:round;stroke-miterlimit:3.8637;}
	.st21{fill:#FFFFFF;}
	.st22{fill:none;stroke:#A84F3D;stroke-width:3;stroke-linecap:round;stroke-linejoin:round;stroke-miterlimit:10;}
	.st23{clip-path:url(#SVGID_11_);}
	.st24{fill:#DEA26F;}
	.st25{fill:#FFCC00;}
	.st26{fill:none;stroke:#A84F3D;stroke-width:3;stroke-linejoin:round;stroke-miterlimit:10;}
	.st27{fill:#F6E1B6;}
	.st28{fill:#F80E41;}
	.st29{fill:none;stroke:#A84F3D;stroke-width:2.9374;stroke-linecap:round;stroke-linejoin:round;stroke-miterlimit:3.8637;}
	.st30{fill:#9983BE;}
	.st31{fill:none;stroke:#A84F3D;stroke-width:3.0624;stroke-linecap:round;stroke-linejoin:round;stroke-miterlimit:10;}
	.st32{fill:none;}
	.st33{fill:none;stroke:#A84F3D;stroke-width:2.9374;stroke-linecap:round;stroke-linejoin:round;stroke-miterlimit:10;}
	.st34{fill:none;stroke:#C1250A;stroke-width:3.0624;stroke-linecap:round;stroke-linejoin:round;stroke-miterlimit:10;}
	.st35{fill:none;stroke:#A84F3D;stroke-width:2.9374;stroke-miterlimit:3.8637;}
	.st36{fill:none;stroke:#000000;stroke-width:3.0624;stroke-linecap:round;stroke-linejoin:round;stroke-miterlimit:10;}
	.st37{fill:none;stroke:#A84F3D;stroke-width:3.0624;stroke-miterlimit:10;}
	.st38{fill:none;stroke:#DF4F21;stroke-width:3.0624;stroke-linecap:round;stroke-linejoin:round;stroke-miterlimit:10;}
	.st39{fill:none;stroke:#7F2A22;stroke-width:3.318;stroke-linecap:round;stroke-linejoin:round;stroke-miterlimit:10;}
	.st40{fill:none;stroke:#DF4F21;stroke-width:3;stroke-linecap:round;stroke-linejoin:round;stroke-miterlimit:10;}
	.st41{fill:none;stroke:#000000;stroke-width:3.318;stroke-linecap:round;stroke-linejoin:round;stroke-miterlimit:10;}
	.st42{fill:none;stroke:#A84F3D;stroke-width:3.318;stroke-linecap:round;stroke-linejoin:round;stroke-miterlimit:10;}
	.st43{fill:none;stroke:#DF4F21;stroke-width:3.318;stroke-linecap:round;stroke-linejoin:round;stroke-miterlimit:10;}
	.st44{fill:#90AACC;}
	.st45{clip-path:url(#SVGID_12_);}
	.st46{fill:#FF9900;}
	.st47{fill:none;stroke:#A84F3D;stroke-width:3.318;stroke-linecap:round;stroke-miterlimit:10;}
	.st48{fill:#FFDB41;}
	.st49{fill:#FFFCF3;}
	.st50{fill:#F9BA71;}
	.st51{fill:none;stroke:#A84F3D;stroke-width:2.8316;stroke-linecap:round;stroke-linejoin:round;stroke-miterlimit:3.8637;}
	.st52{fill:#3E7EA5;}
	.st53{fill:none;stroke:#A84F3D;stroke-width:2.9375;stroke-linecap:round;stroke-linejoin:round;stroke-miterlimit:3.8637;}
	.st54{fill:#98BBD5;}
	.st55{fill:none;stroke:#A84F3D;stroke-width:2.3118;stroke-linecap:round;stroke-linejoin:round;stroke-miterlimit:3.8637;}
	.st56{fill:#4D0000;}
	.st57{fill:none;stroke:#A84F3D;stroke-width:2.9375;stroke-linecap:round;stroke-linejoin:round;stroke-miterlimit:10;}
	.st58{fill:none;stroke:#A84F3D;stroke-width:2.8643;stroke-linecap:round;stroke-linejoin:round;stroke-miterlimit:10;}
	.st59{fill:none;stroke:#4D0000;stroke-width:2.3118;stroke-linecap:round;stroke-linejoin:round;stroke-miterlimit:3.8637;}
	.st60{fill:none;stroke:#A84F3D;stroke-width:2.3118;stroke-linecap:round;stroke-linejoin:round;stroke-miterlimit:10;}
	.st61{fill:none;stroke:#A84F3D;stroke-width:2.8369;stroke-linecap:round;stroke-linejoin:round;stroke-miterlimit:10;}
	.st62{fill:#E7182B;}
	.st63{fill:none;stroke:#CC0000;stroke-width:2.8316;stroke-linecap:round;stroke-miterlimit:3.8637;}
	.st64{fill:#1E314E;}
	.st65{fill:#39507C;}
	.st66{fill:#333333;}
	.st67{fill:#E5DFD9;}
	.st68{fill:#753A20;}
	.st69{fill:#ED4022;}
	.st70{fill:#D0C5BC;}
	.st71{fill:#DC4512;}
	.st72{fill:#C8BAB0;}
	.st73{fill:#595360;}
	.st74{fill:#AD9990;}
	.st75{fill:#76676A;}
	.st76{fill:#937C75;}
	
		.st77{fill:none;stroke:#7E9BA9;stroke-width:1.19;stroke-linecap:round;stroke-linejoin:round;stroke-miterlimit:3.8637;stroke-dasharray:8,4;}
	.st78{fill:none;stroke:#095AA3;stroke-width:3;stroke-linejoin:round;stroke-miterlimit:3.8637;}
	.st79{fill:none;stroke:#DF4F21;stroke-width:3;stroke-linecap:round;stroke-linejoin:round;stroke-miterlimit:3.8637;}
	.st80{fill:#16182C;}
	.st81{fill:#37333F;}
	.st82{fill:#D5CEC8;}
	.st83{fill:#E17630;}
	.st84{fill:#EEC342;}
	.st85{fill:#1D777E;}
	.st86{fill:#C9C9C9;}
	.st87{fill:#788FA6;}
	.st88{fill:#F39912;}
	.st89{fill:#7D2F11;}
	.st90{fill:#8A9DA3;}
	.st91{fill:#CFC8C1;}
	.st92{fill:#251316;}
	.st93{fill:#F9DC7C;}
	.st94{fill:#E54928;}
	.st95{fill:#FFA200;}
	.st96{fill:#FED548;}
	.st97{clip-path:url(#SVGID_14_);}
	.st98{clip-path:url(#SVGID_16_);}
	.st99{clip-path:url(#SVGID_22_);}
	.st100{clip-path:url(#SVGID_24_);}
</style>
<defs>
</defs>
<g>
	<g>
		<g>
			<g>
				<g>
					<polygon class="st0" points="430.5,422.458 442.061,422.458 442.061,433.89 430.5,433.89 430.5,422.458 					"/>
					<path class="st0" d="M436.281,428.174"/>
				</g>
				<g>
					<polygon class="st1" points="430.5,422.458 442.061,422.458 442.061,433.89 430.5,433.89 430.5,422.458 					"/>
					<path class="st1" d="M436.281,428.174"/>
				</g>
			</g>
			<g>
				<g>
					<path d="M428.201,428.837c0-0.184-22.548-0.546-22.548-0.546c-8.613,0-15.596,6.845-15.596,15.288h54.635
						c0-3.948,0.539-8.338-2.214-10.783C431.946,432.796,428.201,432.758,428.201,428.837z"/>
					<path class="st2" d="M428.201,428.837c0-0.184-22.548-0.546-22.548-0.546c-8.613,0-15.596,6.845-15.596,15.288h54.635
						c0-3.948,0.539-8.338-2.214-10.783C431.946,432.796,428.201,432.758,428.201,428.837z"/>
				</g>
				<g>
					<g>
						<polygon class="st3" points="388.889,443.634 445.863,443.634 445.863,446.854 388.889,446.854 388.889,443.634 						"/>
						<path class="st3" d="M417.376,445.244"/>
					</g>
				</g>
			</g>
		</g>
		<g>
			<g>
				<g>
					<polygon class="st0" points="456.606,422.458 468.167,422.458 468.167,433.89 456.606,433.89 456.606,422.458 					"/>
					<path class="st0" d="M462.387,428.174"/>
				</g>
				<g>
					<polygon class="st1" points="456.606,422.458 468.167,422.458 468.167,433.89 456.606,433.89 456.606,422.458 					"/>
					<path class="st1" d="M462.387,428.174"/>
				</g>
			</g>
			<g>
				<g>
					<path d="M470.467,428.837c0-0.184,22.548-0.546,22.548-0.546c8.613,0,15.596,6.845,15.596,15.288h-54.635
						c0-3.948-0.539-8.338,2.214-10.783C466.722,432.796,470.467,432.758,470.467,428.837z"/>
					<path class="st2" d="M470.467,428.837c0-0.184,22.548-0.546,22.548-0.546c8.613,0,15.596,6.845,15.596,15.288h-54.635
						c0-3.948-0.539-8.338,2.214-10.783C466.722,432.796,470.467,432.758,470.467,428.837z"/>
				</g>
				<g>
					<g>
						<polygon class="st3" points="452.805,443.634 509.779,443.634 509.779,446.854 452.805,446.854 452.805,443.634 						"/>
						<path class="st3" d="M481.292,445.244"/>
					</g>
				</g>
			</g>
		</g>
	</g>
	<g>
		<path class="st4" d="M407.857,240.498v25.603c0,8.138,6.439,14.887,14.617,15.689V427.54h23.824V281.871h6.371V427.54h23.824
			V281.791c8.179-0.802,14.617-7.551,14.617-15.689v-25.603v-2.523h-83.254V240.498z"/>
		<path class="st5" d="M407.857,240.498v25.603c0,8.138,6.439,14.887,14.617,15.689V427.54h23.824V281.871h6.371V427.54h23.824
			V281.791c8.179-0.802,14.617-7.551,14.617-15.689v-25.603v-2.523h-83.254V240.498z"/>
	</g>
	<g>
		<g>
			<g>
				<g>
					<polygon class="st0" points="313.92,419.827 326.483,419.827 326.483,432.249 313.92,432.249 313.92,419.827 					"/>
					<path class="st0" d="M320.202,426.038"/>
				</g>
				<g>
					<polygon class="st6" points="313.92,419.827 326.483,419.827 326.483,432.249 313.92,432.249 313.92,419.827 					"/>
					<path class="st6" d="M320.202,426.038"/>
				</g>
			</g>
			<g>
				<g>
					<path class="st4" d="M311.422,426.759c0-0.2-24.502-0.594-24.502-0.594c-9.36,0-16.948,7.438-16.948,16.613h59.37
						c0-4.29,0.585-9.061-2.406-11.718C315.491,431.061,311.422,431.019,311.422,426.759z"/>
					<path class="st6" d="M311.422,426.759c0-0.2-24.502-0.594-24.502-0.594c-9.36,0-16.948,7.438-16.948,16.613h59.37
						c0-4.29,0.585-9.061-2.406-11.718C315.491,431.061,311.422,431.019,311.422,426.759z"/>
				</g>
				<g>
					<g>
						<polygon class="st4" points="268.703,442.838 330.614,442.838 330.614,446.337 268.703,446.337 268.703,442.838 						"/>
						<path class="st4" d="M299.658,444.588"/>
					</g>
				</g>
			</g>
		</g>
		<g>
			<g>
				<g>
					<polygon class="st0" points="342.289,419.827 354.852,419.827 354.852,432.249 342.289,432.249 342.289,419.827 					"/>
					<path class="st0" d="M348.57,426.038"/>
				</g>
				<g>
					<polygon class="st6" points="342.289,419.827 354.852,419.827 354.852,432.249 342.289,432.249 342.289,419.827 					"/>
					<path class="st6" d="M348.57,426.038"/>
				</g>
			</g>
			<g>
				<g>
					<path class="st4" d="M357.35,426.759c0-0.2,24.502-0.594,24.502-0.594c9.36,0,16.948,7.438,16.948,16.613h-59.37
						c0-4.29-0.585-9.061,2.406-11.718C353.281,431.061,357.35,431.019,357.35,426.759z"/>
					<path class="st6" d="M357.35,426.759c0-0.2,24.502-0.594,24.502-0.594c9.36,0,16.948,7.438,16.948,16.613h-59.37
						c0-4.29-0.585-9.061,2.406-11.718C353.281,431.061,357.35,431.019,357.35,426.759z"/>
				</g>
				<g>
					<g>
						<polygon class="st4" points="338.158,442.838 400.069,442.838 400.069,446.337 338.158,446.337 338.158,442.838 						"/>
						<path class="st4" d="M369.114,444.588"/>
					</g>
				</g>
			</g>
		</g>
	</g>
	<g>
		<path class="st7" d="M290.493,243.44v28.39c0,9.024,6.928,16.507,15.727,17.397v135.059h25.632v-134.97h6.855v134.97h25.632
			V289.227c8.799-0.889,15.727-8.373,15.727-17.397v-28.39v-2.798h-89.573V243.44z"/>
		<path class="st8" d="M290.493,243.44v28.39c0,9.024,6.928,16.507,15.727,17.397v135.059h25.632v-134.97h6.855v134.97h25.632
			V289.227c8.799-0.889,15.727-8.373,15.727-17.397v-28.39v-2.798h-89.573V243.44z"/>
	</g>
	<g>
		<g>
			<g>
				<g>
					<polygon class="st0" points="77.132,419.827 89.695,419.827 89.695,432.249 77.132,432.249 77.132,419.827 					"/>
					<path class="st0" d="M83.413,426.038"/>
				</g>
				<g>
					<polygon class="st6" points="77.132,419.827 89.695,419.827 89.695,432.249 77.132,432.249 77.132,419.827 					"/>
					<path class="st6" d="M83.413,426.038"/>
				</g>
			</g>
			<g>
				<g>
					<g>
						<defs>
							<path id="SVGID_6_" d="M74.633,426.759c0-0.2-24.502-0.594-24.502-0.594c-9.36,0-16.948,7.438-16.948,16.613h59.37
								c0-4.29,0.585-9.061-2.406-11.718C78.702,431.061,74.633,431.019,74.633,426.759z"/>
						</defs>
						<use xlink:href="#SVGID_6_"  style="overflow:visible;fill:#D1DDE9;"/>
						<clipPath id="SVGID_7_">
							<use xlink:href="#SVGID_6_"  style="overflow:visible;"/>
						</clipPath>
						<g class="st9">
							<g>
								<polygon class="st10" points="60.198,424.474 63.614,422.694 74.771,443.261 71.355,445.041 60.198,424.474 								"/>
								<path class="st10" d="M67.485,433.868"/>
							</g>
							<g>
								<polygon class="st10" points="53.621,426.033 57.037,424.253 68.194,444.82 64.778,446.6 53.621,426.033 								"/>
								<path class="st10" d="M60.908,435.427"/>
							</g>
						</g>
						
							<use xlink:href="#SVGID_6_"  style="overflow:visible;fill:none;stroke:#5A727D;stroke-width:2.6935;stroke-linecap:round;stroke-linejoin:round;stroke-miterlimit:3.8637;"/>
					</g>
				</g>
				<g>
					<g>
						<polygon class="st10" points="31.914,442.838 93.825,442.838 93.825,446.337 31.914,446.337 31.914,442.838 						"/>
						<path class="st10" d="M62.87,444.588"/>
					</g>
				</g>
			</g>
		</g>
		<g>
			<g>
				<g>
					<polygon class="st0" points="105.5,419.827 118.063,419.827 118.063,432.249 105.5,432.249 105.5,419.827 					"/>
					<path class="st0" d="M111.782,426.038"/>
				</g>
				<g>
					<polygon class="st6" points="105.5,419.827 118.063,419.827 118.063,432.249 105.5,432.249 105.5,419.827 					"/>
					<path class="st6" d="M111.782,426.038"/>
				</g>
			</g>
			<g>
				<g>
					<g>
						<defs>
							<path id="SVGID_5_" d="M120.562,426.759c0-0.2,24.502-0.594,24.502-0.594c9.36,0,16.948,7.438,16.948,16.613h-59.37
								c0-4.29-0.585-9.061,2.406-11.718C116.492,431.061,120.562,431.019,120.562,426.759z"/>
						</defs>
						<use xlink:href="#SVGID_5_"  style="overflow:visible;fill:#D1DDE9;"/>
						<clipPath id="SVGID_8_">
							<use xlink:href="#SVGID_5_"  style="overflow:visible;"/>
						</clipPath>
						<g class="st11">
							<g>
								<polygon class="st10" points="134.963,424.474 131.547,422.694 120.391,443.261 123.807,445.041 134.963,424.474 								
									"/>
								<path class="st10" d="M127.677,433.868"/>
							</g>
							<g>
								<polygon class="st10" points="141.54,426.033 138.124,424.253 126.968,444.82 130.384,446.6 141.54,426.033 								"/>
								<path class="st10" d="M134.254,435.427"/>
							</g>
						</g>
						
							<use xlink:href="#SVGID_5_"  style="overflow:visible;fill:none;stroke:#5A727D;stroke-width:2.6935;stroke-linecap:round;stroke-linejoin:round;stroke-miterlimit:3.8637;"/>
					</g>
				</g>
				<g>
					<g>
						<polygon class="st10" points="101.369,442.838 163.281,442.838 163.281,446.337 101.369,446.337 101.369,442.838 						"/>
						<path class="st10" d="M132.325,444.588"/>
					</g>
				</g>
			</g>
		</g>
	</g>
	<g>
		<g>
			<g>
				<g>
					<polygon class="st0" points="196.204,290.6 211.326,290.6 211.326,429.283 196.204,429.283 196.204,290.6 					"/>
					<path class="st0" d="M203.765,359.942"/>
				</g>
				<g>
					<defs>
						<polygon id="SVGID_4_" points="196.204,290.6 211.326,290.6 211.326,429.283 196.204,429.283 196.204,290.6 						"/>
					</defs>
					<clipPath id="SVGID_9_">
						<use xlink:href="#SVGID_4_"  style="overflow:visible;"/>
					</clipPath>
				</g>
				<g>
					<polygon class="st12" points="196.204,290.6 211.326,290.6 211.326,429.283 196.204,429.283 196.204,290.6 					"/>
					<path class="st12" d="M203.765,359.942"/>
				</g>
			</g>
			<g>
				<g>
					<polygon class="st13" points="158.225,437.159 215.874,437.159 215.874,444.967 158.225,444.967 158.225,437.159 					"/>
					<path class="st13" d="M187.049,441.063"/>
				</g>
				<g>
					<polygon class="st14" points="158.225,437.159 215.874,437.159 215.874,444.967 158.225,444.967 158.225,437.159 					"/>
					<path class="st14" d="M187.049,441.063"/>
				</g>
			</g>
			<g>
				<path class="st15" d="M197.271,410.231h13.435v16.746c0.799-0.098,1.625-0.215,2.483-0.351
					c3.848-0.614,2.322,7.314,2.322,11.537h-57.296c0-9.034,0.342-16.656,16.35-16.361c9.952,0.183,14.867,3.571,22.707,4.984
					V410.231z"/>
				<path class="st16" d="M197.271,410.231h13.435v16.746c0.799-0.098,1.625-0.215,2.483-0.351
					c3.848-0.614,2.322,7.314,2.322,11.537h-57.296c0-9.034,0.342-16.656,16.35-16.361c9.952,0.183,14.867,3.571,22.707,4.984
					V410.231z"/>
			</g>
		</g>
		<g>
			<g>
				<g>
					<polygon class="st0" points="220.023,290.6 235.145,290.6 235.145,429.283 220.023,429.283 220.023,290.6 					"/>
					<path class="st0" d="M227.584,359.942"/>
				</g>
				<g>
					<defs>
						<polygon id="SVGID_3_" points="220.023,290.6 235.145,290.6 235.145,429.283 220.023,429.283 220.023,290.6 						"/>
					</defs>
					<clipPath id="SVGID_10_">
						<use xlink:href="#SVGID_3_"  style="overflow:visible;"/>
					</clipPath>
				</g>
				<g>
					<polygon class="st12" points="220.023,290.6 235.145,290.6 235.145,429.283 220.023,429.283 220.023,290.6 					"/>
					<path class="st12" d="M227.584,359.942"/>
				</g>
			</g>
			<g>
				<g>
					<polygon class="st13" points="215.474,437.159 273.124,437.159 273.124,444.967 215.474,444.967 215.474,437.159 					"/>
					<path class="st13" d="M244.299,441.063"/>
				</g>
				<g>
					<polygon class="st14" points="215.474,437.159 273.124,437.159 273.124,444.967 215.474,444.967 215.474,437.159 					"/>
					<path class="st14" d="M244.299,441.063"/>
				</g>
			</g>
			<g>
				<path class="st15" d="M234.077,410.231h-13.435v16.746c-0.799-0.098-1.626-0.215-2.483-0.351
					c-3.848-0.614-2.322,7.314-2.322,11.537h57.297c0-9.034-0.342-16.656-16.35-16.361c-9.952,0.183-14.867,3.571-22.707,4.984
					V410.231z"/>
				<path class="st16" d="M234.077,410.231h-13.435v16.746c-0.799-0.098-1.626-0.215-2.483-0.351
					c-3.848-0.614-2.322,7.314-2.322,11.537h57.297c0-9.034-0.342-16.656-16.35-16.361c-9.952,0.183-14.867,3.571-22.707,4.984
					V410.231z"/>
			</g>
		</g>
	</g>
	<g>
		<path class="st17" d="M52.865,243.44v28.39c0,9.024,6.928,16.507,15.727,17.397v135.059h25.632v-134.97h6.855v134.97h25.632
			V289.227c8.799-0.889,15.727-8.373,15.727-17.397v-28.39v-2.798H52.865V243.44z"/>
		<path class="st18" d="M52.865,243.44v28.39c0,9.024,6.928,16.507,15.727,17.397v135.059h25.632v-134.97h6.855v134.97h25.632
			V289.227c8.799-0.889,15.727-8.373,15.727-17.397v-28.39v-2.798H52.865V243.44z"/>
	</g>
	<g>
		<path class="st19" d="M305.607,124.266c63.859-1.531,74.731-10.916,126.791,19.312l-20.992,19.312
			c-13.015-24.35-68.434-22.251-102.44-19.312L305.607,124.266z"/>
	</g>
	<g>
		<path class="st0" d="M207.749,141.188c0,0,25.554,0,23.898,0s0,14.449,0,14.449l-7.793,12.241l-7.761,1.104l-9.449-12.241
			L207.749,141.188z"/>
		<path class="st20" d="M207.749,141.188c0,0,25.554,0,23.898,0s0,14.449,0,14.449l-7.793,12.241l-7.761,1.104l-9.449-12.241
			L207.749,141.188z"/>
	</g>
	<g>
		<g>
			<path class="st21" d="M124.847,143.061c-1.244-0.222-2.521-0.358-3.829-0.358H69.786c-1.309,0-2.583,0.136-3.828,0.358
				C30.157,144.589,1.5,174.18,1.5,210.35c0,29.919,19.611,55.811,46.649,64.57h94.506c27.04-8.758,46.651-34.651,46.651-64.57
				C189.306,174.18,160.648,144.589,124.847,143.061z M48.149,245.499c-12.018-7.11-20.104-20.2-20.104-35.149
				c0-14.949,8.086-28.038,20.104-35.148V245.499z M142.655,245.499v-70.297c12.022,7.109,20.104,20.199,20.104,35.148
				C162.758,225.299,154.677,238.389,142.655,245.499z"/>
		</g>
		<g>
			<path class="st22" d="M124.847,143.061c-1.244-0.222-2.521-0.358-3.829-0.358H69.786c-1.309,0-2.583,0.136-3.828,0.358
				C30.157,144.589,1.5,174.18,1.5,210.35c0,29.919,19.611,55.811,46.649,64.57h94.506c27.04-8.758,46.651-34.651,46.651-64.57
				C189.306,174.18,160.648,144.589,124.847,143.061z M48.149,245.499c-12.018-7.11-20.104-20.2-20.104-35.149
				c0-14.949,8.086-28.038,20.104-35.148V245.499z M142.655,245.499v-70.297c12.022,7.109,20.104,20.199,20.104,35.148
				C162.758,225.299,154.677,238.389,142.655,245.499z"/>
		</g>
		<g>
			<g>
				<path class="st0" d="M141.382,244.716H123.14c-2.036,0-3.686,1.65-3.686,3.687c0,2.036,1.65,3.687,3.686,3.687
					c-2.036,0-3.686,1.653-3.686,3.688c0,2.037,1.65,3.688,3.686,3.688h0.305c-2.037,0-3.688,1.651-3.688,3.687
					c0,2.037,1.651,3.688,3.688,3.688h2.177c0.003,0.006,0.004,0.008,0.007,0.013c-1.979,0.064-3.567,1.68-3.567,3.674
					c0,2.037,1.651,4.393,3.688,4.393h12.631h0.22h2.78C149.528,274.92,149.528,244.716,141.382,244.716z"/>
				<path class="st22" d="M141.382,244.716H123.14c-2.036,0-3.686,1.65-3.686,3.687c0,2.036,1.65,3.687,3.686,3.687
					c-2.036,0-3.686,1.653-3.686,3.688c0,2.037,1.65,3.688,3.686,3.688h0.305c-2.037,0-3.688,1.651-3.688,3.687
					c0,2.037,1.651,3.688,3.688,3.688h2.177c0.003,0.006,0.004,0.008,0.007,0.013c-1.979,0.064-3.567,1.68-3.567,3.674
					c0,2.037,1.651,4.393,3.688,4.393h12.631h0.22h2.78C149.528,274.92,149.528,244.716,141.382,244.716z"/>
			</g>
			<g>
				<line class="st22" x1="123.14" y1="252.09" x2="137.346" y2="252.09"/>
			</g>
			<g>
				<line class="st22" x1="123.445" y1="259.465" x2="137.346" y2="259.465"/>
			</g>
			<g>
				<line class="st22" x1="125.009" y1="266.84" x2="137.346" y2="266.84"/>
			</g>
		</g>
		<g>
			<g>
				<path class="st0" d="M50.739,244.716h18.242c2.036,0,3.686,1.65,3.686,3.687c0,2.036-1.65,3.687-3.686,3.687
					c2.036,0,3.686,1.653,3.686,3.688c0,2.037-1.65,3.688-3.686,3.688h-0.306c2.039,0,3.688,1.651,3.688,3.687
					c0,2.037-1.65,3.688-3.688,3.688h-2.177c-0.001,0.006-0.003,0.008-0.007,0.013c1.979,0.064,3.567,1.68,3.567,3.674
					c0,2.037-1.651,4.393-3.688,4.393H53.738h-0.219h-2.779C42.593,274.92,42.593,244.716,50.739,244.716z"/>
				<path class="st22" d="M50.739,244.716h18.242c2.036,0,3.686,1.65,3.686,3.687c0,2.036-1.65,3.687-3.686,3.687
					c2.036,0,3.686,1.653,3.686,3.688c0,2.037-1.65,3.688-3.686,3.688h-0.306c2.039,0,3.688,1.651,3.688,3.687
					c0,2.037-1.65,3.688-3.688,3.688h-2.177c-0.001,0.006-0.003,0.008-0.007,0.013c1.979,0.064,3.567,1.68,3.567,3.674
					c0,2.037-1.651,4.393-3.688,4.393H53.738h-0.219h-2.779C42.593,274.92,42.593,244.716,50.739,244.716z"/>
			</g>
			<g>
				<line class="st22" x1="68.981" y1="252.09" x2="54.774" y2="252.09"/>
			</g>
			<g>
				<line class="st22" x1="68.675" y1="259.465" x2="54.774" y2="259.465"/>
			</g>
			<g>
				<line class="st22" x1="67.112" y1="266.84" x2="54.774" y2="266.84"/>
			</g>
		</g>
		<g>
			<path class="st0" d="M96.104,130.713c-5.222,0-10.254-0.807-14.984-2.299v13.235c0,8.273,6.707,14.982,14.984,14.982
				c8.275,0,14.981-6.708,14.981-14.982v-13.235C106.358,129.906,101.326,130.713,96.104,130.713z"/>
			<path class="st22" d="M96.104,130.713c-5.222,0-10.254-0.807-14.984-2.299v13.235c0,8.273,6.707,14.982,14.984,14.982
				c8.275,0,14.981-6.708,14.981-14.982v-13.235C106.358,129.906,101.326,130.713,96.104,130.713z"/>
		</g>
		<g>
			<g>
				<defs>
					<path id="SVGID_2_" d="M96.104,30.27c-17.349,0-31.411,14.064-31.411,31.41v2.534v37.628v2.533
						c0,17.348,14.062,31.412,31.411,31.412c17.349,0,31.411-14.064,31.411-31.412v-2.533V64.215v-2.534
						C127.515,44.334,113.453,30.27,96.104,30.27z"/>
				</defs>
				<use xlink:href="#SVGID_2_"  style="overflow:visible;fill:#F5C792;"/>
				<clipPath id="SVGID_11_">
					<use xlink:href="#SVGID_2_"  style="overflow:visible;"/>
				</clipPath>
				<g class="st23">
					<path class="st24" d="M64.693,103.718v2.533c0,17.349,14.062,31.412,31.411,31.412c17.349,0,31.411-14.064,31.411-31.412
						v-2.533H64.693z"/>
				</g>
				
					<use xlink:href="#SVGID_2_"  style="overflow:visible;fill:none;stroke:#A84F3D;stroke-width:3;stroke-linecap:round;stroke-linejoin:round;stroke-miterlimit:10;"/>
			</g>
		</g>
		<g>
			<g>
				<path class="st0" d="M64.643,98.082c-4.71,0-8.529-3.817-8.529-8.53l0,0c0-4.711,3.819-8.53,8.529-8.53V98.082z"/>
				<path class="st22" d="M64.643,98.082c-4.71,0-8.529-3.817-8.529-8.53l0,0c0-4.711,3.819-8.53,8.529-8.53V98.082z"/>
			</g>
			<g>
				<path class="st0" d="M127.563,98.082c4.711,0,8.529-3.817,8.529-8.53l0,0c0-4.711-3.818-8.53-8.529-8.53V98.082z"/>
				<path class="st22" d="M127.563,98.082c4.711,0,8.529-3.817,8.529-8.53l0,0c0-4.711-3.818-8.53-8.529-8.53V98.082z"/>
			</g>
		</g>
		<g>
			<path class="st25" d="M83.944,30.277c-1.027,0.037-3.023,0.2-5.646,0.448C63.479,33.25,64.693,46.145,64.693,61.681v0.708
				c8.868,0,16.058-7.19,16.058-16.06c0,8.87,7.192,16.06,16.061,16.06l0,0c0,0,26.978,0,30.702,0
				c13.757,0,18.087-15.759,18.087-15.759l-6.86-0.301c0,0,7.932-6.738,7.932-15.38c0-0.228-0.013-0.452-0.018-0.678
				C146.656,30.27,87.537,30.315,83.944,30.277z"/>
			<path class="st22" d="M83.944,30.277c-1.027,0.037-3.023,0.2-5.646,0.448C63.479,33.25,64.693,46.145,64.693,61.681v0.708
				c8.868,0,16.058-7.19,16.058-16.06c0,8.87,7.192,16.06,16.061,16.06l0,0c0,0,26.978,0,30.702,0
				c13.757,0,18.087-15.759,18.087-15.759l-6.86-0.301c0,0,7.932-6.738,7.932-15.38c0-0.228-0.013-0.452-0.018-0.678
				C146.656,30.27,87.537,30.315,83.944,30.277z"/>
		</g>
		<g>
			<path class="st22" d="M91.944,99.074c0-2.294,1.864-4.157,4.16-4.157c2.297,0,4.158,1.863,4.158,4.157"/>
		</g>
		<g>
			<path class="st22" d="M86.448,112.736h14.356h4.787c2.643,0,4.787-2.142,4.787-4.787"/>
		</g>
		<g>
			<path class="st25" d="M91.336,70.862c0,1.753-1.422,3.175-3.175,3.175H71.87c-1.753,0-3.175-1.422-3.175-3.175l0,0
				c0-1.754,1.423-3.175,3.175-3.175h16.291C89.915,67.687,91.336,69.108,91.336,70.862L91.336,70.862z"/>
			<path class="st22" d="M91.336,70.862c0,1.753-1.422,3.175-3.175,3.175H71.87c-1.753,0-3.175-1.422-3.175-3.175l0,0
				c0-1.754,1.423-3.175,3.175-3.175h16.291C89.915,67.687,91.336,69.108,91.336,70.862L91.336,70.862z"/>
		</g>
		<g>
			<path class="st25" d="M123.996,70.862c0,1.753-1.422,3.175-3.176,3.175h-16.29c-1.753,0-3.176-1.422-3.176-3.175l0,0
				c0-1.754,1.423-3.175,3.176-3.175h16.29C122.574,67.687,123.996,69.108,123.996,70.862L123.996,70.862z"/>
			<path class="st22" d="M123.996,70.862c0,1.753-1.422,3.175-3.176,3.175h-16.29c-1.753,0-3.176-1.422-3.176-3.175l0,0
				c0-1.754,1.423-3.175,3.176-3.175h16.29C122.574,67.687,123.996,69.108,123.996,70.862L123.996,70.862z"/>
		</g>
		<g>
			<line class="st26" x1="101.905" y1="81.022" x2="128.534" y2="81.022"/>
		</g>
		<g>
			<line class="st26" x1="90.464" y1="83.529" x2="101.905" y2="83.529"/>
		</g>
		<g>
			<line class="st26" x1="63.673" y1="81.022" x2="90.464" y2="81.022"/>
		</g>
		<g>
			<path class="st27" d="M90.468,78.453v9.975c0,1.83-1.483,3.313-3.311,3.313H72.246c-1.83,0-3.313-1.483-3.313-3.313v-9.975
				H90.468z"/>
			<path class="st26" d="M90.468,78.453v9.975c0,1.83-1.483,3.313-3.311,3.313H72.246c-1.83,0-3.313-1.483-3.313-3.313v-9.975
				H90.468z"/>
		</g>
		<g>
			<path class="st27" d="M123.443,88.429c0,1.83-1.483,3.313-3.313,3.313H105.22c-1.83,0-3.313-1.483-3.313-3.313v-9.975h21.536
				V88.429z"/>
			<path class="st26" d="M123.443,88.429c0,1.83-1.483,3.313-3.313,3.313H105.22c-1.83,0-3.313-1.483-3.313-3.313v-9.975h21.536
				V88.429z"/>
		</g>
		<g>
			<line class="st22" x1="77.147" y1="84.63" x2="82.255" y2="84.63"/>
		</g>
		<g>
			<line class="st22" x1="110.121" y1="84.63" x2="115.229" y2="84.63"/>
		</g>
		<g>
			<line class="st22" x1="91.944" y1="35.726" x2="117.389" y2="35.726"/>
		</g>
		<g>
			<line class="st22" x1="123.996" y1="35.726" x2="131.827" y2="35.726"/>
		</g>
		<g>
			<line class="st22" x1="94.197" y1="124.263" x2="98.411" y2="124.263"/>
		</g>
		<g>
			<path class="st28" d="M113.72,177.314H79.641l-8.296,9.73l25.228,29.572l25.32-29.669L113.72,177.314z M115.837,173.666
				l11.36,13.183l-30.623,36.095l-30.175-36.093l11.36-13.183L115.837,173.666z M114.344,189.933c0.555,0.779,0.555,1.499,0,2.159
				l-10.003,10.68h-6.249l10.379-11.062c0.454-0.377,0.454-0.768,0-1.173l-5.907-6.328l-6.415,16.668
				c-0.346,0.871-0.914,1.503-1.706,1.895h-5.25L79.1,192.165c-0.555-0.779-0.555-1.499,0-2.159l10.003-10.68h6.249l-10.379,11.062
				c-0.454,0.377-0.454,0.768,0,1.173l5.984,6.347l6.592-17.296c0.223-0.742,0.69-1.17,1.403-1.286h5.378h0.092L114.344,189.933z"/>
		</g>
	</g>
	<g>
		<g>
			<polygon class="st15" points="374.312,97.02 335.727,97.02 296.902,97.02 296.902,54.954 374.312,54.954 			"/>
			<polygon class="st29" points="374.312,97.02 335.727,97.02 296.902,97.02 296.902,54.954 374.312,54.954 			"/>
		</g>
		<g>
			<path class="st21" d="M371.886,239.924c5.803,0.995,12.232,1.57,19.358,1.57v-19.237
				C381.106,222.257,372.782,230.02,371.886,239.924z"/>
		</g>
		<g>
			<g>
				<polygon class="st30" points="289.482,185.237 381.001,185.237 381.001,274.019 289.482,274.019 289.482,185.237 				"/>
				<path class="st30" d="M335.242,229.628"/>
			</g>
			<g>
				<polygon class="st29" points="289.482,185.237 381.001,185.237 381.001,274.019 289.482,274.019 289.482,185.237 				"/>
				<path class="st29" d="M335.242,229.628"/>
			</g>
		</g>
		<g>
			<g>
				<polygon class="st31" points="289.482,185.237 381.001,185.237 381.001,274.019 289.482,274.019 289.482,185.237 				"/>
				<path class="st31" d="M335.242,229.628"/>
			</g>
		</g>
		<g>
			<path class="st30" d="M346.012,230.787c10.483,6.016,25.035,10.707,45.925,10.707v-84.653c0-12.143-9.846-21.99-21.993-21.99
				h-68.904c-12.145,0-21.99,9.847-21.99,21.99v84.653C279.05,241.494,323.338,244.78,346.012,230.787z"/>
		</g>
		<g>
			<path class="st29" d="M346.012,230.787c10.483,6.016,25.035,10.707,45.925,10.707v-84.653c0-12.143-9.846-21.99-21.993-21.99
				h-68.904c-12.145,0-21.99,9.847-21.99,21.99v84.653C279.05,241.494,323.338,244.78,346.012,230.787z"/>
		</g>
		<g>
			<path class="st32" d="M300.917,174.272v34.652h22.798c0,0,5.412,12.17,21.894,21.632"/>
			<path class="st33" d="M300.917,174.272v34.652h22.798c0,0,5.412,12.17,21.894,21.632"/>
		</g>
		<g>
			<path class="st0" d="M317.94,191.901c-9.402,0-17.023,7.622-17.023,17.024h17.023h5.775v-17.024H317.94z"/>
			<path class="st33" d="M317.94,191.901c-9.402,0-17.023,7.622-17.023,17.024h17.023h5.775v-17.024H317.94z"/>
		</g>
		<g>
			<path class="st0" d="M352.98,191.901c9.404,0,17.024,7.622,17.024,17.024H352.98h-5.772v-17.024H352.98z"/>
			<path class="st33" d="M352.98,191.901c9.404,0,17.024,7.622,17.024,17.024H352.98h-5.772v-17.024H352.98z"/>
		</g>
		<g>
			<line class="st32" x1="370.005" y1="208.925" x2="370.005" y2="174.272"/>
			<line class="st33" x1="370.005" y1="208.925" x2="370.005" y2="174.272"/>
		</g>
		<g>
			<path class="st21" d="M309.206,156.78c0-14.487,11.747-26.233,26.235-26.233c14.489,0,26.234,11.746,26.234,26.233
				c0,14.488-11.744,26.234-26.234,26.234C320.954,183.014,309.206,171.268,309.206,156.78z"/>
			<path class="st31" d="M309.206,156.78c0-14.487,11.747-26.233,26.235-26.233c14.489,0,26.234,11.746,26.234,26.233
				c0,14.488-11.744,26.234-26.234,26.234C320.954,183.014,309.206,171.268,309.206,156.78z"/>
		</g>
		<g>
			<polygon class="st15" points="335.429,168.392 329.059,159.958 329.059,152.33 341.927,152.33 341.927,160.249 			"/>
			<polygon class="st34" points="335.429,168.392 329.059,159.958 329.059,152.33 341.927,152.33 341.927,160.249 			"/>
		</g>
		<g>
			<polygon class="st21" points="370.005,159.4 335.441,152.33 300.917,159.4 312.316,134.853 358.606,134.853 			"/>
			<polygon class="st31" points="370.005,159.4 335.441,152.33 300.917,159.4 312.316,134.853 358.606,134.853 			"/>
		</g>
		<g>
			<path class="st0" d="M303.43,83.257c-4.342,0-7.862-3.52-7.862-7.862l0,0c0-4.342,3.52-7.863,7.862-7.863V83.257z"/>
			<path class="st35" d="M303.43,83.257c-4.342,0-7.862-3.52-7.862-7.862l0,0c0-4.342,3.52-7.863,7.862-7.863V83.257z"/>
		</g>
		<g>
			<path class="st0" d="M367.451,83.257c4.344,0,7.862-3.52,7.862-7.862l0,0c0-4.342-3.519-7.863-7.862-7.863V83.257z"/>
			<path class="st35" d="M367.451,83.257c4.344,0,7.862-3.52,7.862-7.862l0,0c0-4.342-3.519-7.863-7.862-7.863V83.257z"/>
		</g>
		<g>
			<path class="st0" d="M319.993,120.577v16.305c0,8.532,6.916,15.447,15.448,15.447c8.53,0,15.446-6.915,15.446-15.447v-16.305
				H319.993z"/>
			<path class="st29" d="M319.993,120.577v16.305c0,8.532,6.916,15.447,15.448,15.447c8.53,0,15.446-6.915,15.446-15.447v-16.305
				H319.993z"/>
		</g>
		<g>
			<line class="st36" x1="333.803" y1="117.685" x2="337.182" y2="117.685"/>
		</g>
		<g>
			<path class="st0" d="M335.492,21.632c-17.68,0-32.01,14.33-32.01,32.008v2.582v38.347v2.58c0,17.678,14.33,32.011,32.01,32.011
				c17.678,0,32.012-14.332,32.012-32.011v-2.58V56.222V53.64C367.504,35.962,353.17,21.632,335.492,21.632z"/>
			<path class="st29" d="M335.492,21.632c-17.68,0-32.01,14.33-32.01,32.008v2.582v38.347v2.58c0,17.678,14.33,32.011,32.01,32.011
				c17.678,0,32.012-14.332,32.012-32.011v-2.58V56.222V53.64C367.504,35.962,353.17,21.632,335.492,21.632z"/>
		</g>
		<g>
			<path class="st31" d="M319.766,92.258v1.264c0,8.658,7.018,15.675,15.675,15.675c8.657,0,15.675-7.017,15.675-15.675v-1.264"/>
		</g>
		<g>
			<g>
				<path class="st31" d="M330.12,86.302c0-2.938,2.386-5.322,5.322-5.322c2.939,0,5.323,2.384,5.323,5.322"/>
			</g>
			<g>
				<g>
					<path class="st24" d="M303.482,71.627c0-6.85,5.557-12.407,12.404-12.407c6.842,0,12.401,5.557,12.401,12.407
						c0,6.848-5.559,12.402-12.401,12.402C309.039,84.029,303.482,78.476,303.482,71.627z"/>
					<path class="st37" d="M303.482,71.627c0-6.85,5.557-12.407,12.404-12.407c6.842,0,12.401,5.557,12.401,12.407
						c0,6.848-5.559,12.402-12.401,12.402C309.039,84.029,303.482,78.476,303.482,71.627z"/>
				</g>
				<g>
					<path class="st24" d="M342.595,71.627c0-6.85,5.553-12.407,12.406-12.407c6.841,0,12.401,5.557,12.401,12.407
						c0,6.848-5.56,12.402-12.401,12.402C348.148,84.029,342.595,78.476,342.595,71.627z"/>
					<path class="st37" d="M342.595,71.627c0-6.85,5.553-12.407,12.406-12.407c6.841,0,12.401,5.557,12.401,12.407
						c0,6.848-5.56,12.402-12.401,12.402C348.148,84.029,342.595,78.476,342.595,71.627z"/>
				</g>
			</g>
		</g>
		<g>
			<line class="st31" x1="348.305" y1="92.258" x2="353.93" y2="92.258"/>
		</g>
		<g>
			<path class="st15" d="M336.019,15.385c-1.265,0.046-3.726,0.247-6.957,0.552c-18.258,3.112-32.16,18.999-32.16,38.144v0.873
				c10.927,0,19.787-8.861,19.787-19.79c0,10.929,8.861,19.79,19.79,19.79h0.003h37.83v-0.873
				C374.312,32.844,357.203,15.609,336.019,15.385z"/>
			<path class="st29" d="M336.019,15.385c-1.265,0.046-3.726,0.247-6.957,0.552c-18.258,3.112-32.16,18.999-32.16,38.144v0.873
				c10.927,0,19.787-8.861,19.787-19.79c0,10.929,8.861,19.79,19.79,19.79h0.003h37.83v-0.873
				C374.312,32.844,357.203,15.609,336.019,15.385z"/>
		</g>
		<g>
			<path class="st38" d="M324.781,39.743c1.72,5.429,6.8,9.363,12.796,9.363h7.748"/>
		</g>
		<g>
			<path class="st31" d="M311.158,72.527c2.61-2.611,6.843-2.611,9.454,0"/>
		</g>
		<g>
			<path class="st31" d="M350.273,72.527c2.611-2.611,6.843-2.611,9.455,0"/>
		</g>
		<g>
			<path class="st15" d="M335.441,183.014c1.467,0,2.902-0.127,4.305-0.357l-4.315-14.265l-4.888,14.158
				C332.13,182.85,333.766,183.014,335.441,183.014z"/>
			<path class="st34" d="M335.441,183.014c1.467,0,2.902-0.127,4.305-0.357l-4.315-14.265l-4.888,14.158
				C332.13,182.85,333.766,183.014,335.441,183.014z"/>
		</g>
		<g>
			<line class="st37" x1="328.287" y1="71.627" x2="342.595" y2="71.627"/>
		</g>
	</g>
	<g>
		<g>
			<polygon class="st21" points="206.318,183.138 230.775,183.138 230.775,229.893 206.318,229.893 206.318,183.138 			"/>
			<path class="st21" d="M218.546,206.516"/>
		</g>
	</g>
	<g>
		<g>
			<polygon class="st15" points="214.679,183.138 222.18,183.138 222.18,229.893 214.679,229.893 214.679,183.138 			"/>
			<path class="st15" d="M218.429,206.516"/>
		</g>
	</g>
	<g>
		<path class="st39" d="M176.268,343.355V234.449v-51.311c0-13.864,11.24-25.105,25.105-25.105l16.928,27.054l17.419-27.054
			c13.865,0,25.104,11.241,25.104,25.105v160.217H176.268z"/>
	</g>
	<g>
		<path class="st15" d="M214.502,170.028l-13.129-11.994c-13.865,0-25.105,11.241-25.105,25.105v51.311v108.906h84.557V183.138
			c0-13.864-11.239-25.105-25.104-25.105C231.296,173.806,214.413,169.435,214.502,170.028z"/>
		<path class="st40" d="M214.502,170.028l-13.129-11.994c-13.865,0-25.105,11.241-25.105,25.105v51.311v108.906h84.557V183.138
			c0-13.864-11.239-25.105-25.104-25.105C231.296,173.806,214.413,169.435,214.502,170.028z"/>
	</g>
	<g>
		<polyline class="st41" points="197.515,197.969 197.515,229.893 246.849,229.893 		"/>
	</g>
	<g>
		<g>
			<path class="st0" d="M264.379,240.229c0-1.901-1.543-3.445-3.446-3.445c1.903,0,3.446-1.542,3.446-3.445
				c0-1.903-1.543-3.446-3.446-3.446h-6.004h-6.006h-9.713v27.522h9.283c0.141,0.018,0.282,0.043,0.43,0.043h12.01
				c1.903,0,3.446-1.543,3.446-3.445c0-1.903-1.543-3.447-3.446-3.447c1.903,0,3.446-1.542,3.446-3.447
				c0-1.902-1.543-3.445-3.446-3.445C262.836,243.675,264.379,242.133,264.379,240.229z"/>
			<path class="st42" d="M264.379,240.229c0-1.901-1.543-3.445-3.446-3.445c1.903,0,3.446-1.542,3.446-3.445
				c0-1.903-1.543-3.446-3.446-3.446h-6.004h-6.006h-9.713v27.522h9.283c0.141,0.018,0.282,0.043,0.43,0.043h12.01
				c1.903,0,3.446-1.543,3.446-3.445c0-1.903-1.543-3.447-3.446-3.447c1.903,0,3.446-1.542,3.446-3.447
				c0-1.902-1.543-3.445-3.446-3.445C262.836,243.675,264.379,242.133,264.379,240.229z"/>
		</g>
		<g>
			<line class="st42" x1="260.932" y1="236.784" x2="255.741" y2="236.784"/>
		</g>
		<g>
			<line class="st42" x1="260.932" y1="243.675" x2="255.208" y2="243.675"/>
		</g>
		<g>
			<line class="st42" x1="260.932" y1="250.566" x2="255.208" y2="250.566"/>
		</g>
	</g>
	<g>
		<path class="st43" d="M239.21,257.458h-26.909l-22.216-0.012c-7.631,0-13.818-6.184-13.818-13.817v-46.422"/>
	</g>
	<g>
		<polygon class="st15" points="206.212,158.034 185.93,158.034 201.164,176.324 218.863,176.324 234.768,176.324 251.153,158.034 
			230.888,158.034 218.863,173.628 		"/>
		<polygon class="st43" points="206.212,158.034 185.93,158.034 201.164,176.324 218.863,176.324 234.768,176.324 251.153,158.034 
			230.888,158.034 218.863,173.628 		"/>
	</g>
	<g>
		<g>
			<polygon class="st44" points="185.93,169.634 251.794,169.634 251.794,229.909 185.93,229.909 185.93,169.634 			"/>
			<path class="st44" d="M218.862,199.772"/>
		</g>
		<g>
			<polygon class="st42" points="185.93,169.634 251.794,169.634 251.794,229.909 185.93,229.909 185.93,169.634 			"/>
			<path class="st42" d="M218.862,199.772"/>
		</g>
	</g>
	<g>
		<g>
			<polygon class="st21" points="185.93,176.324 251.794,176.324 251.794,229.909 185.93,229.909 185.93,176.324 			"/>
			<path class="st21" d="M218.862,203.116"/>
		</g>
		<g>
			<polygon class="st42" points="185.93,176.324 251.794,176.324 251.794,229.909 185.93,229.909 185.93,176.324 			"/>
			<path class="st42" d="M218.862,203.116"/>
		</g>
	</g>
	<g>
		<g>
			<polygon class="st21" points="185.93,257.415 251.794,257.415 251.794,267.016 185.93,267.016 185.93,257.415 			"/>
			<path class="st21" d="M218.862,262.215"/>
		</g>
		<g>
			<polygon class="st41" points="185.93,257.415 251.794,257.415 251.794,267.016 185.93,267.016 185.93,257.415 			"/>
			<path class="st41" d="M218.862,262.215"/>
		</g>
	</g>
	<g>
		<g>
			<polygon class="st42" points="185.93,257.415 251.794,257.415 251.794,267.016 185.93,267.016 185.93,257.415 			"/>
			<path class="st42" d="M218.862,262.215"/>
		</g>
	</g>
	<g>
		<g>
			<g>
				<line class="st42" x1="193.824" y1="206.003" x2="218.863" y2="206.003"/>
			</g>
			<g>
				<path class="st42" d="M231.963,206.003h9.479H231.963z"/>
			</g>
		</g>
		<g>
			<g>
				<line class="st42" x1="193.824" y1="214.606" x2="218.863" y2="214.606"/>
			</g>
			<g>
				<path class="st42" d="M231.963,214.606h9.479H231.963z"/>
			</g>
		</g>
		<g>
			<g>
				<line class="st42" x1="193.824" y1="223.379" x2="218.863" y2="223.379"/>
			</g>
			<g>
				<path class="st42" d="M231.963,223.379h9.479H231.963z"/>
			</g>
		</g>
	</g>
	<g>
		<g>
			<g>
				<path class="st15" d="M183.867,108.465c0,1.045,0.053,2.074,0.143,3.097c5.433-0.08,9.815-4.501,9.815-9.953
					c0-5.499-4.459-9.958-9.957-9.958v14.017V108.465z"/>
			</g>
			<g>
				<path class="st15" d="M253.229,108.465c0,1.045-0.054,2.074-0.144,3.097c-5.432-0.08-9.814-4.501-9.814-9.953
					c0-5.499,4.458-9.958,9.958-9.958v14.017V108.465z"/>
			</g>
		</g>
		<g>
			<path class="st44" d="M218.549,26.642c-19.156,0-34.682,15.528-34.682,34.682v2.797v20.773h69.363V64.12v-2.797
				C253.229,42.17,237.703,26.642,218.549,26.642z"/>
		</g>
		<g>
			<g>
				<defs>
					<path id="SVGID_1_" d="M218.549,26.642c-19.156,0-34.682,15.528-34.682,34.682v2.797v41.547v2.797
						c0,19.153,15.526,34.68,34.682,34.68c19.154,0,34.68-15.527,34.68-34.68v-2.797V64.12v-2.797
						C253.229,42.17,237.703,26.642,218.549,26.642z"/>
				</defs>
				<use xlink:href="#SVGID_1_"  style="overflow:visible;fill:#F5C792;"/>
				<clipPath id="SVGID_12_">
					<use xlink:href="#SVGID_1_"  style="overflow:visible;"/>
				</clipPath>
				<g class="st45">
					<path class="st46" d="M218.549,27.065c-19.156,0-34.682,15.528-34.682,34.682v21.976h69.363V61.747
						C253.229,42.593,237.703,27.065,218.549,27.065z"/>
				</g>
				
					<use xlink:href="#SVGID_1_"  style="overflow:visible;fill:none;stroke:#A84F3D;stroke-width:3.318;stroke-linecap:round;stroke-linejoin:round;stroke-miterlimit:10;"/>
			</g>
		</g>
		<g>
			<path class="st42" d="M214.679,102.057c0-2.533,2.057-4.59,4.59-4.59c2.536,0,4.593,2.057,4.593,4.59"/>
		</g>
		<g>
			<g>
				<path class="st15" d="M228.605,120.172c0,3.704-3.001,6.707-6.704,6.707h-6.706c-3.705,0-6.708-3.003-6.708-6.707l0,0
					c0-3.705,3.004-6.706,6.708-6.706h6.706C225.604,113.466,228.605,116.467,228.605,120.172L228.605,120.172z"/>
			</g>
			<g>
				<line class="st42" x1="206.318" y1="120.172" x2="230.775" y2="120.172"/>
			</g>
		</g>
		<g>
			<line class="st47" x1="201.439" y1="84.774" x2="201.439" y2="54.897"/>
		</g>
		<g>
			<line class="st47" x1="208.487" y1="84.774" x2="208.487" y2="68.007"/>
		</g>
		<g>
			<line class="st47" x1="230.775" y1="84.774" x2="230.775" y2="61.604"/>
		</g>
		<g>
			<g>
				<path class="st0" d="M183.761,108.437c-5.202,0-9.417-4.215-9.417-9.418l0,0c0-5.202,4.215-9.419,9.417-9.419V108.437z"/>
				<path class="st42" d="M183.761,108.437c-5.202,0-9.417-4.215-9.417-9.418l0,0c0-5.202,4.215-9.419,9.417-9.419V108.437z"/>
			</g>
			<g>
				<path class="st0" d="M253.229,108.437c5.203,0,9.419-4.215,9.419-9.418l0,0c0-5.202-4.216-9.419-9.419-9.419V108.437z"/>
				<path class="st42" d="M253.229,108.437c5.203,0,9.419-4.215,9.419-9.418l0,0c0-5.202-4.216-9.419-9.419-9.419V108.437z"/>
			</g>
		</g>
		<g>
			<path class="st46" d="M266.538,18.675c0,9.396-7.62,17.015-17.016,17.015c-9.398,0-17.015-7.618-17.015-17.015
				c0-9.397,7.617-17.016,17.015-17.016C258.918,1.659,266.538,9.278,266.538,18.675z"/>
			<path class="st42" d="M266.538,18.675c0,9.396-7.62,17.015-17.016,17.015c-9.398,0-17.015-7.618-17.015-17.015
				c0-9.397,7.617-17.016,17.015-17.016C258.918,1.659,266.538,9.278,266.538,18.675z"/>
		</g>
		<g>
			<g>
				<path class="st42" d="M240.436,91.356c-2.829,2.829-7.415,2.828-10.245,0"/>
			</g>
			<g>
				<path class="st42" d="M206.563,91.356c-2.827,2.829-7.415,2.828-10.246,0"/>
			</g>
		</g>
		<g>
			<line class="st42" x1="253.229" y1="84.893" x2="183.867" y2="84.893"/>
		</g>
	</g>
	<g>
		<g>
			<g>
				
					<ellipse transform="matrix(0.9995 -0.0317 0.0317 0.9995 -5.948 7.0477)" class="st48" cx="219.098" cy="190.945" rx="11.298" ry="11.298"/>
				<path class="st48" d="M219.098,190.945"/>
			</g>
		</g>
		<g>
			<g>
				<g>
					<path class="st49" d="M220.343,188.039l-1.466,6.037c-0.049,0.199-0.092,0.356-0.128,0.471
						c-0.037,0.115-0.093,0.205-0.168,0.27c-0.075,0.064-0.184,0.097-0.327,0.097c-0.356,0-0.534-0.154-0.534-0.461
						c0-0.08,0.035-0.281,0.105-0.602l1.461-6.037c0.077-0.321,0.15-0.541,0.22-0.66c0.07-0.119,0.206-0.178,0.408-0.178
						c0.174,0,0.308,0.042,0.401,0.126c0.092,0.084,0.139,0.199,0.139,0.346C220.453,187.555,220.416,187.753,220.343,188.039z"/>
				</g>
			</g>
			<g>
				<path class="st49" d="M216.534,193.911c-0.085,0-0.171-0.02-0.251-0.062l-4.632-2.429c-0.178-0.094-0.29-0.278-0.29-0.48
					c0-0.201,0.112-0.386,0.29-0.48l4.632-2.429c0.264-0.139,0.592-0.037,0.732,0.228c0.139,0.265,0.037,0.593-0.228,0.732
					l-3.716,1.949l3.716,1.949c0.265,0.139,0.367,0.467,0.228,0.732C216.917,193.805,216.729,193.911,216.534,193.911z"/>
			</g>
			<g>
				<path class="st49" d="M221.662,193.911c-0.195,0-0.384-0.106-0.481-0.29c-0.139-0.265-0.037-0.593,0.228-0.732l3.716-1.949
					l-3.716-1.949c-0.265-0.139-0.367-0.466-0.228-0.732c0.139-0.265,0.467-0.367,0.731-0.228l4.632,2.429
					c0.178,0.094,0.29,0.278,0.29,0.48c0,0.202-0.112,0.386-0.29,0.48l-4.632,2.429
					C221.833,193.891,221.747,193.911,221.662,193.911z"/>
			</g>
		</g>
	</g>
	<g>
		<g>
			<path class="st0" d="M171.079,240.229c0-1.901,1.543-3.445,3.446-3.445c-1.903,0-3.446-1.542-3.446-3.445
				c0-1.903,1.543-3.446,3.446-3.446h6.004h6.006h9.713v27.522h-9.283c-0.141,0.018-0.282,0.043-0.43,0.043h-12.01
				c-1.903,0-3.446-1.543-3.446-3.445c0-1.903,1.543-3.447,3.446-3.447c-1.903,0-3.446-1.542-3.446-3.447
				c0-1.902,1.543-3.445,3.446-3.445C172.622,243.675,171.079,242.133,171.079,240.229z"/>
			<path class="st42" d="M171.079,240.229c0-1.901,1.543-3.445,3.446-3.445c-1.903,0-3.446-1.542-3.446-3.445
				c0-1.903,1.543-3.446,3.446-3.446h6.004h6.006h9.713v27.522h-9.283c-0.141,0.018-0.282,0.043-0.43,0.043h-12.01
				c-1.903,0-3.446-1.543-3.446-3.445c0-1.903,1.543-3.447,3.446-3.447c-1.903,0-3.446-1.542-3.446-3.447
				c0-1.902,1.543-3.445,3.446-3.445C172.622,243.675,171.079,242.133,171.079,240.229z"/>
		</g>
		<g>
			<line class="st42" x1="174.525" y1="236.784" x2="179.717" y2="236.784"/>
		</g>
		<g>
			<line class="st42" x1="174.525" y1="243.675" x2="180.25" y2="243.675"/>
		</g>
		<g>
			<line class="st42" x1="174.525" y1="250.566" x2="180.25" y2="250.566"/>
		</g>
	</g>
	<g>
		<path class="st46" d="M204.658,18.675c0,9.396-7.62,17.015-17.017,17.015c-9.398,0-17.015-7.618-17.015-17.015
			c0-9.397,7.617-17.016,17.015-17.016C197.038,1.659,204.658,9.278,204.658,18.675z"/>
		<path class="st42" d="M204.658,18.675c0,9.396-7.62,17.015-17.017,17.015c-9.398,0-17.015-7.618-17.015-17.015
			c0-9.397,7.617-17.016,17.015-17.016C197.038,1.659,204.658,9.278,204.658,18.675z"/>
	</g>
	<g>
		<g>
			<path class="st21" d="M236.022,33.199c0-2.762,2.239-5,5-5s5.001,2.239,5.001,5c0,2.762-2.239,5-5.001,5
				S236.022,35.961,236.022,33.199z"/>
			<path class="st21" d="M241.022,33.199"/>
		</g>
		<g>
			<path class="st20" d="M236.022,33.199c0-2.762,2.239-5,5-5s5.001,2.239,5.001,5c0,2.762-2.239,5-5.001,5
				S236.022,35.961,236.022,33.199z"/>
			<path class="st20" d="M241.022,33.199"/>
		</g>
	</g>
	<g>
		<g>
			<path class="st21" d="M192.268,33.199c0-2.762,2.239-5,5-5c2.762,0,5,2.239,5,5c0,2.762-2.239,5-5,5
				C194.507,38.2,192.268,35.961,192.268,33.199z"/>
			<path class="st21" d="M197.269,33.199"/>
		</g>
		<g>
			<path class="st20" d="M192.268,33.199c0-2.762,2.239-5,5-5c2.762,0,5,2.239,5,5c0,2.762-2.239,5-5,5
				C194.507,38.2,192.268,35.961,192.268,33.199z"/>
			<path class="st20" d="M197.269,33.199"/>
		</g>
	</g>
	<g>
		<path class="st50" d="M285.663,149.41c-1.852,0.394-3.689-0.8-4.083-2.652l-1.026-4.827l-1.586-7.461l-0.707-3.326l2.841-0.604
			c0.166-0.064,0.338-0.115,0.517-0.153l10.819-2.299c0.179-0.038,0.357-0.061,0.535-0.071l11.948-2.539l2.293,10.786l-9.107,1.935
			l1.026,4.827c0.394,1.852-0.799,3.689-2.651,4.083L285.663,149.41z"/>
		<path class="st51" d="M285.663,149.41c-1.852,0.394-3.689-0.8-4.083-2.652l-1.026-4.827l-1.586-7.461l-0.707-3.326l2.841-0.604
			c0.166-0.064,0.338-0.115,0.517-0.153l10.819-2.299c0.179-0.038,0.357-0.061,0.535-0.071l11.948-2.539l2.293,10.786l-9.107,1.935
			l1.026,4.827c0.394,1.852-0.799,3.689-2.651,4.083L285.663,149.41z"/>
	</g>
	<g>
		<g>
			<polygon class="st52" points="432.617,137.47 466.957,137.47 466.957,147.963 432.617,147.963 432.617,137.47 			"/>
			<path class="st52" d="M449.787,142.716"/>
		</g>
	</g>
	<g>
		<g>
			<polygon class="st50" points="437.493,95.703 461.745,95.703 461.745,151.333 437.493,151.333 437.493,95.703 			"/>
			<path class="st50" d="M449.619,123.518"/>
		</g>
		<g>
			<polygon class="st53" points="437.493,95.703 461.745,95.703 461.745,151.333 437.493,151.333 437.493,95.703 			"/>
			<path class="st53" d="M449.619,123.518"/>
		</g>
	</g>
	<g>
		<path class="st19" d="M492.257,274.63V161.344c0-9.758-6.196-17.741-13.769-17.741h-15.837c-10.198,9.136-18.91,9.136-26.133,0
			H420.75c-7.573,0-13.769,7.984-13.769,17.741V274.63H492.257z"/>
	</g>
	<g>
		<rect x="448.93" y="208.202" class="st54" width="1.377" height="65.84"/>
	</g>
	<g>
		<path class="st54" d="M432.672,143.603l16.947,67.146l16.947-67.146C453.684,152.168,442.386,152.168,432.672,143.603z"/>
	</g>
	<g>
		<path class="st21" d="M459.99,145.536c4.11-2.857,6.331-6.701,6.967-8.066v18.296l-17.428-6.284
			C451.03,149.362,455.88,148.393,459.99,145.536z"/>
	</g>
	<g>
		<path class="st21" d="M439.378,145.536c-4.11-2.857-6.187-6.701-6.823-8.066l-0.144,18.296l17.428-6.284
			C448.338,149.362,443.488,148.393,439.378,145.536z"/>
	</g>
	<g>
		<path class="st54" d="M441.615,223.611c0,1.143,0.927,2.07,2.07,2.07c1.143,0,2.07-0.927,2.07-2.07c0-1.144-0.927-2.07-2.07-2.07
			C442.542,221.54,441.615,222.467,441.615,223.611z"/>
	</g>
	<g>
		<g>
			<g>
				<path class="st0" d="M410.752,82.147c-5.821,0-10.539-4.718-10.539-10.539c0-5.821,4.718-10.539,10.539-10.539V82.147z"/>
				<path class="st53" d="M410.752,82.147c-5.821,0-10.539-4.718-10.539-10.539c0-5.821,4.718-10.539,10.539-10.539V82.147z"/>
			</g>
		</g>
		<g>
			<g>
				<path class="st0" d="M486.942,82.147c5.821,0,10.539-4.718,10.539-10.539c0-5.821-4.717-10.539-10.539-10.539V82.147z"/>
				<path class="st53" d="M486.942,82.147c5.821,0,10.539-4.718,10.539-10.539c0-5.821-4.717-10.539-10.539-10.539V82.147z"/>
			</g>
		</g>
		<g>
			<g>
				<path class="st0" d="M410.701,39.939c-0.027,0.597-0.043,1.198-0.043,1.802v41.098c0,21.399,17.346,38.747,38.746,38.747
					c21.393,0,38.74-17.349,38.74-38.747V41.741c0-0.604-0.015-1.204-0.042-1.802H410.701z"/>
				<path class="st55" d="M410.701,39.939c-0.027,0.597-0.043,1.198-0.043,1.802v41.098c0,21.399,17.346,38.747,38.746,38.747
					c21.393,0,38.74-17.349,38.74-38.747V41.741c0-0.604-0.015-1.204-0.042-1.802H410.701z"/>
			</g>
		</g>
		<g>
			<path class="st56" d="M430.2,16.854c-1.045,0.037-3.074,0.203-5.741,0.455c-15.066,2.567-13.832,15.678-13.832,31.474v0.721
				c9.016,0,16.327-7.311,16.327-16.329c0,9.019,7.312,16.329,16.33,16.329l0,0c0,0,27.429,0,31.215,0
				c13.987,0,18.389-16.023,18.389-16.023l-6.975-0.306c0,0,8.064-6.851,8.064-15.638c0-0.232-0.013-0.46-0.018-0.69
				C493.96,16.847,433.853,16.892,430.2,16.854z"/>
			<path class="st57" d="M430.2,16.854c-1.045,0.037-3.074,0.203-5.741,0.455c-15.066,2.567-13.832,15.678-13.832,31.474v0.721
				c9.016,0,16.327-7.311,16.327-16.329c0,9.019,7.312,16.329,16.33,16.329l0,0c0,0,27.429,0,31.215,0
				c13.987,0,18.389-16.023,18.389-16.023l-6.975-0.306c0,0,8.064-6.851,8.064-15.638c0-0.232-0.013-0.46-0.018-0.69
				C493.96,16.847,433.853,16.892,430.2,16.854z"/>
		</g>
		<g>
			<path class="st58" d="M445.771,79.387c0-2.187,1.777-3.964,3.965-3.964c2.19,0,3.964,1.776,3.964,3.964"/>
		</g>
		<g>
			<path class="st56" d="M449.4,110.286c9.563,0,17.343-5.891,17.343-13.131c0-0.988-0.8-1.788-1.788-1.788h-31.111
				c-0.988,0-1.788,0.8-1.788,1.788C432.057,104.396,439.837,110.286,449.4,110.286z M475.852,102.464
				c7.454-7.062,12.103-17.055,12.103-28.134v12.357c0,21.399-17.347,38.747-38.74,38.747c-21.4,0-38.746-17.349-38.746-38.747
				V74.33c0,11.313,4.848,21.494,12.58,28.578c4.219-10.493,14.488-17.902,26.49-17.902
				C461.372,85.006,471.523,92.206,475.852,102.464z"/>
			<path class="st59" d="M449.4,110.286c9.563,0,17.343-5.891,17.343-13.131c0-0.988-0.8-1.788-1.788-1.788h-31.111
				c-0.988,0-1.788,0.8-1.788,1.788C432.057,104.396,439.837,110.286,449.4,110.286z M475.852,102.464
				c7.454-7.062,12.103-17.055,12.103-28.134v12.357c0,21.399-17.347,38.747-38.74,38.747c-21.4,0-38.746-17.349-38.746-38.747
				V74.33c0,11.313,4.848,21.494,12.58,28.578c4.219-10.493,14.488-17.902,26.49-17.902
				C461.372,85.006,471.523,92.206,475.852,102.464z"/>
		</g>
		<g>
			<path class="st57" d="M441.59,102.508h11.046h3.684c2.033,0,3.683-1.649,3.683-3.683"/>
		</g>
		<g>
			<line class="st60" x1="447.631" y1="106.847" x2="450.873" y2="106.847"/>
		</g>
		<g>
			<path class="st61" d="M466.997,69.26c0-3.014,2.449-5.462,5.465-5.462c3.018,0,5.463,2.448,5.463,5.462"/>
		</g>
		<g>
			<path class="st61" d="M420.392,68.229c0-3.014,2.449-5.462,5.465-5.462c3.018,0,5.463,2.448,5.463,5.462"/>
		</g>
		<g>
			<g>
				<g>
					<g>
						<path class="st7" d="M436.157,80.362h-20.487c-4.041,0-7.327-3.289-7.327-7.324v-13.23c0-4.048,3.286-7.331,7.327-7.331
							h20.487c4.044,0,7.334,3.283,7.334,7.331v13.23C443.491,77.073,440.202,80.362,436.157,80.362z M415.671,56.078
							c-2.054,0-3.727,1.673-3.727,3.73v13.23c0,2.05,1.673,3.72,3.727,3.72h20.487c2.054,0,3.727-1.67,3.727-3.72v-13.23
							c0-2.057-1.673-3.73-3.727-3.73H415.671z"/>
					</g>
				</g>
				<g>
					<g>
						<path class="st7" d="M483.561,80.362h-20.484c-4.041,0-7.333-3.289-7.333-7.324v-13.23c0-4.048,3.292-7.331,7.333-7.331
							h20.484c4.044,0,7.337,3.283,7.337,7.331v13.23C490.898,77.073,487.606,80.362,483.561,80.362z M463.077,56.078
							c-2.056,0-3.733,1.673-3.733,3.73v13.23c0,2.05,1.676,3.72,3.733,3.72h20.484c2.057,0,3.726-1.67,3.726-3.72v-13.23
							c0-2.057-1.669-3.73-3.726-3.73H463.077z"/>
					</g>
				</g>
			</g>
			<g>
				<g>
					<g>
						<polygon class="st7" points="441.689,61.133 457.546,61.133 457.546,64.737 441.689,64.737 441.689,61.133 						"/>
						<path class="st7" d="M449.617,62.935"/>
					</g>
				</g>
			</g>
		</g>
	</g>
	<g>
		<g>
			<path class="st62" d="M540.471,130.657c0,1.991-1.629,3.621-3.62,3.621h-26.791c-1.991,0-3.62-1.629-3.62-3.621v-37.66
				c0-1.991,1.629-3.62,3.62-3.62h26.791c1.991,0,3.62,1.629,3.62,3.62V130.657z"/>
			<path class="st63" d="M540.471,130.657c0,1.991-1.629,3.621-3.62,3.621h-26.791c-1.991,0-3.62-1.629-3.62-3.621v-37.66
				c0-1.991,1.629-3.62,3.62-3.62h26.791c1.991,0,3.62,1.629,3.62,3.62V130.657z"/>
		</g>
		<g>
			<path class="st62" d="M545.939,123.603h-9.451c-3.194,0-5.793-2.599-5.793-5.793v-13.876c0-3.194,2.599-5.793,5.793-5.793h9.451
				c3.194,0,5.793,2.599,5.793,5.793v13.876C551.732,121.004,549.133,123.603,545.939,123.603z M536.488,102.485
				c-0.785,0-1.448,0.663-1.448,1.448v13.876c0,0.785,0.663,1.448,1.448,1.448h9.451c0.785,0,1.448-0.663,1.448-1.448v-13.876
				c0-0.785-0.663-1.448-1.448-1.448H536.488z"/>
		</g>
		<g>
			<path class="st50" d="M541.319,105.144c0-1.893,1.549-3.442,3.442-3.442h4.935h7.627h3.4v2.905
				c0.028,0.175,0.042,0.355,0.042,0.537v11.061c0,0.183-0.014,0.362-0.042,0.538v12.215h-11.027v-9.311h-4.935
				c-1.893,0-3.442-1.549-3.442-3.442V105.144z"/>
			<path class="st53" d="M541.319,105.144c0-1.893,1.549-3.442,3.442-3.442h4.935h7.627h3.4v2.905
				c0.028,0.175,0.042,0.355,0.042,0.537v11.061c0,0.183-0.014,0.362-0.042,0.538v12.215h-11.027v-9.311h-4.935
				c-1.893,0-3.442-1.549-3.442-3.442V105.144z"/>
		</g>
		<g>
			<path class="st21" d="M530.736,102.794h-14.514l-3.533,4.144l10.744,12.595l10.784-12.636L530.736,102.794z M531.638,101.24
				l4.838,5.615l-13.042,15.374l-12.851-15.373l4.838-5.615L531.638,101.24z M531.002,108.169c0.236,0.332,0.236,0.638,0,0.92
				l-4.26,4.549h-2.661l4.42-4.711c0.193-0.161,0.193-0.327,0-0.5l-2.516-2.695l-2.732,7.099c-0.147,0.371-0.389,0.64-0.726,0.807
				h-2.236l-4.299-4.518c-0.236-0.332-0.236-0.638,0-0.92l4.26-4.549h2.661l-4.42,4.711c-0.193,0.161-0.193,0.327,0,0.5l2.549,2.703
				l2.807-7.367c0.095-0.316,0.294-0.498,0.598-0.548h2.29h0.039L531.002,108.169z"/>
		</g>
		<g>
			<path class="st21" d="M536.236,37.305h-18.808c-1.877,0-3.403,3.439-3.403,7.666c0,4.226,1.527,7.665,3.403,7.665l4.419,0.002
				c0.289,0,0.612,0.842,0.612,1.97c0,1.129-0.323,1.972-0.612,1.972h-11.931c-1.877,0-3.403,3.439-3.403,7.667
				c0,4.227,1.526,7.666,3.403,7.666h10.881l0.039,0.077l0.158-0.095c0.038,0.01,0.09,0.044,0.141,0.145
				c0.175,0.344,0.361,1.372,0.361,3.225v11.361h2.791V75.265c0-3.48-0.46-6.038-1.366-7.602c-0.865-1.492-1.804-1.515-2.2-1.444
				h-10.804c-0.289,0-0.613-0.843-0.613-1.971c0-1.129,0.323-1.973,0.613-1.973h11.931c1.876,0,3.403-3.44,3.403-7.666
				c0-4.227-1.527-7.665-3.403-7.665l-4.419-0.001c-0.289,0-0.612-0.843-0.612-1.971c0-1.128,0.323-1.971,0.612-1.971h18.808
				c0.771,0,1.396-1.275,1.396-2.848C537.631,38.58,537.007,37.305,536.236,37.305z"/>
		</g>
	</g>
	<g>
		<path class="st19" d="M476.119,162.403c4.832,9.536,37.545,15.782,52.359,11.253c21.823-6.672,36.335-26.162,36.693-47.837
			l-21.459-0.508c2.14,13.645-10.486,24.958-21.154,28.982c-19.485,7.351-44.146-15.766-41.332-8.901
			C481.226,145.391,466.597,156.431,476.119,162.403z"/>
	</g>
	<g>
		<path class="st54" d="M441.615,239.564c0,1.144,0.927,2.07,2.07,2.07c1.143,0,2.07-0.927,2.07-2.07c0-1.144-0.927-2.07-2.07-2.07
			C442.542,237.494,441.615,238.421,441.615,239.564z"/>
	</g>
	<g>
		<path class="st54" d="M441.615,255.518c0,1.143,0.927,2.07,2.07,2.07c1.143,0,2.07-0.927,2.07-2.07c0-1.144-0.927-2.07-2.07-2.07
			C442.542,253.447,441.615,254.374,441.615,255.518z"/>
	</g>
	<g>
		<g>
			<path class="st21" d="M494.693,175.792l-36.107,5.718c-0.184,0.029-0.311,0.202-0.282,0.385l4.069,25.691
				c0.029,0.184,0.203,0.309,0.387,0.28l36.107-5.719c0.185-0.029,0.309-0.202,0.28-0.386l-4.069-25.691
				C495.05,175.889,494.878,175.763,494.693,175.792z M475.311,180.523l3.169-0.502c0.356-0.056,0.69,0.188,0.746,0.542
				c0.057,0.356-0.186,0.691-0.542,0.747l-3.169,0.502c-0.355,0.056-0.688-0.187-0.745-0.544
				C474.714,180.915,474.956,180.579,475.311,180.523z"/>
		</g>
		<g>
			<path class="st64" d="M498.052,201.727l-34.648,5.488c-0.28,0.044-0.546-0.147-0.59-0.427l-3.844-24.27
				c-0.044-0.278,0.149-0.542,0.429-0.586l34.648-5.487c0.281-0.044,0.544,0.147,0.589,0.425l3.844,24.27
				C498.525,201.419,498.333,201.683,498.052,201.727z M459.46,182.312c-0.072,0.011-0.12,0.077-0.109,0.146l3.844,24.27
				c0.011,0.07,0.077,0.119,0.149,0.107l34.648-5.488c0.072-0.011,0.119-0.078,0.108-0.148l-3.844-24.27
				c-0.011-0.069-0.077-0.117-0.148-0.106L459.46,182.312z"/>
		</g>
		<g>
			<g>
				<polygon class="st21" points="483.05,182.542 492.352,181.07 494.109,192.165 484.808,193.638 483.05,182.542 				"/>
				<path class="st21" d="M488.58,187.354"/>
			</g>
		</g>
		<g>
			<path class="st65" d="M493.655,192.071c0.028-0.137,0.031-0.284,0.006-0.443c-0.16-1.013-1.548-1.684-3.07-1.851l-2.938,0.465
				c-1.394,0.629-2.508,1.697-2.347,2.709c0.025,0.158,0.073,0.298,0.141,0.42L493.655,192.071z"/>
		</g>
		<g>
			<path class="st0" d="M491.089,186.642l-0.03,0.008c-0.039-0.568-0.298-1.985-1.279-2.644l-1.658-0.31l-1.482,0.807
				c-0.729,0.93-0.539,2.357-0.398,2.909l-0.033,0.002c-0.133,0.045-0.169,0.292-0.082,0.555c0.086,0.264,0.263,0.442,0.395,0.399
				l0.087-0.086c0.329,0.536,0.826,1.064,1.163,1.347c0,0,0.721,0.506,1.35,0.387c0.635-0.081,1.162-0.785,1.162-0.785
				c0.236-0.374,0.541-1.029,0.691-1.641l0.112,0.055c0.136,0.001,0.249-0.223,0.251-0.501
				C491.342,186.867,491.229,186.643,491.089,186.642z"/>
		</g>
		<g>
			<path class="st66" d="M490.882,187.05c0.095,0.599-0.11,1.182-0.511,1.618c-0.343-0.408-0.915-0.63-1.516-0.535
				c-0.61,0.097-1.089,0.495-1.285,0.999c-0.531-0.289-0.918-0.787-1.014-1.397l0.1,0.633c0.173,1.095,1.282,1.83,2.477,1.64
				l0.005-0.001l0.006-0.001c0.626-0.099,1.15-0.431,1.483-0.883l-0.003-0.009c0.299-0.409,0.44-0.915,0.358-1.432L490.882,187.05z
				 M488.027,188.58l1.737-0.275c0.054-0.009,0.107,0.025,0.115,0.076c0.059,0.371-0.329,0.741-0.862,0.825
				c-0.534,0.085-1.017-0.148-1.075-0.519C487.933,188.637,487.972,188.589,488.027,188.58z"/>
		</g>
		<g>
			<polygon class="st67" points="488.253,190.986 487.557,190.114 487.768,189.686 488.914,190.05 			"/>
		</g>
		<g>
			<polygon class="st67" points="490.248,190.67 489.331,189.984 490.309,189.284 490.643,189.625 			"/>
		</g>
		<g>
			<path class="st68" d="M486.502,186.33l-0.004,0.018L486.502,186.33z"/>
		</g>
		<g>
			<path class="st66" d="M486.69,186.659c0.191,0.077,0.671,0.29,1.275-0.162c0.252-0.19,1.138-0.872,1.352-0.94
				c0.179-0.082,0.374-0.134,0.593-0.155l0.117-0.011c0,0,0.635-0.202,1.033,1.258c-0.053-0.806-0.554-3.331-2.938-2.954
				c-2.385,0.378-2.08,2.934-1.88,3.717c0,0,0.068-0.583,0.1-0.719c0.034-0.136,0.159-0.363,0.159-0.363
				C486.492,186.48,486.575,186.587,486.69,186.659z"/>
		</g>
		<g>
			<polygon class="st69" points="489.434,190.298 488.913,190.38 488.828,190.723 489.159,191.053 489.408,191.014 489.621,190.597 
							"/>
		</g>
		<g>
			<polygon class="st69" points="489.808,192.68 489.448,191.149 489.161,191.194 489.294,192.762 			"/>
		</g>
		<g>
			<polygon class="st67" points="488.253,190.986 487.557,190.114 487.768,189.686 488.914,190.05 			"/>
		</g>
		<g>
			<polygon class="st70" points="490.248,190.67 489.331,189.984 490.309,189.284 490.643,189.625 			"/>
		</g>
		<g>
			<path class="st68" d="M486.502,186.33l-0.004,0.018L486.502,186.33z"/>
		</g>
		<g>
			<polygon class="st71" points="489.434,190.298 488.913,190.38 488.828,190.723 489.159,191.053 489.408,191.014 489.621,190.597 
							"/>
		</g>
		<g>
			<polygon class="st71" points="489.808,192.68 489.448,191.149 489.161,191.194 489.294,192.762 			"/>
		</g>
		<g>
			<g>
				<polygon class="st64" points="463.363,185.66 479.911,183.04 480.281,185.37 463.732,187.991 463.363,185.66 				"/>
				<path class="st64" d="M471.822,185.515"/>
			</g>
		</g>
		<g>
			<g>
				<polygon class="st64" points="463.305,192.01 481.927,189.062 482.135,190.373 463.513,193.322 463.305,192.01 				"/>
				<path class="st64" d="M472.72,191.192"/>
			</g>
		</g>
		<g>
			<g>
				<polygon class="st64" points="463.885,195.667 482.507,192.718 482.714,194.028 464.092,196.977 463.885,195.667 				"/>
				<path class="st64" d="M473.299,194.848"/>
			</g>
		</g>
		<g>
			<g>
				<polygon class="st64" points="464.464,199.325 494.49,194.57 494.697,195.877 464.671,200.632 464.464,199.325 				"/>
				<path class="st64" d="M479.581,197.601"/>
			</g>
		</g>
		<g>
			<g>
				<polygon class="st64" points="465.043,202.98 495.069,198.226 495.277,199.535 465.251,204.29 465.043,202.98 				"/>
				<path class="st64" d="M480.16,201.258"/>
			</g>
		</g>
		<g>
			<path class="st64" d="M494.506,192.413l-9.762,1.546l-1.891-11.94l9.762-1.546L494.506,192.413z M485.304,193.186l8.429-1.335
				l-1.68-10.604l-8.429,1.335L485.304,193.186z"/>
		</g>
		<g>
			<path class="st72" d="M476.877,180.275l-1.491,0.236l0.097,0.611l2.984-0.473l-1.493,0.236L476.877,180.275z M475.9,174.107
				l-1.491,0.236l0.72,4.548l1.491-0.236L475.9,174.107z"/>
		</g>
		<g>
			<path class="st72" d="M476.766,179.571l-1.491,0.236l0.111,0.704l1.491-0.236L476.766,179.571z M476.62,178.655l-1.491,0.236
				l0.085,0.537l1.491-0.236L476.62,178.655z"/>
		</g>
		<g>
			<g>
				<polygon class="st73" points="475.127,179.506 476.618,179.27 476.678,179.649 475.187,179.885 475.127,179.506 				"/>
				<path class="st73" d="M475.903,179.577"/>
			</g>
		</g>
		<g>
			<path class="st74" d="M478.369,180.038l-1.492,0.236l0.097,0.611l1.493-0.236L478.369,180.038z M477.393,173.871l-1.492,0.236
				l0.72,4.548l1.492-0.236L477.393,173.871z"/>
		</g>
		<g>
			<path class="st74" d="M478.258,179.335l-1.492,0.236l0.111,0.704l1.492-0.236L478.258,179.335z M478.113,178.418l-1.492,0.236
				l0.085,0.537l1.493-0.236L478.113,178.418z"/>
		</g>
		<g>
			<g>
				<polygon class="st75" points="476.618,179.27 478.111,179.033 478.171,179.413 476.678,179.649 476.618,179.27 				"/>
				<path class="st75" d="M477.395,179.341"/>
			</g>
		</g>
		<g>
			<path class="st76" d="M475.78,176.936c-0.049-0.306,0.161-0.595,0.467-0.644l-0.066-0.415c-0.536,0.085-0.903,0.588-0.818,1.125
				c0.085,0.538,0.59,0.904,1.125,0.82l-0.066-0.418C476.117,177.453,475.828,177.244,475.78,176.936z"/>
		</g>
		<g>
			<path class="st70" d="M475.78,176.936c0.049,0.308,0.338,0.516,0.643,0.468l-0.176-1.112
				C475.941,176.341,475.731,176.63,475.78,176.936z"/>
		</g>
		<g>
			<path class="st70" d="M477.307,176.695c-0.085-0.537-0.589-0.902-1.126-0.817l0.066,0.415c0.308-0.049,0.597,0.161,0.646,0.468
				c0.049,0.308-0.161,0.595-0.47,0.644l0.066,0.418C477.025,177.737,477.392,177.232,477.307,176.695z"/>
		</g>
		<g>
			<path class="st76" d="M476.892,176.76c-0.049-0.306-0.338-0.516-0.646-0.468l0.176,1.112
				C476.73,177.356,476.941,177.068,476.892,176.76z"/>
		</g>
		<g>
			<g>
				<polygon class="st65" points="473.865,171.542 476.849,171.069 477.358,174.282 474.374,174.755 473.865,171.542 				"/>
				<path class="st65" d="M475.612,172.912"/>
			</g>
		</g>
		<g>
			<g>
				<polygon class="st64" points="475.414,171.297 476.849,171.069 477.358,174.282 475.923,174.509 475.414,171.297 				"/>
				<path class="st64" d="M476.386,172.789"/>
			</g>
		</g>
	</g>
	<g>
		<line class="st77" x1="107.595" y1="417.308" x2="107.595" y2="288.929"/>
	</g>
	<g>
		<line class="st77" x1="85.764" y1="417.308" x2="85.764" y2="288.929"/>
	</g>
	<g>
		<line class="st78" x1="98.207" y1="289.259" x2="98.207" y2="276.245"/>
	</g>
	<g>
		<line class="st79" x1="216.182" y1="343.418" x2="216.182" y2="270.367"/>
	</g>
	<g>
		<line class="st8" x1="289.969" y1="273.831" x2="379.315" y2="273.831"/>
	</g>
	<g>
		<g>
			<path class="st80" d="M398.53,283.304c3.743,0,6.777,3.017,6.777,6.739v124.851c0,3.722-3.034,6.739-6.777,6.739H233.215
				c-3.743,0-6.777-3.017-6.777-6.739V290.044c0-3.722,3.035-6.739,6.777-6.739H398.53z"/>
		</g>
		<g>
			<g>
				<polygon class="st81" points="236.063,292.611 395.682,292.611 395.682,412.328 236.063,412.328 236.063,292.611 				"/>
				<path class="st81" d="M315.872,352.47"/>
			</g>
		</g>
		<g>
			<g>
				<polygon class="st81" points="236.063,292.611 251.337,292.611 251.337,412.328 236.063,412.328 236.063,292.611 				"/>
				<path class="st81" d="M243.7,352.47"/>
			</g>
		</g>
		<g>
			<g>
				<polygon class="st21" points="251.337,301.677 253.87,301.677 253.87,412.327 251.337,412.327 251.337,301.677 				"/>
				<path class="st21" d="M252.604,357.002"/>
			</g>
		</g>
		<g>
			<polygon class="st82" points="395.682,292.611 251.337,292.611 251.337,301.987 251.337,301.677 253.87,301.677 253.87,301.987 
				395.682,301.987 			"/>
		</g>
		<g>
			<g>
				<polygon class="st82" points="236.063,292.611 251.337,292.611 251.337,301.987 236.063,301.987 236.063,292.611 				"/>
				<path class="st82" d="M243.7,297.299"/>
			</g>
		</g>
		<g>
			<g>
				<polygon class="st21" points="251.337,301.677 253.87,301.677 253.87,301.987 251.337,301.987 251.337,301.677 				"/>
				<path class="st21" d="M252.604,301.832"/>
			</g>
		</g>
		<g>
			<circle class="st83" cx="242.377" cy="297.299" r="2.532"/>
		</g>
		<g>
			<path class="st84" d="M251.922,297.299c0,1.399-1.134,2.532-2.532,2.532s-2.532-1.134-2.532-2.532
				c0-1.398,1.134-2.532,2.532-2.532S251.922,295.9,251.922,297.299z"/>
		</g>
		<g>
			<path class="st85" d="M258.934,297.299c0,1.399-1.134,2.532-2.532,2.532s-2.532-1.134-2.532-2.532
				c0-1.398,1.134-2.532,2.532-2.532S258.934,295.9,258.934,297.299z"/>
		</g>
		<g>
			<g>
				<polygon class="st86" points="240.055,305.552 247.345,305.552 247.345,309.187 240.055,309.187 240.055,305.552 				"/>
				<path class="st86" d="M243.7,307.369"/>
			</g>
		</g>
		<g>
			<g>
				<polygon class="st83" points="256.244,313.895 268.405,313.895 268.405,317.53 256.244,317.53 256.244,313.895 				"/>
				<path class="st83" d="M262.324,315.712"/>
			</g>
		</g>
		<g>
			<g>
				<polygon class="st86" points="240.055,313.895 247.345,313.895 247.345,317.53 240.055,317.53 240.055,313.895 				"/>
				<path class="st86" d="M243.7,315.712"/>
			</g>
		</g>
		<g>
			<g>
				<polygon class="st86" points="240.055,362.465 247.345,362.465 247.345,366.1 240.055,366.1 240.055,362.465 				"/>
				<path class="st86" d="M243.7,364.283"/>
			</g>
		</g>
		<g>
			<g>
				<polygon class="st83" points="256.244,362.465 268.405,362.465 268.405,366.101 256.244,366.101 256.244,362.465 				"/>
				<path class="st83" d="M262.324,364.283"/>
			</g>
		</g>
		<g>
			<g>
				<polygon class="st86" points="240.055,370.56 247.345,370.56 247.345,374.195 240.055,374.195 240.055,370.56 				"/>
				<path class="st86" d="M243.7,372.378"/>
			</g>
		</g>
		<g>
			<g>
				<polygon class="st83" points="256.244,370.56 268.405,370.56 268.405,374.196 256.244,374.196 256.244,370.56 				"/>
				<path class="st83" d="M262.324,372.378"/>
			</g>
		</g>
		<g>
			<g>
				<polygon class="st86" points="240.055,394.846 247.345,394.846 247.345,398.481 240.055,398.481 240.055,394.846 				"/>
				<path class="st86" d="M243.7,396.663"/>
			</g>
		</g>
		<g>
			<g>
				<polygon class="st86" points="240.055,402.946 247.345,402.946 247.345,406.581 240.055,406.581 240.055,402.946 				"/>
				<path class="st86" d="M243.7,404.764"/>
			</g>
		</g>
		<g>
			<g>
				<polygon class="st83" points="256.244,394.845 268.405,394.845 268.405,398.481 256.244,398.481 256.244,394.845 				"/>
				<path class="st83" d="M262.324,396.663"/>
			</g>
		</g>
		<g>
			<g>
				<polygon class="st86" points="240.055,378.656 247.345,378.656 247.345,382.29 240.055,382.29 240.055,378.656 				"/>
				<path class="st86" d="M243.7,380.473"/>
			</g>
		</g>
		<g>
			<g>
				<polygon class="st87" points="261.164,378.656 287.568,378.656 287.568,382.291 261.164,382.291 261.164,378.656 				"/>
				<path class="st87" d="M274.366,380.473"/>
			</g>
		</g>
		<g>
			<g>
				<polygon class="st85" points="292.007,378.656 322.63,378.656 322.63,382.291 292.007,382.291 292.007,378.656 				"/>
				<path class="st85" d="M307.318,380.473"/>
			</g>
		</g>
		<g>
			<g>
				<polygon class="st88" points="326.874,378.656 345.887,378.656 345.887,382.291 326.874,382.291 326.874,378.656 				"/>
				<path class="st88" d="M336.38,380.473"/>
			</g>
		</g>
		<g>
			<g>
				<polygon class="st86" points="240.055,321.99 247.345,321.99 247.345,325.625 240.055,325.625 240.055,321.99 				"/>
				<path class="st86" d="M243.7,323.807"/>
			</g>
		</g>
		<g>
			<g>
				<polygon class="st87" points="260.719,321.99 272.88,321.99 272.88,325.625 260.719,325.625 260.719,321.99 				"/>
				<path class="st87" d="M266.799,323.807"/>
			</g>
		</g>
		<g>
			<g>
				<polygon class="st89" points="276.618,321.99 295.685,321.99 295.685,325.625 276.618,325.625 276.618,321.99 				"/>
				<path class="st89" d="M286.152,323.807"/>
			</g>
		</g>
		<g>
			<g>
				<polygon class="st86" points="240.055,330.085 247.345,330.085 247.345,333.72 240.055,333.72 240.055,330.085 				"/>
				<path class="st86" d="M243.7,331.903"/>
			</g>
		</g>
		<g>
			<g>
				<polygon class="st85" points="331.678,330.085 350.745,330.085 350.745,333.72 331.678,333.72 331.678,330.085 				"/>
				<path class="st85" d="M341.212,331.902"/>
			</g>
		</g>
		<g>
			<g>
				<polygon class="st90" points="260.719,330.085 286.114,330.085 286.114,333.72 260.719,333.72 260.719,330.085 				"/>
				<path class="st90" d="M273.417,331.902"/>
			</g>
		</g>
		<g>
			<g>
				<polygon class="st88" points="288.595,330.085 328.41,330.085 328.41,333.72 288.595,333.72 288.595,330.085 				"/>
				<path class="st88" d="M308.502,331.902"/>
			</g>
		</g>
		<g>
			<g>
				<polygon class="st86" points="240.055,354.37 247.345,354.37 247.345,358.005 240.055,358.005 240.055,354.37 				"/>
				<path class="st86" d="M243.7,356.188"/>
			</g>
		</g>
		<g>
			<g>
				<polygon class="st91" points="260.719,354.37 300.534,354.37 300.534,358.005 260.719,358.005 260.719,354.37 				"/>
				<path class="st91" d="M280.626,356.188"/>
			</g>
		</g>
		<g>
			<g>
				<polygon class="st92" points="306.982,354.37 331.678,354.37 331.678,358.005 306.982,358.005 306.982,354.37 				"/>
				<path class="st92" d="M319.33,356.188"/>
			</g>
		</g>
		<g>
			<g>
				<polygon class="st90" points="336.59,354.37 361.286,354.37 361.286,358.005 336.59,358.005 336.59,354.37 				"/>
				<path class="st90" d="M348.938,356.188"/>
			</g>
		</g>
		<g>
			<g>
				<polygon class="st86" points="240.055,346.275 247.345,346.275 247.345,349.91 240.055,349.91 240.055,346.275 				"/>
				<path class="st86" d="M243.7,348.093"/>
			</g>
		</g>
		<g>
			<g>
				<polygon class="st87" points="260.719,346.275 300.534,346.275 300.534,349.91 260.719,349.91 260.719,346.275 				"/>
				<path class="st87" d="M280.626,348.093"/>
			</g>
		</g>
		<g>
			<g>
				<polygon class="st93" points="304.606,346.275 344.421,346.275 344.421,349.91 304.606,349.91 304.606,346.275 				"/>
				<path class="st93" d="M324.514,348.093"/>
			</g>
		</g>
		<g>
			<g>
				<polygon class="st86" points="240.055,386.751 247.345,386.751 247.345,390.386 240.055,390.386 240.055,386.751 				"/>
				<path class="st86" d="M243.7,388.568"/>
			</g>
		</g>
		<g>
			<g>
				<polygon class="st94" points="261.587,386.751 301.402,386.751 301.402,390.386 261.587,390.386 261.587,386.751 				"/>
				<path class="st94" d="M281.495,388.568"/>
			</g>
		</g>
		<g>
			<g>
				<polygon class="st90" points="308.502,386.751 348.317,386.751 348.317,390.386 308.502,390.386 308.502,386.751 				"/>
				<path class="st90" d="M328.41,388.568"/>
			</g>
		</g>
		<g>
			<g>
				<polygon class="st86" points="240.055,338.18 247.345,338.18 247.345,341.815 240.055,341.815 240.055,338.18 				"/>
				<path class="st86" d="M243.7,339.997"/>
			</g>
		</g>
		<g>
			<g>
				<polygon class="st95" points="260.719,338.18 279.786,338.18 279.786,341.815 260.719,341.815 260.719,338.18 				"/>
				<path class="st95" d="M270.252,339.998"/>
			</g>
		</g>
		<g>
			<g>
				<polygon class="st96" points="284.699,338.18 324.514,338.18 324.514,341.815 284.699,341.815 284.699,338.18 				"/>
				<path class="st96" d="M304.606,339.998"/>
			</g>
		</g>
		<g>
			<polygon class="st21" points="260.848,305.053 260.312,304.517 257.461,307.367 257.463,307.369 257.461,307.371 
				260.312,310.222 260.848,309.685 258.532,307.369 			"/>
		</g>
		<g>
			<g>
				<polygon class="st21" points="264.055,305.552 271.345,305.552 271.345,309.187 264.055,309.187 264.055,305.552 				"/>
				<path class="st21" d="M267.7,307.369"/>
			</g>
		</g>
		<g>
			<polygon class="st21" points="274.551,305.053 275.088,304.517 277.938,307.367 277.936,307.369 277.938,307.371 
				275.088,310.222 274.551,309.685 276.868,307.369 			"/>
		</g>
		<g>
			<polygon class="st21" points="260.848,402.447 260.312,401.911 257.461,404.761 257.463,404.764 257.461,404.766 
				260.312,407.616 260.848,407.08 258.532,404.764 			"/>
		</g>
		<g>
			<polygon class="st21" points="271.434,402.447 271.971,401.911 274.822,404.761 274.819,404.764 274.822,404.766 
				271.971,407.616 271.434,407.08 273.751,404.764 			"/>
		</g>
		<g>
			
				<rect x="262.771" y="404.449" transform="matrix(0.7068 -0.7074 0.7074 0.7068 -208.3041 306.956)" class="st21" width="6.741" height="0.63"/>
		</g>
		<g>
			<g>
				<polygon class="st80" points="290.439,417.653 341.212,417.653 341.212,443.071 290.439,443.071 290.439,417.653 				"/>
				<path class="st80" d="M315.826,430.362"/>
			</g>
		</g>
		<g>
			<g>
				<polygon class="st80" points="269.659,439.847 362.087,439.847 362.087,446.296 269.659,446.296 269.659,439.847 				"/>
				<path class="st80" d="M315.873,443.071"/>
			</g>
		</g>
	</g>
</g>
</svg>