<!-- Generator: Adobe Illustrator 19.0.0, SVG Export Plug-In  -->
<svg version="1.1"
	 xmlns="http://www.w3.org/2000/svg" xmlns:xlink="http://www.w3.org/1999/xlink" xmlns:a="http://ns.adobe.com/AdobeSVGViewerExtensions/3.0/"
	 x="0px" y="0px" width="183.528px" height="88.542px" viewBox="0 0 183.528 88.542"
	 style="overflow:scroll;enable-background:new 0 0 183.528 88.542;" xml:space="preserve">
<style type="text/css">
	.st0{fill:#FFFFFF;}
	.st1{fill:url(#XMLID_42_);}
	.st2{fill:url(#XMLID_43_);}
	.st3{fill:url(#XMLID_44_);}
	.st4{fill:url(#XMLID_45_);}
</style>
<defs>
</defs>
<g id="XMLID_38_">
	<path id="XMLID_41_" class="st0" d="M96.785,0.001c-2.031,0-3.417,1.528-3.935,2.997L78.574,40.529c2.131,0,5.586,0,8.409,0
		c1.838,0,2.895-1.43,3.471-2.694l14.299-37.834C102.614,0.001,99.566,0.001,96.785,0.001z"/>
	<linearGradient id="XMLID_42_" gradientUnits="userSpaceOnUse" x1="93.2507" y1="28.1838" x2="78.3751" y2="15.32">
		<stop  offset="0" style="stop-color:#000000"/>
		<stop  offset="0.0447" style="stop-color:#190F11"/>
		<stop  offset="0.0991" style="stop-color:#392827"/>
		<stop  offset="0.1591" style="stop-color:#5D4A45"/>
		<stop  offset="0.2235" style="stop-color:#826F67"/>
		<stop  offset="0.2933" style="stop-color:#A4958B"/>
		<stop  offset="0.3706" style="stop-color:#C3B8B0"/>
		<stop  offset="0.4583" style="stop-color:#DDD7D0"/>
		<stop  offset="0.5628" style="stop-color:#F0EDEA"/>
		<stop  offset="0.7003" style="stop-color:#FCFBFA"/>
		<stop  offset="1" style="stop-color:#FFFFFF"/>
	</linearGradient>
	<path id="XMLID_40_" class="st1" d="M78.574,40.529l3.183-8.368L71.347,21.125l0.01-0.01c-0.201-0.222-0.324-0.515-0.324-0.837
		c0-0.322,0.123-0.614,0.324-0.837l-0.01-0.01L89.683,0h-9.354c-1.108,0-2.112,0.433-2.855,1.133L61.986,17.547l0.007,0.007
		c-0.655,0.724-1.056,1.677-1.056,2.724c0,1.048,0.401,2,1.056,2.724l-0.007,0.007l16.55,17.547l0.11-0.028
		C78.622,40.529,78.597,40.529,78.574,40.529z"/>
	<linearGradient id="XMLID_43_" gradientUnits="userSpaceOnUse" x1="90.0679" y1="13.9323" x2="107.799" y2="26.2783">
		<stop  offset="0" style="stop-color:#000000"/>
		<stop  offset="0.0447" style="stop-color:#190F11"/>
		<stop  offset="0.0991" style="stop-color:#392827"/>
		<stop  offset="0.1591" style="stop-color:#5D4A45"/>
		<stop  offset="0.2235" style="stop-color:#826F67"/>
		<stop  offset="0.2933" style="stop-color:#A4958B"/>
		<stop  offset="0.3706" style="stop-color:#C3B8B0"/>
		<stop  offset="0.4583" style="stop-color:#DDD7D0"/>
		<stop  offset="0.5628" style="stop-color:#F0EDEA"/>
		<stop  offset="0.7003" style="stop-color:#FCFBFA"/>
		<stop  offset="1" style="stop-color:#FFFFFF"/>
	</linearGradient>
	<path id="XMLID_39_" class="st2" d="M122.351,20.279c0-1.048-0.401-2-1.056-2.724l0.007-0.007L104.752,0l-0.006,0.001
		c0.002,0,0.004,0,0.005,0l-3.186,8.431l10.375,11l-0.01,0.01c0.201,0.222,0.324,0.515,0.324,0.837c0,0.322-0.123,0.614-0.324,0.837
		l0.01,0.01L93.612,40.557h9.346c1.108,0,2.112-0.433,2.855-1.133h0.007l15.481-16.414l-0.007-0.007
		C121.95,22.279,122.351,21.326,122.351,20.279z"/>
</g>
<path id="XMLID_36_" class="st0" d="M86.504,80.285v-3.072c2.368,0.768,4.762,1.152,7.182,1.152c3.214,0,4.82-0.96,4.82-2.881
	c0-1.792-1.12-2.688-3.36-2.688h-2.88c-4.353,0-6.529-1.984-6.529-5.953c0-3.841,2.798-5.761,8.392-5.761
	c2.407,0,4.794,0.32,7.163,0.96v3.072c-2.369-0.768-4.756-1.152-7.163-1.152c-3.355,0-5.031,0.96-5.031,2.881
	c0,1.792,1.056,2.688,3.169,2.688h2.88c4.609,0,6.913,1.985,6.913,5.953c0,3.841-2.791,5.761-8.373,5.761
	C91.267,81.245,88.873,80.925,86.504,80.285z"/>
<path id="XMLID_33_" class="st0" d="M105.15,61.908c2.675-0.55,5.441-0.826,8.296-0.826c6.465,0,9.697,3.194,9.697,9.582
	c0,7.054-3.252,10.58-9.755,10.58c-1.613,0-3.175-0.32-4.686-0.96v8.257h-3.552V61.908z M108.702,77.136
	c1.395,0.691,2.951,1.037,4.666,1.037c4.186,0,6.28-2.515,6.28-7.546c0-4.391-2.081-6.586-6.241-6.586
	c-1.792,0-3.36,0.154-4.705,0.461V77.136z"/>
<path id="XMLID_30_" class="st0" d="M126.234,75.158c0-4.135,2.727-6.202,8.181-6.202c1.754,0,3.507,0.128,5.261,0.384v-1.901
	c0-2.317-1.811-3.476-5.434-3.476c-2.073,0-4.198,0.32-6.375,0.96v-2.88c2.177-0.64,4.301-0.96,6.375-0.96
	c5.991,0,8.987,2.087,8.987,6.26v13.902h-1.997l-1.229-1.997c-2.011,1.331-4.199,1.997-6.567,1.997
	C128.634,81.245,126.234,79.216,126.234,75.158z M134.415,71.836c-3.085,0-4.628,1.088-4.628,3.264c0,2.177,1.216,3.265,3.648,3.265
	c2.458,0,4.538-0.653,6.24-1.959V72.22C137.922,71.964,136.168,71.836,134.415,71.836z"/>
<path id="XMLID_28_" class="st0" d="M162.45,80.669c-1.665,0.384-3.457,0.576-5.377,0.576c-7.169,0-10.754-3.488-10.754-10.465
	c0-6.464,3.585-9.697,10.754-9.697c1.92,0,3.712,0.192,5.377,0.576v2.88c-1.665-0.384-3.521-0.576-5.569-0.576
	c-4.672,0-7.008,2.272-7.008,6.817c0,5.057,2.336,7.585,7.008,7.585c2.048,0,3.904-0.192,5.569-0.576V80.669z"/>
<path id="XMLID_25_" class="st0" d="M174.925,61.083c5.735,0,8.603,2.836,8.603,8.507c0,0.806-0.057,1.671-0.173,2.592h-14.151
	c0,4.122,2.406,6.183,7.219,6.183c2.292,0,4.327-0.256,6.106-0.768v2.88c-1.779,0.512-3.943,0.768-6.49,0.768
	c-6.926,0-10.389-3.437-10.389-10.312C165.65,64.366,168.742,61.083,174.925,61.083z M169.203,69.224h10.906
	c-0.076-3.533-1.805-5.3-5.185-5.3C171.341,63.925,169.433,65.691,169.203,69.224z"/>
<path id="XMLID_24_" class="st0" d="M11.344,65.416c1.505,0,3.097,0.191,4.73,0.568l0.3,0.069V61.53l-0.19-0.044
	c-1.67-0.385-3.427-0.58-5.223-0.58C3.688,60.906,0,64.24,0,70.816c0,7.083,3.688,10.675,10.961,10.675
	c1.796,0,3.554-0.195,5.223-0.581l0.19-0.044v-4.522l-0.3,0.069c-1.634,0.377-3.226,0.568-4.73,0.568
	c-3.891,0-5.782-2.017-5.782-6.166C5.562,67.182,7.453,65.416,11.344,65.416z"/>
<path id="XMLID_21_" class="st0" d="M29.229,60.849c-6.766,0-10.196,3.482-10.196,10.35V71.2c0.025,6.854,3.456,10.33,10.196,10.33
	c6.766,0,10.196-3.476,10.196-10.331C39.425,64.331,35.994,60.849,29.229,60.849z M33.863,71.122c0,4.071-1.517,6.05-4.635,6.05
	s-4.635-1.979-4.635-6.05c0-3.969,1.517-5.897,4.635-5.897S33.863,67.153,33.863,71.122z"/>
<path id="XMLID_18_" class="st0" d="M55.721,53.634v8.101c-1.324-0.55-2.637-0.829-3.907-0.829c-6.486,0-9.775,3.328-9.775,9.89
	c0,7.096,3.359,10.694,9.985,10.694c2.943,0,5.997-0.408,9.076-1.213l0.183-0.048V53.634H55.721z M55.721,66.529v9.692
	c-1.097,0.326-2.274,0.491-3.506,0.491c-3.145,0-4.673-1.979-4.673-6.05c0-3.402,1.466-5.055,4.481-5.055
	C53.494,65.608,54.737,65.918,55.721,66.529z"/>
<path id="XMLID_15_" class="st0" d="M73.563,60.906c-6.423,0-9.68,3.386-9.68,10.063c0,6.982,3.759,10.522,11.172,10.522
	c2.545,0,4.738-0.195,6.521-0.58l0.193-0.042v-4.513l-0.291,0.055c-2.005,0.378-4.037,0.57-6.04,0.57
	c-3.908,0-5.87-1.23-5.987-3.757h13.301l0.029-0.212c0.116-0.836,0.175-1.685,0.175-2.521
	C82.955,64.131,79.795,60.906,73.563,60.906z M69.469,69.212c0.283-2.579,1.625-3.833,4.094-3.833c2.637,0,3.934,1.254,3.964,3.833
	H69.469z"/>
</svg>