<!-- Generator: Adobe Illustrator 22.0.1, SVG Export Plug-In  -->
<svg version="1.1"
	 xmlns="http://www.w3.org/2000/svg" xmlns:xlink="http://www.w3.org/1999/xlink" xmlns:a="http://ns.adobe.com/AdobeSVGViewerExtensions/3.0/"
	 x="0px" y="0px" width="44.862px" height="45px" viewBox="0 0 44.862 45" style="enable-background:new 0 0 44.862 45;"
	 xml:space="preserve">
<style type="text/css">
	.st0{fill:#FFFFFF;}
</style>
<defs>
</defs>
<g>
	<path id="Call_1_" class="st0" d="M43.635,39.363c-1.067,1.137-2.347,2.204-3.343,3.413c-1.565,1.707-3.483,2.347-5.689,2.204
		c-3.13-0.213-6.046-1.28-8.96-2.63c-6.33-3.059-11.807-7.325-16.358-12.801c-3.343-4.054-6.115-8.32-7.965-13.299
		c-0.854-2.417-1.493-4.835-1.28-7.324C0.183,7.36,0.823,6.009,1.962,4.872c1.209-1.209,2.416-2.418,3.697-3.698
		c1.635-1.564,3.698-1.564,5.262,0c0.996,0.924,1.992,1.991,2.988,2.987c0.924,0.924,1.92,1.92,2.914,2.915
		c1.707,1.707,1.707,3.698,0,5.405c-1.207,1.209-2.418,2.418-3.697,3.627c-0.354,0.356-0.354,0.569-0.213,0.924
		c0.783,1.991,1.99,3.698,3.272,5.333c2.631,3.272,5.688,6.116,9.174,8.392c0.781,0.498,1.636,0.782,2.417,1.28
		c0.428,0.213,0.713,0.143,0.996-0.213c1.209-1.209,2.418-2.418,3.698-3.698c1.636-1.635,3.699-1.635,5.263,0
		c1.99,1.991,3.982,3.982,5.902,5.902C45.271,35.593,45.271,37.656,43.635,39.363z"/>
	<g>
		<g>
			<path class="st0" d="M34.333,21.923c-0.828,0-1.5-0.671-1.5-1.5c0-4.443-3.615-8.058-8.059-8.058c-0.828,0-1.5-0.671-1.5-1.5
				c0-0.829,0.672-1.5,1.5-1.5c6.098,0,11.059,4.96,11.059,11.058C35.833,21.251,35.161,21.923,34.333,21.923z"/>
		</g>
		<g>
			<path class="st0" d="M39.39,21.923c-0.828,0-1.5-0.671-1.5-1.5c0-7.232-5.884-13.115-13.115-13.115c-0.828,0-1.5-0.671-1.5-1.5
				s0.672-1.5,1.5-1.5c8.886,0,16.115,7.229,16.115,16.115C40.89,21.252,40.218,21.923,39.39,21.923z"/>
		</g>
	</g>
</g>
</svg>