<!-- Generator: Adobe Illustrator 22.0.1, SVG Export Plug-In  -->
<svg version="1.1"
	 xmlns="http://www.w3.org/2000/svg" xmlns:xlink="http://www.w3.org/1999/xlink" xmlns:a="http://ns.adobe.com/AdobeSVGViewerExtensions/3.0/"
	 x="0px" y="0px" width="183.528px" height="111.373px" viewBox="0 0 183.528 111.373"
	 style="enable-background:new 0 0 183.528 111.373;" xml:space="preserve">
<style type="text/css">
	.st0{fill:#FFFFFF;}
</style>
<defs>
</defs>
<g id="XMLID_124_">
	<path id="XMLID_127_" class="st0" d="M96.785,0.001c-2.031,0-3.417,1.528-3.935,2.997L78.574,40.529c2.131,0,5.586,0,8.409,0
		c1.838,0,2.895-1.43,3.471-2.694l14.299-37.834C102.614,0.001,99.566,0.001,96.785,0.001z"/>
	<path id="XMLID_126_" class="st0" d="M78.574,40.529l3.183-8.368L71.347,21.125l0.01-0.01c-0.201-0.222-0.324-0.515-0.324-0.837
		c0-0.322,0.123-0.614,0.324-0.837l-0.01-0.01L89.683,0h-9.354c-1.108,0-2.112,0.433-2.855,1.133L61.986,17.547l0.007,0.007
		c-0.655,0.724-1.056,1.677-1.056,2.724c0,1.048,0.401,2,1.056,2.724l-0.007,0.007l16.55,17.547l0.11-0.028
		C78.622,40.529,78.597,40.529,78.574,40.529z"/>
	<path id="XMLID_125_" class="st0" d="M122.351,20.279c0-1.048-0.401-2-1.056-2.724l0.007-0.007L104.752,0l-0.006,0.001
		c0.002,0,0.004,0,0.005,0l-3.186,8.431l10.375,11l-0.01,0.01c0.201,0.222,0.324,0.515,0.324,0.837c0,0.322-0.123,0.614-0.324,0.837
		l0.01,0.01L93.612,40.557h9.346c1.108,0,2.112-0.433,2.855-1.133h0.007l15.481-16.414l-0.007-0.007
		C121.95,22.279,122.351,21.326,122.351,20.279z"/>
</g>
<g id="XMLID_24_">
	<g>
		<path id="XMLID_73_" class="st0" d="M8.285,101.257h5.859v1.431H9.673v2.967h3.816v1.348H9.673v4.288H8.285V101.257z"/>
		<path id="XMLID_70_" class="st0" d="M15.782,106.274c0-1.168,0.032-1.949,0.094-2.345c0.067-0.395,0.17-0.715,0.308-0.959
			c0.222-0.462,0.578-0.873,1.069-1.234c0.482-0.365,1.084-0.553,1.804-0.562c0.729,0.01,1.337,0.197,1.824,0.565
			c0.482,0.362,0.83,0.775,1.044,1.238c0.155,0.243,0.262,0.562,0.321,0.957c0.054,0.394,0.081,1.175,0.081,2.34
			c0,1.147-0.027,1.922-0.081,2.326c-0.059,0.404-0.166,0.727-0.321,0.97c-0.214,0.463-0.562,0.872-1.043,1.225
			c-0.486,0.367-1.094,0.56-1.824,0.578c-0.721-0.018-1.322-0.211-1.804-0.578c-0.49-0.353-0.847-0.762-1.069-1.225
			c-0.067-0.151-0.128-0.296-0.183-0.433c-0.05-0.142-0.092-0.321-0.126-0.537C15.814,108.196,15.782,107.42,15.782,106.274z
			 M17.171,106.274c0,0.988,0.034,1.657,0.101,2.007c0.059,0.349,0.178,0.632,0.359,0.848c0.147,0.207,0.34,0.375,0.58,0.503
			c0.235,0.152,0.517,0.228,0.844,0.228c0.332,0,0.619-0.076,0.863-0.228c0.231-0.128,0.416-0.297,0.555-0.503
			c0.181-0.216,0.304-0.499,0.371-0.848c0.063-0.349,0.095-1.018,0.095-2.007s-0.032-1.662-0.095-2.021
			c-0.067-0.34-0.191-0.618-0.371-0.834c-0.139-0.207-0.324-0.379-0.555-0.517c-0.244-0.133-0.532-0.205-0.863-0.214
			c-0.328,0.009-0.609,0.081-0.844,0.214c-0.24,0.138-0.433,0.31-0.58,0.517c-0.181,0.216-0.3,0.494-0.359,0.834
			C17.204,104.611,17.171,105.285,17.171,106.274z"/>
		<path id="XMLID_67_" class="st0" d="M24.87,101.257h3.584c0.764,0,1.388,0.22,1.871,0.66c0.581,0.5,0.884,1.214,0.91,2.14
			c-0.017,1.362-0.607,2.289-1.771,2.78l2.123,4.452h-1.65l-1.898-4.288h-1.779v4.288H24.87V101.257z M26.259,105.655h2.106
			c0.521-0.009,0.913-0.175,1.173-0.497c0.256-0.299,0.385-0.667,0.385-1.104c-0.009-0.524-0.162-0.904-0.461-1.138
			c-0.235-0.207-0.576-0.311-1.022-0.311h-2.182V105.655z"/>
		<path id="XMLID_65_" class="st0" d="M33.647,101.257h1.309l2.63,6.54l2.579-6.54h1.313v10.033H40.09v-6.257h-0.032l-1.919,4.819
			h-1.158l-1.919-4.819h-0.025v6.257h-1.388V101.257z"/>
		<path id="XMLID_62_" class="st0" d="M49.092,109.046h-3.478l-0.705,2.244h-1.472l3.334-10.033h1.164l3.334,10.033h-1.466
			L49.092,109.046z M48.696,107.698l-1.328-4.389h-0.025l-1.327,4.389H48.696z"/>
		<path id="XMLID_60_" class="st0" d="M59.115,108.487c-0.202,0.93-0.586,1.644-1.152,2.143c-0.583,0.495-1.273,0.742-2.07,0.742
			c-0.721-0.018-1.323-0.211-1.805-0.578c-0.49-0.353-0.847-0.762-1.069-1.225c-0.067-0.151-0.128-0.296-0.183-0.433
			c-0.05-0.142-0.092-0.321-0.126-0.537c-0.063-0.404-0.094-1.179-0.094-2.326c0-1.165,0.032-1.945,0.094-2.34
			c0.067-0.394,0.17-0.713,0.308-0.957c0.222-0.463,0.579-0.876,1.07-1.238c0.482-0.367,1.084-0.555,1.805-0.565
			c0.885,0.01,1.606,0.296,2.164,0.859c0.557,0.568,0.91,1.271,1.057,2.109h-1.474c-0.114-0.405-0.32-0.75-0.618-1.034
			c-0.311-0.271-0.689-0.412-1.134-0.421c-0.328,0.009-0.609,0.081-0.844,0.214c-0.24,0.138-0.433,0.31-0.58,0.517
			c-0.181,0.216-0.3,0.494-0.359,0.834c-0.067,0.358-0.101,1.032-0.101,2.021s0.034,1.657,0.101,2.007
			c0.059,0.349,0.178,0.632,0.359,0.848c0.147,0.207,0.34,0.375,0.58,0.503c0.235,0.152,0.517,0.228,0.844,0.228
			c0.782,0,1.365-0.458,1.752-1.372H59.115z"/>
		<path id="XMLID_58_" class="st0" d="M60.991,101.257h1.388v10.033h-1.388V101.257z"/>
		<path id="XMLID_54_" class="st0" d="M64.773,106.274c0-1.168,0.032-1.949,0.094-2.345c0.067-0.395,0.17-0.715,0.308-0.959
			c0.222-0.462,0.578-0.873,1.069-1.234c0.482-0.365,1.084-0.553,1.804-0.562c0.729,0.01,1.337,0.197,1.824,0.565
			c0.482,0.362,0.83,0.775,1.044,1.238c0.155,0.243,0.262,0.562,0.321,0.957c0.054,0.394,0.081,1.175,0.081,2.34
			c0,1.147-0.027,1.922-0.081,2.326c-0.059,0.404-0.166,0.727-0.321,0.97c-0.214,0.463-0.562,0.872-1.043,1.225
			c-0.486,0.367-1.094,0.56-1.824,0.578c-0.721-0.018-1.322-0.211-1.804-0.578c-0.49-0.353-0.847-0.762-1.069-1.225
			c-0.067-0.151-0.128-0.296-0.183-0.433c-0.05-0.142-0.092-0.321-0.126-0.537C64.805,108.196,64.773,107.42,64.773,106.274z
			 M66.162,106.274c0,0.988,0.034,1.657,0.101,2.007c0.059,0.349,0.178,0.632,0.359,0.848c0.147,0.207,0.34,0.375,0.58,0.503
			c0.235,0.152,0.517,0.228,0.844,0.228c0.332,0,0.619-0.076,0.863-0.228c0.231-0.128,0.416-0.297,0.555-0.503
			c0.181-0.216,0.304-0.499,0.371-0.848c0.063-0.349,0.095-1.018,0.095-2.007s-0.032-1.662-0.095-2.021
			c-0.067-0.34-0.191-0.618-0.371-0.834c-0.139-0.207-0.324-0.379-0.555-0.517c-0.244-0.133-0.532-0.205-0.863-0.214
			c-0.328,0.009-0.609,0.081-0.844,0.214c-0.24,0.138-0.433,0.31-0.58,0.517c-0.181,0.216-0.3,0.494-0.359,0.834
			C66.196,104.611,66.162,105.285,66.162,106.274z M68.377,98.711h1.727l-1.828,2.05h-1.08L68.377,98.711z"/>
		<path id="XMLID_52_" class="st0" d="M73.862,101.257h1.309l4.154,7.133h0.025v-7.133h1.388v10.033h-1.315l-4.148-7.133H75.25
			v7.133h-1.388V101.257z"/>
		<path id="XMLID_50_" class="st0" d="M89.038,102.605h-2.514v-1.348h6.417v1.348h-2.515v8.685h-1.388V102.605z"/>
		<path id="XMLID_48_" class="st0" d="M94.795,101.257h5.86v1.431h-4.471v2.871H100v1.347h-3.816v2.954h4.471v1.431h-5.86V101.257z"
			/>
		<path id="XMLID_46_" class="st0" d="M109.044,108.487c-0.201,0.93-0.585,1.644-1.151,2.143c-0.583,0.495-1.273,0.742-2.07,0.742
			c-0.721-0.018-1.323-0.211-1.805-0.578c-0.49-0.353-0.847-0.762-1.069-1.225c-0.068-0.151-0.128-0.296-0.183-0.433
			c-0.05-0.142-0.092-0.321-0.126-0.537c-0.063-0.404-0.094-1.179-0.094-2.326c0-1.165,0.032-1.945,0.094-2.34
			c0.067-0.394,0.17-0.713,0.308-0.957c0.222-0.463,0.578-0.876,1.069-1.238c0.482-0.367,1.084-0.555,1.805-0.565
			c0.885,0.01,1.607,0.296,2.164,0.859c0.558,0.568,0.91,1.271,1.057,2.109h-1.474c-0.113-0.405-0.319-0.75-0.617-1.034
			c-0.311-0.271-0.689-0.412-1.134-0.421c-0.328,0.009-0.609,0.081-0.844,0.214c-0.239,0.138-0.433,0.31-0.579,0.517
			c-0.181,0.216-0.3,0.494-0.359,0.834c-0.068,0.358-0.101,1.032-0.101,2.021s0.034,1.657,0.101,2.007
			c0.058,0.349,0.178,0.632,0.359,0.848c0.147,0.207,0.34,0.375,0.58,0.503c0.235,0.152,0.517,0.228,0.845,0.228
			c0.781,0,1.365-0.458,1.752-1.372H109.044z"/>
		<path id="XMLID_44_" class="st0" d="M110.92,101.257h1.309l4.153,7.133h0.025v-7.133h1.388v10.033h-1.315l-4.148-7.133h-0.025
			v7.133h-1.389V101.257z"/>
		<path id="XMLID_41_" class="st0" d="M120.373,106.274c0-1.168,0.031-1.949,0.094-2.345c0.067-0.395,0.17-0.715,0.308-0.959
			c0.222-0.462,0.578-0.873,1.069-1.234c0.482-0.365,1.084-0.553,1.804-0.562c0.729,0.01,1.337,0.197,1.824,0.565
			c0.482,0.362,0.83,0.775,1.044,1.238c0.155,0.243,0.262,0.562,0.32,0.957c0.055,0.394,0.082,1.175,0.082,2.34
			c0,1.147-0.027,1.922-0.082,2.326c-0.058,0.404-0.165,0.727-0.321,0.97c-0.214,0.463-0.562,0.872-1.044,1.225
			c-0.486,0.367-1.094,0.56-1.823,0.578c-0.721-0.018-1.322-0.211-1.804-0.578c-0.491-0.353-0.847-0.762-1.069-1.225
			c-0.067-0.151-0.127-0.296-0.182-0.433c-0.05-0.142-0.093-0.321-0.126-0.537C120.404,108.196,120.373,107.42,120.373,106.274z
			 M121.761,106.274c0,0.988,0.034,1.657,0.101,2.007c0.058,0.349,0.178,0.632,0.359,0.848c0.147,0.207,0.34,0.375,0.579,0.503
			c0.235,0.152,0.517,0.228,0.844,0.228c0.332,0,0.62-0.076,0.864-0.228c0.231-0.128,0.416-0.297,0.554-0.503
			c0.181-0.216,0.305-0.499,0.372-0.848c0.063-0.349,0.094-1.018,0.094-2.007s-0.031-1.662-0.094-2.021
			c-0.067-0.34-0.191-0.618-0.372-0.834c-0.139-0.207-0.324-0.379-0.554-0.517c-0.244-0.133-0.532-0.205-0.864-0.214
			c-0.327,0.009-0.609,0.081-0.844,0.214c-0.239,0.138-0.432,0.31-0.579,0.517c-0.181,0.216-0.3,0.494-0.359,0.834
			C121.795,104.611,121.761,105.285,121.761,106.274z"/>
		<path id="XMLID_39_" class="st0" d="M129.461,101.257h1.389v8.602h4.471v1.431h-5.86V101.257z"/>
		<path id="XMLID_35_" class="st0" d="M137.212,106.274c0-1.168,0.031-1.949,0.094-2.345c0.067-0.395,0.17-0.715,0.308-0.959
			c0.222-0.462,0.578-0.873,1.069-1.234c0.482-0.365,1.084-0.553,1.804-0.562c0.729,0.01,1.337,0.197,1.824,0.565
			c0.482,0.362,0.83,0.775,1.044,1.238c0.155,0.243,0.262,0.562,0.32,0.957c0.055,0.394,0.082,1.175,0.082,2.34
			c0,1.147-0.027,1.922-0.082,2.326c-0.058,0.404-0.165,0.727-0.321,0.97c-0.214,0.463-0.562,0.872-1.044,1.225
			c-0.486,0.367-1.094,0.56-1.823,0.578c-0.721-0.018-1.322-0.211-1.804-0.578c-0.491-0.353-0.847-0.762-1.069-1.225
			c-0.067-0.151-0.127-0.296-0.182-0.433c-0.05-0.142-0.092-0.321-0.126-0.537C137.243,108.196,137.212,107.42,137.212,106.274z
			 M138.6,106.274c0,0.988,0.034,1.657,0.101,2.007c0.058,0.349,0.178,0.632,0.359,0.848c0.147,0.207,0.34,0.375,0.579,0.503
			c0.235,0.152,0.517,0.228,0.844,0.228c0.332,0,0.62-0.076,0.864-0.228c0.231-0.128,0.416-0.297,0.554-0.503
			c0.181-0.216,0.305-0.499,0.372-0.848c0.063-0.349,0.094-1.018,0.094-2.007s-0.031-1.662-0.094-2.021
			c-0.067-0.34-0.191-0.618-0.372-0.834c-0.139-0.207-0.324-0.379-0.554-0.517c-0.244-0.133-0.532-0.205-0.864-0.214
			c-0.327,0.009-0.609,0.081-0.844,0.214c-0.239,0.138-0.432,0.31-0.579,0.517c-0.181,0.216-0.3,0.494-0.359,0.834
			C138.634,104.611,138.6,105.285,138.6,106.274z M140.815,98.711h1.728l-1.828,2.05h-1.081L140.815,98.711z"/>
		<path id="XMLID_33_" class="st0" d="M149.274,105.772h3.26v2.041c-0.017,1.003-0.331,1.844-0.943,2.522
			c-0.616,0.673-1.392,1.019-2.326,1.038c-0.721-0.018-1.322-0.211-1.804-0.578c-0.491-0.353-0.847-0.762-1.069-1.225
			c-0.067-0.151-0.127-0.296-0.182-0.433c-0.05-0.142-0.092-0.321-0.126-0.537c-0.063-0.404-0.094-1.179-0.094-2.326
			c0-1.165,0.031-1.945,0.094-2.34c0.067-0.394,0.17-0.713,0.308-0.957c0.222-0.463,0.578-0.876,1.069-1.238
			c0.482-0.367,1.084-0.555,1.804-0.565c0.884,0.01,1.606,0.296,2.163,0.86c0.557,0.569,0.91,1.273,1.056,2.112h-1.473
			c-0.114-0.405-0.319-0.751-0.617-1.037c-0.311-0.272-0.688-0.413-1.133-0.422c-0.327,0.009-0.609,0.081-0.844,0.214
			c-0.239,0.138-0.432,0.31-0.579,0.517c-0.18,0.216-0.3,0.494-0.358,0.834c-0.068,0.358-0.101,1.032-0.101,2.021
			s0.034,1.657,0.101,2.007c0.058,0.349,0.178,0.632,0.359,0.848c0.147,0.207,0.34,0.375,0.579,0.503
			c0.235,0.152,0.517,0.228,0.844,0.228c0.542,0,0.989-0.203,1.342-0.607c0.353-0.387,0.533-0.895,0.542-1.526v-0.524h-1.871
			V105.772z"/>
		<path id="XMLID_31_" class="st0" d="M155.077,101.257h1.389v10.033h-1.389V101.257z"/>
		<path id="XMLID_29_" class="st0" d="M165.358,108.487c-0.201,0.93-0.585,1.644-1.151,2.143c-0.583,0.495-1.273,0.742-2.07,0.742
			c-0.721-0.018-1.323-0.211-1.805-0.578c-0.49-0.353-0.847-0.762-1.069-1.225c-0.068-0.151-0.128-0.296-0.183-0.433
			c-0.05-0.142-0.092-0.321-0.126-0.537c-0.063-0.404-0.094-1.179-0.094-2.326c0-1.165,0.032-1.945,0.094-2.34
			c0.067-0.394,0.17-0.713,0.308-0.957c0.222-0.463,0.578-0.876,1.069-1.238c0.482-0.367,1.084-0.555,1.805-0.565
			c0.885,0.01,1.607,0.296,2.164,0.859c0.558,0.568,0.91,1.271,1.057,2.109h-1.474c-0.113-0.405-0.319-0.75-0.617-1.034
			c-0.311-0.271-0.689-0.412-1.134-0.421c-0.328,0.009-0.609,0.081-0.844,0.214c-0.239,0.138-0.433,0.31-0.579,0.517
			c-0.181,0.216-0.3,0.494-0.359,0.834c-0.068,0.358-0.101,1.032-0.101,2.021s0.034,1.657,0.101,2.007
			c0.058,0.349,0.178,0.632,0.359,0.848c0.147,0.207,0.34,0.375,0.58,0.503c0.235,0.152,0.517,0.228,0.845,0.228
			c0.781,0,1.365-0.458,1.752-1.372H165.358z"/>
		<path id="XMLID_26_" class="st0" d="M171.934,109.046h-3.479l-0.704,2.244h-1.472l3.334-10.033h1.164l3.334,10.033h-1.466
			L171.934,109.046z M171.537,107.698l-1.327-4.389h-0.025l-1.328,4.389H171.537z"/>
	</g>
</g>
<path id="XMLID_22_" class="st0" d="M86.504,80.285v-3.072c2.368,0.768,4.762,1.152,7.182,1.152c3.214,0,4.82-0.96,4.82-2.881
	c0-1.792-1.12-2.688-3.36-2.688h-2.88c-4.353,0-6.529-1.984-6.529-5.953c0-3.841,2.798-5.761,8.392-5.761
	c2.407,0,4.794,0.32,7.163,0.96v3.072c-2.369-0.768-4.756-1.152-7.163-1.152c-3.355,0-5.031,0.96-5.031,2.881
	c0,1.792,1.056,2.688,3.169,2.688h2.88c4.609,0,6.913,1.985,6.913,5.953c0,3.841-2.791,5.761-8.373,5.761
	C91.267,81.245,88.873,80.925,86.504,80.285z"/>
<path id="XMLID_19_" class="st0" d="M105.15,61.908c2.675-0.55,5.441-0.826,8.296-0.826c6.465,0,9.697,3.194,9.697,9.582
	c0,7.054-3.252,10.58-9.755,10.58c-1.613,0-3.175-0.32-4.686-0.96v8.257h-3.552V61.908z M108.702,77.136
	c1.395,0.691,2.951,1.037,4.666,1.037c4.186,0,6.28-2.515,6.28-7.546c0-4.391-2.081-6.586-6.241-6.586
	c-1.792,0-3.36,0.154-4.705,0.461V77.136z"/>
<path id="XMLID_16_" class="st0" d="M126.234,75.158c0-4.135,2.727-6.202,8.181-6.202c1.754,0,3.507,0.128,5.261,0.384v-1.901
	c0-2.317-1.811-3.476-5.434-3.476c-2.073,0-4.198,0.32-6.375,0.96v-2.88c2.177-0.64,4.301-0.96,6.375-0.96
	c5.991,0,8.987,2.087,8.987,6.26v13.902h-1.997l-1.229-1.997c-2.011,1.331-4.199,1.997-6.567,1.997
	C128.634,81.245,126.234,79.216,126.234,75.158z M134.415,71.836c-3.085,0-4.628,1.088-4.628,3.264c0,2.177,1.216,3.265,3.648,3.265
	c2.458,0,4.538-0.653,6.24-1.959V72.22C137.922,71.964,136.168,71.836,134.415,71.836z"/>
<path id="XMLID_14_" class="st0" d="M162.45,80.669c-1.665,0.384-3.457,0.576-5.377,0.576c-7.169,0-10.754-3.488-10.754-10.465
	c0-6.464,3.585-9.697,10.754-9.697c1.92,0,3.712,0.192,5.377,0.576v2.88c-1.665-0.384-3.521-0.576-5.569-0.576
	c-4.672,0-7.008,2.272-7.008,6.817c0,5.057,2.336,7.585,7.008,7.585c2.048,0,3.904-0.192,5.569-0.576V80.669z"/>
<path id="XMLID_11_" class="st0" d="M174.925,61.083c5.735,0,8.603,2.836,8.603,8.507c0,0.806-0.057,1.671-0.173,2.592h-14.151
	c0,4.122,2.406,6.183,7.219,6.183c2.292,0,4.327-0.256,6.106-0.768v2.88c-1.779,0.512-3.943,0.768-6.49,0.768
	c-6.926,0-10.389-3.437-10.389-10.312C165.65,64.366,168.742,61.083,174.925,61.083z M169.203,69.224h10.906
	c-0.076-3.533-1.805-5.3-5.185-5.3C171.341,63.925,169.433,65.691,169.203,69.224z"/>
<path id="XMLID_10_" class="st0" d="M11.344,65.416c1.505,0,3.097,0.191,4.73,0.568l0.3,0.069V61.53l-0.19-0.044
	c-1.67-0.385-3.427-0.58-5.223-0.58C3.688,60.906,0,64.24,0,70.816c0,7.083,3.688,10.675,10.961,10.675
	c1.796,0,3.554-0.195,5.223-0.581l0.19-0.044v-4.522l-0.3,0.069c-1.634,0.377-3.226,0.568-4.73,0.568
	c-3.891,0-5.782-2.017-5.782-6.166C5.562,67.182,7.453,65.416,11.344,65.416z"/>
<path id="XMLID_7_" class="st0" d="M29.229,60.849c-6.766,0-10.196,3.482-10.196,10.35V71.2c0.025,6.854,3.456,10.33,10.196,10.33
	c6.766,0,10.196-3.476,10.196-10.331C39.425,64.331,35.994,60.849,29.229,60.849z M33.863,71.122c0,4.071-1.517,6.05-4.635,6.05
	s-4.635-1.979-4.635-6.05c0-3.969,1.517-5.897,4.635-5.897S33.863,67.153,33.863,71.122z"/>
<path id="XMLID_4_" class="st0" d="M55.721,53.634v8.101c-1.324-0.55-2.637-0.829-3.907-0.829c-6.486,0-9.775,3.328-9.775,9.89
	c0,7.096,3.359,10.694,9.985,10.694c2.943,0,5.997-0.408,9.076-1.213l0.183-0.048V53.634H55.721z M55.721,66.529v9.692
	c-1.097,0.326-2.274,0.491-3.506,0.491c-3.145,0-4.673-1.979-4.673-6.05c0-3.402,1.466-5.055,4.481-5.055
	C53.494,65.608,54.737,65.918,55.721,66.529z"/>
<path id="XMLID_1_" class="st0" d="M73.562,60.906c-6.423,0-9.68,3.386-9.68,10.062c0,6.982,3.759,10.522,11.172,10.522
	c2.545,0,4.738-0.195,6.521-0.58l0.193-0.042v-4.513l-0.291,0.055c-2.005,0.378-4.037,0.57-6.04,0.57
	c-3.908,0-5.87-1.23-5.987-3.757h13.301l0.029-0.212c0.116-0.836,0.175-1.685,0.175-2.521
	C82.955,64.131,79.795,60.906,73.562,60.906z M69.469,69.212c0.283-2.579,1.625-3.833,4.094-3.833c2.637,0,3.934,1.254,3.964,3.833
	H69.469z"/>
</svg>