<!-- Generator: Adobe Illustrator 22.0.1, SVG Export Plug-In  -->
<svg version="1.1"
	 xmlns="http://www.w3.org/2000/svg" xmlns:xlink="http://www.w3.org/1999/xlink" xmlns:a="http://ns.adobe.com/AdobeSVGViewerExtensions/3.0/"
	 x="0px" y="0px" width="2364.802px" height="449.79px" viewBox="0 0 2364.802 449.79"
	 style="enable-background:new 0 0 2364.802 449.79;" xml:space="preserve">
<style type="text/css">
	.st0{fill:#1E1E1E;}
</style>
<defs>
</defs>
<path id="XMLID_22_" class="st0" d="M1114.634,343.403v-39.589c30.514,9.897,61.363,14.846,92.537,14.846
	c41.407,0,62.104-12.375,62.104-37.118c0-23.088-14.435-34.635-43.294-34.635h-37.112c-56.085,0-84.133-25.565-84.133-76.701
	c0-49.487,36.047-74.23,108.13-74.23c31.012,0,61.769,4.127,92.294,12.375v39.584c-30.526-9.897-61.282-14.846-92.294-14.846
	c-43.224,0-64.825,12.375-64.825,37.118c0,23.094,13.613,34.635,40.828,34.635h37.112c59.384,0,89.076,25.571,89.076,76.701
	c0,49.487-35.966,74.23-107.887,74.23C1175.997,355.771,1145.148,351.65,1114.634,343.403z"/>
<path id="XMLID_19_" class="st0" d="M1354.887,106.613c34.473-7.09,70.103-10.638,106.891-10.638
	c83.3,0,124.949,41.158,124.949,123.468c0,90.888-41.905,136.328-125.69,136.328c-20.79,0-40.909-4.121-60.38-12.369V449.79h-45.771
	V106.613z M1400.658,302.824c17.977,8.908,38.027,13.358,60.125,13.358c53.943,0,80.915-32.412,80.915-97.237
	c0-56.577-26.81-84.868-80.417-84.868c-23.094,0-43.294,1.979-60.623,5.938V302.824z"/>
<path id="XMLID_16_" class="st0" d="M1626.557,277.339c0-53.278,35.144-79.919,105.409-79.919c22.596,0,45.192,1.65,67.788,4.949
	v-24.494c0-29.854-23.337-44.787-70.022-44.787c-26.717,0-54.094,4.127-82.142,12.375V108.35
	c28.048-8.248,55.425-12.375,82.142-12.375c77.199,0,115.805,26.891,115.805,80.66v179.136h-25.733l-15.836-25.733
	c-25.907,17.155-54.105,25.733-84.619,25.733C1657.487,355.771,1626.557,329.627,1626.557,277.339z M1731.966,234.532
	c-39.751,0-59.627,14.024-59.627,42.061c0,28.048,15.662,42.067,47.009,42.067c31.672,0,58.469-8.416,80.406-25.241v-53.938
	C1777.158,236.182,1754.562,234.532,1731.966,234.532z"/>
<path id="XMLID_14_" class="st0" d="M2093.21,348.351c-21.45,4.949-44.544,7.42-69.281,7.42
	c-92.375,0-138.563-44.949-138.563-134.847c0-83.294,46.188-124.949,138.563-124.949c24.737,0,47.831,2.477,69.281,7.426v37.112
	c-21.45-4.949-45.366-7.426-71.759-7.426c-60.206,0-90.303,29.281-90.303,87.837c0,65.16,30.097,97.735,90.303,97.735
	c26.393,0,50.308-2.477,71.759-7.426V348.351z"/>
<path id="XMLID_11_" class="st0" d="M2253.951,95.975c73.9,0,110.85,36.539,110.85,109.611c0,10.389-0.741,21.525-2.234,33.402
	h-182.342c0,53.116,31,79.671,93.023,79.671c29.53,0,55.761-3.299,78.681-9.897v37.112c-22.92,6.598-50.806,9.897-83.624,9.897
	c-89.238,0-133.863-44.289-133.863-132.867C2134.443,138.285,2174.287,95.975,2253.951,95.975z M2180.225,200.881h140.531
	c-0.984-45.522-23.256-68.286-66.804-68.286C2207.764,132.595,2183.188,155.359,2180.225,200.881z"/>
<path id="XMLID_10_" class="st0" d="M146.179,151.81c19.403,0,39.901,2.46,60.928,7.317l3.876,0.893v-58.273l-2.441-0.566
	c-21.505-4.964-44.142-7.481-67.295-7.481C47.514,93.701,0,136.666,0,221.389c0,91.266,47.514,137.547,141.246,137.547
	c23.166,0,45.803-2.517,67.295-7.474l2.441-0.566v-58.279l-3.876,0.893c-21.027,4.857-41.525,7.317-60.928,7.317
	c-50.144,0-74.518-25.984-74.518-79.438C71.661,174.567,96.035,151.81,146.179,151.81z"/>
<path id="XMLID_7_" class="st0" d="M376.615,92.965c-87.176,0-131.369,44.872-131.369,133.357v0.013
	c0.327,88.315,44.532,133.099,131.369,133.099c87.176,0,131.381-44.79,131.381-133.111
	C507.996,137.836,463.792,92.965,376.615,92.965z M436.335,225.334c0,52.459-19.542,77.959-59.72,77.959s-59.707-25.5-59.707-77.959
	c0-51.132,19.529-75.984,59.707-75.984S436.335,174.202,436.335,225.334z"/>
<path id="XMLID_4_" class="st0" d="M717.985,0v104.384c-17.075-7.091-33.987-10.683-50.345-10.683
	c-83.578,0-125.958,42.877-125.958,127.443c0,91.43,43.286,137.792,128.663,137.792c37.913,0,77.261-5.26,116.948-15.635
	l2.353-0.617V0H717.985z M717.985,166.161v124.888c-14.118,4.197-29.294,6.323-45.174,6.323c-40.518,0-60.211-25.5-60.211-77.953
	c0-43.834,18.887-65.143,57.744-65.143C689.282,154.276,705.288,158.271,717.985,166.161z"/>
<path id="XMLID_1_" class="st0" d="M947.867,93.701c-82.76,0-124.712,43.626-124.712,129.657
	c0,89.964,48.433,135.578,143.952,135.578c32.804,0,61.066-2.517,84.005-7.468l2.491-0.535V292.78l-3.75,0.705
	c-25.821,4.876-51.994,7.342-77.815,7.342c-50.358,0-75.638-15.842-77.148-48.408h171.383l0.378-2.731
	c1.485-10.809,2.24-21.744,2.24-32.496C1068.892,135.251,1028.173,93.701,947.867,93.701z M998.955,200.715H895.131
	c3.649-33.232,20.938-49.395,52.736-49.395C981.842,151.319,998.565,167.476,998.955,200.715z"/>
</svg>