<?xml version="1.0" encoding="utf-8"?>
<!-- Generator: Adobe Illustrator 22.1.0, SVG Export Plug-In . SVG Version: 6.00 Build 0)  -->
<svg version="1.1" id="Capa_1" xmlns="http://www.w3.org/2000/svg" xmlns:xlink="http://www.w3.org/1999/xlink" x="0px" y="0px"
	 viewBox="0 0 165 193" style="enable-background:new 0 0 165 193;" xml:space="preserve">
<style type="text/css">
	.st0{display:none;}
	.st1{display:inline;}
	.st2{fill:none;stroke:#F80E41;stroke-width:4.5716;stroke-linecap:round;stroke-linejoin:round;stroke-miterlimit:3.8637;}
	.st3{fill:#F80E41;}
	.st4{fill:#FFFFFF;}
	.st5{fill:none;stroke:#FFFFFF;stroke-width:4.5716;stroke-linecap:round;stroke-linejoin:round;stroke-miterlimit:3.8637;}
	
		.st6{display:inline;fill:none;stroke:#F80E41;stroke-width:3.9685;stroke-linecap:round;stroke-linejoin:round;stroke-miterlimit:2;}
	
		.st7{display:inline;fill:none;stroke:#F80E41;stroke-width:2.8346;stroke-linecap:round;stroke-linejoin:round;stroke-miterlimit:2;}
	.st8{display:inline;fill:#F80E41;}
	.st9{display:inline;fill:#FFFFFF;}
	.st10{fill:none;stroke:#F80E41;stroke-width:3.9685;stroke-linecap:round;stroke-linejoin:round;stroke-miterlimit:2;}
	.st11{fill:none;stroke:#F80E41;stroke-width:2.8346;stroke-linecap:round;stroke-linejoin:round;stroke-miterlimit:2;}
	.st12{fill:none;stroke:#F80E41;stroke-width:3.9685;stroke-linecap:round;stroke-linejoin:round;stroke-miterlimit:3.8637;}
	.st13{fill:none;stroke:#F80E41;stroke-width:2.2677;stroke-linecap:round;stroke-linejoin:round;stroke-miterlimit:2;}
	.st14{fill:none;stroke:#F80E41;stroke-width:1.9211;stroke-linecap:round;stroke-linejoin:round;stroke-miterlimit:2;}
	.st15{fill:none;stroke:#F80E41;stroke-width:5.8957;stroke-miterlimit:3.8637;}
	.st16{fill:none;stroke:#F80E41;stroke-width:5.8957;stroke-linecap:round;stroke-linejoin:round;stroke-miterlimit:3.8637;}
	.st17{fill:none;stroke:#F80E41;stroke-width:4.4905;stroke-miterlimit:3.8637;}
	.st18{fill:#F51322;}
	.st19{fill:none;stroke:#F51322;stroke-width:3.7067;stroke-linecap:round;stroke-linejoin:round;stroke-miterlimit:3.8637;}
	.st20{fill:none;stroke:#F80E41;stroke-width:5.407;stroke-linecap:round;stroke-linejoin:round;stroke-miterlimit:3.8637;}
	.st21{fill:none;stroke:#F80E41;stroke-width:6.6655;stroke-linecap:round;stroke-linejoin:round;stroke-miterlimit:3.8637;}
	.st22{fill:none;stroke:#F80E41;stroke-width:6.1454;stroke-linecap:round;stroke-linejoin:round;stroke-miterlimit:3.8637;}
	.st23{fill:none;stroke:#F80E41;stroke-width:4.1737;stroke-linecap:round;stroke-linejoin:round;stroke-miterlimit:3.8637;}
	.st24{fill:none;stroke:#F80E41;stroke-width:3.5145;stroke-linecap:round;stroke-linejoin:round;stroke-miterlimit:3.8637;}
	
		.st25{display:inline;fill:none;stroke:#F80E41;stroke-width:4.1737;stroke-linecap:round;stroke-linejoin:round;stroke-miterlimit:3.8637;}
	
		.st26{display:inline;fill:none;stroke:#F80E41;stroke-width:5.3858;stroke-linecap:round;stroke-linejoin:round;stroke-miterlimit:3.8637;}
	
		.st27{display:inline;fill:none;stroke:#F80E41;stroke-width:5.1024;stroke-linecap:round;stroke-linejoin:round;stroke-miterlimit:3.8637;}
	.st28{fill:none;stroke:#F80E41;stroke-width:4.9502;stroke-linecap:round;stroke-linejoin:round;stroke-miterlimit:3.8637;}
	.st29{clip-path:url(#SVGID_2_);}
	.st30{fill:none;stroke:#F80E41;stroke-width:5.1024;stroke-linecap:round;stroke-linejoin:round;stroke-miterlimit:3.8637;}
	.st31{clip-path:url(#SVGID_4_);}
	.st32{clip-path:url(#SVGID_6_);}
	.st33{fill:none;stroke:#FFFFFF;stroke-miterlimit:3.8637;}
	.st34{fill:none;stroke:#F51322;stroke-width:1.0001;stroke-linecap:round;stroke-linejoin:round;stroke-miterlimit:3.8637;}
	.st35{clip-path:url(#SVGID_8_);}
	.st36{fill:none;stroke:#353535;stroke-width:5.1024;stroke-linejoin:round;stroke-miterlimit:3.8637;}
	.st37{fill:none;stroke:#F80E41;stroke-width:5.1024;stroke-linejoin:round;stroke-miterlimit:3.8637;}
	.st38{fill:#353535;}
	.st39{fill:none;stroke:#353535;stroke-width:5.1024;stroke-miterlimit:3.8637;}
	.st40{fill:none;stroke:#FFFFFF;stroke-width:5.1024;stroke-miterlimit:3.8637;}
	.st41{fill:none;stroke:#353535;stroke-width:5.1024;stroke-linecap:round;stroke-linejoin:round;stroke-miterlimit:3.8637;}
</style>
<g id="XMLID_2_" class="st0">
	<g id="XMLID_14_" class="st1">
		<g id="XMLID_40_">
			<path id="XMLID_41_" class="st2" d="M68.1,137.1h32.7c18.8-30.1,21.9-83.5-15.6-111.8C51.3,52.1,45.4,94.1,68.1,137.1z"/>
		</g>
		<g id="XMLID_38_">
			<path id="XMLID_39_" class="st2" d="M55.6,104.1c2.9,9.2,5.9,18,9,26.4c-4.4,2.9-6.4,7.9-4.3,16.2
				C40.8,132.9,39.3,118.7,55.6,104.1z"/>
		</g>
		<g id="XMLID_36_">
			<path id="XMLID_37_" class="st2" d="M114.5,104.1c-2.9,9.2-5.9,18-9,26.4c4.4,2.9,6.4,7.9,4.3,16.2
				C129.3,132.9,130.8,118.7,114.5,104.1z"/>
		</g>
		<g id="XMLID_29_">
			<g id="XMLID_33_">
				<circle id="XMLID_35_" class="st3" cx="85.7" cy="72.2" r="17.4"/>
				<path id="XMLID_34_" class="st3" d="M85.7,72.2"/>
			</g>
			<g id="XMLID_30_">
				<circle id="XMLID_32_" class="st2" cx="85.7" cy="72.2" r="17.4"/>
				<path id="XMLID_31_" class="st2" d="M85.7,72.2"/>
			</g>
		</g>
		<g id="XMLID_22_">
			<g id="XMLID_26_">
				<circle id="XMLID_28_" class="st4" cx="85.7" cy="72.2" r="7.3"/>
				<path id="XMLID_27_" class="st4" d="M85.7,72.2"/>
			</g>
			<g id="XMLID_23_">
				<circle id="XMLID_25_" class="st5" cx="85.7" cy="72.2" r="7.3"/>
				<path id="XMLID_24_" class="st5" d="M85.7,72.2"/>
			</g>
		</g>
		<g id="XMLID_20_">
			<line id="XMLID_21_" class="st2" x1="62.2" y1="122.3" x2="108.5" y2="122.3"/>
		</g>
		<g id="XMLID_18_">
			<line id="XMLID_19_" class="st2" x1="70.8" y1="40.1" x2="99" y2="40.1"/>
		</g>
		<g id="XMLID_15_">
			<path id="XMLID_17_" class="st4" d="M83.5,103.3h2.9c6,10.9,6.6,25.8,0,43.4h-2.7C76.9,131.5,76.8,117,83.5,103.3z"/>
			<path id="XMLID_16_" class="st2" d="M83.5,103.3h2.9c6,10.9,6.6,25.8,0,43.4h-2.7C76.9,131.5,76.8,117,83.5,103.3z"/>
		</g>
	</g>
	<g id="XMLID_9_" class="st1">
		<g id="XMLID_12_">
			<path id="XMLID_13_" class="st2" d="M74,139.2l0.1,17.7c-7.3,0-13.9,2.9-18.7,7.7c-3.1-5.2-8.8-8.7-15.3-8.7
				c-9.8,0-17.8,8-17.8,17.8"/>
		</g>
		<g id="XMLID_10_">
			<path id="XMLID_11_" class="st2" d="M96.1,139.2L96,156.9c7.3,0,13.9,2.9,18.7,7.7c3.1-5.2,8.8-8.7,15.3-8.7
				c9.8,0,17.8,8,17.8,17.8"/>
		</g>
	</g>
	<g id="XMLID_7_" class="st1">
		<polygon id="XMLID_8_" class="st3" points="71.3,40.4 98.3,40.4 85.4,25 		"/>
	</g>
	<g id="XMLID_5_" class="st1">
		<polygon id="XMLID_6_" class="st3" points="62.7,122.9 68.2,136.7 79,136.7 78.1,122.6 		"/>
	</g>
	<g id="XMLID_3_" class="st1">
		<polygon id="XMLID_4_" class="st3" points="106.5,122.9 101,136.7 90.2,136.7 91.1,122.6 		"/>
	</g>
</g>
<g id="XMLID_93_" class="st0">
	<g id="XMLID_116_" class="st1">
		<path id="XMLID_117_" class="st2" d="M134.9,107c0,27.8-22.8,50.4-50.9,50.4S33.1,134.8,33.1,107S55.9,56.6,84,56.6
			S134.9,79.2,134.9,107z"/>
	</g>
	<g id="XMLID_113_" class="st1">
		<g id="XMLID_114_">
			<path id="XMLID_115_" class="st2" d="M94.2,44c0,1.2-1,2.2-2.2,2.2H76c-1.2,0-2.2-1-2.2-2.2V33.7c0-1.2,1-2.2,2.2-2.2h16.1
				c1.2,0,2.2,1,2.2,2.2L94.2,44z"/>
		</g>
	</g>
	<g id="XMLID_106_" class="st1">
		<g id="XMLID_110_">
			<g id="XMLID_111_">
				<path id="XMLID_112_" class="st2" d="M47.9,62.7l-3.7-5.3c-0.4-0.6-0.3-1.5,0.4-1.9l8.3-5.6c0.6-0.4,1.5-0.3,1.9,0.4l3.7,5.3"/>
			</g>
		</g>
		<g id="XMLID_107_">
			<g id="XMLID_108_">
				<path id="XMLID_109_" class="st2" d="M120.1,62.7l3.7-5.3c0.4-0.6,0.3-1.5-0.4-1.9l-8.3-5.6c-0.6-0.4-1.5-0.3-1.9,0.4l-3.7,5.3"
					/>
			</g>
		</g>
	</g>
	<g id="XMLID_104_" class="st1">
		<line id="XMLID_105_" class="st2" x1="84" y1="54.7" x2="84" y2="46.9"/>
	</g>
	<g id="XMLID_101_" class="st1">
		<path id="XMLID_103_" class="st3" d="M120.8,112.9v-10.4l-9.2-0.8c-0.6-3.4-1.9-6.6-3.6-9.5l6.1-7.3l-7.3-7.4l-7,6
			c-2.8-1.9-5.9-3.3-9.2-4.1l-0.8-9.5H79.5l-0.8,9.3c-3.4,0.6-6.5,1.9-9.4,3.6l-7.2-6.2L54.8,84l5.9,7.1c-1.9,2.8-3.3,5.9-4.1,9.3
			l-9.5,0.8v10.4l9.2,0.8c0.6,3.4,1.9,6.6,3.6,9.5l-6.1,7.3l7.3,7.4l7-6c2.8,1.9,5.9,3.3,9.2,4.1l0.8,9.5h10.3l0.8-9.3
			c3.4-0.6,6.5-1.9,9.4-3.7l7.2,6.2l7.3-7.4l-5.9-7.1c1.9-2.8,3.3-5.9,4.1-9.3L120.8,112.9z"/>
		<path id="XMLID_102_" class="st2" d="M120.8,112.9v-10.4l-9.2-0.8c-0.6-3.4-1.9-6.6-3.6-9.5l6.1-7.3l-7.3-7.4l-7,6
			c-2.8-1.9-5.9-3.3-9.2-4.1l-0.8-9.5H79.5l-0.8,9.3c-3.4,0.6-6.5,1.9-9.4,3.6l-7.2-6.2L54.8,84l5.9,7.1c-1.9,2.8-3.3,5.9-4.1,9.3
			l-9.5,0.8v10.4l9.2,0.8c0.6,3.4,1.9,6.6,3.6,9.5l-6.1,7.3l7.3,7.4l7-6c2.8,1.9,5.9,3.3,9.2,4.1l0.8,9.5h10.3l0.8-9.3
			c3.4-0.6,6.5-1.9,9.4-3.7l7.2,6.2l7.3-7.4l-5.9-7.1c1.9-2.8,3.3-5.9,4.1-9.3L120.8,112.9z"/>
	</g>
	<g id="XMLID_99_" class="st1">
		<polyline id="XMLID_100_" class="st5" points="82.2,97.4 82.2,107.9 87.6,113 		"/>
	</g>
	<g id="XMLID_94_" class="st1">
		<g id="XMLID_97_">
			<path id="XMLID_98_" class="st5" d="M67,102.6c1.6-8,8.6-14.1,17-14.1c8.8,0,16.1,6.6,17.2,15.2"/>
		</g>
		<g id="XMLID_95_">
			<path id="XMLID_96_" class="st5" d="M101.4,109.8c-1.6,8-8.6,14.1-17,14.1c-8.8,0-16.1-6.6-17.2-15.2"/>
		</g>
	</g>
</g>
<g id="XMLID_118_" class="st0">
	<g id="XMLID_146_" class="st1">
		<path id="XMLID_148_" class="st4" d="M138.5,107.1v-18h-9c-1-4.3-2.7-8-4.9-11.7l5.8-6.7L119,59l-6.9,5.6c-3.6-2.3-7.6-4-11.8-5
			l-0.1-8.8H84.5v96.8h15.8l0.1-10.2c4.2-1,8.2-2.7,11.8-5l6.9,6.4l11.4-11.6l-5.8-7.5c2.2-3.7,4-8.2,4.9-12.5L138.5,107.1z"/>
		<path id="XMLID_147_" class="st2" d="M138.5,107.1v-18h-9c-1-4.3-2.7-8-4.9-11.7l5.8-6.7L119,59l-6.9,5.6c-3.6-2.3-7.6-4-11.8-5
			l-0.1-8.8H84.5v96.8h15.8l0.1-10.2c4.2-1,8.2-2.7,11.8-5l6.9,6.4l11.4-11.6l-5.8-7.5c2.2-3.7,4-8.2,4.9-12.5L138.5,107.1z"/>
	</g>
	<g id="XMLID_144_" class="st1">
		<path id="XMLID_145_" class="st3" d="M84.5,147.6h15.8l0.1-10.2c4.2-1,8.2-2.7,11.8-5l6.9,6.4l11.4-11.6l-5.8-7.5
			c2.2-3.7,4-8.2,4.9-12.5h9v-18h-9c-1-4.3-2.7-8-4.9-11.7l5.8-6.7L119,59l-6.9,5.6c-3.6-2.3-7.6-4-11.8-5l-0.1-8.8H84.5V147.6z"/>
	</g>
	<g id="XMLID_142_" class="st1">
		<line id="XMLID_143_" class="st2" x1="84.5" y1="41.8" x2="84.5" y2="156.6"/>
	</g>
	<g id="XMLID_140_" class="st1">
		<path id="XMLID_141_" class="st5" d="M86.7,109.3h3.9c6.6,0,11.9-5,11.9-11.3c0-6.2-5.3-11.3-11.9-11.3h-3.9"/>
	</g>
	<g id="XMLID_137_" class="st1">
		<path id="XMLID_139_" class="st4" d="M70.9,50.8c-7-0.5-14.8,3.6-16.7,9.5c-8.9-0.3-16,6.9-16,16.4c0,0.7,0.1,1.5,0.1,2.2
			c-6.5,2.4-11.1,9.7-11.1,18.7c0,5.7,1.9,11,4.9,15c-0.5,2.1-0.7,4.3-0.4,6.6c1.2,9.7,9.4,17.2,18.5,16.8
			c2.4,6.2,8.9,11.5,16.6,11.5c12,0,17.6-6.7,17.6-6.7V57.6C84.5,57.6,79.5,51.4,70.9,50.8z"/>
		<path id="XMLID_138_" class="st2" d="M70.9,50.8c-7-0.5-14.8,3.6-16.7,9.5c-8.9-0.3-16,6.9-16,16.4c0,0.7,0.1,1.5,0.1,2.2
			c-6.5,2.4-11.1,9.7-11.1,18.7c0,5.7,1.9,11,4.9,15c-0.5,2.1-0.7,4.3-0.4,6.6c1.2,9.7,9.4,17.2,18.5,16.8
			c2.4,6.2,8.9,11.5,16.6,11.5c12,0,17.6-6.7,17.6-6.7V57.6C84.5,57.6,79.5,51.4,70.9,50.8z"/>
	</g>
	<g id="XMLID_135_" class="st1">
		<path id="XMLID_136_" class="st2" d="M69,79.7c-8.5-0.6-15.4-7.5-15.4-15.4c0-1.4,0.2-2.8,0.6-4.1"/>
	</g>
	<g id="XMLID_133_" class="st1">
		<path id="XMLID_134_" class="st2" d="M49.2,98.3c4.8,3,10.4,1,14.4-3.2c5.1-5.3,13.5-6.9,18.5-1c0.9,1.1,1.7,2.2,2.2,3.5"/>
	</g>
	<g id="XMLID_131_" class="st1">
		<path id="XMLID_132_" class="st2" d="M84.3,71.2c-6.8,1-12.9-3.3-15.2-9.5"/>
	</g>
	<g id="XMLID_129_" class="st1">
		<path id="XMLID_130_" class="st2" d="M84.3,125.3c-6.8-1.8-12.9,1.6-15.2,7.5"/>
	</g>
	<g id="XMLID_127_" class="st1">
		<path id="XMLID_128_" class="st2" d="M53.2,121.5c-3.9-1.2-7.7-4-7.7-7.7"/>
	</g>
	<g id="XMLID_125_" class="st1">
		<path id="XMLID_126_" class="st2" d="M51.4,138.6c-1.4-2.3-2.2-4.9-2.2-7.6c0-7.9,6.6-14.4,15.4-14.4c1.1,0,1.8-0.9,1.8-1.9
			c0-0.9,0,0.4,0,0c0-5.9,5.5-7.9,9-7.7"/>
	</g>
	<g id="XMLID_123_" class="st1">
		<path id="XMLID_124_" class="st2" d="M40.4,90.2c4.3,0.3,7.7,3.7,7.7,7.7s-3.4,7-7.7,6.7"/>
	</g>
	<g id="XMLID_121_" class="st1">
		<path id="XMLID_122_" class="st2" d="M50.7,84c0-4.7,4.1-8.2,9.1-7.9"/>
	</g>
	<g id="XMLID_119_" class="st1">
		<path id="XMLID_120_" class="st5" d="M91.7,71.5c14.7,0,26.6,11.9,26.6,26.6s-11.9,26.6-26.6,26.6"/>
	</g>
</g>
<g id="XMLID_149_" class="st0">
	<polyline id="XMLID_215_" class="st6" points="98.5,66.7 98.5,73.6 88.9,83.8 79.3,73.6 79.3,67.4 	"/>
	<polyline id="XMLID_214_" class="st6" points="79.3,125.5 79.3,118.5 88.9,108.4 98.5,118.5 98.5,124.8 	"/>
	<path id="XMLID_213_" class="st6" d="M36,88.4V73.1c0-6.3,4.5-11.5,10-11.5h7.5"/>
	<path id="XMLID_212_" class="st6" d="M55.5,134.8H46c-5.5,0-10-5.1-10-11.5V108"/>
	<polyline id="XMLID_211_" class="st6" points="29.5,88.6 36.5,88.6 46.7,98.2 36.5,107.9 30.3,107.9 	"/>
	<path id="XMLID_210_" class="st6" d="M-2.9,75.7c-0.3-0.8-0.4-1.7-0.4-2.5c0-4.1,3.3-7.4,7.3-7.4s7.3,3.3,7.3,7.4"/>
	<path id="XMLID_209_" class="st6" d="M11.3,124c0,4.1-3.3,7.4-7.3,7.4s-7.3-3.3-7.3-7.4"/>
	<path id="XMLID_208_" class="st6" d="M-3.1,75.4H7.3c13.3,0,24,10.9,24,24.3l0,0c0,13.4-10.8,24.3-24,24.3H-3.1"/>
	<path id="XMLID_207_" class="st7" d="M20.7,106.1c1.9-4.9,1.5-10.2-0.8-14.5"/>
	<path id="XMLID_206_" class="st6" d="M-18.9,108.1c5.8,2.1,11,6.3,14.1,12.3c0.8,1.6,1.4,2.8,2,4.7"/>
	<path id="XMLID_205_" class="st6" d="M-3.2,75.2c0.6,10.5-2.8,23.2-13.4,28.2l-2.6,1.2"/>
	<polyline id="XMLID_204_" class="st7" points="12.4,96.5 12.4,101.2 3.1,101.2 	"/>
	<path id="XMLID_203_" class="st7" d="M5.6,117c-2.6,0-4.7-2.1-4.7-4.7s2.1-4.7,4.7-4.7"/>
	<path id="XMLID_202_" class="st7" d="M5.6,94c-2.6,0-4.7-2.1-4.7-4.7s2.1-4.7,4.7-4.7"/>
	<path id="XMLID_201_" class="st6" d="M-25.2,80.6"/>
	<path id="XMLID_200_" class="st6" d="M142.4,88.4V73.1c0-6.3-4.5-11.5-10-11.5h-9.5"/>
	<path id="XMLID_199_" class="st6" d="M121.5,134.8h10.8c5.5,0,10-5.1,10-11.5V108"/>
	<polyline id="XMLID_198_" class="st6" points="148.8,88.6 141.8,88.6 131.6,98.2 141.8,107.9 148.1,107.9 	"/>
	<path id="XMLID_197_" class="st6" d="M181.2,75.7c0.3-0.8,0.4-1.7,0.4-2.5c0-4.1-3.3-7.4-7.3-7.4s-7.3,3.3-7.3,7.4"/>
	<path id="XMLID_196_" class="st6" d="M167,124c0,4.1,3.3,7.4,7.3,7.4s7.3-3.3,7.3-7.4"/>
	<path id="XMLID_195_" class="st6" d="M181.4,75.4H171c-13.3,0-24,10.9-24,24.3l0,0c0,13.4,10.8,24.3,24,24.3h10.4"/>
	<path id="XMLID_194_" class="st7" d="M157.6,106.1c-1.9-4.9-1.5-10.2,0.8-14.5"/>
	<path id="XMLID_193_" class="st6" d="M197.3,108.1c-5.8,2.1-11,6.3-14.1,12.3c-0.8,1.6-1.4,2.8-2,4.7"/>
	<path id="XMLID_192_" class="st6" d="M181.5,75.2c-0.6,10.5,2.8,23.2,13.4,28.2l2.6,1.2"/>
	<polyline id="XMLID_191_" class="st7" points="166,96.5 166,101.2 175.2,101.2 	"/>
	<path id="XMLID_190_" class="st7" d="M172.7,117c2.6,0,4.7-2.1,4.7-4.7s-2.1-4.7-4.7-4.7"/>
	<path id="XMLID_189_" class="st7" d="M172.7,94c2.6,0,4.7-2.1,4.7-4.7s-2.1-4.7-4.7-4.7"/>
	<path id="XMLID_188_" class="st6" d="M203.6,80.6"/>
	<path id="XMLID_187_" class="st6" d="M-4.7,126.4c-14.9,0-26.9-12-26.9-26.9s12-26.9,26.9-26.9"/>
	<path id="XMLID_186_" class="st6" d="M183,72.6c14.9,0,26.8,12,26.8,26.9s-12,26.9-26.9,26.9"/>
	<path id="XMLID_185_" class="st8" d="M98.8,73.1h15.3c6.3,0,11.5,4.5,11.5,10v12.5V109c0,5.5-5.1,10-11.5,10H98.8l-10.1-12l-9.6,12
		H63.8c-6.3,0-11.5-4.5-11.5-10V95.6V83.1c0-5.5,5.1-10,11.5-10H79l10.2,11L98.8,73.1z"/>
	<path id="XMLID_184_" class="st9" d="M104.1,95.4c0.5,0.6,0.5,1.2,0,1.8l-8.1,8.7h-5.1l8.5-9c0.4-0.3,0.4-0.6,0-1l-4.8-5.2
		l-5.2,13.6c-0.3,0.7-0.7,1.2-1.4,1.5h-4.3l-8.2-8.6c-0.5-0.6-0.5-1.2,0-1.8l8.1-8.7h5.1l-8.5,9c-0.4,0.3-0.4,0.6,0,1l4.9,5.2
		l5.4-14.1c0.2-0.6,0.6-1,1.1-1H96h0.1L104.1,95.4z"/>
	<g id="XMLID_167_" class="st1">
		<path id="XMLID_183_" class="st10" d="M111.4,34.2c0.8-0.3,1.7-0.4,2.5-0.4c4.1,0,7.4,3.3,7.4,7.3s-3.3,7.3-7.4,7.3"/>
		<path id="XMLID_182_" class="st10" d="M63.1,48.4c-4.1,0-7.4-3.3-7.4-7.3s3.3-7.3,7.4-7.3"/>
		<path id="XMLID_181_" class="st10" d="M111.7,34v10.4c0,13.3-10.9,24-24.3,24l0,0c-13.4,0-24.3-10.8-24.3-24V34"/>
		<path id="XMLID_180_" class="st11" d="M81.1,57.8c4.9,1.9,10.2,1.5,14.5-0.8"/>
		<path id="XMLID_179_" class="st11" d="M70.1,45.7c0-2.6,2.1-4.7,4.7-4.7s4.7,2.1,4.7,4.7"/>
		<path id="XMLID_178_" class="st11" d="M93.2,45.7c0-2.6,2.1-4.7,4.7-4.7s4.7,2.1,4.7,4.7"/>
		<path id="XMLID_177_" class="st10" d="M106.6,11.9"/>
		<path id="XMLID_176_" class="st10" d="M59.1,32.3c0-14.9,12-26.9,26.9-26.9s26.9,12,26.9,26.9"/>
		<path id="XMLID_175_" class="st12" d="M58.1,48.8l-5,16.5c5.6,4.1,17,4.1,22,0"/>
		<line id="XMLID_174_" class="st12" x1="60.4" y1="31.7" x2="78.5" y2="31.7"/>
		<line id="XMLID_173_" class="st12" x1="78.7" y1="34.8" x2="78.7" y2="22.8"/>
		<line id="XMLID_172_" class="st12" x1="86.7" y1="36.8" x2="86.7" y2="18.8"/>
		<line id="XMLID_171_" class="st12" x1="95.7" y1="34.8" x2="95.7" y2="25.8"/>
		<path id="XMLID_170_" class="st12" d="M117.5,48.8l5,16.5c-5.6,4.1-17,4.1-22,0"/>
		<line id="XMLID_169_" class="st12" x1="96.4" y1="31.7" x2="112.5" y2="31.7"/>
		<path id="XMLID_168_" class="st13" d="M90.7,49.4c0,1.8-1.4,3.2-3.2,3.2s-3.2-1.4-3.2-3.2"/>
	</g>
	<g id="XMLID_150_" class="st1">
		<path id="XMLID_166_" class="st10" d="M65.2,158.4c-0.8,0.3-1.7,0.4-2.5,0.4c-4.1,0-7.4-3.3-7.4-7.3s3.3-7.3,7.4-7.3"/>
		<path id="XMLID_165_" class="st10" d="M113.6,144.2c4.1,0,7.4,3.3,7.4,7.3s-3.3,7.3-7.4,7.3"/>
		<path id="XMLID_164_" class="st10" d="M65,158.5v-10.4c0-13.3,10.9-24,24.3-24l0,0c13.4,0,24.3,10.8,24.3,24v10.4"/>
		<path id="XMLID_163_" class="st11" d="M95.6,134.8c-4.9-1.9-10.2-1.5-14.5,0.8"/>
		<path id="XMLID_162_" class="st11" d="M106.5,146.9c0,2.6-2.1,4.7-4.7,4.7s-4.7-2.1-4.7-4.7"/>
		<path id="XMLID_161_" class="st11" d="M83.5,146.9c0,2.6-2.1,4.7-4.7,4.7s-4.7-2.1-4.7-4.7"/>
		<path id="XMLID_160_" class="st10" d="M70.1,180.7"/>
		<path id="XMLID_159_" class="st10" d="M117.5,160.2c0,14.9-12,26.9-26.9,26.9s-26.9-12-26.9-26.9"/>
		<path id="XMLID_158_" class="st12" d="M118.5,143.8l5-16.5c-5.6-4.1-17-4.1-22,0"/>
		<line id="XMLID_157_" class="st12" x1="116.3" y1="160.9" x2="98.1" y2="160.9"/>
		<line id="XMLID_156_" class="st12" x1="98" y1="157.8" x2="98" y2="169.8"/>
		<line id="XMLID_155_" class="st12" x1="90" y1="155.8" x2="90" y2="173.8"/>
		<line id="XMLID_154_" class="st12" x1="81" y1="157.8" x2="81" y2="166.8"/>
		<path id="XMLID_153_" class="st12" d="M59.2,143.8l-5-16.5c5.6-4.1,17-4.1,22,0"/>
		<line id="XMLID_152_" class="st12" x1="80.3" y1="160.9" x2="64.1" y2="160.9"/>
		<path id="XMLID_151_" class="st14" d="M85.9,143.2c0-1.8,1.4-3.2,3.2-3.2c1.8,0,3.2,1.4,3.2,3.2"/>
	</g>
</g>
<g id="XMLID_255_" class="st0">
	<g id="XMLID_266_" class="st1">
		<path id="XMLID_267_" class="st15" d="M77.4,46.5l34.1,21.1l22.8,41.6l-3,26.2c0,6.1-12.2,7.6-12.2,0v-18c0-26.7-36.5-27.2-36.5,0
			c0,18.6-10.4,23.8-15.8,18.5c1.7-7.2,1.7-14.4,0-21.6c-5.3-9.9-5.3-19.5,0-28.7l-6.1-7.7L77.4,46.5z"/>
	</g>
	<g id="XMLID_264_" class="st1">
		<polyline id="XMLID_265_" class="st16" points="57.3,27.1 80.9,39.1 56.7,84.7 31.2,70.6 40.3,53 		"/>
	</g>
	<g id="XMLID_261_" class="st1">
		<circle id="XMLID_263_" class="st4" cx="51.5" cy="68.3" r="3.3"/>
		<circle id="XMLID_262_" class="st17" cx="51.5" cy="68.3" r="3.3"/>
	</g>
	<g id="XMLID_256_" class="st1">
		<g id="XMLID_259_">
			<polygon id="XMLID_260_" class="st18" points="113.4,131.5 123.1,142.7 97.1,173.3 71.5,142.7 81.2,131.5 			"/>
		</g>
		<g id="XMLID_257_">
			<path id="XMLID_258_" class="st4" d="M112.2,145.3c0.5,0.7,0.5,1.3,0,1.8l-8.5,9h-5.3l8.8-9.4c0.4-0.3,0.4-0.7,0-1l-5-5.4
				l-5.4,14.1c-0.3,0.7-0.8,1.3-1.4,1.6H91l-8.6-9c-0.5-0.7-0.5-1.3,0-1.8l8.5-9h5.3l-8.8,9.4c-0.4,0.3-0.4,0.7,0,1l5.1,5.4
				l5.6-14.7c0.2-0.6,0.6-1,1.2-1.1h4.6h0.1L112.2,145.3z"/>
		</g>
	</g>
</g>
<g id="XMLID_294_" class="st0">
	<g id="XMLID_312_" class="st1">
		<g id="XMLID_313_">
			<ellipse id="XMLID_315_" class="st3" cx="85.8" cy="156.4" rx="54.1" ry="10.5"/>
			<path id="XMLID_314_" class="st3" d="M85.8,156.4"/>
		</g>
	</g>
	<g id="XMLID_307_" class="st1">
		<path id="XMLID_311_" class="st4" d="M49.7,83c0-7.6,69.6-7.6,69.6,0v59.5c0,7.6-6.2,13.8-13.8,13.8h-42
			c-7.6,0-13.8-6.2-13.8-13.8V83z"/>
		<g id="XMLID_309_">
			<path id="XMLID_310_" class="st19" d="M49.7,83c0-7.6,69.6-7.6,69.6,0v59.5c0,7.6-6.2,13.8-13.8,13.8h-42
				c-7.6,0-13.8-6.2-13.8-13.8V83z"/>
		</g>
		<path id="XMLID_308_" class="st20" d="M49.7,83c0-7.6,69.6-7.6,69.6,0v59.5c0,7.6-6.2,13.8-13.8,13.8h-42
			c-7.6,0-13.8-6.2-13.8-13.8V83z"/>
	</g>
	<g id="XMLID_305_" class="st1">
		<polygon id="XMLID_306_" class="st18" points="101.3,103 110.6,113.7 85.6,143.1 61.1,113.7 70.3,103 		"/>
	</g>
	<g id="XMLID_303_" class="st1">
		<path id="XMLID_304_" class="st4" d="M100.1,116.2c0.5,0.6,0.5,1.2,0,1.8l-8.1,8.7h-5.1l8.5-9c0.4-0.3,0.4-0.6,0-1l-4.8-5.2
			l-5.2,13.6c-0.3,0.7-0.7,1.2-1.4,1.5h-4.3l-8.2-8.6c-0.5-0.6-0.5-1.2,0-1.8l8.1-8.7h5.1l-8.5,9c-0.4,0.3-0.4,0.6,0,1l4.9,5.2
			l5.4-14.1c0.2-0.6,0.6-1,1.1-1H92l0,0L100.1,116.2z"/>
	</g>
	<g id="XMLID_301_" class="st1">
		<path id="XMLID_302_" class="st21" d="M122.5,91.1c12.1,0,21.8,9.8,21.8,21.8c0,12.1-9.8,21.8-21.8,21.8"/>
	</g>
	<g id="XMLID_299_" class="st1">
		<path id="XMLID_300_" class="st22" d="M99.8,23.1c0,0-43.7,6.4-17.5,24.3C103.4,61.8,84,68.8,84,68.8"/>
	</g>
	<g id="XMLID_295_" class="st1">
		<g id="XMLID_296_">
			<ellipse id="XMLID_298_" class="st3" cx="84.7" cy="83.1" rx="36.5" ry="7.5"/>
			<path id="XMLID_297_" class="st3" d="M84.7,83.1"/>
		</g>
	</g>
</g>
<g id="XMLID_316_" class="st0">
	<g id="XMLID_318_" class="st1">
		<path id="XMLID_334_" class="st23" d="M99.9,145.5h19.4c8,0,14.5,5.7,14.5,12.7v15.9"/>
		<path id="XMLID_333_" class="st23" d="M41,174.1v-15.9c0-7,6.5-12.7,14.5-12.7h19.4"/>
		<polyline id="XMLID_332_" class="st23" points="99.6,137.3 99.6,146.2 87.4,159.1 75.2,146.2 75.2,138.3 		"/>
		<path id="XMLID_331_" class="st23" d="M59.7,71.4C47.8,70.9,45.9,81.5,45,86.1c-5.1,3-8.4,8.3-8.4,14.4c0,5.4,2.7,10.2,6.8,13.3
			c-0.7,1.6-1.2,3.3-1.2,5.1c0,7.7,7.4,13.9,16.6,13.9c0.8,0,3.3,0,4.1-0.1"/>
		<path id="XMLID_330_" class="st24" d="M115.1,97c0.8-0.3,1.8-0.5,2.7-0.5c4.4,0,7.9,3.5,7.9,7.8s-3.5,7.8-7.9,7.8"/>
		<path id="XMLID_329_" class="st24" d="M53.5,112.1c-4.4,0-7.9-3.5-7.9-7.8s3.5-7.8,7.9-7.8"/>
		<path id="XMLID_328_" class="st23" d="M116.3,96v13.2c0,16.8-13.8,30.5-30.8,30.5l0,0c-17,0-30.8-13.6-30.8-30.5V96"/>
		<path id="XMLID_327_" class="st23" d="M77.4,126.1c6.2,2.5,12.9,1.9,18.4-1"/>
		<path id="XMLID_326_" class="st23" d="M74.9,75.9c-2.6,7.4-8,13.9-15.5,17.8c-2,1-3.6,1.8-5.9,2.6"/>
		<path id="XMLID_325_" class="st23" d="M116.5,95.8c-13.3,0.7-29.4-3.5-35.7-17l-1.5-3.3"/>
		<polyline id="XMLID_324_" class="st23" points="89.6,115.6 83.6,115.6 83.6,103.8 		"/>
		<path id="XMLID_323_" class="st23" d="M63.6,107c0-3.3,2.6-5.9,5.9-5.9s5.9,2.7,5.9,5.9"/>
		<path id="XMLID_322_" class="st23" d="M92.8,107c0-3.3,2.6-5.9,5.9-5.9s5.9,2.7,5.9,5.9"/>
		<path id="XMLID_319_" class="st3" d="M135.7,63.2c0-1.7-1-3.1-2.5-3.7V46.2c0-1.7-1.3-3.1-2.9-3.4c-0.2-0.2-0.4-0.3-0.6-0.5
			l-44.2-20c-0.5-0.2-1.2-0.2-1.7,0L39.6,42.4c-0.7,0.3-1.2,1.1-1.2,1.9s0.5,1.5,1.2,1.9l18.6,8.5h-0.1v23.2
			c0,6,12.7,11.5,26.5,11.5c13.9,0,26.5-5.5,26.5-11.5V54.7H111l18.6-8.5c0.2-0.1,0.3-0.2,0.4-0.3c0.1,0.1,0.1,0.2,0.1,0.3v13.3
			c-1.5,0.6-2.5,2-2.5,3.7c0,1.7,1,3.1,2.5,3.7v10.2c0,0.8,0.7,1.5,1.5,1.5s1.5-0.7,1.5-1.5V66.9C134.7,66.3,135.7,64.9,135.7,63.2z
			 M84.6,26.4l35.9,16.4H84.7c-0.8,0-1.5,0.7-1.5,1.5s0.7,1.5,1.5,1.5h35.9l-36,16.4L45.5,44.3L84.6,26.4z"/>
	</g>
	<path id="XMLID_317_" class="st25" d="M111.5,71.4c11.9-0.5,13.8,10.1,14.7,14.7c5.1,3,8.4,8.3,8.4,14.4c0,5.4-2.7,10.2-6.8,13.3
		c0.7,1.6,1.2,3.3,1.2,5.1c0,7.7-7.4,13.9-16.6,13.9c-0.8,0-3.3,0-4.1-0.1"/>
</g>
<g id="XMLID_335_" class="st0">
	<path id="XMLID_350_" class="st8" d="M131.8,108.2c0,1.5-1.2,2.7-2.7,2.7s-2.7-1.2-2.7-2.7s1.2-2.7,2.7-2.7
		S131.8,106.7,131.8,108.2L131.8,108.2z"/>
	<path id="XMLID_342_" class="st8" d="M139.4,101.5l-24-24c-1.5-1.5-3.5-2.4-5.7-2.4c-2.1,0-4.2,0.8-5.7,2.4l-5.6,5.6
		c-0.9,0.9-1.5,1.9-1.9,3l-26.4-4.7l0,0C58.2,79,46.6,86.7,44.2,98.6l-1.2,6c-1.3,6.7,3,13.2,9.7,14.5s13.2-3,14.5-9.7l0.7-3.7
		l11.8,1l30.9,30.9l5.6,5.6c1.1,1.1,1.1,3,0,4.1s-3,1.1-4.1,0l-15-15c-1-1-2.7-1-3.8,0c-1,1-1,2.7,0,3.8l15,15
		c0.5,0.5,0.9,1.3,0.9,2.1s-0.3,1.5-0.9,2.1c-1.1,1.1-3,1.1-4.1,0l-15-15c-1-1-2.7-1-3.8,0c-1,1-1,2.7,0,3.8l15,15
		c1.1,1.1,1.1,3,0,4.1c-0.5,0.5-1.3,0.9-2.1,0.9c-0.8,0-1.5-0.3-2.1-0.9l-15-15c-1-1-2.7-1-3.8,0c-1,1-1,2.7,0,3.8l15,15
		c1.1,1.1,1.1,3,0,4.1s-3,1.1-4.1,0L20.4,103c-1-1-2.7-1-3.8,0c-1,1-1,2.7,0,3.8l22.6,22.6l-4.2,4.2c-1.4,1.4-2.1,3.2-2.1,5.2
		c0,1.9,0.8,3.8,2.1,5.2l1.4,1.4c1.2,1.2,2.8,1.9,4.4,2.1c0.2,1.7,0.9,3.2,2.1,4.4l1.4,1.4c1.2,1.2,2.8,1.9,4.4,2.1
		c0.2,1.7,0.9,3.2,2.1,4.4l1.4,1.4c1.2,1.2,2.8,1.9,4.4,2.1c0.2,1.7,0.9,3.2,2.1,4.4l1.4,1.4c1.4,1.4,3.3,2.1,5.2,2.1
		c1.9,0,3.7-0.7,5.2-2.1l4.2-4.2L84.8,175c1.6,1.6,3.6,2.4,5.8,2.4c2.2,0,4.3-0.9,5.8-2.4s2.3-3.4,2.4-5.5c2.1-0.1,4-0.9,5.5-2.4
		s2.3-3.5,2.4-5.5c2-0.1,4-0.9,5.5-2.4s2.3-3.5,2.4-5.5c2-0.1,4-0.9,5.5-2.4c3.2-3.2,3.2-8.5,0-11.7l-3.7-3.7l13.6-13.6l9.4-9.4
		C142.5,109.7,142.5,104.6,139.4,101.5L139.4,101.5z M38.8,140.2c-0.8-0.8-0.8-2,0-2.7l3.9-3.9l4.1,4.1l-3.9,3.9
		c-0.8,0.8-2,0.8-2.7,0L38.8,140.2z M46.7,148.1c-0.8-0.8-0.8-2,0-2.7l3.9-3.9l4.1,4.1l-3.9,3.9c-0.8,0.8-2,0.8-2.7,0L46.7,148.1z
		 M54.6,156c-0.4-0.4-0.6-0.9-0.6-1.4s0.2-1,0.6-1.4l3.9-3.9l4.1,4.1l-3.9,3.9c-0.8,0.8-2,0.8-2.7,0L54.6,156z M66.6,165.3
		c-0.8,0.8-2,0.8-2.7,0l-1.4-1.4c-0.8-0.8-0.8-2,0-2.7l3.9-3.9l4.1,4.1L66.6,165.3z M112.6,132.1l-29.7-29.7c-0.4-0.4-1-0.7-1.7-0.8
		L66,100.3c-0.1,0-0.2,0-0.2,0c-1.3,0-2.4,0.9-2.6,2.1l-1.2,6c-0.8,3.8-4.4,6.2-8.2,5.5c-1.8-0.4-3.4-1.4-4.4-3s-1.4-3.4-1-5.2
		l1.2-6c1.8-9,10.6-14.8,19.6-13c0,0,0,0,0.1,0l26,4.7l29.1,29.1L112.6,132.1z M135.6,109.1l-7.5,7.5l-25.9-25.9
		c-0.5-0.5-0.8-1.2-0.8-1.9c0-0.7,0.3-1.4,0.8-1.9l5.6-5.6c0.5-0.5,1.2-0.8,1.9-0.8s1.4,0.3,1.9,0.8l24,24c0.5,0.5,0.8,1.2,0.8,1.9
		C136.4,107.9,136.1,108.5,135.6,109.1L135.6,109.1z"/>
	<polyline id="XMLID_341_" class="st26" points="87.2,60.1 87.4,24 104.2,24 104.2,68.6 114.8,68.6 123.9,36.6 140.8,36.6 
		140.8,68.6 181.7,68.6 143.2,99.6 	"/>
	<path id="XMLID_340_" class="st26" d="M12,98.9l-29.3-30.3H6.2c1.1-17.3,11.3-25.2,30.5-23.5v23.5h14.5V40h22.2l0.1,29.1H88"/>
	<line id="XMLID_339_" class="st27" x1="131.8" y1="55" x2="139.7" y2="55"/>
	<line id="XMLID_338_" class="st27" x1="131.8" y1="47" x2="139.7" y2="47"/>
	<line id="XMLID_337_" class="st27" x1="51.8" y1="57" x2="59.7" y2="57"/>
	<line id="XMLID_336_" class="st27" x1="51.8" y1="50" x2="59.7" y2="50"/>
</g>
<g id="XMLID_378_" class="st0">
	<g id="XMLID_398_" class="st1">
		<path id="XMLID_399_" class="st28" d="M99.9,50.7l-9.2-9.2L84,48.1c-3-1.9-5.5-3.3-9.9-4.1v-9.4h-6.5h-6.5V44
			c-4.3,0.8-6.9,2.2-9.9,4.1l-6.7-6.7l-9.2,9.2l6.7,6.7c-1.9,3-3.3,5.5-4.1,9.9h-9.4v13h9.4c0.8,4.3,2.2,6.9,4.1,9.9l-6.7,6.7
			l9.2,9.2l6.7-6.7c3,1.9,5.5,3.3,9.9,4.1v9.4h6.5"/>
	</g>
	<g id="XMLID_396_" class="st1">
		<path id="XMLID_397_" class="st28" d="M67.6,93.3C56.8,93.3,48,84.6,48,73.8s8.8-19.6,19.6-19.6h4.3"/>
	</g>
	<g id="XMLID_394_" class="st1">
		<path id="XMLID_395_" class="st28" d="M67.6,82.5c-4.8,0-8.7-3.9-8.7-8.7c0-4.8,3.9-8.7,8.7-8.7"/>
	</g>
	<g id="XMLID_391_" class="st1">
		<path id="XMLID_393_" class="st18" d="M137.1,73.8v-6.5c0-4.8-3.9-8.7-8.7-8.7H82.8c-4.8,0-8.7,3.9-8.7,8.7v6.5H137.1z"/>
		<path id="XMLID_392_" class="st28" d="M137.1,73.8v-6.5c0-4.8-3.9-8.7-8.7-8.7H82.8c-4.8,0-8.7,3.9-8.7,8.7v6.5H137.1z"/>
	</g>
	<g id="XMLID_388_" class="st1">
		<path id="XMLID_390_" class="st18" d="M74.1,145.5v8.7c0,4.2,4.5,8.7,8.7,8.7h45.6c4.2,0,8.7-4.5,8.7-8.7v-8.7H74.1z"/>
		<path id="XMLID_389_" class="st28" d="M74.1,145.5v8.7c0,4.2,4.5,8.7,8.7,8.7h45.6c4.2,0,8.7-4.5,8.7-8.7v-8.7H74.1z"/>
	</g>
	<g id="XMLID_385_" class="st1">
		<polygon id="XMLID_387_" class="st4" points="74.1,108.5 74.1,73.8 137.1,73.8 137.1,145.5 74.1,145.5 		"/>
		<polygon id="XMLID_386_" class="st28" points="74.1,108.5 74.1,73.8 137.1,73.8 137.1,145.5 74.1,145.5 		"/>
	</g>
	<g id="XMLID_383_" class="st1">
		<line id="XMLID_384_" class="st28" x1="98" y1="154.2" x2="113.2" y2="154.2"/>
	</g>
	<g id="XMLID_381_" class="st1">
		<path id="XMLID_382_" class="st28" d="M130.6,84.6h-5.1c-0.5,1.7-1.1,3.3-2,4.8l5.1,5.1l-7.7,7.7l-5.1-5.1c-1.5,0.9-3.1,1.5-4.8,2
			v7.3h-10.9v-7.3c-1.7-0.5-3.3-1.1-4.8-2l-5.1,5.1l-7.7-7.7l5.1-5.1c-0.9-1.5-1.5-3.1-2-4.8h-5.1"/>
	</g>
	<g id="XMLID_379_" class="st1">
		<path id="XMLID_380_" class="st28" d="M98.1,78.1c0,4.2,3.4,7.6,7.6,7.6s7.6-3.4,7.6-7.6"/>
	</g>
</g>
<g id="XMLID_439_" class="st0">
	<g id="XMLID_465_" class="st1">
		<path id="XMLID_466_" class="st3" d="M128.2,117.3c0-3.1,2.5-5.6,5.6-5.6s5.6,2.5,5.6,5.6s-2.5,5.6-5.6,5.6
			S128.2,120.4,128.2,117.3z M118.7,107.8c0-3.1,2.5-5.6,5.6-5.6s5.6,2.5,5.6,5.6s-2.5,5.6-5.6,5.6
			C121.3,113.4,118.7,110.9,118.7,107.8z M118.7,126.8c0-3.1,2.5-5.6,5.6-5.6s5.6,2.5,5.6,5.6c0,3.1-2.5,5.6-5.6,5.6
			C121.3,132.4,118.7,129.9,118.7,126.8z M109.2,117.3c0-3.1,2.5-5.6,5.6-5.6s5.6,2.5,5.6,5.6s-2.5,5.6-5.6,5.6
			C111.8,122.9,109.2,120.4,109.2,117.3z"/>
	</g>
	<g id="XMLID_463_" class="st1">
		<path id="XMLID_464_" class="st2" d="M97.7,100.2c5.8-7.8,15.1-12.8,25.6-12.8c17.6,0,31.9,14.3,31.9,31.9s-14.3,31.9-31.9,31.9
			c-10.5,0-19.7-5-25.6-12.8H66.3c-5.8,7.8-15.1,12.8-25.6,12.8c-17.6,0-31.9-14.3-31.9-31.9s14.3-31.9,31.9-31.9
			c10.5,0,19.7,5,25.6,12.8H97.7z"/>
	</g>
	<g id="XMLID_461_" class="st1">
		<polygon id="XMLID_462_" class="st18" points="34.3,104.6 43.3,104.6 43.3,113.8 52.4,113.8 52.4,122.8 43.3,122.8 43.3,131.9 
			34.3,131.9 34.3,122.8 25.2,122.8 25.2,113.8 34.3,113.8 		"/>
	</g>
	<g id="XMLID_457_" class="st1">
		<g id="XMLID_458_">
			<polygon id="XMLID_460_" class="st2" points="73.3,87.2 90.7,87.2 90.7,100.4 73.3,100.4 			"/>
			<path id="XMLID_459_" class="st2" d="M82,93.8"/>
		</g>
	</g>
	<g id="XMLID_455_" class="st1">
		<path id="XMLID_456_" class="st2" d="M80.5,86.8c0,0,4.3-15.7,0-24c-8.3-16.2-28.4,0-46.6,0"/>
	</g>
	<g id="XMLID_450_" class="st1">
		<g id="XMLID_451_">
			<g>
				<defs>
					<line id="SVGID_1_" x1="17.2" y1="70.6" x2="25.2" y2="69.3"/>
				</defs>
				<clipPath id="SVGID_2_">
					<use xlink:href="#SVGID_1_"  style="overflow:visible;"/>
				</clipPath>
				<g id="XMLID_453_" class="st29">
					<line id="XMLID_454_" class="st30" x1="17.2" y1="70.6" x2="25.2" y2="69.3"/>
				</g>
			</g>
			<g>
				<line id="XMLID_452_" class="st30" x1="17.2" y1="70.6" x2="25.2" y2="69.3"/>
			</g>
		</g>
	</g>
	<g id="XMLID_445_" class="st1">
		<g id="XMLID_446_">
			<g>
				<defs>
					<line id="SVGID_3_" x1="18.6" y1="57.4" x2="26.2" y2="60.3"/>
				</defs>
				<clipPath id="SVGID_4_">
					<use xlink:href="#SVGID_3_"  style="overflow:visible;"/>
				</clipPath>
				<g id="XMLID_448_" class="st31">
					<line id="XMLID_449_" class="st30" x1="18.6" y1="57.4" x2="26.2" y2="60.3"/>
				</g>
			</g>
			<g>
				<line id="XMLID_447_" class="st30" x1="18.6" y1="57.4" x2="26.2" y2="60.3"/>
			</g>
		</g>
	</g>
	<g id="XMLID_440_" class="st1">
		<g id="XMLID_441_">
			<g>
				<defs>
					<line id="SVGID_5_" x1="26.8" y1="47.2" x2="32" y2="53.5"/>
				</defs>
				<clipPath id="SVGID_6_">
					<use xlink:href="#SVGID_5_"  style="overflow:visible;"/>
				</clipPath>
				<g id="XMLID_443_" class="st32">
					<line id="XMLID_444_" class="st30" x1="26.8" y1="47.2" x2="32" y2="53.5"/>
				</g>
			</g>
			<g>
				<line id="XMLID_442_" class="st30" x1="26.8" y1="47.2" x2="32" y2="53.5"/>
			</g>
		</g>
	</g>
</g>
<g id="XMLID_497_" class="st0">
	<g id="XMLID_523_" class="st1">
		<path id="XMLID_528_" class="st3" d="M123.4,13.9H56.3c-8.1,0-14.8,6.6-14.8,14.8V55h-5c-5.1,0-9.3,4.2-9.3,9.3v21.4
			c0,5.1,4.2,9.3,9.3,9.3H38v4c0,1.4,0.8,2.7,2.1,3.4c0.5,0.3,1.1,0.4,1.7,0.4c0.8,0,1.6-0.3,2.3-0.8l9.2-7h17.8
			c5.1,0,9.3-4.2,9.3-9.3v-3.2h13.2L111,95.9c0.8,0.6,1.8,0.9,2.8,0.9c2.5,0,4.6-2.1,4.6-4.6v-9.7h5c8.2,0,14.8-6.6,14.8-14.8V28.6
			C138.2,20.5,131.6,13.9,123.4,13.9z M74.9,85.8c0,2.1-1.7,3.8-3.8,3.8H51.4l-7.8,6v-6h-7c-2.1,0-3.8-1.7-3.8-3.8V64.4
			c0-2.1,1.7-3.8,3.8-3.8h5v7.2c0,8.2,6.6,14.8,14.8,14.8H75L74.9,85.8L74.9,85.8z M132.7,67.8c0,5.1-4.2,9.3-9.3,9.3h-10.6v13.3
			L95.5,77H56.3c-5.1,0-9.3-4.2-9.3-9.3V28.6c0-5.1,4.2-9.3,9.3-9.3h67.1c5.1,0,9.3,4.2,9.3,9.3V67.8z"/>
		<path id="XMLID_524_" class="st33" d="M123.4,13.9H56.3c-8.1,0-14.8,6.6-14.8,14.8V55h-5c-5.1,0-9.3,4.2-9.3,9.3v21.4
			c0,5.1,4.2,9.3,9.3,9.3H38v4c0,1.4,0.8,2.7,2.1,3.4c0.5,0.3,1.1,0.4,1.7,0.4c0.8,0,1.6-0.3,2.3-0.8l9.2-7h17.8
			c5.1,0,9.3-4.2,9.3-9.3v-3.2h13.2L111,95.9c0.8,0.6,1.8,0.9,2.8,0.9c2.5,0,4.6-2.1,4.6-4.6v-9.7h5c8.2,0,14.8-6.6,14.8-14.8V28.6
			C138.2,20.5,131.6,13.9,123.4,13.9z M74.9,85.8c0,2.1-1.7,3.8-3.8,3.8H51.4l-7.8,6v-6h-7c-2.1,0-3.8-1.7-3.8-3.8V64.4
			c0-2.1,1.7-3.8,3.8-3.8h5v7.2c0,8.2,6.6,14.8,14.8,14.8H75L74.9,85.8L74.9,85.8z M132.7,67.8c0,5.1-4.2,9.3-9.3,9.3h-10.6v13.3
			L95.5,77H56.3c-5.1,0-9.3-4.2-9.3-9.3V28.6c0-5.1,4.2-9.3,9.3-9.3h67.1c5.1,0,9.3,4.2,9.3,9.3V67.8z"/>
	</g>
	<g id="XMLID_520_" class="st1">
		<path id="XMLID_522_" class="st3" d="M158.6,127.4c-1.3-15.7-14.1-28.6-29.8-30.1c-13.5-1.2-26.2,5.8-32.3,17.8c0,0,0,0.1-0.1,0.1
			l-12.3,28.4c-0.2,0.6-0.2,1.2,0.2,1.7c0.3,0.5,0.9,0.8,1.5,0.8h7v7.3c0,5.4,4.4,9.7,9.7,9.7h4.8v19.5c0,1,0.8,1.8,1.8,1.8
			s1.8-0.8,1.8-1.8v-21.3c0-1-0.8-1.8-1.8-1.8h-6.6c-3.3,0-6-2.7-6-6v-9.1c0-1-0.8-1.8-1.8-1.8h-6l11.1-25.7
			c5.5-10.6,16.7-16.8,28.7-15.7c13.9,1.3,25.3,12.7,26.5,26.7c0.9,11-4.3,21.5-13.7,27.3c-0.5,0.3-0.9,0.9-0.9,1.6v26.1
			c0,1,0.8,1.8,1.8,1.8s1.8-0.8,1.8-1.8v-25.1C154.1,150.9,159.6,139.4,158.6,127.4z"/>
		<path id="XMLID_521_" class="st34" d="M158.6,127.4c-1.3-15.7-14.1-28.6-29.8-30.1c-13.5-1.2-26.2,5.8-32.3,17.8
			c0,0,0,0.1-0.1,0.1l-12.3,28.4c-0.2,0.6-0.2,1.2,0.2,1.7c0.3,0.5,0.9,0.8,1.5,0.8h7v7.3c0,5.4,4.4,9.7,9.7,9.7h4.8v19.5
			c0,1,0.8,1.8,1.8,1.8s1.8-0.8,1.8-1.8v-21.3c0-1-0.8-1.8-1.8-1.8h-6.6c-3.3,0-6-2.7-6-6v-9.1c0-1-0.8-1.8-1.8-1.8h-6l11.1-25.7
			c5.5-10.6,16.7-16.8,28.7-15.7c13.9,1.3,25.3,12.7,26.5,26.7c0.9,11-4.3,21.5-13.7,27.3c-0.5,0.3-0.9,0.9-0.9,1.6v26.1
			c0,1,0.8,1.8,1.8,1.8s1.8-0.8,1.8-1.8v-25.1C154.1,150.9,159.6,139.4,158.6,127.4z"/>
	</g>
	<g id="XMLID_517_" class="st1">
		<path id="XMLID_519_" class="st3" d="M7.1,135.4c1.3-15.7,14.1-28.6,29.8-30.1c13.5-1.2,26.2,5.8,32.3,17.8c0,0,0,0.1,0.1,0.1
			l12.3,28.4c0.2,0.6,0.2,1.2-0.2,1.7c-0.3,0.5-0.9,0.8-1.5,0.8h-7v7.3c0,5.4-4.4,9.7-9.7,9.7h-4.8v9.5c0,1-0.8,1.8-1.8,1.8
			s-1.8-0.8-1.8-1.8v-11.3c0-1,0.8-1.8,1.8-1.8h6.6c3.3,0,6-2.7,6-6v-9.1c0-1,0.8-1.8,1.8-1.8h6l-11.1-25.7
			c-5.5-10.6-16.7-16.8-28.7-15.7c-13.9,1.3-25.3,12.7-26.5,26.7c-0.9,11,4.3,21.5,13.7,27.3c0.5,0.3,0.9,0.9,0.9,1.6v16.1
			c0,1-0.8,1.8-1.8,1.8s-1.8-0.8-1.8-1.8v-15.1C11.6,158.9,6.1,147.4,7.1,135.4z"/>
		<path id="XMLID_518_" class="st34" d="M7.1,135.4c1.3-15.7,14.1-28.6,29.8-30.1c13.5-1.2,26.2,5.8,32.3,17.8c0,0,0,0.1,0.1,0.1
			l12.3,28.4c0.2,0.6,0.2,1.2-0.2,1.7c-0.3,0.5-0.9,0.8-1.5,0.8h-7v7.3c0,5.4-4.4,9.7-9.7,9.7h-4.8v9.5c0,1-0.8,1.8-1.8,1.8
			s-1.8-0.8-1.8-1.8v-11.3c0-1,0.8-1.8,1.8-1.8h6.6c3.3,0,6-2.7,6-6v-9.1c0-1,0.8-1.8,1.8-1.8h6l-11.1-25.7
			c-5.5-10.6-16.7-16.8-28.7-15.7c-13.9,1.3-25.3,12.7-26.5,26.7c-0.9,11,4.3,21.5,13.7,27.3c0.5,0.3,0.9,0.9,0.9,1.6v16.1
			c0,1-0.8,1.8-1.8,1.8s-1.8-0.8-1.8-1.8v-15.1C11.6,158.9,6.1,147.4,7.1,135.4z"/>
	</g>
	<g id="XMLID_515_" class="st1">
		<path id="XMLID_516_" class="st23" d="M102,129.8c0-3.3,2.6-5.9,5.9-5.9s5.9,2.7,5.9,5.9"/>
	</g>
	<g id="XMLID_513_" class="st1">
		<path id="XMLID_514_" class="st23" d="M47,133.1c0-3.3,2.6-5.9,5.9-5.9s5.9,2.7,5.9,5.9"/>
	</g>
	<g id="XMLID_511_" class="st1">
		<line id="XMLID_512_" class="st30" x1="59.4" y1="49.1" x2="121.4" y2="49.1"/>
	</g>
	<g id="XMLID_509_" class="st1">
		<line id="XMLID_510_" class="st30" x1="73.4" y1="62.1" x2="107.4" y2="62.1"/>
	</g>
	<g id="XMLID_507_" class="st1">
		<line id="XMLID_508_" class="st30" x1="82.2" y1="35.6" x2="113.2" y2="35.6"/>
	</g>
	<g id="XMLID_505_" class="st1">
		<line id="XMLID_506_" class="st30" x1="59.3" y1="35.6" x2="74.2" y2="35.6"/>
	</g>
	<g id="XMLID_500_" class="st1">
		<g id="XMLID_501_">
			<g>
				<defs>
					<line id="SVGID_7_" x1="60.4" y1="62.1" x2="65.4" y2="62.1"/>
				</defs>
				<clipPath id="SVGID_8_">
					<use xlink:href="#SVGID_7_"  style="overflow:visible;"/>
				</clipPath>
				<g id="XMLID_503_" class="st35">
					<line id="XMLID_504_" class="st30" x1="60.4" y1="62.1" x2="94.4" y2="62.1"/>
				</g>
			</g>
			<g>
				<line id="XMLID_502_" class="st30" x1="60.4" y1="62.1" x2="65.4" y2="62.1"/>
			</g>
		</g>
	</g>
	<g id="XMLID_498_" class="st1">
		<line id="XMLID_499_" class="st30" x1="115.4" y1="62.1" x2="120.4" y2="62.1"/>
	</g>
</g>
<g id="XMLID_532_">
	<g id="XMLID_572_">
		<g id="XMLID_573_">
			<path id="XMLID_575_" class="st36" d="M22.7,65.1c0-9.4,7.6-17,17-17h73c9.4,0,17,7.6,17,17v55c0,9.4-7.6,17-17,17h-73
				c-9.4,0-17-7.6-17-17L22.7,65.1L22.7,65.1z"/>
			<path id="XMLID_574_" class="st36" d="M76.2,92.6"/>
		</g>
	</g>
	<g id="XMLID_570_">
		<path id="XMLID_571_" class="st37" d="M22.8,65.1c0-0.2,0-0.3,0-0.5"/>
	</g>
	<g id="XMLID_567_">
		<path id="XMLID_569_" class="st38" d="M22.8,64.6c0.2-9.2,7.7-16.5,16.9-16.5h73c9.4,0,17,7.6,17,17L22.8,64.6z"/>
		<path id="XMLID_568_" class="st36" d="M22.8,64.6c0.2-9.2,7.7-16.5,16.9-16.5h73c9.4,0,17,7.6,17,17L22.8,64.6z"/>
	</g>
	<g id="XMLID_563_">
		<g id="XMLID_564_">
			<circle id="XMLID_566_" class="st38" cx="115.8" cy="128.8" r="35.5"/>
			<path id="XMLID_565_" class="st3" d="M115.8,128.8"/>
		</g>
	</g>
	<g id="XMLID_561_">
		<path id="XMLID_562_" class="st4" d="M140.7,127.2c0.8,1.1,0.8,2.1,0,3l-14.1,15.1h-8.8l14.6-15.6c0.6-0.5,0.6-1.1,0-1.7l-8.3-8.9
			l-9,23.5c-0.5,1.2-1.3,2.1-2.4,2.7h-7.4l-14.2-15c-0.8-1.1-0.8-2.1,0-3l14.1-15.1h8.8l-14.6,15.6c-0.6,0.5-0.6,1.1,0,1.7l8.4,9
			l9.3-24.4c0.3-1,1-1.7,2-1.8h7.6h0.1L140.7,127.2z"/>
	</g>
	<g id="XMLID_559_">
		<path id="XMLID_560_" class="st39" d="M37.5,46.5C37.5,40.7,42.2,36,48,36s10.5,4.7,10.5,10.5"/>
	</g>
	<g id="XMLID_557_">
		<path id="XMLID_558_" class="st40" d="M48,57c-5.8,0-10.5-4.7-10.5-10.5"/>
	</g>
	<g id="XMLID_555_">
		<path id="XMLID_556_" class="st39" d="M92.5,46.5c0-5.8,4.7-10.5,10.5-10.5s10.5,4.7,10.5,10.5"/>
	</g>
	<g id="XMLID_553_">
		<path id="XMLID_554_" class="st40" d="M103,57c-5.8,0-10.5-4.7-10.5-10.5"/>
	</g>
	<g id="XMLID_551_">
		<line id="XMLID_552_" class="st41" x1="37.3" y1="79.1" x2="52.2" y2="79.1"/>
	</g>
	<g id="XMLID_549_">
		<line id="XMLID_550_" class="st41" x1="66.3" y1="79.1" x2="81.2" y2="79.1"/>
	</g>
	<g id="XMLID_547_">
		<line id="XMLID_548_" class="st41" x1="95.3" y1="79.1" x2="110.2" y2="79.1"/>
	</g>
	<g id="XMLID_545_">
		<line id="XMLID_546_" class="st41" x1="38.3" y1="90.1" x2="53.2" y2="90.1"/>
	</g>
	<g id="XMLID_543_">
		<line id="XMLID_544_" class="st41" x1="67.3" y1="90.1" x2="82.2" y2="90.1"/>
	</g>
	<g id="XMLID_541_">
		<line id="XMLID_542_" class="st41" x1="96.3" y1="90.1" x2="111.2" y2="90.1"/>
	</g>
	<g id="XMLID_539_">
		<line id="XMLID_540_" class="st41" x1="38.3" y1="101.1" x2="53.2" y2="101.1"/>
	</g>
	<g id="XMLID_537_">
		<line id="XMLID_538_" class="st41" x1="67.3" y1="101.1" x2="82.2" y2="101.1"/>
	</g>
	<g id="XMLID_535_">
		<line id="XMLID_536_" class="st41" x1="38.3" y1="113.1" x2="53.2" y2="113.1"/>
	</g>
	<g id="XMLID_533_">
		<line id="XMLID_534_" class="st41" x1="67.3" y1="113.1" x2="82.2" y2="113.1"/>
	</g>
</g>
</svg>
