<?xml version="1.0" encoding="utf-8"?>
<!-- Generator: Adobe Illustrator 22.1.0, SVG Export Plug-In . SVG Version: 6.00 Build 0)  -->
<svg version="1.1" id="Capa_1" xmlns="http://www.w3.org/2000/svg" xmlns:xlink="http://www.w3.org/1999/xlink" x="0px" y="0px"
	 viewBox="0 0 532.3 532.3" style="enable-background:new 0 0 532.3 532.3;" xml:space="preserve">
<style type="text/css">
	.st0{clip-path:url(#SVGID_2_);fill:#353535;}
</style>
<g id="XMLID_828_">
	<g>
		<defs>
			<rect id="SVGID_1_" x="104.8" y="84.7" width="322.7" height="362.9"/>
		</defs>
		<clipPath id="SVGID_2_">
			<use xlink:href="#SVGID_1_"  style="overflow:visible;"/>
		</clipPath>
		<path id="XMLID_830_" class="st0" d="M104.9,227.7c0-6.4,5.2-11.6,11.7-11.6h13h6.4v-32.7c0-10.7,8.7-19.4,19.4-19.4h6.8
			c-7.3-8-11.7-18.6-11.7-30.3c0-24.9,20.2-45.2,45.2-45.2s45.2,20.2,45.2,45.2c0,11.7-4.5,22.2-11.7,30.3h6.5
			c10.7,0,19.4,8.7,19.4,19.4V216h6.7h12.9c6.5,0,11.7,5.2,11.7,11.6s-5.2,11.7-11.7,11.7h-3.1l-2.5,14.9c-0.9,0-1.8-0.2-2.7-0.2
			c-21.9,0-40.9,12.6-50.2,31c-9.2-18.3-28.2-31-50.1-31c-16.1,0-30.6,6.9-40.9,17.8l-5.4-32.5h-3.1
			C110.2,239.3,104.9,234.1,104.9,227.7 M427.5,429.8c0,9.9-8,17.8-17.8,17.8H122.6c-9.8,0-17.8-8-17.8-17.8c0-8,5.3-14.7,12.5-16.9
			c-2.4-2.9-3.8-6.6-3.8-10.6v-48.4c0-9.4,7.6-17.1,17.1-17.1h6c-6.4-7-10.3-16.3-10.3-26.6c0-21.9,17.8-39.7,39.7-39.7
			c22,0,39.8,17.8,39.8,39.7c0,10.2-3.9,19.6-10.3,26.6h5.7c6.4,0,11.9,3.6,14.8,8.8c2.9-5.2,8.5-8.8,14.9-8.8h6
			c-6.4-7-10.3-16.3-10.3-26.6c0-21.9,17.8-39.7,39.7-39.7s39.7,17.8,39.7,39.7c0,10.2-3.9,19.6-10.3,26.6h5.7
			c6.4,0,11.9,3.6,14.9,8.8c2.9-5.2,8.5-8.8,14.9-8.8h6c-6.4-7-10.3-16.3-10.3-26.6c0-21.9,17.8-39.7,39.7-39.7
			c21.9,0,39.7,17.8,39.7,39.7c0,10.2-3.9,19.6-10.3,26.6h5.7c9.5,0,17.1,7.7,17.1,17.1v48.4c0,4-1.5,7.7-3.8,10.6
			C422.2,415.1,427.5,421.8,427.5,429.8 M321.5,163h63.1c4.3,0,7.8,3.5,7.8,7.8s-3.5,7.8-7.8,7.8h-63.1c-4.3,0-7.8-3.5-7.8-7.8
			S317.2,163,321.5,163 M321.5,137.7h63.1c4.3,0,7.8,3.5,7.8,7.8s-3.5,7.8-7.8,7.8h-63.1c-4.3,0-7.8-3.5-7.8-7.8
			S317.2,137.7,321.5,137.7 M321.5,112.5h63.1c4.3,0,7.8,3.5,7.8,7.8s-3.5,7.8-7.8,7.8h-63.1c-4.3,0-7.8-3.5-7.8-7.8
			S317.2,112.5,321.5,112.5 M269.7,195l36.8-6c13.2,8.7,29.9,13.6,47,13.6c40.7,0,73.8-26.4,73.8-58.9s-33.1-58.9-73.8-58.9
			s-73.8,26.4-73.8,58.9c0,8.2,2.1,16.2,6.3,23.7l-19.8,21.2c-1.1,1.2-1.4,3-0.6,4.5C266.4,194.4,268,195.3,269.7,195"/>
	</g>
</g>
</svg>
