<?xml version="1.0" encoding="utf-8"?>
<!-- Generator: Adobe Illustrator 22.1.0, SVG Export Plug-In . SVG Version: 6.00 Build 0)  -->
<svg version="1.1" id="Capa_1" xmlns="http://www.w3.org/2000/svg" xmlns:xlink="http://www.w3.org/1999/xlink" x="0px" y="0px"
	 viewBox="0 0 140 140" style="enable-background:new 0 0 140 140;" xml:space="preserve">
<style type="text/css">
	.st0{fill:#FFFFFF;}
	.st1{fill:none;}
</style>
<g>
	<g id="XMLID_111_">
		<path id="XMLID_119_" class="st0" d="M62.6,16c-1.7,0-2.9,1.3-3.4,2.6L46.9,51c1.8,0,4.8,0,7.2,0c1.6,0,2.5-1.2,3-2.3L69.5,16
			C67.6,16,65,16,62.6,16z"/>
		<path id="XMLID_117_" class="st0" d="M46.9,51l2.7-7.2l-9-9.5l0,0c-0.2-0.2-0.3-0.4-0.3-0.7s0.1-0.5,0.3-0.7l0,0L56.5,16h-8.1
			c-1,0-1.8,0.4-2.5,1L32.6,31.2l0,0c-0.6,0.6-0.9,1.4-0.9,2.3c0,0.9,0.3,1.7,0.9,2.3l0,0L46.9,51L46.9,51C47,51,47,51,46.9,51z"/>
		<path id="XMLID_116_" class="st0" d="M84.7,33.5c0-0.9-0.3-1.7-0.9-2.3l0,0L69.5,16l0,0l0,0l-2.7,7.3l8.9,9.5l0,0
			c0.2,0.2,0.3,0.4,0.3,0.7s-0.1,0.5-0.3,0.7l0,0L59.9,51H68c1,0,1.8-0.4,2.5-1l0,0l13.3-14.1l0,0C84.3,35.2,84.7,34.4,84.7,33.5z"
			/>
	</g>
	<g id="XMLID_109_">
		<path id="XMLID_336_" class="st0" d="M66.3,99.5c0-1.7-0.2-3.2,0.1-4.7c0.1-0.7,1-1.3,1.5-2c0.5,0.7,1.4,1.3,1.6,2
			c0.2,1.4,0.1,2.9,0.1,4.6c1.7,0,3.3-0.2,4.7,0.1c0.7,0.1,1.3,1,2,1.6c-0.6,0.5-1.2,1.4-2,1.6c-1.4,0.2-3,0.1-4.7,0.1
			c0,1.5,0,2.7,0,3.9c0,1.2,0,2.6-1.6,2.7c-1.7,0.1-1.7-1.3-1.6-2.5c0-1.2,0-2.5,0-4c-1.7,0-3.3,0.1-4.8-0.1
			c-0.7-0.1-1.2-0.9-1.8-1.4c0.6-0.6,1.1-1.6,1.7-1.7C63,99.4,64.5,99.5,66.3,99.5z"/>
		<path id="XMLID_335_" class="st0" d="M117.8,107.9c0,1.8-1.4,3.3-3.3,3.3c-1.8,0-3.1-1.3-3.2-3.1c-0.1-2,1.2-3.3,3.1-3.4
			C116.4,104.6,117.8,106,117.8,107.9z"/>
		<path id="XMLID_334_" class="st0" d="M114.5,97.8c-1.9,0-3.2-1.4-3.1-3.4c0.1-1.9,1.5-3.2,3.4-3.1c1.8,0.1,3.1,1.5,3.1,3.2
			C117.8,96.4,116.3,97.8,114.5,97.8z"/>
		<path id="XMLID_333_" class="st0" d="M121.2,98c1.8,0,3.3,1.5,3.3,3.3s-1.6,3.2-3.4,3.2c-1.8-0.1-3.1-1.4-3.1-3.2
			C118,99.3,119.3,98,121.2,98z"/>
		<path id="XMLID_332_" class="st0" d="M111.2,101.2c0,1.8-1.5,3.3-3.3,3.2c-1.9-0.1-3.1-1.1-3.2-3.1s1.2-3.3,3.1-3.3
			C109.7,98,111.2,99.4,111.2,101.2z"/>
		<path id="XMLID_331_" class="st0" d="M84.6,106.2c-1.1,0-2.2,0.2-3.3-0.1c-0.7-0.2-1.1-1-1.7-1.5c0.5-0.6,1.1-1.5,1.6-1.6
			c2.2-0.2,4.4-0.2,6.6,0c0.6,0.1,1.1,1,1.7,1.6c-0.6,0.5-1.2,1.4-1.9,1.6C86.7,106.4,85.6,106.2,84.6,106.2z"/>
		<path id="XMLID_330_" class="st0" d="M97.9,106.2c-1,0-2.1,0.2-3-0.1c-0.7-0.2-1.3-1-1.9-1.6c0.6-0.5,1.1-1.5,1.7-1.5
			c2.2-0.2,4.4-0.2,6.6,0c0.6,0.1,1.1,1.1,1.6,1.6c-0.6,0.5-1.1,1.4-1.7,1.5C100.1,106.4,99,106.2,97.9,106.2z"/>
		<path class="st1" d="M106,58.3c0-1,0-1.7,0-2.4c0-13.2,0-26.4,0-39.6c0-4.3-1.6-5.8-5.9-5.8c-28,0-56,0-84,0
			c-4.3,0-5.8,1.6-5.8,5.9c0,13.2,0,26.4,0,39.6c0,0.8,0.1,1.6,0.1,2.4C42.4,58.3,74,58.3,106,58.3z"/>
		<path class="st1" d="M79.7,92c1.1,0.8,3.1,0.4,4.7,0.4c1.7,0,3.2,0.2,3.2,2.3c0,2-1.5,2.1-3.1,2.1c-10.3,0-20.7,0-31,0
			c-0.5,1.7-0.8,3.6-0.7,5.7c0.1,4.1,2.8,20.2,4.2,24c0.8,2,2.5,3,4.7,3c0.3,0,0.6,0,1,0c4.8-0.3,7.9-2.8,9.6-7.2
			c1.3-3.5,2.6-7.1,3.9-10.6c0.5-1.5,1.5-2.2,3.2-2.2c8,0.1,15.8,0,23.8,0.1c1,0,2.3,0.9,2.8,1.8c1.1,2.1,1.7,4.4,2.6,6.6
			c1.1,2.6,2,5.3,3.5,7.7c1.1,1.7,2.5,2.7,4.1,3.2c1.6,0.6,3.5,0.7,5.4,0.5c3.2-0.3,4.5-3.8,5.2-5.6c0.1-0.3,0.4-0.9,0.5-1.3
			c0.8-5.5,2.2-18.5,2.3-19.4c0.7-10.7-7.7-17.2-16.3-17c0,0,0,0-0.1,0c0,0,0,0,0,0c-5.5,0.1-11.1,0.2-16.7,0.2
			c-7.5,0-15-0.1-22.5-0.1C75.5,88.4,77.4,90.4,79.7,92z"/>
		<path class="st1" d="M65.8,81.4h0.8c-0.5-1.5-0.9-3.1-1.2-4.7c-4.9,0-9.5,0-14,0c-1.1,2.9-1.8,5.7-3.1,8.3c-1.3,2.6-3,4.9-4.6,7.4
			c2.2,0,4.3,0,6.4,0C53,86.2,58.9,81.8,65.8,81.4z"/>
		<path class="st1" d="M68.7,86.2C68.7,86.2,68.7,86.2,68.7,86.2c-5.8,0-10.4,2.3-13.1,6.2c5.7,0,11.5,0,17.6,0
			C71.4,90.4,69.9,88.3,68.7,86.2z"/>
		<path class="st1" d="M98.3,72c6.7,0,7.9-1.2,7.7-8c0-0.2-0.1-0.5-0.1-1c-31.9,0-63.7,0-95.4,0c-0.7,6.9,0.3,9.2,8,9.1
			C45.1,71.9,71.7,72,98.3,72z"/>
		<path class="st0" d="M43.7,92.4c1.6-2.5,3.3-4.8,4.6-7.4c1.3-2.6,2-5.4,3.1-8.3c4.5,0,9.1,0,14,0c0.3,1.6,0.7,3.2,1.2,4.7h4.8
			c-0.6-1.5-1.1-3.2-1.4-4.9c1.1,0,2,0,2.9,0c9.3,0,18.7,0,28.1,0c5.5-0.1,9.4-3.8,9.4-9.3c0-17.3,0-34.6,0-51.9
			c0-5.6-3.7-9.3-9.3-9.3C72.5,6,43.8,6,15.2,6C9.7,6.1,6,9.8,6,15.3c0,17.3,0,34.6,0,51.9c0,5.4,3.9,9.2,9.4,9.2
			c9.3,0,18.7,0,28.1,0c0.9,0,1.7,0,2.8,0c-0.7,4.7-2.9,8.5-5.7,12c-2.3,2.8-4.8,4.7-8.7,4c-1.6-0.3-3.3,0.1-3.2,2.3
			c0,2,1.5,2.1,3.1,2.1c5.6,0,11.3,0,16.9,0c0.3-1.5,0.8-3,1.5-4.4C48,92.4,45.9,92.4,43.7,92.4z M10.3,16.4c0-4.3,1.5-5.9,5.8-5.9
			c28,0,56,0,84,0c4.3,0,5.9,1.5,5.9,5.8c0,13.2,0,26.4,0,39.6c0,0.7,0,1.4,0,2.4c-32,0-63.6,0-95.6,0.1c0-0.8-0.1-1.6-0.1-2.4
			C10.3,42.8,10.3,29.6,10.3,16.4z M18.5,72.1c-7.7,0.1-8.7-2.2-8-9.1c31.7,0,63.5,0,95.4,0c0,0.5,0.1,0.8,0.1,1c0.2,6.8-1,8-7.7,8
			C71.7,72,45.1,71.9,18.5,72.1z"/>
		<path class="st0" d="M119.2,81.9c-1.8-0.3-3.6-0.4-5.5-0.5H71.4c0.7,1.7,1.6,3.3,2.6,4.8c7.5,0,15,0.1,22.5,0.1
			c5.6,0,11.1-0.1,16.7-0.2c0,0,0,0,0,0c0,0,0,0,0.1,0c8.6-0.2,17,6.3,16.3,17c-0.1,0.9-1.5,13.9-2.3,19.4c-0.1,0.4-0.4,1-0.5,1.3
			c-0.7,1.8-2,5.3-5.2,5.6c-1.9,0.2-3.7,0.1-5.4-0.5c-1.6-0.5-3.1-1.5-4.1-3.2c-1.5-2.4-2.4-5.1-3.5-7.7c-0.9-2.2-1.5-4.5-2.6-6.6
			c-0.5-0.9-1.8-1.8-2.8-1.8c-8-0.1-15.8,0-23.8-0.1c-1.7,0-2.7,0.7-3.2,2.2c-1.3,3.5-2.6,7.1-3.9,10.6c-1.7,4.4-4.8,6.9-9.6,7.2
			c-0.3,0-0.7,0-1,0c-2.2,0-3.9-1-4.7-3c-1.4-3.8-4.1-19.9-4.2-24c0-2.1,0.2-4,0.7-5.7c-1.6,0-3.2,0-4.8,0c-0.3,1.3-0.4,2.6-0.4,3.9
			c0,4.8,3,26.8,4.5,28.8c1.4,2.2,3.2,3.9,5.8,4.2c7.1,0.9,14.6-1,17.4-7.8c1.4-3.4,2.5-7,3.7-10.5c0.5-1.4,1.2-1.9,2.7-1.9
			c6.6,0.1,10.6,0.2,17.2,0c2.5-0.1,3.5,0.7,4.3,3.2c1.3,4.2,2.7,8.4,4.8,12.2c2.9,5.3,8.6,5.5,14.1,4.9c4.6-0.5,6.5-4.4,7.9-8.4
			c0.4-1,1.8-6.9,1.9-8c0.7-7.5,1.1-9,1.4-16.5C134.4,91.6,128,83.4,119.2,81.9z"/>
		<path class="st0" d="M68.7,86.2C68.7,86.2,68.7,86.2,68.7,86.2c-0.8-1.6-1.5-3.2-2.1-4.8h-0.8c-6.9,0.4-12.8,4.8-15.7,11
			c1.8,0,3.7,0,5.5,0C58.4,88.5,62.9,86.2,68.7,86.2z"/>
		<path class="st0" d="M68.7,86.2C68.7,86.2,68.8,86.2,68.7,86.2C68.8,86.2,68.8,86.2,68.7,86.2c1.8,0,3.5,0,5.3,0
			c-1-1.5-1.9-3.1-2.6-4.8h-4.8C67.2,83,67.9,84.6,68.7,86.2z"/>
		<path class="st0" d="M55.6,92.4c-1.8,0-3.7,0-5.5,0c-0.6,1.4-1.1,2.9-1.5,4.4c1.6,0,3.2,0,4.8,0C54,95.2,54.7,93.7,55.6,92.4z"/>
	</g>
</g>
</svg>
