<?xml version="1.0" encoding="utf-8"?>
<!-- Generator: Adobe Illustrator 22.1.0, SVG Export Plug-In . SVG Version: 6.00 Build 0)  -->
<svg version="1.1" id="Capa_1" xmlns="http://www.w3.org/2000/svg" xmlns:xlink="http://www.w3.org/1999/xlink" x="0px" y="0px"
	 viewBox="0 0 532.3 532.3" style="enable-background:new 0 0 532.3 532.3;" xml:space="preserve">
<style type="text/css">
	.st0{clip-path:url(#SVGID_2_);fill:#353535;}
</style>
<g id="XMLID_837_">
	<g>
		<defs>
			<rect id="SVGID_1_" x="131.5" y="111.1" width="269.3" height="310"/>
		</defs>
		<clipPath id="SVGID_2_">
			<use xlink:href="#SVGID_1_"  style="overflow:visible;"/>
		</clipPath>
		<path id="XMLID_839_" class="st0" d="M350.7,224.3l-30,24.9c-1.5,1.2-3.2,1.8-5,1.8c-2.2,0-4.5-1-6-2.8c-2.7-3.3-2.3-8.2,1-11
			l22.8-18.9l-22.8-18.9c-3.3-2.7-3.8-7.7-1-11s7.7-3.8,11-1l30,24.9c1.8,1.5,2.8,3.7,2.8,6C353.5,220.6,352.5,222.8,350.7,224.3
			 M305.5,171l-28.6,98.9c-1,3.4-4.1,5.6-7.5,5.6c-0.7,0-1.4-0.1-2.2-0.3c-4.1-1.2-6.5-5.5-5.3-9.7l28.6-98.9
			c1.2-4.1,5.5-6.5,9.7-5.3C304.4,162.6,306.7,166.9,305.5,171 M256.7,237.3c3.3,2.8,3.8,7.7,1,11c-1.5,1.9-3.8,2.8-6,2.8
			c-1.8,0-3.5-0.6-5-1.8l-30-24.9c-1.8-1.5-2.8-3.7-2.8-6s1-4.5,2.8-6l30-24.9c3.3-2.8,8.2-2.3,11,1c2.8,3.3,2.3,8.2-1,11
			l-22.8,18.9L256.7,237.3z M377.2,155.9c-23.2-28.8-56.7-44.7-94.4-44.7c-26.9,0-54,8.4-76.1,23.7c-23.7,16.4-40.2,39.2-47.9,65.9
			c-3,10.6-4.6,19.4-6,27.1c-2.9,16.1-4.9,27.7-17.6,46.4c-3.4,5-4.5,9.7-3.2,14.1c2,7,8.6,10,14,12.4c1.8,0.8,4.8,2.2,5.5,2.9
			c3.2,4,2.9,15.2,2.7,25.1c-0.4,14.1-0.7,28.7,6.3,39.2c9.8,14.7,24.9,14.9,37.1,15c14.3,0.2,20.8,0.2,22.3,16.1
			c0,0.4,0.1,2.1,0.1,3.6c0.4,10.5,0.5,11.9,1.1,13.4c1.1,3,3.9,5,7.1,5H362c2.6,0,5-1.3,6.4-3.5s1.5-4.9,0.4-7.3
			c-16.9-34.9-3.1-70.8,11.6-108.7c8.9-23.1,18.1-46.9,20.2-71C402.8,202.7,395.2,178.2,377.2,155.9"/>
	</g>
</g>
</svg>
