<?xml version="1.0" encoding="utf-8"?>
<!-- Generator: Adobe Illustrator 22.1.0, SVG Export Plug-In . SVG Version: 6.00 Build 0)  -->
<svg version="1.1" id="Capa_1" xmlns="http://www.w3.org/2000/svg" xmlns:xlink="http://www.w3.org/1999/xlink" x="0px" y="0px"
	 viewBox="0 0 226 193" style="enable-background:new 0 0 226 193;" xml:space="preserve">
<style type="text/css">
	.st0{display:none;}
	.st1{display:inline;}
	.st2{fill:none;stroke:#F80E41;stroke-width:4.5716;stroke-linecap:round;stroke-linejoin:round;stroke-miterlimit:3.8637;}
	.st3{fill:#F80E41;}
	.st4{fill:#FFFFFF;}
	.st5{fill:none;stroke:#FFFFFF;stroke-width:4.5716;stroke-linecap:round;stroke-linejoin:round;stroke-miterlimit:3.8637;}
	
		.st6{display:inline;fill:none;stroke:#F80E41;stroke-width:3.9685;stroke-linecap:round;stroke-linejoin:round;stroke-miterlimit:2;}
	
		.st7{display:inline;fill:none;stroke:#F80E41;stroke-width:2.8346;stroke-linecap:round;stroke-linejoin:round;stroke-miterlimit:2;}
	.st8{display:inline;fill:#F80E41;}
	.st9{display:inline;fill:#FFFFFF;}
	.st10{fill:none;stroke:#F80E41;stroke-width:3.9685;stroke-linecap:round;stroke-linejoin:round;stroke-miterlimit:2;}
	.st11{fill:none;stroke:#F80E41;stroke-width:2.8346;stroke-linecap:round;stroke-linejoin:round;stroke-miterlimit:2;}
	.st12{fill:none;stroke:#F80E41;stroke-width:3.9685;stroke-linecap:round;stroke-linejoin:round;stroke-miterlimit:3.8637;}
	.st13{fill:none;stroke:#F80E41;stroke-width:2.2677;stroke-linecap:round;stroke-linejoin:round;stroke-miterlimit:2;}
	.st14{fill:none;stroke:#F80E41;stroke-width:1.9211;stroke-linecap:round;stroke-linejoin:round;stroke-miterlimit:2;}
	.st15{fill:none;stroke:#F80E41;stroke-width:5.8957;stroke-miterlimit:3.8637;}
	.st16{fill:none;stroke:#F80E41;stroke-width:5.8957;stroke-linecap:round;stroke-linejoin:round;stroke-miterlimit:3.8637;}
	.st17{fill:none;stroke:#F80E41;stroke-width:4.4905;stroke-miterlimit:3.8637;}
	.st18{fill:#F51322;}
	.st19{fill:none;stroke:#F51322;stroke-width:3.7067;stroke-linecap:round;stroke-linejoin:round;stroke-miterlimit:3.8637;}
	.st20{fill:none;stroke:#F80E41;stroke-width:5.407;stroke-linecap:round;stroke-linejoin:round;stroke-miterlimit:3.8637;}
	.st21{fill:none;stroke:#F80E41;stroke-width:6.6655;stroke-linecap:round;stroke-linejoin:round;stroke-miterlimit:3.8637;}
	.st22{fill:none;stroke:#F80E41;stroke-width:6.1454;stroke-linecap:round;stroke-linejoin:round;stroke-miterlimit:3.8637;}
	.st23{fill:none;stroke:#F80E41;stroke-width:4.1737;stroke-linecap:round;stroke-linejoin:round;stroke-miterlimit:3.8637;}
	.st24{fill:none;stroke:#F80E41;stroke-width:3.5145;stroke-linecap:round;stroke-linejoin:round;stroke-miterlimit:3.8637;}
	
		.st25{display:inline;fill:none;stroke:#F80E41;stroke-width:4.1737;stroke-linecap:round;stroke-linejoin:round;stroke-miterlimit:3.8637;}
	.st26{fill:#353535;}
	.st27{fill:none;stroke:#353535;stroke-width:5.3858;stroke-linecap:round;stroke-linejoin:round;stroke-miterlimit:3.8637;}
	.st28{fill:none;stroke:#353535;stroke-width:5.1024;stroke-linecap:round;stroke-linejoin:round;stroke-miterlimit:3.8637;}
</style>
<g id="XMLID_2_" class="st0">
	<g id="XMLID_14_" class="st1">
		<g id="XMLID_40_">
			<path id="XMLID_41_" class="st2" d="M98.1,137.1h32.7c18.8-30.1,21.9-83.5-15.6-111.8C81.3,52.1,75.4,94.1,98.1,137.1z"/>
		</g>
		<g id="XMLID_38_">
			<path id="XMLID_39_" class="st2" d="M85.6,104.1c2.9,9.2,5.9,18,9,26.4c-4.4,2.9-6.4,7.9-4.3,16.2
				C70.8,132.9,69.3,118.7,85.6,104.1z"/>
		</g>
		<g id="XMLID_36_">
			<path id="XMLID_37_" class="st2" d="M144.5,104.1c-2.9,9.2-5.9,18-9,26.4c4.4,2.9,6.4,7.9,4.3,16.2
				C159.3,132.9,160.8,118.7,144.5,104.1z"/>
		</g>
		<g id="XMLID_29_">
			<g id="XMLID_33_">
				<circle id="XMLID_35_" class="st3" cx="115.7" cy="72.2" r="17.4"/>
				<path id="XMLID_34_" class="st3" d="M115.7,72.2"/>
			</g>
			<g id="XMLID_30_">
				<circle id="XMLID_32_" class="st2" cx="115.7" cy="72.2" r="17.4"/>
				<path id="XMLID_31_" class="st2" d="M115.7,72.2"/>
			</g>
		</g>
		<g id="XMLID_22_">
			<g id="XMLID_26_">
				<circle id="XMLID_28_" class="st4" cx="115.7" cy="72.2" r="7.3"/>
				<path id="XMLID_27_" class="st4" d="M115.7,72.2"/>
			</g>
			<g id="XMLID_23_">
				<circle id="XMLID_25_" class="st5" cx="115.7" cy="72.2" r="7.3"/>
				<path id="XMLID_24_" class="st5" d="M115.7,72.2"/>
			</g>
		</g>
		<g id="XMLID_20_">
			<line id="XMLID_21_" class="st2" x1="92.2" y1="122.3" x2="138.5" y2="122.3"/>
		</g>
		<g id="XMLID_18_">
			<line id="XMLID_19_" class="st2" x1="100.8" y1="40.1" x2="129" y2="40.1"/>
		</g>
		<g id="XMLID_15_">
			<path id="XMLID_17_" class="st4" d="M113.5,103.3h2.9c6,10.9,6.6,25.8,0,43.4h-2.7C106.9,131.5,106.8,117,113.5,103.3z"/>
			<path id="XMLID_16_" class="st2" d="M113.5,103.3h2.9c6,10.9,6.6,25.8,0,43.4h-2.7C106.9,131.5,106.8,117,113.5,103.3z"/>
		</g>
	</g>
	<g id="XMLID_9_" class="st1">
		<g id="XMLID_12_">
			<path id="XMLID_13_" class="st2" d="M104,139.2l0.1,17.7c-7.3,0-13.9,2.9-18.7,7.7c-3.1-5.2-8.8-8.7-15.3-8.7
				c-9.8,0-17.8,8-17.8,17.8"/>
		</g>
		<g id="XMLID_10_">
			<path id="XMLID_11_" class="st2" d="M126.1,139.2l-0.1,17.7c7.3,0,13.9,2.9,18.7,7.7c3.1-5.2,8.8-8.7,15.3-8.7
				c9.8,0,17.8,8,17.8,17.8"/>
		</g>
	</g>
	<g id="XMLID_7_" class="st1">
		<polygon id="XMLID_8_" class="st3" points="101.3,40.4 128.3,40.4 115.4,25 		"/>
	</g>
	<g id="XMLID_5_" class="st1">
		<polygon id="XMLID_6_" class="st3" points="92.7,122.9 98.2,136.7 109,136.7 108.1,122.6 		"/>
	</g>
	<g id="XMLID_3_" class="st1">
		<polygon id="XMLID_4_" class="st3" points="136.5,122.9 131,136.7 120.2,136.7 121.1,122.6 		"/>
	</g>
</g>
<g id="XMLID_93_" class="st0">
	<g id="XMLID_116_" class="st1">
		<path id="XMLID_117_" class="st2" d="M164.9,107c0,27.8-22.8,50.4-50.9,50.4S63.1,134.8,63.1,107S85.9,56.6,114,56.6
			S164.9,79.2,164.9,107z"/>
	</g>
	<g id="XMLID_113_" class="st1">
		<g id="XMLID_114_">
			<path id="XMLID_115_" class="st2" d="M124.2,44c0,1.2-1,2.2-2.2,2.2h-16c-1.2,0-2.2-1-2.2-2.2V33.7c0-1.2,1-2.2,2.2-2.2h16.1
				c1.2,0,2.2,1,2.2,2.2L124.2,44z"/>
		</g>
	</g>
	<g id="XMLID_106_" class="st1">
		<g id="XMLID_110_">
			<g id="XMLID_111_">
				<path id="XMLID_112_" class="st2" d="M77.9,62.7l-3.7-5.3c-0.4-0.6-0.3-1.5,0.4-1.9l8.3-5.6c0.6-0.4,1.5-0.3,1.9,0.4l3.7,5.3"/>
			</g>
		</g>
		<g id="XMLID_107_">
			<g id="XMLID_108_">
				<path id="XMLID_109_" class="st2" d="M150.1,62.7l3.7-5.3c0.4-0.6,0.3-1.5-0.4-1.9l-8.3-5.6c-0.6-0.4-1.5-0.3-1.9,0.4l-3.7,5.3"
					/>
			</g>
		</g>
	</g>
	<g id="XMLID_104_" class="st1">
		<line id="XMLID_105_" class="st2" x1="114" y1="54.7" x2="114" y2="46.9"/>
	</g>
	<g id="XMLID_101_" class="st1">
		<path id="XMLID_103_" class="st3" d="M150.8,112.9v-10.4l-9.2-0.8c-0.6-3.4-1.9-6.6-3.6-9.5l6.1-7.3l-7.3-7.4l-7,6
			c-2.8-1.9-5.9-3.3-9.2-4.1l-0.8-9.5h-10.3l-0.8,9.3c-3.4,0.6-6.5,1.9-9.4,3.6l-7.2-6.2L84.8,84l5.9,7.1c-1.9,2.8-3.3,5.9-4.1,9.3
			l-9.5,0.8v10.4l9.2,0.8c0.6,3.4,1.9,6.6,3.6,9.5l-6.1,7.3l7.3,7.4l7-6c2.8,1.9,5.9,3.3,9.2,4.1l0.8,9.5h10.3l0.8-9.3
			c3.4-0.6,6.5-1.9,9.4-3.7l7.2,6.2l7.3-7.4l-5.9-7.1c1.9-2.8,3.3-5.9,4.1-9.3L150.8,112.9z"/>
		<path id="XMLID_102_" class="st2" d="M150.8,112.9v-10.4l-9.2-0.8c-0.6-3.4-1.9-6.6-3.6-9.5l6.1-7.3l-7.3-7.4l-7,6
			c-2.8-1.9-5.9-3.3-9.2-4.1l-0.8-9.5h-10.3l-0.8,9.3c-3.4,0.6-6.5,1.9-9.4,3.6l-7.2-6.2L84.8,84l5.9,7.1c-1.9,2.8-3.3,5.9-4.1,9.3
			l-9.5,0.8v10.4l9.2,0.8c0.6,3.4,1.9,6.6,3.6,9.5l-6.1,7.3l7.3,7.4l7-6c2.8,1.9,5.9,3.3,9.2,4.1l0.8,9.5h10.3l0.8-9.3
			c3.4-0.6,6.5-1.9,9.4-3.7l7.2,6.2l7.3-7.4l-5.9-7.1c1.9-2.8,3.3-5.9,4.1-9.3L150.8,112.9z"/>
	</g>
	<g id="XMLID_99_" class="st1">
		<polyline id="XMLID_100_" class="st5" points="112.2,97.4 112.2,107.9 117.6,113 		"/>
	</g>
	<g id="XMLID_94_" class="st1">
		<g id="XMLID_97_">
			<path id="XMLID_98_" class="st5" d="M97,102.6c1.6-8,8.6-14.1,17-14.1c8.8,0,16.1,6.6,17.2,15.2"/>
		</g>
		<g id="XMLID_95_">
			<path id="XMLID_96_" class="st5" d="M131.4,109.8c-1.6,8-8.6,14.1-17,14.1c-8.8,0-16.1-6.6-17.2-15.2"/>
		</g>
	</g>
</g>
<g id="XMLID_118_" class="st0">
	<g id="XMLID_146_" class="st1">
		<path id="XMLID_148_" class="st4" d="M168.5,107.1v-18h-9c-1-4.3-2.7-8-4.9-11.7l5.8-6.7L149,59l-6.9,5.6c-3.6-2.3-7.6-4-11.8-5
			l-0.1-8.8h-15.8v96.8h15.8l0.1-10.2c4.2-1,8.2-2.7,11.8-5l6.9,6.4l11.4-11.6l-5.8-7.5c2.2-3.7,4-8.2,4.9-12.5L168.5,107.1z"/>
		<path id="XMLID_147_" class="st2" d="M168.5,107.1v-18h-9c-1-4.3-2.7-8-4.9-11.7l5.8-6.7L149,59l-6.9,5.6c-3.6-2.3-7.6-4-11.8-5
			l-0.1-8.8h-15.8v96.8h15.8l0.1-10.2c4.2-1,8.2-2.7,11.8-5l6.9,6.4l11.4-11.6l-5.8-7.5c2.2-3.7,4-8.2,4.9-12.5L168.5,107.1z"/>
	</g>
	<g id="XMLID_144_" class="st1">
		<path id="XMLID_145_" class="st3" d="M114.5,147.6h15.8l0.1-10.2c4.2-1,8.2-2.7,11.8-5l6.9,6.4l11.4-11.6l-5.8-7.5
			c2.2-3.7,4-8.2,4.9-12.5h9v-18h-9c-1-4.3-2.7-8-4.9-11.7l5.8-6.7L149,59l-6.9,5.6c-3.6-2.3-7.6-4-11.8-5l-0.1-8.8h-15.8v96.8
			H114.5z"/>
	</g>
	<g id="XMLID_142_" class="st1">
		<line id="XMLID_143_" class="st2" x1="114.5" y1="41.8" x2="114.5" y2="156.6"/>
	</g>
	<g id="XMLID_140_" class="st1">
		<path id="XMLID_141_" class="st5" d="M116.7,109.3h3.9c6.6,0,11.9-5,11.9-11.3c0-6.2-5.3-11.3-11.9-11.3h-3.9"/>
	</g>
	<g id="XMLID_137_" class="st1">
		<path id="XMLID_139_" class="st4" d="M100.9,50.8c-7-0.5-14.8,3.6-16.7,9.5c-8.9-0.3-16,6.9-16,16.4c0,0.7,0.1,1.5,0.1,2.2
			c-6.5,2.4-11.1,9.7-11.1,18.7c0,5.7,1.9,11,4.9,15c-0.5,2.1-0.7,4.3-0.4,6.6c1.2,9.7,9.4,17.2,18.5,16.8
			c2.4,6.2,8.9,11.5,16.6,11.5c12,0,17.6-6.7,17.6-6.7V57.6C114.5,57.6,109.5,51.4,100.9,50.8z"/>
		<path id="XMLID_138_" class="st2" d="M100.9,50.8c-7-0.5-14.8,3.6-16.7,9.5c-8.9-0.3-16,6.9-16,16.4c0,0.7,0.1,1.5,0.1,2.2
			c-6.5,2.4-11.1,9.7-11.1,18.7c0,5.7,1.9,11,4.9,15c-0.5,2.1-0.7,4.3-0.4,6.6c1.2,9.7,9.4,17.2,18.5,16.8
			c2.4,6.2,8.9,11.5,16.6,11.5c12,0,17.6-6.7,17.6-6.7V57.6C114.5,57.6,109.5,51.4,100.9,50.8z"/>
	</g>
	<g id="XMLID_135_" class="st1">
		<path id="XMLID_136_" class="st2" d="M99,79.7c-8.5-0.6-15.4-7.5-15.4-15.4c0-1.4,0.2-2.8,0.6-4.1"/>
	</g>
	<g id="XMLID_133_" class="st1">
		<path id="XMLID_134_" class="st2" d="M79.2,98.3c4.8,3,10.4,1,14.4-3.2c5.1-5.3,13.5-6.9,18.5-1c0.9,1.1,1.7,2.2,2.2,3.5"/>
	</g>
	<g id="XMLID_131_" class="st1">
		<path id="XMLID_132_" class="st2" d="M114.3,71.2c-6.8,1-12.9-3.3-15.2-9.5"/>
	</g>
	<g id="XMLID_129_" class="st1">
		<path id="XMLID_130_" class="st2" d="M114.3,125.3c-6.8-1.8-12.9,1.6-15.2,7.5"/>
	</g>
	<g id="XMLID_127_" class="st1">
		<path id="XMLID_128_" class="st2" d="M83.2,121.5c-3.9-1.2-7.7-4-7.7-7.7"/>
	</g>
	<g id="XMLID_125_" class="st1">
		<path id="XMLID_126_" class="st2" d="M81.4,138.6c-1.4-2.3-2.2-4.9-2.2-7.6c0-7.9,6.6-14.4,15.4-14.4c1.1,0,1.8-0.9,1.8-1.9
			c0-0.9,0,0.4,0,0c0-5.9,5.5-7.9,9-7.7"/>
	</g>
	<g id="XMLID_123_" class="st1">
		<path id="XMLID_124_" class="st2" d="M70.4,90.2c4.3,0.3,7.7,3.7,7.7,7.7s-3.4,7-7.7,6.7"/>
	</g>
	<g id="XMLID_121_" class="st1">
		<path id="XMLID_122_" class="st2" d="M80.7,84c0-4.7,4.1-8.2,9.1-7.9"/>
	</g>
	<g id="XMLID_119_" class="st1">
		<path id="XMLID_120_" class="st5" d="M121.7,71.5c14.7,0,26.6,11.9,26.6,26.6s-11.9,26.6-26.6,26.6"/>
	</g>
</g>
<g id="XMLID_149_" class="st0">
	<polyline id="XMLID_215_" class="st6" points="128.5,66.7 128.5,73.6 118.9,83.8 109.3,73.6 109.3,67.4 	"/>
	<polyline id="XMLID_214_" class="st6" points="109.3,125.5 109.3,118.5 118.9,108.4 128.5,118.5 128.5,124.8 	"/>
	<path id="XMLID_213_" class="st6" d="M66,88.4V73.1c0-6.3,4.5-11.5,10-11.5h7.5"/>
	<path id="XMLID_212_" class="st6" d="M85.5,134.8H76c-5.5,0-10-5.1-10-11.5V108"/>
	<polyline id="XMLID_211_" class="st6" points="59.5,88.6 66.5,88.6 76.7,98.2 66.5,107.9 60.3,107.9 	"/>
	<path id="XMLID_210_" class="st6" d="M27.1,75.7c-0.3-0.8-0.4-1.7-0.4-2.5c0-4.1,3.3-7.4,7.3-7.4s7.3,3.3,7.3,7.4"/>
	<path id="XMLID_209_" class="st6" d="M41.3,124c0,4.1-3.3,7.4-7.3,7.4s-7.3-3.3-7.3-7.4"/>
	<path id="XMLID_208_" class="st6" d="M26.9,75.4h10.4c13.3,0,24,10.9,24,24.3l0,0c0,13.4-10.8,24.3-24,24.3H26.9"/>
	<path id="XMLID_207_" class="st7" d="M50.7,106.1c1.9-4.9,1.5-10.2-0.8-14.5"/>
	<path id="XMLID_206_" class="st6" d="M11.1,108.1c5.8,2.1,11,6.3,14.1,12.3c0.8,1.6,1.4,2.8,2,4.7"/>
	<path id="XMLID_205_" class="st6" d="M26.8,75.2c0.6,10.5-2.8,23.2-13.4,28.2l-2.6,1.2"/>
	<polyline id="XMLID_204_" class="st7" points="42.4,96.5 42.4,101.2 33.1,101.2 	"/>
	<path id="XMLID_203_" class="st7" d="M35.6,117c-2.6,0-4.7-2.1-4.7-4.7s2.1-4.7,4.7-4.7"/>
	<path id="XMLID_202_" class="st7" d="M35.6,94c-2.6,0-4.7-2.1-4.7-4.7s2.1-4.7,4.7-4.7"/>
	<path id="XMLID_201_" class="st6" d="M4.8,80.6"/>
	<path id="XMLID_200_" class="st6" d="M172.4,88.4V73.1c0-6.3-4.5-11.5-10-11.5h-9.5"/>
	<path id="XMLID_199_" class="st6" d="M151.5,134.8h10.8c5.5,0,10-5.1,10-11.5V108"/>
	<polyline id="XMLID_198_" class="st6" points="178.8,88.6 171.8,88.6 161.6,98.2 171.8,107.9 178.1,107.9 	"/>
	<path id="XMLID_197_" class="st6" d="M211.2,75.7c0.3-0.8,0.4-1.7,0.4-2.5c0-4.1-3.3-7.4-7.3-7.4s-7.3,3.3-7.3,7.4"/>
	<path id="XMLID_196_" class="st6" d="M197,124c0,4.1,3.3,7.4,7.3,7.4s7.3-3.3,7.3-7.4"/>
	<path id="XMLID_195_" class="st6" d="M211.4,75.4H201c-13.3,0-24,10.9-24,24.3l0,0c0,13.4,10.8,24.3,24,24.3h10.4"/>
	<path id="XMLID_194_" class="st7" d="M187.6,106.1c-1.9-4.9-1.5-10.2,0.8-14.5"/>
	<path id="XMLID_193_" class="st6" d="M227.3,108.1c-5.8,2.1-11,6.3-14.1,12.3c-0.8,1.6-1.4,2.8-2,4.7"/>
	<path id="XMLID_192_" class="st6" d="M211.5,75.2c-0.6,10.5,2.8,23.2,13.4,28.2l2.6,1.2"/>
	<polyline id="XMLID_191_" class="st7" points="196,96.5 196,101.2 205.2,101.2 	"/>
	<path id="XMLID_190_" class="st7" d="M202.7,117c2.6,0,4.7-2.1,4.7-4.7s-2.1-4.7-4.7-4.7"/>
	<path id="XMLID_189_" class="st7" d="M202.7,94c2.6,0,4.7-2.1,4.7-4.7s-2.1-4.7-4.7-4.7"/>
	<path id="XMLID_188_" class="st6" d="M233.6,80.6"/>
	<path id="XMLID_187_" class="st6" d="M25.3,126.4c-14.9,0-26.9-12-26.9-26.9s12-26.9,26.9-26.9"/>
	<path id="XMLID_186_" class="st6" d="M213,72.6c14.9,0,26.8,12,26.8,26.9s-12,26.9-26.9,26.9"/>
	<path id="XMLID_185_" class="st8" d="M128.8,73.1h15.3c6.3,0,11.5,4.5,11.5,10v12.5V109c0,5.5-5.1,10-11.5,10h-15.3l-10.1-12
		l-9.6,12H93.8c-6.3,0-11.5-4.5-11.5-10V95.6V83.1c0-5.5,5.1-10,11.5-10H109l10.2,11L128.8,73.1z"/>
	<path id="XMLID_184_" class="st9" d="M134.1,95.4c0.5,0.6,0.5,1.2,0,1.8l-8.1,8.7h-5.1l8.5-9c0.4-0.3,0.4-0.6,0-1l-4.8-5.2
		l-5.2,13.6c-0.3,0.7-0.7,1.2-1.4,1.5h-4.3l-8.2-8.6c-0.5-0.6-0.5-1.2,0-1.8l8.1-8.7h5.1l-8.5,9c-0.4,0.3-0.4,0.6,0,1l4.9,5.2
		l5.4-14.1c0.2-0.6,0.6-1,1.1-1h4.4h0.1L134.1,95.4z"/>
	<g id="XMLID_167_" class="st1">
		<path id="XMLID_183_" class="st10" d="M141.4,34.2c0.8-0.3,1.7-0.4,2.5-0.4c4.1,0,7.4,3.3,7.4,7.3s-3.3,7.3-7.4,7.3"/>
		<path id="XMLID_182_" class="st10" d="M93.1,48.4c-4.1,0-7.4-3.3-7.4-7.3s3.3-7.3,7.4-7.3"/>
		<path id="XMLID_181_" class="st10" d="M141.7,34v10.4c0,13.3-10.9,24-24.3,24l0,0c-13.4,0-24.3-10.8-24.3-24V34"/>
		<path id="XMLID_180_" class="st11" d="M111.1,57.8c4.9,1.9,10.2,1.5,14.5-0.8"/>
		<path id="XMLID_179_" class="st11" d="M100.1,45.7c0-2.6,2.1-4.7,4.7-4.7s4.7,2.1,4.7,4.7"/>
		<path id="XMLID_178_" class="st11" d="M123.2,45.7c0-2.6,2.1-4.7,4.7-4.7c2.6,0,4.7,2.1,4.7,4.7"/>
		<path id="XMLID_177_" class="st10" d="M136.6,11.9"/>
		<path id="XMLID_176_" class="st10" d="M89.1,32.3c0-14.9,12-26.9,26.9-26.9s26.9,12,26.9,26.9"/>
		<path id="XMLID_175_" class="st12" d="M88.1,48.8l-5,16.5c5.6,4.1,17,4.1,22,0"/>
		<line id="XMLID_174_" class="st12" x1="90.4" y1="31.7" x2="108.5" y2="31.7"/>
		<line id="XMLID_173_" class="st12" x1="108.7" y1="34.8" x2="108.7" y2="22.8"/>
		<line id="XMLID_172_" class="st12" x1="116.7" y1="36.8" x2="116.7" y2="18.8"/>
		<line id="XMLID_171_" class="st12" x1="125.7" y1="34.8" x2="125.7" y2="25.8"/>
		<path id="XMLID_170_" class="st12" d="M147.5,48.8l5,16.5c-5.6,4.1-17,4.1-22,0"/>
		<line id="XMLID_169_" class="st12" x1="126.4" y1="31.7" x2="142.5" y2="31.7"/>
		<path id="XMLID_168_" class="st13" d="M120.7,49.4c0,1.8-1.4,3.2-3.2,3.2s-3.2-1.4-3.2-3.2"/>
	</g>
	<g id="XMLID_150_" class="st1">
		<path id="XMLID_166_" class="st10" d="M95.2,158.4c-0.8,0.3-1.7,0.4-2.5,0.4c-4.1,0-7.4-3.3-7.4-7.3s3.3-7.3,7.4-7.3"/>
		<path id="XMLID_165_" class="st10" d="M143.6,144.2c4.1,0,7.4,3.3,7.4,7.3s-3.3,7.3-7.4,7.3"/>
		<path id="XMLID_164_" class="st10" d="M95,158.5v-10.4c0-13.3,10.9-24,24.3-24l0,0c13.4,0,24.3,10.8,24.3,24v10.4"/>
		<path id="XMLID_163_" class="st11" d="M125.6,134.8c-4.9-1.9-10.2-1.5-14.5,0.8"/>
		<path id="XMLID_162_" class="st11" d="M136.5,146.9c0,2.6-2.1,4.7-4.7,4.7s-4.7-2.1-4.7-4.7"/>
		<path id="XMLID_161_" class="st11" d="M113.5,146.9c0,2.6-2.1,4.7-4.7,4.7s-4.7-2.1-4.7-4.7"/>
		<path id="XMLID_160_" class="st10" d="M100.1,180.7"/>
		<path id="XMLID_159_" class="st10" d="M147.5,160.2c0,14.9-12,26.9-26.9,26.9s-26.9-12-26.9-26.9"/>
		<path id="XMLID_158_" class="st12" d="M148.5,143.8l5-16.5c-5.6-4.1-17-4.1-22,0"/>
		<line id="XMLID_157_" class="st12" x1="146.3" y1="160.9" x2="128.1" y2="160.9"/>
		<line id="XMLID_156_" class="st12" x1="128" y1="157.8" x2="128" y2="169.8"/>
		<line id="XMLID_155_" class="st12" x1="120" y1="155.8" x2="120" y2="173.8"/>
		<line id="XMLID_154_" class="st12" x1="111" y1="157.8" x2="111" y2="166.8"/>
		<path id="XMLID_153_" class="st12" d="M89.2,143.8l-5-16.5c5.6-4.1,17-4.1,22,0"/>
		<line id="XMLID_152_" class="st12" x1="110.3" y1="160.9" x2="94.1" y2="160.9"/>
		<path id="XMLID_151_" class="st14" d="M115.9,143.2c0-1.8,1.4-3.2,3.2-3.2c1.8,0,3.2,1.4,3.2,3.2"/>
	</g>
</g>
<g id="XMLID_255_" class="st0">
	<g id="XMLID_266_" class="st1">
		<path id="XMLID_267_" class="st15" d="M107.4,46.5l34.1,21.1l22.8,41.6l-3,26.2c0,6.1-12.2,7.6-12.2,0v-18
			c0-26.7-36.5-27.2-36.5,0c0,18.6-10.4,23.8-15.8,18.5c1.7-7.2,1.7-14.4,0-21.6c-5.3-9.9-5.3-19.5,0-28.7l-6.1-7.7L107.4,46.5z"/>
	</g>
	<g id="XMLID_264_" class="st1">
		<polyline id="XMLID_265_" class="st16" points="87.3,27.1 110.9,39.1 86.7,84.7 61.2,70.6 70.3,53 		"/>
	</g>
	<g id="XMLID_261_" class="st1">
		<circle id="XMLID_263_" class="st4" cx="81.5" cy="68.3" r="3.3"/>
		<circle id="XMLID_262_" class="st17" cx="81.5" cy="68.3" r="3.3"/>
	</g>
	<g id="XMLID_256_" class="st1">
		<g id="XMLID_259_">
			<polygon id="XMLID_260_" class="st18" points="143.4,131.5 153.1,142.7 127.1,173.3 101.5,142.7 111.2,131.5 			"/>
		</g>
		<g id="XMLID_257_">
			<path id="XMLID_258_" class="st4" d="M142.2,145.3c0.5,0.7,0.5,1.3,0,1.8l-8.5,9h-5.3l8.8-9.4c0.4-0.3,0.4-0.7,0-1l-5-5.4
				l-5.4,14.1c-0.3,0.7-0.8,1.3-1.4,1.6H121l-8.6-9c-0.5-0.7-0.5-1.3,0-1.8l8.5-9h5.3l-8.8,9.4c-0.4,0.3-0.4,0.7,0,1l5.1,5.4
				l5.6-14.7c0.2-0.6,0.6-1,1.2-1.1h4.6h0.1L142.2,145.3z"/>
		</g>
	</g>
</g>
<g id="XMLID_294_" class="st0">
	<g id="XMLID_312_" class="st1">
		<g id="XMLID_313_">
			<ellipse id="XMLID_315_" class="st3" cx="115.8" cy="156.4" rx="54.1" ry="10.5"/>
			<path id="XMLID_314_" class="st3" d="M115.8,156.4"/>
		</g>
	</g>
	<g id="XMLID_307_" class="st1">
		<path id="XMLID_311_" class="st4" d="M79.7,83c0-7.6,69.6-7.6,69.6,0v59.5c0,7.6-6.2,13.8-13.8,13.8h-42
			c-7.6,0-13.8-6.2-13.8-13.8L79.7,83L79.7,83z"/>
		<g id="XMLID_309_">
			<path id="XMLID_310_" class="st19" d="M79.7,83c0-7.6,69.6-7.6,69.6,0v59.5c0,7.6-6.2,13.8-13.8,13.8h-42
				c-7.6,0-13.8-6.2-13.8-13.8L79.7,83L79.7,83z"/>
		</g>
		<path id="XMLID_308_" class="st20" d="M79.7,83c0-7.6,69.6-7.6,69.6,0v59.5c0,7.6-6.2,13.8-13.8,13.8h-42
			c-7.6,0-13.8-6.2-13.8-13.8L79.7,83L79.7,83z"/>
	</g>
	<g id="XMLID_305_" class="st1">
		<polygon id="XMLID_306_" class="st18" points="131.3,103 140.6,113.7 115.6,143.1 91.1,113.7 100.3,103 		"/>
	</g>
	<g id="XMLID_303_" class="st1">
		<path id="XMLID_304_" class="st4" d="M130.1,116.2c0.5,0.6,0.5,1.2,0,1.8l-8.1,8.7h-5.1l8.5-9c0.4-0.3,0.4-0.6,0-1l-4.8-5.2
			l-5.2,13.6c-0.3,0.7-0.7,1.2-1.4,1.5h-4.3l-8.2-8.6c-0.5-0.6-0.5-1.2,0-1.8l8.1-8.7h5.1l-8.5,9c-0.4,0.3-0.4,0.6,0,1l4.9,5.2
			l5.4-14.1c0.2-0.6,0.6-1,1.1-1h4.4h0.1L130.1,116.2z"/>
	</g>
	<g id="XMLID_301_" class="st1">
		<path id="XMLID_302_" class="st21" d="M152.5,91.1c12.1,0,21.8,9.8,21.8,21.8c0,12.1-9.8,21.8-21.8,21.8"/>
	</g>
	<g id="XMLID_299_" class="st1">
		<path id="XMLID_300_" class="st22" d="M129.8,23.1c0,0-43.7,6.4-17.5,24.3c21.1,14.4,1.7,21.4,1.7,21.4"/>
	</g>
	<g id="XMLID_295_" class="st1">
		<g id="XMLID_296_">
			<ellipse id="XMLID_298_" class="st3" cx="114.7" cy="83.1" rx="36.5" ry="7.5"/>
			<path id="XMLID_297_" class="st3" d="M114.7,83.1"/>
		</g>
	</g>
</g>
<g id="XMLID_316_" class="st0">
	<g id="XMLID_318_" class="st1">
		<path id="XMLID_334_" class="st23" d="M129.9,145.5h19.4c8,0,14.5,5.7,14.5,12.7v15.9"/>
		<path id="XMLID_333_" class="st23" d="M71,174.1v-15.9c0-7,6.5-12.7,14.5-12.7h19.4"/>
		<polyline id="XMLID_332_" class="st23" points="129.6,137.3 129.6,146.2 117.4,159.1 105.2,146.2 105.2,138.3 		"/>
		<path id="XMLID_331_" class="st23" d="M89.7,71.4C77.8,70.9,75.9,81.5,75,86.1c-5.1,3-8.4,8.3-8.4,14.4c0,5.4,2.7,10.2,6.8,13.3
			c-0.7,1.6-1.2,3.3-1.2,5.1c0,7.7,7.4,13.9,16.6,13.9c0.8,0,3.3,0,4.1-0.1"/>
		<path id="XMLID_330_" class="st24" d="M145.1,97c0.8-0.3,1.8-0.5,2.7-0.5c4.4,0,7.9,3.5,7.9,7.8s-3.5,7.8-7.9,7.8"/>
		<path id="XMLID_329_" class="st24" d="M83.5,112.1c-4.4,0-7.9-3.5-7.9-7.8s3.5-7.8,7.9-7.8"/>
		<path id="XMLID_328_" class="st23" d="M146.3,96v13.2c0,16.8-13.8,30.5-30.8,30.5l0,0c-17,0-30.8-13.6-30.8-30.5V96"/>
		<path id="XMLID_327_" class="st23" d="M107.4,126.1c6.2,2.5,12.9,1.9,18.4-1"/>
		<path id="XMLID_326_" class="st23" d="M104.9,75.9c-2.6,7.4-8,13.9-15.5,17.8c-2,1-3.6,1.8-5.9,2.6"/>
		<path id="XMLID_325_" class="st23" d="M146.5,95.8c-13.3,0.7-29.4-3.5-35.7-17l-1.5-3.3"/>
		<polyline id="XMLID_324_" class="st23" points="119.6,115.6 113.6,115.6 113.6,103.8 		"/>
		<path id="XMLID_323_" class="st23" d="M93.6,107c0-3.3,2.6-5.9,5.9-5.9s5.9,2.7,5.9,5.9"/>
		<path id="XMLID_322_" class="st23" d="M122.8,107c0-3.3,2.6-5.9,5.9-5.9c3.3,0,5.9,2.7,5.9,5.9"/>
		<path id="XMLID_319_" class="st3" d="M165.7,63.2c0-1.7-1-3.1-2.5-3.7V46.2c0-1.7-1.3-3.1-2.9-3.4c-0.2-0.2-0.4-0.3-0.6-0.5
			l-44.2-20.2c-0.5-0.2-1.2-0.2-1.7,0L69.6,42.4c-0.7,0.3-1.2,1.1-1.2,1.9s0.5,1.5,1.2,1.9l18.6,8.5h-0.1v23.2
			c0,6,12.7,11.5,26.5,11.5c13.9,0,26.5-5.5,26.5-11.5V54.7H141l18.6-8.5c0.2-0.1,0.3-0.2,0.4-0.3c0.1,0.1,0.1,0.2,0.1,0.3v13.3
			c-1.5,0.6-2.5,2-2.5,3.7c0,1.7,1,3.1,2.5,3.7v10.2c0,0.8,0.7,1.5,1.5,1.5s1.5-0.7,1.5-1.5V66.9C164.7,66.3,165.7,64.9,165.7,63.2z
			 M114.6,26.4l35.9,16.4h-35.9c-0.8,0-1.5,0.7-1.5,1.5s0.7,1.5,1.5,1.5h35.9l-35.9,16.4L75.5,44.3L114.6,26.4z"/>
	</g>
	<path id="XMLID_317_" class="st25" d="M141.5,71.4c11.9-0.5,13.8,10.1,14.7,14.7c5.1,3,8.4,8.3,8.4,14.4c0,5.4-2.7,10.2-6.8,13.3
		c0.7,1.6,1.2,3.3,1.2,5.1c0,7.7-7.4,13.9-16.6,13.9c-0.8,0-3.3,0-4.1-0.1"/>
</g>
<g id="XMLID_335_">
	<path id="XMLID_350_" class="st26" d="M161.8,108.2c0,1.5-1.2,2.7-2.7,2.7s-2.7-1.2-2.7-2.7s1.2-2.7,2.7-2.7
		S161.8,106.7,161.8,108.2L161.8,108.2z"/>
	<path id="XMLID_342_" class="st26" d="M169.4,101.5l-24-24c-1.5-1.5-3.5-2.4-5.7-2.4c-2.1,0-4.2,0.8-5.7,2.4l-5.6,5.6
		c-0.9,0.9-1.5,1.9-1.9,3l-26.4-4.7l0,0C88.2,79,76.6,86.7,74.2,98.6l-1.2,6c-1.3,6.7,3,13.2,9.7,14.5s13.2-3,14.5-9.7l0.7-3.7
		l11.8,1l30.9,30.9l5.6,5.6c1.1,1.1,1.1,3,0,4.1s-3,1.1-4.1,0l-15-15c-1-1-2.7-1-3.8,0c-1,1-1,2.7,0,3.8l15,15
		c0.5,0.5,0.9,1.3,0.9,2.1s-0.3,1.5-0.9,2.1c-1.1,1.1-3,1.1-4.1,0l-15-15c-1-1-2.7-1-3.8,0c-1,1-1,2.7,0,3.8l15,15
		c1.1,1.1,1.1,3,0,4.1c-0.5,0.5-1.3,0.9-2.1,0.9s-1.5-0.3-2.1-0.9l-15-15c-1-1-2.7-1-3.8,0c-1,1-1,2.7,0,3.8l15,15
		c1.1,1.1,1.1,3,0,4.1s-3,1.1-4.1,0L50.4,103c-1-1-2.7-1-3.8,0c-1,1-1,2.7,0,3.8l22.6,22.6l-4.2,4.2c-1.4,1.4-2.1,3.2-2.1,5.2
		c0,1.9,0.8,3.8,2.1,5.2l1.4,1.4c1.2,1.2,2.8,1.9,4.4,2.1c0.2,1.7,0.9,3.2,2.1,4.4l1.4,1.4c1.2,1.2,2.8,1.9,4.4,2.1
		c0.2,1.7,0.9,3.2,2.1,4.4l1.4,1.4c1.2,1.2,2.8,1.9,4.4,2.1c0.2,1.7,0.9,3.2,2.1,4.4l1.4,1.4c1.4,1.4,3.3,2.1,5.2,2.1
		s3.7-0.7,5.2-2.1l4.2-4.2l10.1,10.1c1.6,1.6,3.6,2.4,5.8,2.4c2.2,0,4.3-0.9,5.8-2.4s2.3-3.4,2.4-5.5c2.1-0.1,4-0.9,5.5-2.4
		s2.3-3.5,2.4-5.5c2-0.1,4-0.9,5.5-2.4s2.3-3.5,2.4-5.5c2-0.1,4-0.9,5.5-2.4c3.2-3.2,3.2-8.5,0-11.7l-3.7-3.7l13.6-13.6l9.4-9.4
		C172.5,109.7,172.5,104.6,169.4,101.5L169.4,101.5z M68.8,140.2c-0.8-0.8-0.8-2,0-2.7l3.9-3.9l4.1,4.1l-3.9,3.9
		c-0.8,0.8-2,0.8-2.7,0L68.8,140.2z M76.7,148.1c-0.8-0.8-0.8-2,0-2.7l3.9-3.9l4.1,4.1l-3.9,3.9c-0.8,0.8-2,0.8-2.7,0L76.7,148.1z
		 M84.6,156c-0.4-0.4-0.6-0.9-0.6-1.4s0.2-1,0.6-1.4l3.9-3.9l4.1,4.1l-3.9,3.9c-0.8,0.8-2,0.8-2.7,0L84.6,156z M96.6,165.3
		c-0.8,0.8-2,0.8-2.7,0l-1.4-1.4c-0.8-0.8-0.8-2,0-2.7l3.9-3.9l4.1,4.1L96.6,165.3z M142.6,132.1l-29.7-29.7c-0.4-0.4-1-0.7-1.7-0.8
		L96,100.3c-0.1,0-0.2,0-0.2,0c-1.3,0-2.4,0.9-2.6,2.1l-1.2,6c-0.8,3.8-4.4,6.2-8.2,5.5c-1.8-0.4-3.4-1.4-4.4-3s-1.4-3.4-1-5.2
		l1.2-6c1.8-9,10.6-14.8,19.6-13c0,0,0,0,0.1,0l26,4.7l29.1,29.1L142.6,132.1z M165.6,109.1l-7.5,7.5l-25.9-25.9
		c-0.5-0.5-0.8-1.2-0.8-1.9c0-0.7,0.3-1.4,0.8-1.9l5.6-5.6c0.5-0.5,1.2-0.8,1.9-0.8s1.4,0.3,1.9,0.8l24,24c0.5,0.5,0.8,1.2,0.8,1.9
		C166.4,107.9,166.1,108.5,165.6,109.1L165.6,109.1z"/>
	<polyline id="XMLID_341_" class="st27" points="117.2,60.1 117.4,24 134.2,24 134.2,68.6 144.8,68.6 153.9,36.6 170.8,36.6 
		170.8,68.6 211.7,68.6 173.2,99.6 	"/>
	<path id="XMLID_340_" class="st27" d="M42,98.9L12.7,68.6h23.5c1.1-17.3,11.3-25.2,30.5-23.5v23.5h14.5V40h22.2l0.1,29.1H118"/>
	<line id="XMLID_339_" class="st28" x1="161.8" y1="55" x2="169.7" y2="55"/>
	<line id="XMLID_338_" class="st28" x1="161.8" y1="47" x2="169.7" y2="47"/>
	<line id="XMLID_337_" class="st28" x1="81.8" y1="57" x2="89.7" y2="57"/>
	<line id="XMLID_336_" class="st28" x1="81.8" y1="50" x2="89.7" y2="50"/>
</g>
</svg>
