<?xml version="1.0" encoding="utf-8"?>
<!-- Generator: Adobe Illustrator 19.0.0, SVG Export Plug-In . SVG Version: 6.00 Build 0)  -->
<svg version="1.1" id="Capa_1" xmlns="http://www.w3.org/2000/svg" xmlns:xlink="http://www.w3.org/1999/xlink" x="0px" y="0px"
	 viewBox="0 0 262 193" style="enable-background:new 0 0 262 193;" xml:space="preserve">
<style type="text/css">
	.st0{display:none;}
	.st1{display:inline;}
	.st2{fill:none;stroke:#F80E41;stroke-width:4.5716;stroke-linecap:round;stroke-linejoin:round;stroke-miterlimit:3.8637;}
	.st3{fill:#F80E41;}
	.st4{fill:#FFFFFF;}
	.st5{fill:none;stroke:#FFFFFF;stroke-width:4.5716;stroke-linecap:round;stroke-linejoin:round;stroke-miterlimit:3.8637;}
	.st6{fill:none;stroke:#F80E41;stroke-width:3.9685;stroke-linecap:round;stroke-linejoin:round;stroke-miterlimit:2;}
	.st7{fill:none;stroke:#F80E41;stroke-width:2.8346;stroke-linecap:round;stroke-linejoin:round;stroke-miterlimit:2;}
	.st8{fill:none;stroke:#F80E41;stroke-width:3.9685;stroke-linecap:round;stroke-linejoin:round;stroke-miterlimit:3.8637;}
	.st9{fill:none;stroke:#F80E41;stroke-width:2.2677;stroke-linecap:round;stroke-linejoin:round;stroke-miterlimit:2;}
	.st10{fill:none;stroke:#F80E41;stroke-width:1.9211;stroke-linecap:round;stroke-linejoin:round;stroke-miterlimit:2;}
</style>
<g id="XMLID_2_" class="st0">
	<g id="XMLID_14_" class="st1">
		<g id="XMLID_40_">
			<path id="XMLID_41_" class="st2" d="M111.1,137.1h32.7c18.8-30.1,21.9-83.5-15.6-111.8C94.3,52.1,88.4,94.1,111.1,137.1z"/>
		</g>
		<g id="XMLID_38_">
			<path id="XMLID_39_" class="st2" d="M98.6,104.1c2.9,9.2,5.9,18,9,26.4c-4.4,2.9-6.4,7.9-4.3,16.2
				C83.8,132.9,82.3,118.7,98.6,104.1z"/>
		</g>
		<g id="XMLID_36_">
			<path id="XMLID_37_" class="st2" d="M157.5,104.1c-2.9,9.2-5.9,18-9,26.4c4.4,2.9,6.4,7.9,4.3,16.2
				C172.3,132.9,173.8,118.7,157.5,104.1z"/>
		</g>
		<g id="XMLID_29_">
			<g id="XMLID_33_">
				<circle id="XMLID_35_" class="st3" cx="128.7" cy="72.2" r="17.4"/>
				<path id="XMLID_34_" class="st3" d="M128.7,72.2"/>
			</g>
			<g id="XMLID_30_">
				<circle id="XMLID_32_" class="st2" cx="128.7" cy="72.2" r="17.4"/>
				<path id="XMLID_31_" class="st2" d="M128.7,72.2"/>
			</g>
		</g>
		<g id="XMLID_22_">
			<g id="XMLID_26_">
				<circle id="XMLID_28_" class="st4" cx="128.7" cy="72.2" r="7.3"/>
				<path id="XMLID_27_" class="st4" d="M128.7,72.2"/>
			</g>
			<g id="XMLID_23_">
				<circle id="XMLID_25_" class="st5" cx="128.7" cy="72.2" r="7.3"/>
				<path id="XMLID_24_" class="st5" d="M128.7,72.2"/>
			</g>
		</g>
		<g id="XMLID_20_">
			<line id="XMLID_21_" class="st2" x1="105.2" y1="122.3" x2="151.5" y2="122.3"/>
		</g>
		<g id="XMLID_18_">
			<line id="XMLID_19_" class="st2" x1="113.8" y1="40.1" x2="142" y2="40.1"/>
		</g>
		<g id="XMLID_15_">
			<path id="XMLID_17_" class="st4" d="M126.5,103.3h2.9c6,10.9,6.6,25.8,0,43.4h-2.7C119.9,131.5,119.8,117,126.5,103.3z"/>
			<path id="XMLID_16_" class="st2" d="M126.5,103.3h2.9c6,10.9,6.6,25.8,0,43.4h-2.7C119.9,131.5,119.8,117,126.5,103.3z"/>
		</g>
	</g>
	<g id="XMLID_9_" class="st1">
		<g id="XMLID_12_">
			<path id="XMLID_13_" class="st2" d="M117,139.2l0.1,17.7c-7.3,0-13.9,2.9-18.7,7.7c-3.1-5.2-8.8-8.7-15.3-8.7
				c-9.8,0-17.8,8-17.8,17.8"/>
		</g>
		<g id="XMLID_10_">
			<path id="XMLID_11_" class="st2" d="M139.1,139.2l-0.1,17.7c7.3,0,13.9,2.9,18.7,7.7c3.1-5.2,8.8-8.7,15.3-8.7
				c9.8,0,17.8,8,17.8,17.8"/>
		</g>
	</g>
	<g id="XMLID_7_" class="st1">
		<polygon id="XMLID_8_" class="st3" points="114.3,40.4 141.3,40.4 128.4,25 		"/>
	</g>
	<g id="XMLID_5_" class="st1">
		<polygon id="XMLID_6_" class="st3" points="105.7,122.9 111.2,136.7 122,136.7 121.1,122.6 		"/>
	</g>
	<g id="XMLID_3_" class="st1">
		<polygon id="XMLID_4_" class="st3" points="149.5,122.9 144,136.7 133.2,136.7 134.1,122.6 		"/>
	</g>
</g>
<g id="XMLID_93_" class="st0">
	<g id="XMLID_116_" class="st1">
		<path id="XMLID_117_" class="st2" d="M177.9,107c0,27.8-22.8,50.4-50.9,50.4S76.1,134.8,76.1,107c0-27.8,22.8-50.4,50.9-50.4
			S177.9,79.2,177.9,107z"/>
	</g>
	<g id="XMLID_113_" class="st1">
		<g id="XMLID_114_">
			<path id="XMLID_115_" class="st2" d="M137.2,44c0,1.2-1,2.2-2.2,2.2H119c-1.2,0-2.2-1-2.2-2.2l0-10.3c0-1.2,1-2.2,2.2-2.2l16.1,0
				c1.2,0,2.2,1,2.2,2.2L137.2,44z"/>
		</g>
	</g>
	<g id="XMLID_106_" class="st1">
		<g id="XMLID_110_">
			<g id="XMLID_111_">
				<path id="XMLID_112_" class="st2" d="M90.9,62.7l-3.7-5.3c-0.4-0.6-0.3-1.5,0.4-1.9l8.3-5.6c0.6-0.4,1.5-0.3,1.9,0.4l3.7,5.3"/>
			</g>
		</g>
		<g id="XMLID_107_">
			<g id="XMLID_108_">
				<path id="XMLID_109_" class="st2" d="M163.1,62.7l3.7-5.3c0.4-0.6,0.3-1.5-0.4-1.9l-8.3-5.6c-0.6-0.4-1.5-0.3-1.9,0.4l-3.7,5.3"
					/>
			</g>
		</g>
	</g>
	<g id="XMLID_104_" class="st1">
		<line id="XMLID_105_" class="st2" x1="127" y1="54.7" x2="127" y2="46.9"/>
	</g>
	<g id="XMLID_101_" class="st1">
		<path id="XMLID_103_" class="st3" d="M163.8,112.9l0-10.4l-9.2-0.8c-0.6-3.4-1.9-6.6-3.6-9.5l6.1-7.3l-7.3-7.4l-7,6
			c-2.8-1.9-5.9-3.3-9.2-4.1l-0.8-9.5h-10.3l-0.8,9.3c-3.4,0.6-6.5,1.9-9.4,3.6l-7.2-6.2L97.8,84l5.9,7.1c-1.9,2.8-3.3,5.9-4.1,9.3
			l-9.5,0.8l0,10.4l9.2,0.8c0.6,3.4,1.9,6.6,3.6,9.5l-6.1,7.3l7.3,7.4l7-6c2.8,1.9,5.9,3.3,9.2,4.1l0.8,9.5l10.3,0l0.8-9.3
			c3.4-0.6,6.5-1.9,9.4-3.7l7.2,6.2l7.3-7.4l-5.9-7.1c1.9-2.8,3.3-5.9,4.1-9.3L163.8,112.9z"/>
		<path id="XMLID_102_" class="st2" d="M163.8,112.9l0-10.4l-9.2-0.8c-0.6-3.4-1.9-6.6-3.6-9.5l6.1-7.3l-7.3-7.4l-7,6
			c-2.8-1.9-5.9-3.3-9.2-4.1l-0.8-9.5h-10.3l-0.8,9.3c-3.4,0.6-6.5,1.9-9.4,3.6l-7.2-6.2L97.8,84l5.9,7.1c-1.9,2.8-3.3,5.9-4.1,9.3
			l-9.5,0.8l0,10.4l9.2,0.8c0.6,3.4,1.9,6.6,3.6,9.5l-6.1,7.3l7.3,7.4l7-6c2.8,1.9,5.9,3.3,9.2,4.1l0.8,9.5l10.3,0l0.8-9.3
			c3.4-0.6,6.5-1.9,9.4-3.7l7.2,6.2l7.3-7.4l-5.9-7.1c1.9-2.8,3.3-5.9,4.1-9.3L163.8,112.9z"/>
	</g>
	<g id="XMLID_99_" class="st1">
		<polyline id="XMLID_100_" class="st5" points="125.2,97.4 125.2,107.9 130.6,113 		"/>
	</g>
	<g id="XMLID_94_" class="st1">
		<g id="XMLID_97_">
			<path id="XMLID_98_" class="st5" d="M110,102.6c1.6-8,8.6-14.1,17-14.1c8.8,0,16.1,6.6,17.2,15.2"/>
		</g>
		<g id="XMLID_95_">
			<path id="XMLID_96_" class="st5" d="M144.4,109.8c-1.6,8-8.6,14.1-17,14.1c-8.8,0-16.1-6.6-17.2-15.2"/>
		</g>
	</g>
</g>
<g id="XMLID_118_" class="st0">
	<g id="XMLID_146_" class="st1">
		<path id="XMLID_148_" class="st4" d="M181.5,107.1v-18h-9c-1-4.3-2.7-8-4.9-11.7l5.8-6.7L162,59l-6.9,5.6c-3.6-2.3-7.6-4-11.8-5
			l-0.1-8.8h-15.8v96.8h15.8l0.1-10.2c4.2-1,8.2-2.7,11.8-5l6.9,6.4l11.4-11.6l-5.8-7.5c2.2-3.7,4-8.2,4.9-12.5L181.5,107.1z"/>
		<path id="XMLID_147_" class="st2" d="M181.5,107.1v-18h-9c-1-4.3-2.7-8-4.9-11.7l5.8-6.7L162,59l-6.9,5.6c-3.6-2.3-7.6-4-11.8-5
			l-0.1-8.8h-15.8v96.8h15.8l0.1-10.2c4.2-1,8.2-2.7,11.8-5l6.9,6.4l11.4-11.6l-5.8-7.5c2.2-3.7,4-8.2,4.9-12.5L181.5,107.1z"/>
	</g>
	<g id="XMLID_144_" class="st1">
		<path id="XMLID_145_" class="st3" d="M127.5,147.6h15.8l0.1-10.2c4.2-1,8.2-2.7,11.8-5l6.9,6.4l11.4-11.6l-5.8-7.5
			c2.2-3.7,4-8.2,4.9-12.5l9,0v-18h-9c-1-4.3-2.7-8-4.9-11.7l5.8-6.7L162,59l-6.9,5.6c-3.6-2.3-7.6-4-11.8-5l-0.1-8.8h-15.8V147.6z"
			/>
	</g>
	<g id="XMLID_142_" class="st1">
		<line id="XMLID_143_" class="st2" x1="127.5" y1="41.8" x2="127.5" y2="156.6"/>
	</g>
	<g id="XMLID_140_" class="st1">
		<path id="XMLID_141_" class="st5" d="M129.7,109.3h3.9c6.6,0,11.9-5,11.9-11.3c0-6.2-5.3-11.3-11.9-11.3h-3.9"/>
	</g>
	<g id="XMLID_137_" class="st1">
		<path id="XMLID_139_" class="st4" d="M113.9,50.8c-7-0.5-14.8,3.6-16.7,9.5c-8.9-0.3-16,6.9-16,16.4c0,0.7,0.1,1.5,0.1,2.2
			c-6.5,2.4-11.1,9.7-11.1,18.7c0,5.7,1.9,11,4.9,15c-0.5,2.1-0.7,4.3-0.4,6.6c1.2,9.7,9.4,17.2,18.5,16.8
			c2.4,6.2,8.9,11.5,16.6,11.5c12,0,17.6-6.7,17.6-6.7V57.6C127.5,57.6,122.5,51.4,113.9,50.8z"/>
		<path id="XMLID_138_" class="st2" d="M113.9,50.8c-7-0.5-14.8,3.6-16.7,9.5c-8.9-0.3-16,6.9-16,16.4c0,0.7,0.1,1.5,0.1,2.2
			c-6.5,2.4-11.1,9.7-11.1,18.7c0,5.7,1.9,11,4.9,15c-0.5,2.1-0.7,4.3-0.4,6.6c1.2,9.7,9.4,17.2,18.5,16.8
			c2.4,6.2,8.9,11.5,16.6,11.5c12,0,17.6-6.7,17.6-6.7V57.6C127.5,57.6,122.5,51.4,113.9,50.8z"/>
	</g>
	<g id="XMLID_135_" class="st1">
		<path id="XMLID_136_" class="st2" d="M112,79.7c-8.5-0.6-15.4-7.5-15.4-15.4c0-1.4,0.2-2.8,0.6-4.1"/>
	</g>
	<g id="XMLID_133_" class="st1">
		<path id="XMLID_134_" class="st2" d="M92.2,98.3c4.8,3,10.4,1,14.4-3.2c5.1-5.3,13.5-6.9,18.5-1c0.9,1.1,1.7,2.2,2.2,3.5"/>
	</g>
	<g id="XMLID_131_" class="st1">
		<path id="XMLID_132_" class="st2" d="M127.3,71.2c-6.8,1-12.9-3.3-15.2-9.5"/>
	</g>
	<g id="XMLID_129_" class="st1">
		<path id="XMLID_130_" class="st2" d="M127.3,125.3c-6.8-1.8-12.9,1.6-15.2,7.5"/>
	</g>
	<g id="XMLID_127_" class="st1">
		<path id="XMLID_128_" class="st2" d="M96.2,121.5c-3.9-1.2-7.7-4-7.7-7.7"/>
	</g>
	<g id="XMLID_125_" class="st1">
		<path id="XMLID_126_" class="st2" d="M94.4,138.6c-1.4-2.3-2.2-4.9-2.2-7.6c0-7.9,6.6-14.4,15.4-14.4c1.1,0,1.8-0.9,1.8-1.9
			c0-0.9,0,0.4,0,0c0-5.9,5.5-7.9,9-7.7"/>
	</g>
	<g id="XMLID_123_" class="st1">
		<path id="XMLID_124_" class="st2" d="M83.4,90.2c4.3,0.3,7.7,3.7,7.7,7.7c0,4-3.4,7-7.7,6.7"/>
	</g>
	<g id="XMLID_121_" class="st1">
		<path id="XMLID_122_" class="st2" d="M93.7,84c0-4.7,4.1-8.2,9.1-7.9"/>
	</g>
	<g id="XMLID_119_" class="st1">
		<path id="XMLID_120_" class="st5" d="M134.7,71.5c14.7,0,26.6,11.9,26.6,26.6c0,14.7-11.9,26.6-26.6,26.6"/>
	</g>
</g>
<g id="XMLID_149_">
	<polyline id="XMLID_215_" class="st6" points="141.5,66.7 141.5,73.6 131.9,83.8 122.3,73.6 122.3,67.4 	"/>
	<polyline id="XMLID_214_" class="st6" points="122.3,125.5 122.3,118.5 131.9,108.4 141.5,118.5 141.5,124.8 	"/>
	<path id="XMLID_213_" class="st6" d="M79,88.4V73.1c0-6.3,4.5-11.5,10-11.5h7.5"/>
	<path id="XMLID_212_" class="st6" d="M98.5,134.8H89c-5.5,0-10-5.1-10-11.5v-15.3"/>
	<polyline id="XMLID_211_" class="st6" points="72.5,88.6 79.5,88.6 89.7,98.2 79.5,107.9 73.3,107.9 	"/>
	<path id="XMLID_210_" class="st6" d="M40.1,75.7c-0.3-0.8-0.4-1.7-0.4-2.5c0-4.1,3.3-7.4,7.3-7.4c4,0,7.3,3.3,7.3,7.4"/>
	<path id="XMLID_209_" class="st6" d="M54.3,124c0,4.1-3.3,7.4-7.3,7.4c-4,0-7.3-3.3-7.3-7.4"/>
	<path id="XMLID_208_" class="st6" d="M39.9,75.4h10.4c13.3,0,24,10.9,24,24.3l0,0c0,13.4-10.8,24.3-24,24.3H39.9"/>
	<path id="XMLID_207_" class="st7" d="M63.7,106.1c1.9-4.9,1.5-10.2-0.8-14.5"/>
	<path id="XMLID_206_" class="st6" d="M24.1,108.1c5.8,2.1,11,6.3,14.1,12.3c0.8,1.6,1.4,2.8,2,4.7"/>
	<path id="XMLID_205_" class="st6" d="M39.8,75.2c0.6,10.5-2.8,23.2-13.4,28.2l-2.6,1.2"/>
	<polyline id="XMLID_204_" class="st7" points="55.4,96.5 55.4,101.2 46.1,101.2 	"/>
	<path id="XMLID_203_" class="st7" d="M48.6,117c-2.6,0-4.7-2.1-4.7-4.7c0-2.6,2.1-4.7,4.7-4.7"/>
	<path id="XMLID_202_" class="st7" d="M48.6,94c-2.6,0-4.7-2.1-4.7-4.7c0-2.6,2.1-4.7,4.7-4.7"/>
	<path id="XMLID_201_" class="st6" d="M17.8,80.6"/>
	<path id="XMLID_200_" class="st6" d="M185.4,88.4V73.1c0-6.3-4.5-11.5-10-11.5h-9.5"/>
	<path id="XMLID_199_" class="st6" d="M164.5,134.8h10.8c5.5,0,10-5.1,10-11.5v-15.3"/>
	<polyline id="XMLID_198_" class="st6" points="191.8,88.6 184.8,88.6 174.6,98.2 184.8,107.9 191.1,107.9 	"/>
	<path id="XMLID_197_" class="st6" d="M224.2,75.7c0.3-0.8,0.4-1.7,0.4-2.5c0-4.1-3.3-7.4-7.3-7.4c-4,0-7.3,3.3-7.3,7.4"/>
	<path id="XMLID_196_" class="st6" d="M210,124c0,4.1,3.3,7.4,7.3,7.4c4,0,7.3-3.3,7.3-7.4"/>
	<path id="XMLID_195_" class="st6" d="M224.4,75.4H214c-13.3,0-24,10.9-24,24.3l0,0c0,13.4,10.8,24.3,24,24.3h10.4"/>
	<path id="XMLID_194_" class="st7" d="M200.6,106.1c-1.9-4.9-1.5-10.2,0.8-14.5"/>
	<path id="XMLID_193_" class="st6" d="M240.3,108.1c-5.8,2.1-11,6.3-14.1,12.3c-0.8,1.6-1.4,2.8-2,4.7"/>
	<path id="XMLID_192_" class="st6" d="M224.5,75.2c-0.6,10.5,2.8,23.2,13.4,28.2l2.6,1.2"/>
	<polyline id="XMLID_191_" class="st7" points="209,96.5 209,101.2 218.2,101.2 	"/>
	<path id="XMLID_190_" class="st7" d="M215.7,117c2.6,0,4.7-2.1,4.7-4.7c0-2.6-2.1-4.7-4.7-4.7"/>
	<path id="XMLID_189_" class="st7" d="M215.7,94c2.6,0,4.7-2.1,4.7-4.7c0-2.6-2.1-4.7-4.7-4.7"/>
	<path id="XMLID_188_" class="st6" d="M246.6,80.6"/>
	<path id="XMLID_187_" class="st6" d="M38.3,126.4c-14.9,0-26.9-12-26.9-26.9s12-26.9,26.9-26.9"/>
	<path id="XMLID_186_" class="st6" d="M226,72.6c14.9,0,26.8,12,26.8,26.9s-12,26.9-26.9,26.9"/>
	<path id="XMLID_185_" class="st3" d="M141.8,73.1h15.3c6.3,0,11.5,4.5,11.5,10v12.5l0,13.4c0,5.5-5.1,10-11.5,10h-15.3l-10.1-12
		l-9.6,12h-15.3c-6.3,0-11.5-4.5-11.5-10l0-13.4V83.1c0-5.5,5.1-10,11.5-10H122l10.2,11L141.8,73.1z"/>
	<path id="XMLID_184_" class="st4" d="M147.1,95.4c0.5,0.6,0.5,1.2,0,1.8l-8.1,8.7h-5.1l8.5-9c0.4-0.3,0.4-0.6,0-1l-4.8-5.2
		l-5.2,13.6c-0.3,0.7-0.7,1.2-1.4,1.5h-4.3l-8.2-8.6c-0.5-0.6-0.5-1.2,0-1.8l8.1-8.7h5.1l-8.5,9c-0.4,0.3-0.4,0.6,0,1l4.9,5.2
		l5.4-14.1c0.2-0.6,0.6-1,1.1-1h4.4h0.1L147.1,95.4z"/>
	<g id="XMLID_167_">
		<path id="XMLID_183_" class="st6" d="M154.4,34.2c0.8-0.3,1.7-0.4,2.5-0.4c4.1,0,7.4,3.3,7.4,7.3c0,4-3.3,7.3-7.4,7.3"/>
		<path id="XMLID_182_" class="st6" d="M106.1,48.4c-4.1,0-7.4-3.3-7.4-7.3c0-4,3.3-7.3,7.4-7.3"/>
		<path id="XMLID_181_" class="st6" d="M154.7,34v10.4c0,13.3-10.9,24-24.3,24l0,0c-13.4,0-24.3-10.8-24.3-24V34"/>
		<path id="XMLID_180_" class="st7" d="M124.1,57.8c4.9,1.9,10.2,1.5,14.5-0.8"/>
		<path id="XMLID_179_" class="st7" d="M113.1,45.7c0-2.6,2.1-4.7,4.7-4.7c2.6,0,4.7,2.1,4.7,4.7"/>
		<path id="XMLID_178_" class="st7" d="M136.2,45.7c0-2.6,2.1-4.7,4.7-4.7s4.7,2.1,4.7,4.7"/>
		<path id="XMLID_177_" class="st6" d="M149.6,11.9"/>
		<path id="XMLID_176_" class="st6" d="M102.1,32.3c0-14.9,12-26.9,26.9-26.9c14.9,0,26.9,12,26.9,26.9"/>
		<path id="XMLID_175_" class="st8" d="M101.1,48.8l-5,16.5c5.6,4.1,17,4.1,22,0"/>
		<line id="XMLID_174_" class="st8" x1="103.4" y1="31.7" x2="121.5" y2="31.7"/>
		<line id="XMLID_173_" class="st8" x1="121.7" y1="34.8" x2="121.7" y2="22.8"/>
		<line id="XMLID_172_" class="st8" x1="129.7" y1="36.8" x2="129.7" y2="18.8"/>
		<line id="XMLID_171_" class="st8" x1="138.7" y1="34.8" x2="138.7" y2="25.8"/>
		<path id="XMLID_170_" class="st8" d="M160.5,48.8l5,16.5c-5.6,4.1-17,4.1-22,0"/>
		<line id="XMLID_169_" class="st8" x1="139.4" y1="31.7" x2="155.5" y2="31.7"/>
		<path id="XMLID_168_" class="st9" d="M133.7,49.4c0,1.8-1.4,3.2-3.2,3.2c-1.8,0-3.2-1.4-3.2-3.2"/>
	</g>
	<g id="XMLID_150_">
		<path id="XMLID_166_" class="st6" d="M108.2,158.4c-0.8,0.3-1.7,0.4-2.5,0.4c-4.1,0-7.4-3.3-7.4-7.3c0-4,3.3-7.3,7.4-7.3"/>
		<path id="XMLID_165_" class="st6" d="M156.6,144.2c4.1,0,7.4,3.3,7.4,7.3c0,4-3.3,7.3-7.4,7.3"/>
		<path id="XMLID_164_" class="st6" d="M108,158.5v-10.4c0-13.3,10.9-24,24.3-24l0,0c13.4,0,24.3,10.8,24.3,24v10.4"/>
		<path id="XMLID_163_" class="st7" d="M138.6,134.8c-4.9-1.9-10.2-1.5-14.5,0.8"/>
		<path id="XMLID_162_" class="st7" d="M149.5,146.9c0,2.6-2.1,4.7-4.7,4.7s-4.7-2.1-4.7-4.7"/>
		<path id="XMLID_161_" class="st7" d="M126.5,146.9c0,2.6-2.1,4.7-4.7,4.7c-2.6,0-4.7-2.1-4.7-4.7"/>
		<path id="XMLID_160_" class="st6" d="M113.1,180.7"/>
		<path id="XMLID_159_" class="st6" d="M160.5,160.2c0,14.9-12,26.9-26.9,26.9c-14.9,0-26.9-12-26.9-26.9"/>
		<path id="XMLID_158_" class="st8" d="M161.5,143.8l5-16.5c-5.6-4.1-17-4.1-22,0"/>
		<line id="XMLID_157_" class="st8" x1="159.3" y1="160.9" x2="141.1" y2="160.9"/>
		<line id="XMLID_156_" class="st8" x1="141" y1="157.8" x2="141" y2="169.8"/>
		<line id="XMLID_155_" class="st8" x1="133" y1="155.8" x2="133" y2="173.8"/>
		<line id="XMLID_154_" class="st8" x1="124" y1="157.8" x2="124" y2="166.8"/>
		<path id="XMLID_153_" class="st8" d="M102.2,143.8l-5-16.5c5.6-4.1,17-4.1,22,0"/>
		<line id="XMLID_152_" class="st8" x1="123.3" y1="160.9" x2="107.1" y2="160.9"/>
		<path id="XMLID_151_" class="st10" d="M128.9,143.2c0-1.8,1.4-3.2,3.2-3.2s3.2,1.4,3.2,3.2"/>
	</g>
</g>
</svg>
