<?xml version="1.0" encoding="utf-8"?>
<!-- Generator: Adobe Illustrator 22.1.0, SVG Export Plug-In . SVG Version: 6.00 Build 0)  -->
<svg version="1.1" id="Capa_1" xmlns="http://www.w3.org/2000/svg" xmlns:xlink="http://www.w3.org/1999/xlink" x="0px" y="0px"
	 viewBox="0 0 202 190" style="enable-background:new 0 0 202 190;" xml:space="preserve">
<style type="text/css">
	.st0{fill:#29ABE2;}
</style>
<g>
	<g>
		<path class="st0" d="M68,117.4l-4.3-10.7c-3.1-0.2-6.2-0.6-9.2-1.4l-7.8,8.6l-14.5-8.4L35.6,95c-2.4-2.2-4.5-4.6-6.4-7.3L18,89.3
			l-5.7-15.8l9.1-5.7c-0.3-2-0.4-3.9-0.4-5.9c0-1.4,0.1-2.8,0.2-4.2L12,51.9l5.7-15.8l10.4,1.4c1.9-2.9,4.1-5.6,6.5-8l-3.3-10.2
			L45.9,11l7,7.8c3.3-1,6.7-1.6,10.1-1.8l4.1-10l16.5,2.9L84,20.7c3,1.3,5.9,3,8.6,5l9.8-5.2l10.8,12.9l-6.9,8.8
			c1.4,2.8,2.5,5.8,3.2,8.9l11.3,2.4v16.8l-11.3,2.4c-0.7,3-1.8,5.8-3.1,8.6l7.3,9.3L103,103.5L92.7,98c-2.4,1.8-5,3.4-7.8,4.6
			l-0.4,11.9L68,117.4z M53.6,102.4l0.8,0.2c3.3,0.9,6.7,1.5,10.2,1.6l0.8,0l4.2,10.3l12.4-2.2l0.4-11.4l0.7-0.3
			c3.1-1.4,6-3.1,8.7-5.2l0.7-0.5l9.9,5.3l8.1-9.7l-7-9l0.4-0.7c1.5-3,2.7-6.3,3.4-9.6l0.2-0.8l10.9-2.3V55.5l-10.9-2.3l-0.2-0.8
			c-0.8-3.4-2-6.7-3.6-9.9l-0.4-0.7l6.6-8.5l-8.1-9.7l-9.5,5l-0.7-0.5c-2.9-2.2-6.1-4.1-9.4-5.5l-0.8-0.3l-0.4-10.3L68.7,9.9
			l-3.9,9.6l-0.8,0c-3.8,0.2-7.5,0.8-11.1,2l-0.8,0.3l-6.7-7.5l-10.9,6.3l3.1,9.7L37,30.9c-2.8,2.6-5.2,5.5-7.2,8.8l-0.4,0.7
			l-10-1.4l-4.3,11.9l8.8,5.5l-0.1,0.8c-0.2,1.6-0.3,3.2-0.3,4.7c0,2.1,0.2,4.3,0.5,6.4l0.1,0.8l-8.7,5.5l4.3,11.9l10.6-1.5l0.4,0.7
			c2,3,4.4,5.7,7.1,8l0.6,0.6l-3.3,10.2l10.9,6.3L53.6,102.4z M66,87.1c-13.9,0-25.2-11.3-25.2-25.2C40.8,48,52.1,36.7,66,36.7
			c13.9,0,25.2,11.3,25.2,25.2C91.2,75.8,79.9,87.1,66,87.1z M66,39.2c-12.5,0-22.6,10.1-22.6,22.6c0,12.5,10.1,22.6,22.6,22.6
			c12.5,0,22.6-10.1,22.6-22.6C88.6,49.4,78.4,39.2,66,39.2z"/>
	</g>
	<g>
		<path class="st0" d="M152.7,130.8l-3-7.4c-2-0.1-4-0.4-5.9-0.9l-5.4,6l-10.6-6.1l2.4-7.3c-1.5-1.4-2.9-3-4.1-4.7l-7.7,1.1
			l-4.2-11.5l6.3-3.9c-0.2-1.3-0.2-2.6-0.2-3.9c0-0.9,0-1.8,0.1-2.7l-6.4-4l4.2-11.5l7.2,1c1.2-1.9,2.6-3.6,4.2-5.2l-2.3-7l10.6-6.1
			l4.9,5.4c2.1-0.6,4.3-1,6.5-1.2l2.8-6.9l12,2.1l0.3,7.5c2,0.9,3.8,2,5.5,3.2l6.8-3.6l7.8,9.3l-4.8,6.1c0.9,1.8,1.6,3.8,2.1,5.7
			l7.8,1.7v12.2l-7.8,1.7c-0.5,1.9-1.1,3.7-2,5.5l5.1,6.5l-7.8,9.3l-7.2-3.8c-1.6,1.1-3.2,2.1-5,3l-0.3,8.2L152.7,130.8z
			 M142.9,119.6l0.8,0.2c2.2,0.6,4.6,1,6.9,1.1l0.8,0l2.8,7l7.9-1.4l0.3-7.8l0.7-0.3c2.1-0.9,4.1-2.1,5.9-3.5l0.7-0.5l6.8,3.6
			l5.2-6.1l-4.8-6.1l0.4-0.7c1-2.1,1.8-4.2,2.3-6.5l0.2-0.8l7.4-1.6v-8l-7.4-1.6l-0.2-0.8c-0.5-2.3-1.3-4.6-2.4-6.7l-0.4-0.7
			l4.5-5.8l-5.2-6.1l-6.4,3.4l-0.7-0.5c-2-1.5-4.1-2.8-6.4-3.7l-0.8-0.3l-0.3-7l-7.9-1.4l-2.6,6.5l-0.8,0c-2.6,0.1-5.1,0.6-7.5,1.4
			l-0.8,0.3l-4.6-5.1l-7,4l2.1,6.6l-0.6,0.6c-1.9,1.8-3.5,3.8-4.9,5.9l-0.4,0.7l-6.8-0.9l-2.7,7.5l6,3.7L123,89
			c-0.1,1-0.2,2.1-0.2,3.2c0,1.5,0.1,2.9,0.3,4.3l0.1,0.8l-6,3.7l2.7,7.5l7.2-1l0.4,0.7c1.3,2,3,3.8,4.8,5.4l0.6,0.6l-2.3,7l6.9,4
			L142.9,119.6z M151.5,109.9c-9.8,0-17.7-7.9-17.7-17.7c0-9.8,8-17.7,17.7-17.7s17.7,8,17.7,17.7
			C169.3,101.9,161.3,109.9,151.5,109.9z M151.5,77c-8.4,0-15.1,6.8-15.1,15.1c0,8.3,6.8,15.1,15.1,15.1s15.1-6.8,15.1-15.1
			C166.7,83.8,159.9,77,151.5,77z"/>
	</g>
	<g>
		<path class="st0" d="M114.8,182.3l-2.7-5.5c-1.4,0.1-2.8-0.1-4.2-0.3l-3.8,4.9l-8.9-4.3l1.4-5.8c-1.2-0.9-2.2-2-3.2-3.1l-5.9,1.3
			l-4-9l4.6-3.4c-0.2-0.9-0.3-1.9-0.4-2.8c0-0.6-0.1-1.3-0.1-1.9l-5.2-2.7l2.7-9.5l5.6,0.4c0.8-1.4,1.7-2.7,2.8-3.9l-2.2-5.3
			l8.1-5.5l4.1,3.9c1.5-0.5,3.1-0.9,4.6-1.2l1.8-5.5l9.8,1l0.6,5.8c1.4,0.5,2.8,1.2,4.1,2l5.1-3.2l6.9,7.1l-3.3,5
			c0.7,1.3,1.3,2.6,1.8,4l6.1,0.8l0.7,9.8l-6,1.7c-0.3,1.4-0.6,2.7-1.1,4l4.3,4.7l-5.8,8l-5.7-2.5c-1.1,0.9-2.2,1.7-3.4,2.4l0.2,6.4
			L114.8,182.3z M113.7,174.2l2.5,5.2l5.5-1.4l-0.2-5.9l0.7-0.4c1.5-0.8,2.9-1.8,4.2-3l0.6-0.6l5.3,2.3l3.3-4.6l-4-4.4l0.3-0.8
			c0.7-1.6,1.1-3.3,1.4-5l0.1-0.8l5.5-1.6l-0.4-5.7l-5.7-0.8l-0.2-0.8c-0.5-1.7-1.3-3.4-2.2-4.9l-0.4-0.7l3.1-4.6l-4-4.1l-4.7,2.9
			l-0.7-0.5c-1.6-1-3.3-1.9-5-2.4l-0.8-0.3l-0.6-5.3l-5.6-0.6l-1.6,5.1l-0.8,0.1c-1.9,0.2-3.8,0.7-5.6,1.4l-0.8,0.3l-3.8-3.6
			l-4.7,3.2l2,4.9l-0.6,0.6c-1.3,1.4-2.4,3-3.3,4.7l-0.4,0.7l-5.2-0.3l-1.5,5.5l4.7,2.5l0,0.8c0,0.8,0,1.6,0,2.4
			c0.1,1.1,0.2,2.2,0.5,3.3l0.2,0.8l-4.3,3.2l2.3,5.2l5.4-1.2l0.5,0.6c1.1,1.4,2.4,2.7,3.9,3.8l0.7,0.5l-1.3,5.4l5.1,2.5l3.5-4.5
			l0.8,0.2c1.7,0.4,3.5,0.5,5.3,0.4L113.7,174.2z M111.9,166.4c-3.3,0-6.5-1.2-9.1-3.4c-2.8-2.4-4.5-5.8-4.8-9.5
			c-0.3-3.7,0.9-7.3,3.3-10.1c2.4-2.8,5.8-4.5,9.5-4.8c3.7-0.3,7.3,0.9,10.1,3.3c2.8,2.4,4.5,5.8,4.8,9.5c0.3,3.7-0.9,7.3-3.3,10.1
			c-2.4,2.8-5.8,4.5-9.5,4.8l0,0C112.6,166.4,112.3,166.4,111.9,166.4z M112,141.2c-0.3,0-0.6,0-0.8,0c-3,0.2-5.8,1.6-7.7,3.9
			c-2,2.3-2.9,5.2-2.7,8.2c0.2,3,1.6,5.8,3.9,7.7c2.3,2,5.2,2.9,8.2,2.7l0,0c3-0.2,5.8-1.6,7.7-3.9c2-2.3,2.9-5.2,2.7-8.2
			c-0.2-3-1.6-5.8-3.9-7.7C117.3,142.1,114.7,141.2,112,141.2z"/>
	</g>
</g>
</svg>
