<?xml version="1.0" encoding="utf-8"?>
<!-- Generator: Adobe Illustrator 22.1.0, SVG Export Plug-In . SVG Version: 6.00 Build 0)  -->
<svg version="1.1" id="Capa_1" xmlns="http://www.w3.org/2000/svg" xmlns:xlink="http://www.w3.org/1999/xlink" x="0px" y="0px"
	 viewBox="0 0 202 190" style="enable-background:new 0 0 202 190;" xml:space="preserve">
<style type="text/css">
	.st0{fill:#29ABE2;}
</style>
<g>
	<g>
		<g>
			<path class="st0" d="M93.3,127.9c-23,0-41.7-18.7-41.7-41.7c0-23,18.7-41.6,41.7-41.6c23,0,41.7,18.7,41.7,41.6
				C134.9,109.2,116.2,127.9,93.3,127.9z M93.3,47.9c-21.2,0-38.4,17.2-38.4,38.4c0,21.2,17.2,38.4,38.4,38.4
				c21.2,0,38.4-17.2,38.4-38.4C131.7,65.1,114.4,47.9,93.3,47.9z"/>
		</g>
		<g>
			<path class="st0" d="M93.3,116c-16.4,0-29.7-13.3-29.7-29.7c0-16.4,13.3-29.7,29.7-29.7c16.4,0,29.7,13.3,29.7,29.7
				C122.9,102.6,109.6,116,93.3,116z M93.3,59.8c-14.6,0-26.5,11.9-26.5,26.4c0,14.6,11.9,26.5,26.5,26.5
				c14.6,0,26.4-11.9,26.4-26.5C119.7,71.7,107.8,59.8,93.3,59.8z"/>
		</g>
	</g>
	<g>
		
			<rect x="122" y="115.1" transform="matrix(0.7071 -0.7071 0.7071 0.7071 -51.0499 123.5492)" class="st0" width="3.2" height="16.6"/>
	</g>
	<g>
		
			<rect x="130.1" y="107" transform="matrix(0.7071 -0.7071 0.7071 0.7071 -42.9136 126.9352)" class="st0" width="3.2" height="16.6"/>
	</g>
	<g>
		<path class="st0" d="M163,177.4l-41.7-41.7l22.8-22.8l41.7,41.7L163,177.4z M125.9,135.8l37.1,37.1l18.2-18.2l-37.1-37.1
			L125.9,135.8z"/>
	</g>
	<g>
		<path class="st0" d="M78.7,75.3l-2.6-2c4.1-5.4,10.3-8.5,17.1-8.5c6.5,0,12.5,2.9,16.6,7.9l-2.5,2.1c-3.5-4.3-8.6-6.7-14.1-6.7
			C87.5,68,82.2,70.7,78.7,75.3z"/>
	</g>
	<g>
		<g>
			<path class="st0" d="M45.5,59l-2.8-1.6c10.4-18.1,29.7-29.3,50.6-29.3v3.2C73.6,31.3,55.3,41.9,45.5,59z"/>
		</g>
		<g>
			<path class="st0" d="M77,142.2C52.3,135,35,112,35,86.3h3.2c0,24.3,16.3,46,39.6,52.8L77,142.2z"/>
		</g>
		<g>
			<path class="st0" d="M93.3,144.5v-3.2c7.4,0,14.6-1.5,21.4-4.3l1.3,3C108.8,142.9,101.1,144.5,93.3,144.5z"/>
		</g>
		<g>
			<path class="st0" d="M149.2,102.3l-3.1-0.9c1.4-4.9,2.1-10,2.1-15.1c0-22.1-13.2-42-33.6-50.7l1.3-3
				c21.6,9.1,35.6,30.2,35.6,53.6C151.5,91.7,150.7,97.1,149.2,102.3z"/>
		</g>
	</g>
	<g>
		<path class="st0" d="M26.9,47.1l-2.8-1.7C38.6,21.1,65,6,93.3,6c14.4,0,28.5,3.9,40.9,11.2l-1.7,2.8c-11.8-7-25.4-10.7-39.2-10.7
			C66.2,9.2,40.8,23.7,26.9,47.1z"/>
	</g>
	<g>
		<path class="st0" d="M60.7,159.6C31.7,146.8,13,118,13,86.3c0-6.9,0.9-13.7,2.6-20.3l3.1,0.8c-1.6,6.3-2.5,12.9-2.5,19.4
			c0,30.4,18,58,45.8,70.4L60.7,159.6z"/>
	</g>
	<g>
		<path class="st0" d="M93.3,166.5c-5.4,0-10.9-0.5-16.2-1.6l0.7-3.2c5.1,1,10.3,1.6,15.5,1.6c10.8,0,21.2-2.2,31-6.5l1.3,3
			C115.3,164.3,104.5,166.5,93.3,166.5z"/>
	</g>
	<g>
		<path class="st0" d="M166.3,119.5l-2.9-1.3c4.6-10.1,6.9-20.8,6.9-31.9c0-21.1-8.4-40.8-23.5-55.4l2.3-2.3
			c15.8,15.3,24.5,35.8,24.5,57.8C173.5,97.9,171.1,109.1,166.3,119.5z"/>
	</g>
</g>
</svg>
