<?xml version="1.0" encoding="utf-8"?>
<!-- Generator: Adobe Illustrator 22.0.1, SVG Export Plug-In . SVG Version: 6.00 Build 0)  -->
<svg version="1.1" xmlns="http://www.w3.org/2000/svg" xmlns:xlink="http://www.w3.org/1999/xlink" x="0px" y="0px"
	 viewBox="0 0 599.3 472.7" style="enable-background:new 0 0 599.3 472.7;" xml:space="preserve">
<style type="text/css">
	.st0{display:none;}
	.st1{display:inline;}
	.st2{fill:#E41C54;}
	.st3{fill:#BF0000;}
	.st4{fill:#630000;}
	.st5{fill:#FFFFFF;}
	.st6{fill:none;}
	.st7{fill-rule:evenodd;clip-rule:evenodd;fill:#706F6F;}
</style>
<g id="background" class="st0">
</g>
<g id="Capa_3" class="st0">
	<rect x="-17.3" y="-18.2" class="st1" width="656.1" height="509.9"/>
</g>
<g id="objects">
	<g>
		<g>
			<g>
				<polygon class="st2" points="558,359.1 497.3,352.1 513,217.1 573.7,224.2 540.6,288.7 				"/>
				<path class="st3" d="M558.2,359.2l-61-7.1L512.9,217l61,7.1l-0.1,0.2l-33.1,64.5L558.2,359.2z M497.5,351.9l60.4,7l-17.4-70.3
					l0,0l33-64.4l-60.4-7L497.5,351.9z"/>
			</g>
			<g>
				<polygon class="st2" points="24.5,297.1 85.2,304.2 100.9,169.2 40.2,162.2 57.6,232.6 				"/>
				<path class="st3" d="M85.3,304.3l-61-7.1l0.1-0.2l33.1-64.5L40,162.1l61,7.1L85.3,304.3z M24.7,297l60.4,7l15.6-134.7l-60.4-7
					l17.4,70.3l0,0L24.7,297z"/>
			</g>
			<g>
				<polygon class="st4" points="533.3,192.1 517.7,327 497.3,352.1 513,217.1 				"/>
				<path class="st4" d="M497.2,352.5l15.7-135.4l0,0l20.6-25.3l-15.7,135.4l0,0L497.2,352.5z M513.1,217.2l-15.6,134.4l20-24.6
					l15.6-134.4L513.1,217.2z"/>
			</g>
			<g>
				<polygon class="st4" points="85.2,304.2 100.9,169.3 86.8,140.3 71.2,275.2 				"/>
				<path class="st4" d="M85.3,304.6l-0.2-0.4l-14.1-29l15.7-135.4l14.3,29.4L85.3,304.6z M71.3,275.1l13.9,28.6l15.6-134.4
					l-13.9-28.6L71.3,275.1z"/>
			</g>
			<g>
				<path class="st2" d="M285,381.9c-81.7-9.5-140.5-83.7-131-165.5c9.5-81.7,83.7-140.5,165.5-131c81.7,9.5,140.5,83.7,131,165.5
					C441,332.6,366.8,391.4,285,381.9z M319.2,88.1c-80.3-9.3-153.1,48.4-162.5,128.6c-9.3,80.3,48.4,153.1,128.6,162.5
					c80.3,9.3,153.1-48.4,162.5-128.6C457.1,170.3,399.4,97.4,319.2,88.1z"/>
			</g>
			<g>
				<path class="st2" d="M284.2,389c-85.7-10-147.3-87.8-137.3-173.4c10-85.7,87.8-147.3,173.4-137.3
					c85.7,10,147.3,87.8,137.3,173.4C447.7,337.4,369.9,399,284.2,389z M320,81c-84.2-9.8-160.6,50.8-170.4,134.9
					c-9.8,84.2,50.8,160.6,134.9,170.4c84.2,9.8,160.6-50.7,170.4-134.9C464.7,167.2,404.2,90.7,320,81z"/>
			</g>
			<g>
				<path class="st2" d="M278.1,441.7c-55.6-6.5-105.3-34.2-140.1-78c-34.7-43.9-50.3-98.6-43.8-154.2c6.5-55.6,34.2-105.3,78-140.1
					c43.9-34.7,98.6-50.3,154.2-43.8c55.6,6.5,105.3,34.2,140.1,78c34.7,43.9,50.3,98.6,43.8,154.2c-6.5,55.6-34.2,105.3-78,140.1
					C388.4,432.6,333.6,448.2,278.1,441.7z M326,29.6C213.5,16.5,111.3,97.4,98.2,209.9C85.1,322.4,166,424.6,278.5,437.7
					c112.5,13.1,214.7-67.8,227.8-180.3C519.4,144.9,438.5,42.7,326,29.6z"/>
			</g>
			<g>
				<path class="st2" d="M277.1,449.7c-57.7-6.7-109.3-35.5-145.4-81c-36.1-45.5-52.2-102.4-45.5-160.1
					c6.7-57.7,35.5-109.3,81-145.4c45.5-36.1,102.4-52.2,160.1-45.5c57.7,6.7,109.3,35.5,145.4,81c36.1,45.5,52.2,102.4,45.5,160.1
					s-35.5,109.3-81,145.4C391.7,440.2,334.8,456.4,277.1,449.7z M327,20.4C209.4,6.7,102.7,91.3,89,208.9
					c-13.7,117.6,70.9,224.4,188.5,238s224.4-70.9,238-188.5S444.6,34.1,327,20.4z"/>
			</g>
			<g>
				
					<rect x="234.3" y="8.9" transform="matrix(0.1154 -0.9933 0.9933 0.1154 35.2651 506.8972)" class="st2" width="135.8" height="449.5"/>
				<path class="st3" d="M518,327.4l-447.2-52l15.8-135.6l447.2,52L518,327.4z M71.5,274.9l445.8,51.8L533,192.4L87.1,140.6
					L71.5,274.9z"/>
			</g>
			<g>
				<path class="st5" d="M99.4,232.4l6-51.5l17.2,2c4.6,0.5,7.8,2.2,9.8,5c2,2.8,2.7,6.6,2.1,11.5c-0.2,1.9-0.6,3.6-1.1,5.1
					c-0.5,1.5-1.2,2.7-2,3.7c-0.8,1-1.7,1.8-2.6,2.4c-1,0.6-2,1.1-3.2,1.4c-1.2,0.3-2.4,0.4-3.7,0.5c-1.2,0-2.6,0-4.1-0.2l-4.5-0.5
					l-2.5,21.9L99.4,232.4z M114.2,203.9l3.6,0.4c2,0.2,3.5-0.1,4.3-1.1c0.8-1,1.3-2.7,1.6-5.2c0.1-0.9,0.2-1.6,0.2-2.2
					c0-0.6,0-1.2-0.2-1.9c-0.1-0.6-0.3-1.2-0.7-1.6c-0.3-0.4-0.8-0.8-1.4-1.1c-0.6-0.3-1.4-0.5-2.3-0.6l-3.6-0.4L114.2,203.9z"/>
				<path class="st5" d="M135.3,236.6l6-51.5l10.4,1.2l-6,51.5L135.3,236.6z"/>
				<path class="st5" d="M159.8,240.1c-2.6-0.3-4.6-1.5-5.9-3.5c-1.3-2-1.9-4.1-1.6-6.5c0.1-1.2,0.4-2.3,0.8-3.3
					c0.4-1,0.9-1.9,1.4-2.6c0.5-0.7,1.2-1.4,2-2c0.8-0.6,1.6-1.1,2.3-1.5c0.7-0.4,1.6-0.8,2.6-1.1s1.9-0.7,2.6-0.8
					c0.6-0.2,1.5-0.4,2.6-0.7c1.1-0.3,1.9-0.5,2.4-0.6l0.4-3.6c0.1-1,0.1-1.8-0.2-2.4s-0.8-0.9-1.6-1c-1.4-0.2-2.3,0.7-2.6,2.7
					l-0.6,2.7l-9.6-1.5c0-0.1,0-0.3,0.1-0.6c0.1-0.3,0.1-0.5,0.1-0.6c0.8-4,2.4-6.8,4.8-8.4c2.4-1.7,5.6-2.2,9.7-1.8
					c3.6,0.4,6.3,1.7,7.9,4c1.7,2.2,2.3,5,1.9,8.4l-2,17.1c-0.3,2.4-0.4,5.5-0.4,9.3l-9.2-1.1c-0.2-3-0.3-4.8-0.3-5.3
					c-0.7,1.6-1.7,2.9-3,3.9C163.2,239.9,161.6,240.3,159.8,240.1z M164.4,233.4c0.5,0.1,1-0.1,1.6-0.3c0.6-0.3,1-0.6,1.4-1.1
					l1.2-10.1c-1.8,0.6-3.2,1.6-4.5,3c-1.2,1.4-1.9,2.8-2.1,4.2c-0.1,1.2,0,2.2,0.5,3C162.9,232.8,163.6,233.3,164.4,233.4z"/>
				<path class="st5" d="M181.6,241.9l0.8-6.7l12.7-21.3l-9.3-1.1l0.9-7.6l20.1,2.3l-0.7,6.3l-12.7,21.7l10.2,1.2l-0.9,7.6
					L181.6,241.9z"/>
				<path class="st5" d="M215,246.5c-2.6-0.3-4.6-1.5-5.9-3.5c-1.3-2-1.9-4.1-1.6-6.5c0.1-1.2,0.4-2.3,0.8-3.3
					c0.4-1,0.9-1.9,1.4-2.6c0.5-0.7,1.2-1.4,2-2c0.9-0.6,1.6-1.1,2.3-1.5c0.7-0.4,1.6-0.8,2.6-1.1c1.1-0.4,1.9-0.7,2.6-0.8
					c0.6-0.2,1.5-0.4,2.6-0.7c1.1-0.3,1.9-0.5,2.4-0.6l0.4-3.6c0.1-1,0.1-1.8-0.2-2.4c-0.2-0.6-0.8-0.9-1.6-1
					c-1.4-0.2-2.3,0.7-2.6,2.7l-0.6,2.7l-9.6-1.5c0-0.1,0-0.3,0.1-0.6c0.1-0.3,0.1-0.5,0.1-0.6c0.8-4,2.4-6.8,4.8-8.4
					c2.4-1.7,5.6-2.2,9.7-1.8c3.6,0.4,6.3,1.7,7.9,4c1.7,2.2,2.3,5,1.9,8.4l-2,17.1c-0.3,2.4-0.4,5.5-0.4,9.3l-9.2-1.1
					c-0.2-3-0.3-4.8-0.3-5.3c-0.7,1.6-1.7,2.9-3,3.9C218.4,246.3,216.8,246.7,215,246.5z M219.5,239.8c0.5,0.1,1-0.1,1.6-0.3
					s1-0.6,1.4-1.1l1.2-10.1c-1.8,0.6-3.2,1.6-4.5,3c-1.2,1.4-1.9,2.8-2.1,4.2c-0.1,1.2,0,2.2,0.5,2.9
					C218.1,239.2,218.7,239.7,219.5,239.8z"/>
				<path class="st5" d="M248.5,250.4c-3.1-0.4-5.6-1.4-7.5-3.1c-1.9-1.7-3.3-4.3-4.2-7.6l7.5-2.3c0.5,1.8,1.2,3.3,2,4.3
					c0.7,1,1.6,1.5,2.5,1.6c0.1,0,0.2,0,0.3,0c0.6,0,1.2-0.2,1.7-0.6c0.5-0.4,0.8-1,0.8-1.7c0-0.4-0.1-0.7-0.3-1.2
					c-0.2-0.4-0.6-1-1.2-1.7c-0.6-0.7-1-1.2-1.2-1.4c-0.2-0.3-0.8-0.8-1.6-1.7l-2.6-2.8c-3.8-4-5.4-7.7-5-11c0.2-2,0.9-3.7,2.2-5.2
					c1.2-1.5,2.7-2.5,4.5-3.1c1.8-0.6,3.7-0.8,5.7-0.6c3,0.3,5.4,1.5,7.2,3.3c1.8,1.9,3,4.4,3.5,7.5l-7.1,2.4
					c-0.3-1.4-0.7-2.7-1.4-3.9c-0.7-1.1-1.5-1.8-2.5-2c0,0-0.1,0-0.1,0c-0.7-0.1-1.3,0-1.8,0.4c-0.5,0.4-0.8,0.8-0.9,1.5
					c-0.2,1,1.1,2.9,3.8,5.8c0.2,0.3,0.4,0.4,0.5,0.6l2.5,2.8c1,1.1,1.7,1.9,2.2,2.5c0.5,0.6,1,1.4,1.7,2.4c0.7,1,1.1,2,1.3,3
					c0.2,1,0.3,2.1,0.1,3.2c-0.2,2.1-1,3.8-2.3,5.3c-1.3,1.4-2.9,2.4-4.7,2.9C252.5,250.5,250.5,250.6,248.5,250.4z"/>
				<path class="st5" d="M288.4,255c-2.6-0.3-4.6-1.5-5.9-3.5c-1.3-2-1.9-4.1-1.6-6.5c0.1-1.2,0.4-2.3,0.8-3.3
					c0.4-1,0.9-1.9,1.4-2.6c0.5-0.7,1.2-1.4,2-2c0.8-0.6,1.6-1.1,2.3-1.5c0.7-0.4,1.6-0.8,2.6-1.1c1.1-0.4,1.9-0.7,2.6-0.8
					c0.6-0.2,1.5-0.4,2.6-0.7c1.1-0.3,1.9-0.5,2.4-0.6l0.4-3.6c0.1-1,0.1-1.8-0.2-2.4c-0.2-0.6-0.8-0.9-1.6-1
					c-1.4-0.2-2.3,0.7-2.6,2.7l-0.6,2.7l-9.6-1.5c0-0.1,0-0.3,0.1-0.6c0.1-0.3,0.1-0.5,0.1-0.6c0.8-4,2.4-6.8,4.8-8.4
					c2.4-1.7,5.6-2.2,9.7-1.8c3.6,0.4,6.3,1.7,7.9,4s2.3,5,1.9,8.4l-2,17.1c-0.3,2.4-0.4,5.5-0.4,9.3l-9.2-1.1
					c-0.2-3-0.3-4.8-0.3-5.3c-0.7,1.6-1.7,2.9-3,3.9S290.3,255.2,288.4,255z M293,248.3c0.5,0.1,1-0.1,1.6-0.3
					c0.6-0.3,1-0.6,1.4-1.1l1.2-10.1c-1.8,0.6-3.2,1.6-4.5,3c-1.2,1.4-1.9,2.8-2.1,4.2c-0.1,1.2,0,2.2,0.5,2.9
					C291.6,247.8,292.2,248.2,293,248.3z"/>
				<path class="st5" d="M323.8,269.6c-1-0.1-1.9-0.2-2.7-0.4c-0.8-0.1-1.8-0.3-2.9-0.5c-1.1-0.2-2.1-0.5-2.9-0.8
					c-0.8-0.3-1.7-0.7-2.6-1.1c-0.9-0.5-1.6-1-2.1-1.5c-0.5-0.6-1-1.2-1.2-2c-0.3-0.8-0.4-1.6-0.3-2.5c0.3-2.4,2.3-4.7,6.1-6.7
					c-1.5-0.7-2.5-1.5-3.1-2.2c-0.6-0.7-1-1.6-1-2.4c0-0.3,0-0.7,0-1c0.1-1,0.5-1.9,1.2-2.6c0.9-1,2.3-2.1,4.1-3.2
					c-2.4-2.3-3.4-5.5-2.9-9.6c0.5-4.6,2-7.8,4.5-9.8c2.5-2,5.8-2.7,9.8-2.2c3.9,0.5,6.6,1.8,8,4.2c1.8-1.6,3.6-2.8,5.4-3.5l1.4-0.5
					l1.8,5.3c-0.6,0.1-1.7,0.4-3.1,0.8c-1.4,0.4-2.5,0.9-3.4,1.2c1,2,1.3,4.5,1,7.4c-0.5,4-1.8,6.9-4.1,8.9c-2.3,2-5.4,2.7-9.5,2.3
					c-1-0.1-2-0.3-3.1-0.7c-1.1-0.3-2-0.7-2.6-1.1c-0.9,0.9-1.3,1.6-1.4,2.2c0,0.1,0,0.2,0,0.3c0,0.6,1.1,1.2,3.2,1.8
					c0.6,0.2,1.9,0.5,3.9,1c2,0.5,3.3,0.8,4,1c3.5,0.9,5.9,2.1,7.1,3.7c1.3,1.6,1.8,3.7,1.5,6.3c-0.2,1.5-0.5,2.8-1.1,3.9
					c-0.6,1.1-1.4,2-2.5,2.8c-1.1,0.8-2.5,1.3-4.3,1.5C328.4,269.9,326.2,269.9,323.8,269.6z M324.5,263.1c1.7,0.2,3,0.2,3.8-0.1
					s1.3-0.8,1.5-1.6c0-0.2,0.1-0.4,0.1-0.6c0.1-0.8-0.1-1.4-0.5-1.8c-0.5-0.6-1.5-1-3.1-1.3l-5.5-1.3c-1.1,1.3-1.8,2.5-1.9,3.5
					c-0.1,0.9,0.2,1.7,1.1,2.2C320.9,262.5,322.4,262.9,324.5,263.1z M325.8,240.9c1.2,0.1,2-0.3,2.5-1.2c0.5-0.9,0.8-2.7,1.1-5.2
					c0.3-2.7,0.4-4.5,0.1-5.5c-0.2-1-0.9-1.5-2.2-1.7c-0.4,0-0.8,0-1.1,0c-0.3,0.1-0.6,0.3-0.8,0.5c-0.2,0.3-0.4,0.6-0.6,0.9
					c-0.1,0.3-0.3,0.7-0.4,1.4c-0.1,0.6-0.2,1.2-0.3,1.6c-0.1,0.5-0.2,1.2-0.3,2.1c-0.1,1.2-0.2,2.2-0.2,2.9c0,0.7,0,1.4,0.1,2.1
					c0.1,0.7,0.3,1.1,0.7,1.5C324.7,240.6,325.2,240.8,325.8,240.9z"/>
				<path class="st5" d="M364.7,260.7c-2.5,1.8-5.8,2.5-9.8,2c-4-0.5-7-1.9-9-4.2c-2-2.3-2.8-5.5-2.3-9.4l1.6-13.9
					c0.5-3.9,1.9-6.8,4.4-8.6c2.5-1.8,5.7-2.5,9.8-2c4,0.5,7,1.9,9.1,4.2c2,2.3,2.8,5.5,2.4,9.4l-1.6,13.9
					C368.8,256.1,367.3,258.9,364.7,260.7z M355.7,255.8c1,0.1,1.7-0.2,2.2-0.9c0.5-0.7,0.8-1.8,1-3.2l1.8-15.3
					c0.2-1.5,0.1-2.6-0.2-3.4c-0.3-0.8-0.9-1.2-1.9-1.3c-1-0.1-1.7,0.2-2.1,0.9c-0.5,0.7-0.8,1.8-1,3.2l-1.8,15.3
					c-0.2,1.4-0.1,2.5,0.2,3.3C354.2,255.2,354.8,255.7,355.7,255.8z"/>
				<path class="st5" d="M384,265.9c-1.1-0.2-2.1-0.5-3-0.8c-0.9-0.4-1.6-0.8-2.2-1.3c-0.6-0.5-1.1-1.1-1.5-1.8
					c-0.4-0.7-0.7-1.4-0.9-2.2c-0.2-0.7-0.3-1.6-0.4-2.5s-0.1-1.9,0-2.7c0-0.9,0.1-1.8,0.2-2.9l2-17.1l-3.5-0.4l0.8-6.8l3.5,0.4
					l1.3-11.1l10.5,1.2l-1.3,11.1l5.3,0.6l-0.8,6.8l-5.3-0.6l-2.2,19c-0.2,1.9,0.8,3,3,3.4c0.3,0.1,0.6,0.1,0.9,0.1
					c0.3,0,0.6,0,0.8,0s0.4,0,0.7,0c0.2,0,0.3,0,0.4,0l-0.9,8.2c-2.3,0.1-4.3,0.1-6.2-0.2C384.7,266,384.4,266,384,265.9z"/>
				<path class="st5" d="M403.6,268.4c-2.6-0.3-4.6-1.5-5.9-3.5c-1.3-2-1.9-4.1-1.6-6.5c0.1-1.2,0.4-2.3,0.8-3.3
					c0.4-1,0.9-1.9,1.4-2.6c0.5-0.7,1.2-1.4,2-2c0.8-0.6,1.6-1.1,2.3-1.5c0.7-0.4,1.5-0.8,2.6-1.1c1.1-0.4,1.9-0.7,2.6-0.8
					c0.6-0.2,1.5-0.4,2.6-0.7c1.1-0.3,1.9-0.5,2.4-0.6l0.4-3.6c0.1-1,0.1-1.8-0.2-2.4c-0.2-0.6-0.8-0.9-1.6-1
					c-1.4-0.2-2.3,0.7-2.6,2.7l-0.6,2.7l-9.6-1.5c0-0.1,0-0.3,0.1-0.6c0.1-0.3,0.1-0.5,0.1-0.6c0.8-4,2.4-6.8,4.8-8.4
					c2.4-1.7,5.6-2.2,9.7-1.8c3.6,0.4,6.3,1.7,7.9,4c1.7,2.2,2.3,5,1.9,8.4l-2,17.1c-0.3,2.4-0.4,5.5-0.4,9.3l-9.2-1.1
					c-0.2-3-0.3-4.8-0.3-5.3c-0.7,1.6-1.7,2.9-3,3.9C407,268.2,405.4,268.6,403.6,268.4z M408.2,261.7c0.5,0.1,1-0.1,1.6-0.3
					c0.6-0.3,1-0.6,1.4-1.1l1.2-10.1c-1.8,0.6-3.2,1.6-4.5,3c-1.2,1.4-1.9,2.8-2.1,4.2c-0.1,1.2,0,2.2,0.5,2.9
					C406.7,261.2,407.4,261.6,408.2,261.7z"/>
				<path class="st5" d="M434.3,272c-2.8-0.3-4.8-1.5-6-3.6s-1.6-5-1.2-8.8l1.7-14.9c0.4-3.5,1.5-6.2,3.2-8.2c1.7-2,3.9-2.8,6.7-2.5
					c2.5,0.3,4.8,1.5,6.8,3.7l2-17l10.4,1.2l-6,51.5l-10.4-1.2l0.3-2.8C439.3,271.4,436.8,272.2,434.3,272z M439.6,265.8
					c0.7,0.1,1.7-0.1,2.8-0.6l2.7-23.1c-0.8-0.6-1.7-1-2.5-1.1c-0.9-0.1-1.6,0.2-2.1,0.9c-0.5,0.7-0.8,1.6-1,2.8l-1.9,16.8
					c-0.1,1.2,0,2.2,0.3,3C438,265.2,438.7,265.7,439.6,265.8z"/>
				<path class="st5" d="M465.9,275.6c-2.6-0.3-4.6-1.5-5.9-3.5c-1.3-2-1.9-4.1-1.6-6.5c0.1-1.2,0.4-2.3,0.8-3.3
					c0.4-1,0.9-1.9,1.4-2.6c0.5-0.7,1.2-1.4,2-2c0.8-0.6,1.6-1.1,2.3-1.5c0.7-0.4,1.5-0.8,2.6-1.1c1.1-0.4,1.9-0.7,2.6-0.8
					c0.6-0.2,1.5-0.4,2.6-0.7c1.1-0.3,1.9-0.5,2.4-0.6l0.4-3.6c0.1-1,0.1-1.8-0.2-2.4c-0.2-0.6-0.8-0.9-1.6-1
					c-1.4-0.2-2.3,0.7-2.6,2.7l-0.6,2.7l-9.6-1.5c0-0.1,0-0.3,0.1-0.6c0.1-0.3,0.1-0.5,0.1-0.6c0.8-4,2.4-6.8,4.8-8.4
					c2.4-1.7,5.6-2.2,9.7-1.8c3.6,0.4,6.3,1.7,7.9,4s2.3,5,1.9,8.4l-2,17.1c-0.3,2.4-0.4,5.5-0.4,9.3l-9.2-1.1
					c-0.2-3-0.3-4.8-0.3-5.3c-0.7,1.6-1.7,2.9-3,3.9S467.7,275.8,465.9,275.6z M470.5,268.9c0.5,0.1,1-0.1,1.6-0.3s1-0.6,1.4-1.1
					l1.2-10.1c-1.8,0.6-3.2,1.6-4.5,3c-1.2,1.4-1.9,2.8-2.1,4.2c-0.1,1.2,0,2.2,0.5,2.9C469,268.4,469.7,268.8,470.5,268.9z"/>
				<path class="st5" d="M499.4,279.5c-3.1-0.4-5.6-1.4-7.5-3.1c-1.9-1.7-3.3-4.3-4.2-7.6l7.5-2.3c0.5,1.8,1.2,3.3,2,4.3
					c0.7,1,1.6,1.5,2.5,1.6c0.1,0,0.2,0,0.3,0c0.6,0,1.2-0.2,1.7-0.6c0.5-0.4,0.8-1,0.8-1.7c0-0.4-0.1-0.7-0.3-1.2
					c-0.2-0.4-0.6-1-1.2-1.7c-0.6-0.7-1-1.2-1.2-1.4c-0.2-0.3-0.8-0.8-1.6-1.7l-2.6-2.8c-3.8-4-5.4-7.7-5-11c0.2-2,0.9-3.7,2.2-5.2
					c1.2-1.5,2.7-2.5,4.5-3.1s3.7-0.8,5.7-0.6c3,0.3,5.4,1.5,7.2,3.3c1.8,1.9,3,4.4,3.5,7.5l-7.1,2.4c-0.3-1.4-0.7-2.7-1.4-3.9
					c-0.7-1.1-1.5-1.8-2.5-2c0,0-0.1,0-0.1,0c-0.7-0.1-1.3,0-1.8,0.4c-0.5,0.4-0.8,0.9-0.9,1.5c-0.2,1,1.1,2.9,3.8,5.8
					c0.2,0.3,0.4,0.4,0.5,0.6l2.5,2.8c1,1.1,1.7,1.9,2.2,2.5c0.5,0.6,1,1.4,1.7,2.4c0.7,1,1.1,2,1.3,3c0.2,1,0.3,2.1,0.1,3.2
					c-0.2,2.1-1,3.8-2.3,5.3c-1.3,1.4-2.9,2.4-4.7,2.9S501.5,279.8,499.4,279.5z"/>
			</g>
			<g>
				
					<rect x="289.3" y="341" transform="matrix(0.784 -0.6207 0.6207 0.784 -151.8198 258.6832)" class="st2" width="13" height="13"/>
				
					<rect x="316.7" y="341" transform="matrix(0.784 -0.6207 0.6207 0.784 -145.2789 274.3524)" class="st2" width="9.9" height="9.9"/>
				
					<rect x="266.3" y="335.2" transform="matrix(0.784 -0.6207 0.6207 0.784 -152.5233 241.8206)" class="st2" width="9.9" height="9.9"/>
			</g>
			<g>
				
					<rect x="310.3" y="121.9" transform="matrix(0.784 -0.6207 0.6207 0.784 -11.3004 224.4233)" class="st2" width="13" height="13"/>
				
					<rect x="336.6" y="131" transform="matrix(0.784 -0.6207 0.6207 0.784 -10.5745 241.3857)" class="st2" width="9.9" height="9.9"/>
				
					<rect x="286.3" y="125.1" transform="matrix(0.784 -0.6207 0.6207 0.784 -17.8201 208.8544)" class="st2" width="9.9" height="9.9"/>
			</g>
		</g>
		<g>
			<g>
				<path class="st6" d="M124.8,224.1c11.3-97.3,99.3-167,196.6-155.7s167,99.3,155.7,196.6"/>
				<path class="st5" d="M205.7,94.9L194,75.5l4.7-2.8c0.9-0.5,1.7-0.8,2.4-1c0.8-0.1,1.4-0.1,2.1,0.2c0.6,0.3,1.2,0.6,1.7,1.2
					c0.5,0.5,1,1.2,1.5,2c0.4,0.7,0.7,1.4,0.9,2.1c0.2,0.7,0.3,1.4,0.2,2.1c-0.1,0.7-0.3,1.3-0.8,2c-0.4,0.6-1.1,1.2-1.9,1.7
					l-2.8,1.7l5.5,9.2L205.7,94.9z M201.2,83.3l2.3-1.4c1.2-0.7,1.9-1.5,2.1-2.4c0.2-0.9-0.1-2-1-3.3c-0.9-1.5-1.7-2.4-2.5-2.6
					c-0.8-0.2-1.8,0-3.1,0.8l-2.4,1.4L201.2,83.3z"/>
				<path class="st5" d="M218.8,87.3l-9.9-20.4l4.6-2.3c1.8-0.9,3.3-1.1,4.5-0.6c1.2,0.5,2.2,1.6,3,3.3c1.4,2.8,1.2,4.9-0.5,6.2
					l8.2,8.9l-1.9,0.9l-7.9-8.6l-3.2,1.6l4.9,10L218.8,87.3z M215.1,74.9l2.6-1.3c1.2-0.6,1.9-1.3,2.1-2.2c0.2-0.8,0-1.9-0.7-3.2
					c-0.6-1.3-1.3-2.1-2.1-2.5c-0.7-0.4-1.7-0.2-3,0.4l-2.7,1.3L215.1,74.9z"/>
				<path class="st5" d="M233.5,80.5l-8.5-21l2-0.8l8.5,21L233.5,80.5z"/>
				<path class="st5" d="M240.6,77.6l-6.3-21.8l2-0.6l10.2,17.4l-1.6-20.1l2-0.6l7.4,21.4l-1.7,0.5l-5.9-17.1l1.3,18.5l-1.3,0.4
					l-9.5-15.9l5,17.3L240.6,77.6z"/>
				<path class="st5" d="M259.5,72l-4.8-22.1l8-1.7l0.4,1.6l-5.9,1.3l1.8,8.3l4.8-1.1l0.3,1.5l-4.8,1.1l2,9.1l6-1.3l0.3,1.6
					L259.5,72z"/>
				<path class="st5" d="M272.1,69.4l-3-22.5l5.1-0.7c2-0.3,3.5,0,4.5,0.9c1,0.8,1.6,2.2,1.9,4.1c0.4,3.1-0.4,5-2.4,5.7l5,11
					l-2.1,0.3l-4.8-10.6l-3.5,0.5l1.5,11L272.1,69.4z M272.6,56.6l2.9-0.4c1.4-0.2,2.3-0.6,2.7-1.4c0.4-0.7,0.6-1.8,0.4-3.3
					c-0.2-1.4-0.6-2.5-1.2-3c-0.6-0.6-1.6-0.8-2.9-0.6l-2.9,0.4L272.6,56.6z"/>
				<path class="st5" d="M286.8,67.6l3.8-22.9l2.2-0.1l5.8,22.4l-2.1,0.1l-1.4-6l-5.4,0.2l-0.9,6.1L286.8,67.6z M290,59.9l4.8-0.2
					l-3-12.1L290,59.9z"/>
				<path class="st5" d="M310.7,67.4l1.7-22.6l8.2,0.6l-0.1,1.6l-6-0.5l-0.6,8.5l4.9,0.4l-0.1,1.6l-4.9-0.4l-0.7,9.3l6.1,0.5
					l-0.1,1.6L310.7,67.4z"/>
				<path class="st5" d="M323.5,68.6l3.5-22.4l4.9,0.8c0.9,0.1,1.7,0.4,2.4,0.7c0.7,0.3,1.2,0.7,1.6,1.1c0.4,0.4,0.7,1,0.9,1.6
					c0.2,0.6,0.3,1.2,0.3,1.9c0,0.7,0,1.4-0.2,2.2l-1.4,8.9c-0.2,1.1-0.4,2-0.7,2.8c-0.3,0.8-0.8,1.5-1.3,2s-1.2,0.9-2.1,1.1
					s-1.8,0.2-2.9,0L323.5,68.6z M325.8,67.3l2.8,0.4c0.7,0.1,1.3,0.1,1.8,0c0.5-0.1,0.9-0.3,1.3-0.6c0.3-0.3,0.6-0.6,0.8-1.1
					s0.4-1,0.5-1.5s0.2-1.1,0.4-1.8l1.3-8.4c0.1-0.7,0.2-1.3,0.2-1.8c0-0.5,0-1-0.1-1.5c-0.1-0.5-0.3-0.9-0.5-1.2
					c-0.3-0.3-0.6-0.6-1-0.8c-0.4-0.2-1-0.4-1.7-0.5l-2.8-0.4L325.8,67.3z"/>
				<path class="st5" d="M339.7,71.5l5-22.1l2.1,0.5l-5,22.1L339.7,71.5z"/>
				<path class="st5" d="M352.3,75.1c-0.9-0.3-1.6-0.6-2.2-1c-0.6-0.4-1-0.9-1.3-1.4c-0.3-0.5-0.5-1.1-0.5-1.8c-0.1-0.7-0.1-1.3,0-2
					s0.3-1.4,0.5-2.2l2.6-8.6c0.3-0.8,0.5-1.6,0.8-2.2c0.3-0.6,0.7-1.2,1.1-1.7s0.9-0.9,1.4-1.1c0.5-0.3,1.1-0.4,1.8-0.4
					c0.7,0,1.5,0.1,2.3,0.3c1,0.3,1.7,0.7,2.3,1.2c0.6,0.5,1,1.1,1.2,1.7c0.2,0.7,0.3,1.4,0.3,2.2c0,0.8-0.2,1.7-0.5,2.6l-0.4,1.3
					l-1.9-0.6l0.4-1.3c0.2-0.8,0.4-1.4,0.5-2c0.1-0.5,0.1-1.1,0-1.6c-0.1-0.5-0.3-0.9-0.7-1.3c-0.4-0.3-0.9-0.6-1.6-0.8
					c-0.7-0.2-1.3-0.3-1.9-0.2c-0.5,0.1-1,0.3-1.4,0.7c-0.4,0.4-0.7,0.8-0.9,1.4c-0.3,0.5-0.5,1.2-0.7,2l-2.8,9.2
					c-0.5,1.7-0.6,3-0.4,3.9c0.3,0.9,1.1,1.6,2.3,2c0.5,0.2,1,0.2,1.4,0.2c0.4,0,0.8-0.1,1.1-0.3c0.3-0.2,0.6-0.5,0.9-0.8
					c0.3-0.4,0.5-0.8,0.7-1.2c0.2-0.4,0.4-0.9,0.5-1.6l0.4-1.4l1.9,0.6l-0.4,1.3c-0.2,0.8-0.5,1.5-0.8,2.1c-0.3,0.6-0.6,1.1-1,1.6
					c-0.4,0.5-0.9,0.9-1.4,1.1c-0.5,0.3-1.1,0.4-1.7,0.4C353.8,75.4,353.1,75.3,352.3,75.1z"/>
				<path class="st5" d="M362.4,78.1l8-21.2l2,0.7l-8,21.2L362.4,78.1z"/>
				<path class="st5" d="M374.5,83.4c-1-0.5-1.8-1-2.3-1.6c-0.6-0.6-0.9-1.3-1-2.1c-0.1-0.8-0.1-1.6,0.1-2.4s0.5-1.7,0.9-2.7
					l3.9-8.6c0.4-1,0.9-1.8,1.4-2.4c0.5-0.6,1.1-1.2,1.8-1.5c0.7-0.4,1.4-0.6,2.2-0.5s1.7,0.3,2.7,0.7c1,0.4,1.7,1,2.3,1.6
					c0.6,0.6,0.9,1.3,1.1,2c0.1,0.7,0.1,1.5,0,2.3c-0.2,0.8-0.5,1.7-0.9,2.7l-3.9,8.6c-0.4,0.8-0.7,1.4-1.1,2
					c-0.4,0.6-0.8,1.1-1.3,1.5c-0.5,0.4-1,0.7-1.6,0.9c-0.6,0.2-1.2,0.2-1.9,0.2C376,84,375.3,83.8,374.5,83.4z M373.7,80.8
					c0.4,0.4,0.9,0.8,1.5,1.1s1.3,0.5,1.8,0.5c0.5,0,1-0.1,1.4-0.4c0.4-0.3,0.8-0.7,1.1-1.1c0.3-0.5,0.6-1,1-1.7l4.3-9.3
					c0.3-0.7,0.5-1.3,0.7-1.8c0.1-0.5,0.2-1.1,0.1-1.6c-0.1-0.5-0.3-1-0.6-1.4s-0.9-0.8-1.5-1.1c-0.7-0.3-1.3-0.5-1.8-0.5
					c-0.5,0-1,0.1-1.4,0.4c-0.4,0.3-0.8,0.7-1.1,1.1c-0.3,0.5-0.6,1-1,1.7l-4.3,9.3c-0.3,0.7-0.5,1.3-0.7,1.9
					c-0.1,0.5-0.2,1.1-0.1,1.6C373.1,79.9,373.3,80.4,373.7,80.8z M384.3,60.6l3.9-4.2l1.9,0.9l-4.8,3.8L384.3,60.6z"/>
				<path class="st5" d="M384.5,87.9l11.3-19.7l1.4,0.8l-2.5,18.9l8.7-15.3l1.6,0.9l-11.3,19.7l-1.3-0.7l2.5-19.1l-8.8,15.4
					L384.5,87.9z"/>
			</g>
			<g>
				<path class="st6" d="M123.1,229.3c-11.3,97.3,58.4,185.3,155.7,196.6s185.3-58.4,196.6-155.7"/>
				<path class="st5" d="M189.5,389.1l13.5-18.2l4.4,3.3c0.8,0.6,1.4,1.2,1.8,1.9c0.4,0.7,0.6,1.3,0.6,2c0,0.7-0.1,1.4-0.4,2
					c-0.3,0.7-0.7,1.4-1.3,2.1c-0.5,0.7-1,1.2-1.6,1.7c-0.6,0.4-1.2,0.8-1.9,1c-0.7,0.2-1.4,0.2-2.1,0c-0.8-0.2-1.5-0.5-2.3-1.1
					l-2.7-2l-6.4,8.6L189.5,389.1z M198.6,380.5l2.2,1.6c1.1,0.8,2.1,1.2,3,1c0.9-0.2,1.8-0.9,2.7-2.2c1-1.4,1.5-2.5,1.5-3.3
					s-0.7-1.7-1.9-2.6l-2.2-1.6L198.6,380.5z"/>
				<path class="st5" d="M203.2,398.9l11.7-19.4l4.4,2.7c1.7,1,2.7,2.2,2.9,3.5c0.2,1.3-0.1,2.7-1.1,4.3c-1.6,2.7-3.4,3.7-5.5,2.9
					l-3,11.7l-1.8-1.1l2.9-11.3l-3-1.8l-5.8,9.5L203.2,398.9z M211.7,389.1l2.5,1.5c1.2,0.7,2.2,0.9,3,0.6c0.8-0.3,1.6-1.1,2.4-2.3
					c0.8-1.2,1.1-2.3,1-3.1c-0.1-0.8-0.7-1.6-1.9-2.3L216,382L211.7,389.1z"/>
				<path class="st5" d="M218.4,407.6l10.2-20.2l1.9,0.9l-10.2,20.2L218.4,407.6z"/>
				<path class="st5" d="M226.6,411.7l9-20.8l1.9,0.8l-3.1,19.9l11.5-16.6l2,0.8L240,417l-1.6-0.7l6.3-16.9l-10.7,15.2l-1.3-0.5
					l2.7-18.3l-7.1,16.6L226.6,411.7z"/>
				<path class="st5" d="M246.8,419.2l6.2-21.8l7.9,2.3l-0.5,1.6l-5.8-1.7l-2.3,8.2l4.8,1.4l-0.4,1.5l-4.8-1.4l-2.6,9l5.9,1.7
					l-0.4,1.5L246.8,419.2z"/>
				<path class="st5" d="M260.7,422.9l4.2-22.3l5.1,1c2,0.4,3.3,1.1,4,2.2c0.7,1.1,0.8,2.6,0.5,4.4c-0.6,3.1-2,4.6-4.1,4.7l1.3,12
					l-2.1-0.4l-1.2-11.6l-3.5-0.7l-2.1,10.9L260.7,422.9z M265.2,410.8l2.8,0.5c1.3,0.3,2.3,0.1,3-0.5c0.7-0.6,1.1-1.6,1.4-3
					c0.3-1.4,0.2-2.5-0.2-3.2c-0.4-0.7-1.2-1.2-2.6-1.5l-2.9-0.6L265.2,410.8z"/>
				<path class="st5" d="M276.9,425.7l6.9-22.1l2.2,0.2l2.7,23l-2.1-0.2l-0.6-6.1l-5.4-0.5l-1.7,5.9L276.9,425.7z M281.1,418.4
					l4.8,0.4l-1.3-12.4L281.1,418.4z"/>
				<path class="st5" d="M303,427l-0.9-22.6l8.2-0.3l0.1,1.6l-6,0.2l0.3,8.5l4.9-0.2l0.1,1.6l-4.9,0.2l0.4,9.3l6.1-0.2l0.1,1.6
					L303,427z"/>
				<path class="st5" d="M317.4,426.2l-3-22.5l4.9-0.7c0.9-0.1,1.7-0.1,2.5,0c0.7,0.1,1.3,0.3,1.9,0.6c0.5,0.3,0.9,0.7,1.3,1.2
					c0.4,0.5,0.7,1.1,0.9,1.7s0.4,1.4,0.5,2.2l1.2,8.9c0.1,1.1,0.2,2.1,0.1,2.9c-0.1,0.8-0.3,1.6-0.7,2.3c-0.4,0.7-0.9,1.2-1.6,1.7
					c-0.7,0.4-1.6,0.7-2.7,0.9L317.4,426.2z M319.4,424.3l2.8-0.4c0.7-0.1,1.3-0.3,1.7-0.5c0.5-0.3,0.8-0.6,1-0.9
					c0.2-0.3,0.4-0.8,0.5-1.3c0.1-0.5,0.1-1.1,0.1-1.6s-0.1-1.1-0.2-1.9l-1.1-8.4c-0.1-0.7-0.2-1.3-0.3-1.8c-0.1-0.5-0.3-1-0.5-1.4
					c-0.2-0.4-0.5-0.8-0.8-1c-0.3-0.2-0.7-0.4-1.2-0.5c-0.5-0.1-1.1-0.1-1.7,0l-2.8,0.4L319.4,424.3z"/>
				<path class="st5" d="M334.9,423.4l-4.7-22.2l2.1-0.4L337,423L334.9,423.4z"/>
				<path class="st5" d="M349.1,420.2c-0.9,0.3-1.6,0.4-2.4,0.3c-0.7,0-1.3-0.2-1.9-0.5s-1-0.7-1.4-1.2c-0.4-0.5-0.8-1.1-1.1-1.7
					c-0.3-0.6-0.5-1.3-0.8-2.1l-2.5-8.6c-0.2-0.8-0.4-1.6-0.5-2.3c-0.1-0.7-0.1-1.4,0-2c0.1-0.7,0.3-1.2,0.6-1.7
					c0.3-0.5,0.7-1,1.3-1.4c0.6-0.4,1.3-0.7,2.1-1c1-0.3,1.8-0.4,2.6-0.3c0.8,0.1,1.4,0.4,2,0.8c0.6,0.4,1,1,1.4,1.7
					c0.4,0.7,0.7,1.5,1,2.5l0.4,1.3l-1.9,0.6l-0.4-1.3c-0.2-0.8-0.4-1.4-0.7-1.9c-0.2-0.5-0.5-0.9-0.9-1.3c-0.3-0.4-0.8-0.6-1.3-0.7
					c-0.5-0.1-1.1,0-1.7,0.2c-0.7,0.2-1.3,0.5-1.7,0.9c-0.4,0.4-0.7,0.8-0.8,1.3s-0.1,1.1,0,1.7c0.1,0.6,0.2,1.3,0.5,2.1l2.7,9.2
					c0.5,1.7,1.1,2.8,1.8,3.5c0.7,0.6,1.7,0.7,3,0.4c0.5-0.2,1-0.4,1.3-0.6s0.6-0.6,0.7-0.9c0.2-0.3,0.2-0.7,0.3-1.2
					c0-0.5,0-0.9-0.1-1.4c-0.1-0.5-0.2-1-0.4-1.6l-0.4-1.4l1.9-0.6l0.4,1.3c0.2,0.8,0.4,1.5,0.5,2.2c0.1,0.7,0.1,1.3,0,1.9
					c-0.1,0.6-0.3,1.2-0.5,1.7c-0.3,0.5-0.7,0.9-1.2,1.3C350.5,419.7,349.9,420,349.1,420.2z"/>
				<path class="st5" d="M360.2,416.3l-7.9-21.2l2-0.7l7.9,21.2L360.2,416.3z"/>
				<path class="st5" d="M373.7,411c-1,0.5-1.9,0.7-2.7,0.7c-0.8,0-1.6-0.2-2.3-0.6c-0.7-0.4-1.3-0.9-1.8-1.6
					c-0.5-0.7-1-1.5-1.5-2.5l-4-8.5c-0.4-1-0.8-1.9-0.9-2.7s-0.2-1.6,0-2.3c0.1-0.7,0.5-1.4,1.1-2c0.6-0.6,1.3-1.1,2.3-1.6
					c1-0.5,1.9-0.7,2.7-0.7c0.8,0,1.6,0.1,2.2,0.5c0.7,0.4,1.2,0.9,1.8,1.5c0.5,0.6,1,1.4,1.4,2.4l4,8.6c0.4,0.8,0.6,1.5,0.8,2.2
					c0.2,0.7,0.3,1.3,0.3,2c0,0.7-0.1,1.3-0.4,1.8s-0.6,1.1-1.1,1.5C375.2,410.2,374.5,410.6,373.7,411z M362.8,388.6l-0.7-5.7
					l1.9-0.9l-0.2,6.1L362.8,388.6z M371.2,409.9c0.5,0,1.1-0.2,1.8-0.5c0.7-0.3,1.2-0.7,1.5-1.1c0.4-0.4,0.6-0.9,0.6-1.4
					c0-0.5,0-1-0.1-1.6c-0.1-0.5-0.4-1.2-0.7-1.9l-4.3-9.3c-0.3-0.7-0.6-1.3-1-1.7c-0.3-0.4-0.7-0.8-1.1-1.1
					c-0.4-0.3-0.9-0.4-1.4-0.4c-0.5,0-1.1,0.2-1.8,0.5c-0.7,0.3-1.2,0.7-1.5,1.1c-0.4,0.4-0.6,0.9-0.6,1.4c-0.1,0.5,0,1,0.1,1.6
					c0.1,0.5,0.4,1.2,0.7,1.8l4.3,9.3c0.3,0.7,0.6,1.3,1,1.7c0.3,0.5,0.7,0.8,1.1,1.1S370.7,409.9,371.2,409.9z"/>
				<path class="st5" d="M385,405l-11.5-19.5l1.4-0.8l15.2,11.5l-9-15.1l1.6-0.9l11.5,19.5l-1.3,0.8l-15.3-11.6l9.1,15.3L385,405z"
					/>
			</g>
		</g>
	</g>
	<g class="st0">
		<g class="st1">
			<path class="st7" d="M202.2,605.1c0.4,0,0.7-0.1,1-0.3c0.3-0.2,0.6-0.5,0.8-0.9c0.2-0.4,0.3-0.9,0.3-1.5c0-0.6-0.1-1.1-0.3-1.5
				c-0.2-0.4-0.4-0.7-0.8-1c-0.3-0.2-0.7-0.3-1-0.3V598c0.4,0.1,0.7,0.1,0.9,0.3c0.4,0.2,0.9,0.5,1.3,1v-3.2c0-0.4,0.1-0.8,0.3-1
				c0.2-0.2,0.4-0.3,0.8-0.3c0.3,0,0.6,0.1,0.8,0.3c0.2,0.2,0.3,0.5,0.3,0.9v9.6c0,0.4-0.1,0.7-0.3,0.9c-0.2,0.2-0.4,0.3-0.7,0.3
				c-0.3,0-0.5-0.1-0.7-0.3c-0.2-0.2-0.3-0.5-0.3-0.9v-0.2c-0.3,0.3-0.6,0.6-0.9,0.8c-0.3,0.2-0.6,0.4-0.9,0.5
				c-0.1,0-0.3,0.1-0.4,0.1V605.1z M200.1,602.4c0,0.6,0.1,1.1,0.3,1.5c0.2,0.4,0.4,0.7,0.8,0.9c0.3,0.2,0.7,0.3,1,0.3h0v1.6
				c-0.2,0-0.4,0.1-0.7,0.1c-0.5,0-1-0.1-1.4-0.3c-0.4-0.2-0.8-0.5-1.2-0.9c-0.3-0.4-0.6-0.9-0.7-1.4c-0.2-0.6-0.3-1.2-0.3-1.8
				c0-1.4,0.3-2.4,1-3.2c0.7-0.8,1.5-1.1,2.6-1.1c0.2,0,0.4,0,0.6,0v1.6h0c-0.4,0-0.8,0.1-1.1,0.3c-0.3,0.2-0.6,0.6-0.7,1
				C200.2,601.3,200.1,601.8,200.1,602.4z"/>
			<path class="st7" d="M212.5,601.7h2c-0.1-0.7-0.3-1.3-0.6-1.7c-0.3-0.4-0.8-0.6-1.4-0.6v-1.5h0.1c0.9,0,1.6,0.2,2.2,0.5
				c0.6,0.4,1.1,0.8,1.4,1.4c0.3,0.6,0.5,1.1,0.5,1.7c0,0.5-0.2,0.9-0.5,1.1c-0.3,0.2-0.8,0.2-1.3,0.2h-2.3V601.7L212.5,601.7z
				 M212.5,606.8v-1.4c0.1,0,0.1,0,0.2,0c0.3,0,0.5,0,0.7-0.1c0.2-0.1,0.4-0.2,0.6-0.3c0.2-0.1,0.4-0.3,0.6-0.4
				c0.2-0.1,0.4-0.3,0.7-0.6c0.1-0.1,0.3-0.1,0.5-0.1c0.2,0,0.4,0.1,0.5,0.2c0.1,0.1,0.2,0.3,0.2,0.5c0,0.2-0.1,0.4-0.2,0.7
				c-0.2,0.3-0.4,0.5-0.7,0.8c-0.3,0.2-0.7,0.4-1.2,0.6c-0.5,0.2-1,0.2-1.6,0.2C212.6,606.8,212.5,606.8,212.5,606.8z M210.5,601.7
				h2v1.2h-2c0,0.5,0.1,0.9,0.3,1.3c0.2,0.4,0.5,0.7,0.8,0.9c0.3,0.2,0.6,0.3,0.9,0.3v1.4c-1.3,0-2.3-0.4-3-1.2
				c-0.8-0.8-1.2-1.9-1.2-3.2c0-0.6,0.1-1.2,0.3-1.8c0.2-0.5,0.5-1,0.8-1.4c0.4-0.4,0.8-0.7,1.4-0.9c0.5-0.2,1.1-0.3,1.7-0.3v1.5h0
				c-0.5,0-1,0.2-1.3,0.6C210.8,600.4,210.6,600.9,210.5,601.7z"/>
			<path class="st7" d="M225.4,604c0,0.6-0.1,1.1-0.4,1.5c-0.3,0.4-0.7,0.8-1.3,1c-0.6,0.2-1.3,0.3-2.1,0.3c-0.8,0-1.5-0.1-2-0.4
				c-0.6-0.2-1-0.5-1.2-0.9c-0.3-0.4-0.4-0.7-0.4-1.1c0-0.2,0.1-0.4,0.3-0.6c0.2-0.2,0.4-0.3,0.6-0.3c0.2,0,0.4,0.1,0.5,0.2
				c0.1,0.1,0.2,0.3,0.4,0.5c0.2,0.4,0.5,0.7,0.8,0.9c0.3,0.2,0.7,0.3,1.3,0.3c0.4,0,0.8-0.1,1.1-0.3c0.3-0.2,0.4-0.4,0.4-0.7
				c0-0.4-0.1-0.7-0.4-0.8c-0.3-0.2-0.8-0.3-1.4-0.5c-0.8-0.2-1.4-0.4-1.8-0.6c-0.5-0.2-0.8-0.5-1.1-0.8c-0.3-0.3-0.4-0.7-0.4-1.2
				c0-0.4,0.1-0.8,0.4-1.2c0.3-0.4,0.6-0.7,1.2-0.9c0.5-0.2,1.1-0.3,1.8-0.3c0.6,0,1.1,0.1,1.5,0.2c0.4,0.1,0.8,0.3,1.1,0.5
				c0.3,0.2,0.5,0.4,0.7,0.7c0.2,0.2,0.2,0.5,0.2,0.7c0,0.3-0.1,0.5-0.3,0.6c-0.2,0.2-0.4,0.2-0.7,0.2c-0.2,0-0.4-0.1-0.6-0.2
				c-0.2-0.1-0.3-0.3-0.5-0.6c-0.2-0.2-0.4-0.4-0.6-0.5c-0.2-0.1-0.5-0.2-0.9-0.2c-0.4,0-0.7,0.1-1,0.3c-0.3,0.2-0.4,0.4-0.4,0.6
				c0,0.2,0.1,0.4,0.3,0.6c0.2,0.1,0.4,0.3,0.8,0.4c0.3,0.1,0.8,0.2,1.3,0.3c0.7,0.2,1.2,0.4,1.7,0.6c0.4,0.2,0.8,0.5,1,0.8
				C225.3,603.2,225.4,603.6,225.4,604z"/>
			<path class="st7" d="M229.4,599.2v6.3c0,0.4-0.1,0.8-0.3,1c-0.2,0.2-0.5,0.3-0.8,0.3c-0.3,0-0.6-0.1-0.8-0.3
				c-0.2-0.2-0.3-0.6-0.3-1v-6.2c0-0.4,0.1-0.8,0.3-1c0.2-0.2,0.5-0.3,0.8-0.3c0.3,0,0.6,0.1,0.8,0.3
				C229.3,598.5,229.4,598.8,229.4,599.2L229.4,599.2z M228.3,596.9c-0.3,0-0.6-0.1-0.8-0.3c-0.2-0.2-0.3-0.5-0.3-0.8
				c0-0.3,0.1-0.6,0.3-0.8c0.2-0.2,0.5-0.3,0.8-0.3c0.3,0,0.5,0.1,0.8,0.3c0.2,0.2,0.3,0.4,0.3,0.8c0,0.3-0.1,0.6-0.3,0.8
				C228.9,596.8,228.6,596.9,228.3,596.9z"/>
			<path class="st7" d="M235.5,605c0.4,0,0.7-0.1,1-0.3c0.3-0.2,0.6-0.5,0.8-0.9c0.2-0.4,0.3-0.9,0.3-1.4c0-0.9-0.2-1.6-0.6-2.1
				c-0.4-0.5-0.9-0.7-1.5-0.7V598c0.3,0.1,0.6,0.2,0.9,0.3c0.5,0.2,0.9,0.6,1.3,1.1v-0.3c0-0.4,0.1-0.7,0.3-0.9
				c0.2-0.2,0.4-0.3,0.7-0.3c0.4,0,0.7,0.1,0.8,0.4c0.1,0.3,0.2,0.7,0.2,1.2v6.3c0,0.7-0.1,1.3-0.2,1.9c-0.2,0.5-0.4,1-0.7,1.3
				c-0.3,0.3-0.8,0.6-1.3,0.8c-0.5,0.2-1.2,0.2-1.9,0.2v-1.5c0.5,0,0.9-0.1,1.1-0.2c0.3-0.2,0.5-0.4,0.7-0.7
				c0.1-0.3,0.2-0.6,0.2-0.9c0-0.3,0-0.8,0.1-1.6c-0.3,0.5-0.7,0.8-1.2,1.1c-0.3,0.1-0.6,0.3-0.9,0.3V605z M233.4,602.3
				c0,0.9,0.2,1.6,0.6,2c0.4,0.4,0.9,0.7,1.5,0.7h0v1.6c-0.2,0-0.4,0.1-0.7,0.1c-0.7,0-1.4-0.2-1.9-0.6c-0.5-0.4-1-0.9-1.3-1.6
				c-0.3-0.7-0.4-1.4-0.4-2.3c0-0.6,0.1-1.2,0.3-1.8c0.2-0.5,0.4-1,0.8-1.3c0.3-0.4,0.7-0.6,1.1-0.8c0.4-0.2,0.9-0.3,1.4-0.3
				c0.2,0,0.5,0,0.7,0.1v1.6h0c-0.6,0-1.1,0.2-1.5,0.7C233.5,600.8,233.4,601.4,233.4,602.3L233.4,602.3z M235.5,608.5v1.5l-0.1,0
				c-0.7,0-1.4-0.1-2-0.3c-0.6-0.2-1-0.5-1.4-0.8c-0.3-0.3-0.5-0.7-0.5-1c0-0.3,0.1-0.5,0.3-0.6c0.2-0.2,0.4-0.3,0.7-0.3
				c0.3,0,0.6,0.1,0.8,0.4c0.1,0.1,0.2,0.3,0.4,0.4c0.1,0.1,0.3,0.3,0.4,0.4c0.1,0.1,0.3,0.2,0.5,0.2c0.2,0.1,0.5,0.1,0.7,0.1
				C235.3,608.5,235.4,608.5,235.5,608.5z"/>
			<path class="st7" d="M243.8,599.2v0.3c0.4-0.5,0.8-0.9,1.3-1.1c0.5-0.2,1-0.4,1.6-0.4c0.6,0,1.1,0.1,1.5,0.4
				c0.5,0.3,0.8,0.6,1,1.1c0.1,0.3,0.2,0.6,0.3,0.9c0,0.3,0.1,0.7,0.1,1.2v4.1c0,0.4-0.1,0.8-0.3,1c-0.2,0.2-0.5,0.3-0.8,0.3
				c-0.3,0-0.6-0.1-0.8-0.3c-0.2-0.2-0.3-0.6-0.3-1v-3.6c0-0.7-0.1-1.3-0.3-1.6c-0.2-0.4-0.6-0.6-1.2-0.6c-0.4,0-0.7,0.1-1.1,0.3
				c-0.3,0.2-0.6,0.5-0.7,1c-0.1,0.3-0.2,0.9-0.2,1.8v2.7c0,0.4-0.1,0.8-0.3,1c-0.2,0.2-0.5,0.3-0.8,0.3c-0.3,0-0.6-0.1-0.8-0.3
				c-0.2-0.2-0.3-0.6-0.3-1v-6.3c0-0.4,0.1-0.7,0.3-0.9c0.2-0.2,0.4-0.3,0.7-0.3c0.2,0,0.4,0,0.5,0.1c0.2,0.1,0.3,0.2,0.4,0.4
				C243.8,598.7,243.8,598.9,243.8,599.2z"/>
			<path class="st7" d="M255.5,601.7h2c-0.1-0.7-0.3-1.3-0.6-1.7c-0.3-0.4-0.8-0.6-1.4-0.6v-1.5h0.1c0.8,0,1.6,0.2,2.2,0.5
				c0.6,0.4,1.1,0.8,1.4,1.4c0.3,0.6,0.5,1.1,0.5,1.7c0,0.5-0.2,0.9-0.5,1.1c-0.3,0.2-0.8,0.2-1.3,0.2h-2.3V601.7L255.5,601.7z
				 M255.5,606.8v-1.4c0.1,0,0.1,0,0.2,0c0.3,0,0.5,0,0.7-0.1c0.2-0.1,0.4-0.2,0.6-0.3c0.2-0.1,0.4-0.3,0.6-0.4
				c0.2-0.1,0.4-0.3,0.7-0.6c0.1-0.1,0.3-0.1,0.5-0.1c0.2,0,0.4,0.1,0.5,0.2c0.1,0.1,0.2,0.3,0.2,0.5c0,0.2-0.1,0.4-0.2,0.7
				c-0.2,0.3-0.4,0.5-0.7,0.8c-0.3,0.2-0.7,0.4-1.2,0.6c-0.5,0.2-1,0.2-1.6,0.2C255.7,606.8,255.6,606.8,255.5,606.8z M253.6,601.7
				h2v1.2h-2c0,0.5,0.1,0.9,0.3,1.3c0.2,0.4,0.5,0.7,0.8,0.9c0.3,0.2,0.6,0.3,0.9,0.3v1.4c-1.3,0-2.3-0.4-3-1.2
				c-0.8-0.8-1.2-1.9-1.2-3.2c0-0.6,0.1-1.2,0.3-1.8c0.2-0.5,0.5-1,0.8-1.4c0.4-0.4,0.8-0.7,1.4-0.9c0.5-0.2,1.1-0.3,1.7-0.3v1.5h0
				c-0.5,0-1,0.2-1.3,0.6C253.8,600.4,253.6,600.9,253.6,601.7z"/>
			<path class="st7" d="M265.2,605.1c0.4,0,0.7-0.1,1-0.3c0.3-0.2,0.6-0.5,0.8-0.9c0.2-0.4,0.3-0.9,0.3-1.5c0-0.6-0.1-1.1-0.3-1.5
				c-0.2-0.4-0.4-0.7-0.8-1c-0.3-0.2-0.7-0.3-1-0.3V598c0.4,0.1,0.7,0.1,0.9,0.3c0.4,0.2,0.9,0.5,1.3,1v-3.2c0-0.4,0.1-0.8,0.3-1
				c0.2-0.2,0.4-0.3,0.8-0.3c0.3,0,0.6,0.1,0.8,0.3c0.2,0.2,0.3,0.5,0.3,0.9v9.6c0,0.4-0.1,0.7-0.3,0.9c-0.2,0.2-0.4,0.3-0.7,0.3
				c-0.3,0-0.5-0.1-0.7-0.3c-0.2-0.2-0.3-0.5-0.3-0.9v-0.2c-0.3,0.3-0.6,0.6-0.9,0.8c-0.3,0.2-0.6,0.4-0.9,0.5
				c-0.1,0-0.3,0.1-0.4,0.1V605.1z M263.1,602.4c0,0.6,0.1,1.1,0.3,1.5c0.2,0.4,0.4,0.7,0.8,0.9c0.3,0.2,0.7,0.3,1,0.3h0v1.6
				c-0.2,0-0.4,0.1-0.7,0.1c-0.5,0-1-0.1-1.4-0.3c-0.4-0.2-0.8-0.5-1.2-0.9c-0.3-0.4-0.6-0.9-0.7-1.4c-0.2-0.6-0.3-1.2-0.3-1.8
				c0-1.4,0.3-2.4,1-3.2c0.7-0.8,1.5-1.1,2.6-1.1c0.2,0,0.4,0,0.6,0v1.6h0c-0.4,0-0.8,0.1-1.1,0.3c-0.3,0.2-0.6,0.6-0.7,1
				C263.2,601.3,263.1,601.8,263.1,602.4z"/>
			<path class="st7" d="M279.9,605.1L279.9,605.1c0.6,0,1.1-0.2,1.5-0.7c0.4-0.5,0.6-1.2,0.6-2c0-0.6-0.1-1.1-0.2-1.5
				c-0.2-0.4-0.4-0.7-0.7-1c-0.3-0.2-0.7-0.3-1.1-0.3c0,0,0,0-0.1,0V598c0.2,0,0.4,0,0.6,0c0.7,0,1.4,0.2,1.9,0.5
				c0.5,0.3,1,0.8,1.3,1.5c0.3,0.6,0.4,1.4,0.4,2.3c0,0.7-0.1,1.3-0.2,1.8c-0.2,0.6-0.4,1-0.7,1.4c-0.3,0.4-0.7,0.7-1.2,0.9
				c-0.5,0.2-1,0.3-1.5,0.3c-0.2,0-0.4,0-0.6,0V605.1z M277.9,602.4c0,0.9,0.2,1.5,0.6,2c0.4,0.4,0.9,0.7,1.5,0.7v1.6
				c-0.1,0-0.2,0-0.3-0.1c-0.3-0.1-0.5-0.2-0.8-0.3c-0.2-0.1-0.4-0.3-0.5-0.4c-0.1-0.1-0.3-0.3-0.6-0.6v0.2c0,0.4-0.1,0.7-0.3,0.9
				c-0.2,0.2-0.4,0.3-0.7,0.3c-0.3,0-0.6-0.1-0.7-0.3c-0.2-0.2-0.3-0.5-0.3-0.9V596c0-0.4,0.1-0.8,0.3-1c0.2-0.2,0.4-0.3,0.7-0.3
				c0.3,0,0.6,0.1,0.8,0.3c0.2,0.2,0.3,0.5,0.3,0.9v3.3c0.4-0.4,0.8-0.8,1.3-1c0.3-0.1,0.6-0.2,0.9-0.3v1.6c-0.4,0-0.7,0.1-1,0.3
				c-0.3,0.2-0.6,0.6-0.8,1C278,601.3,277.9,601.8,277.9,602.4z"/>
			<path class="st7" d="M287.8,607.1l0.2-0.5l-2.7-6.8c-0.2-0.4-0.2-0.7-0.2-0.8c0-0.2,0-0.4,0.1-0.5c0.1-0.2,0.2-0.3,0.4-0.4
				c0.2-0.1,0.3-0.1,0.5-0.1c0.3,0,0.6,0.1,0.7,0.3c0.2,0.2,0.3,0.5,0.4,0.9l1.8,5.4l1.7-5c0.1-0.4,0.3-0.7,0.4-0.9
				c0.1-0.2,0.2-0.4,0.4-0.5c0.1-0.1,0.3-0.1,0.5-0.1c0.2,0,0.3,0,0.5,0.1c0.2,0.1,0.3,0.2,0.3,0.4c0.1,0.1,0.1,0.3,0.1,0.5
				c0,0.1-0.1,0.2-0.1,0.4c0,0.2-0.1,0.4-0.2,0.6l-2.8,7.4c-0.2,0.7-0.5,1.2-0.7,1.5c-0.2,0.4-0.5,0.7-0.9,0.9
				c-0.4,0.2-0.9,0.3-1.6,0.3c-0.6,0-1.1-0.1-1.4-0.2c-0.3-0.1-0.5-0.4-0.5-0.8c0-0.3,0.1-0.4,0.2-0.6c0.2-0.1,0.4-0.2,0.7-0.2
				c0.1,0,0.2,0,0.3,0c0.1,0,0.3,0,0.4,0c0.3,0,0.4,0,0.6-0.1c0.1-0.1,0.3-0.2,0.4-0.4C287.5,607.7,287.6,607.4,287.8,607.1z"/>
			<path class="st7" d="M328.1,598.1h0.5v-0.7c0-0.7,0.1-1.2,0.3-1.6c0.2-0.4,0.5-0.7,0.9-0.9c0.4-0.2,1-0.3,1.7-0.3
				c1.3,0,1.9,0.3,1.9,0.9c0,0.2-0.1,0.4-0.2,0.5c-0.1,0.1-0.3,0.2-0.5,0.2c-0.1,0-0.2,0-0.4-0.1c-0.2,0-0.4,0-0.5,0
				c-0.4,0-0.6,0.1-0.8,0.3c-0.1,0.2-0.2,0.6-0.2,1v0.5h0.5c0.8,0,1.2,0.3,1.2,0.7c0,0.4-0.1,0.6-0.3,0.7c-0.2,0.1-0.5,0.1-0.9,0.1
				h-0.5v5.8c0,0.4-0.1,0.8-0.3,1c-0.2,0.2-0.5,0.3-0.8,0.3c-0.3,0-0.6-0.1-0.8-0.3c-0.2-0.2-0.3-0.6-0.3-1v-5.8H328
				c-0.3,0-0.6-0.1-0.7-0.2c-0.2-0.1-0.3-0.3-0.3-0.6C327,598.4,327.3,598.1,328.1,598.1z"/>
			<path class="st7" d="M335.9,603.7v1.8c0,0.4-0.1,0.8-0.3,1c-0.2,0.2-0.5,0.3-0.8,0.3c-0.3,0-0.6-0.1-0.8-0.3
				c-0.2-0.2-0.3-0.6-0.3-1v-6.1c0-1,0.4-1.5,1.1-1.5c0.4,0,0.6,0.1,0.8,0.3c0.2,0.2,0.2,0.6,0.3,1c0.3-0.4,0.5-0.8,0.8-1
				c0.3-0.2,0.6-0.3,1.1-0.3s0.9,0.1,1.3,0.3c0.4,0.2,0.6,0.5,0.6,0.9c0,0.3-0.1,0.5-0.3,0.7c-0.2,0.2-0.4,0.3-0.6,0.3
				c-0.1,0-0.3,0-0.6-0.1c-0.3-0.1-0.6-0.2-0.8-0.2c-0.3,0-0.6,0.1-0.8,0.3c-0.2,0.2-0.4,0.4-0.5,0.7c-0.1,0.3-0.2,0.7-0.2,1.2
				C335.9,602.5,335.9,603,335.9,603.7z"/>
			<path class="st7" d="M344.2,601.7h2c-0.1-0.7-0.3-1.3-0.6-1.7c-0.3-0.4-0.8-0.6-1.4-0.6v-1.5h0.1c0.8,0,1.6,0.2,2.2,0.5
				c0.6,0.4,1.1,0.8,1.4,1.4c0.3,0.6,0.5,1.1,0.5,1.7c0,0.5-0.2,0.9-0.5,1.1c-0.3,0.2-0.8,0.2-1.3,0.2h-2.3V601.7L344.2,601.7z
				 M344.2,606.8v-1.4c0.1,0,0.1,0,0.2,0c0.3,0,0.5,0,0.7-0.1c0.2-0.1,0.4-0.2,0.6-0.3c0.2-0.1,0.4-0.3,0.6-0.4
				c0.2-0.1,0.4-0.3,0.7-0.6c0.1-0.1,0.3-0.1,0.5-0.1c0.2,0,0.4,0.1,0.5,0.2c0.1,0.1,0.2,0.3,0.2,0.5c0,0.2-0.1,0.4-0.2,0.7
				c-0.2,0.3-0.4,0.5-0.7,0.8c-0.3,0.2-0.7,0.4-1.2,0.6c-0.5,0.2-1,0.2-1.6,0.2C344.4,606.8,344.3,606.8,344.2,606.8z M342.3,601.7
				h2v1.2h-2c0,0.5,0.1,0.9,0.3,1.3c0.2,0.4,0.5,0.7,0.8,0.9c0.3,0.2,0.6,0.3,0.9,0.3v1.4c-1.3,0-2.3-0.4-3-1.2
				c-0.8-0.8-1.2-1.9-1.2-3.2c0-0.6,0.1-1.2,0.3-1.8c0.2-0.5,0.5-1,0.8-1.4c0.4-0.4,0.8-0.7,1.4-0.9c0.5-0.2,1.1-0.3,1.7-0.3v1.5h0
				c-0.5,0-1,0.2-1.3,0.6C342.5,600.4,342.3,600.9,342.3,601.7z"/>
			<path class="st7" d="M353.9,601.7h2c-0.1-0.7-0.3-1.3-0.6-1.7c-0.3-0.4-0.8-0.6-1.4-0.6v-1.5h0.1c0.9,0,1.6,0.2,2.2,0.5
				c0.6,0.4,1.1,0.8,1.4,1.4c0.3,0.6,0.5,1.1,0.5,1.7c0,0.5-0.2,0.9-0.5,1.1c-0.3,0.2-0.8,0.2-1.3,0.2h-2.3V601.7L353.9,601.7z
				 M353.9,606.8v-1.4c0.1,0,0.1,0,0.2,0c0.3,0,0.5,0,0.7-0.1c0.2-0.1,0.4-0.2,0.6-0.3c0.2-0.1,0.4-0.3,0.6-0.4
				c0.2-0.1,0.4-0.3,0.7-0.6c0.1-0.1,0.3-0.1,0.5-0.1c0.2,0,0.4,0.1,0.5,0.2c0.1,0.1,0.2,0.3,0.2,0.5c0,0.2-0.1,0.4-0.2,0.7
				c-0.2,0.3-0.4,0.5-0.7,0.8c-0.3,0.2-0.7,0.4-1.2,0.6c-0.5,0.2-1,0.2-1.6,0.2C354.1,606.8,354,606.8,353.9,606.8z M352,601.7h2
				v1.2h-2c0,0.5,0.1,0.9,0.3,1.3c0.2,0.4,0.5,0.7,0.8,0.9c0.3,0.2,0.6,0.3,0.9,0.3v1.4c-1.3,0-2.3-0.4-3-1.2
				c-0.8-0.8-1.2-1.9-1.2-3.2c0-0.6,0.1-1.2,0.3-1.8c0.2-0.5,0.5-1,0.8-1.4c0.4-0.4,0.8-0.7,1.4-0.9c0.5-0.2,1.1-0.3,1.7-0.3v1.5h0
				c-0.5,0-1,0.2-1.3,0.6C352.3,600.4,352,600.9,352,601.7z"/>
			<path class="st7" d="M365.9,602.3c0-0.6-0.1-1.1-0.3-1.5c-0.2-0.4-0.4-0.7-0.7-0.9c-0.3-0.2-0.7-0.3-1-0.3h-0.1V598
				c0.2,0,0.4,0,0.6,0c0.7,0,1.3,0.2,1.9,0.5c0.6,0.3,1,0.8,1.3,1.5c0.3,0.7,0.5,1.4,0.5,2.4c0,0.7-0.1,1.3-0.3,1.8
				c-0.2,0.6-0.4,1-0.8,1.4c-0.3,0.4-0.7,0.7-1.2,0.9c-0.5,0.2-0.9,0.3-1.4,0.3c-0.2,0-0.4,0-0.6,0v-1.6h0.1c0.4,0,0.7-0.1,1-0.3
				c0.3-0.2,0.6-0.5,0.7-0.9C365.8,603.4,365.9,602.9,365.9,602.3z M363.8,599.6c-0.6,0-1.1,0.2-1.5,0.7c-0.4,0.5-0.6,1.2-0.6,2.1
				c0,0.9,0.2,1.5,0.6,2c0.4,0.5,0.9,0.7,1.5,0.7v1.6c-0.4-0.1-0.7-0.2-1-0.3c-0.4-0.2-0.8-0.6-1.2-1.1v3.3c0,1-0.3,1.4-1,1.4
				c-0.4,0-0.7-0.1-0.8-0.4c-0.1-0.2-0.2-0.6-0.2-1.1v-9.4c0-0.4,0.1-0.7,0.3-0.9c0.2-0.2,0.4-0.3,0.7-0.3c0.3,0,0.6,0.1,0.7,0.3
				c0.2,0.2,0.3,0.5,0.3,0.9v0.3c0.4-0.5,0.8-0.9,1.3-1.1c0.3-0.1,0.6-0.3,0.9-0.3V599.6z"/>
			<path class="st7" d="M372,599.2v6.3c0,0.4-0.1,0.8-0.3,1c-0.2,0.2-0.5,0.3-0.8,0.3c-0.3,0-0.6-0.1-0.8-0.3
				c-0.2-0.2-0.3-0.6-0.3-1v-6.2c0-0.4,0.1-0.8,0.3-1c0.2-0.2,0.5-0.3,0.8-0.3c0.3,0,0.6,0.1,0.8,0.3
				C371.9,598.5,372,598.8,372,599.2L372,599.2z M371,596.9c-0.3,0-0.6-0.1-0.8-0.3c-0.2-0.2-0.3-0.5-0.3-0.8c0-0.3,0.1-0.6,0.3-0.8
				c0.2-0.2,0.5-0.3,0.8-0.3c0.3,0,0.5,0.1,0.8,0.3c0.2,0.2,0.3,0.4,0.3,0.8c0,0.3-0.1,0.6-0.3,0.8
				C371.5,596.8,371.3,596.9,371,596.9z"/>
			<path class="st7" d="M379.7,605.8l-1.9-3.2l-1.2,1.1v1.7c0,0.4-0.1,0.7-0.3,1c-0.2,0.2-0.5,0.3-0.8,0.3c-0.3,0-0.6-0.1-0.8-0.3
				c-0.2-0.2-0.3-0.6-0.3-1v-9.3c0-0.5,0.1-0.9,0.3-1.1c0.2-0.3,0.5-0.4,0.8-0.4c0.3,0,0.6,0.1,0.8,0.3c0.2,0.2,0.3,0.6,0.3,1v5.3
				l2.5-2.6c0.3-0.3,0.5-0.5,0.7-0.7c0.2-0.1,0.4-0.2,0.6-0.2c0.3,0,0.5,0.1,0.7,0.3c0.2,0.2,0.3,0.4,0.3,0.6c0,0.3-0.3,0.7-0.9,1.3
				l-1.2,1.1l2.2,3.5c0.2,0.3,0.3,0.5,0.4,0.6c0.1,0.1,0.1,0.3,0.1,0.4c0,0.3-0.1,0.6-0.3,0.8c-0.2,0.2-0.4,0.3-0.7,0.3
				c-0.3,0-0.5-0.1-0.6-0.2C380.2,606.4,380,606.2,379.7,605.8z"/>
			<path class="st7" d="M385.1,606.8c-0.3,0-0.6-0.1-0.8-0.3c-0.2-0.2-0.4-0.5-0.4-0.9c0-0.3,0.1-0.6,0.3-0.8
				c0.2-0.2,0.5-0.3,0.8-0.3c0.3,0,0.6,0.1,0.9,0.3c0.2,0.2,0.4,0.5,0.4,0.8c0,0.4-0.1,0.7-0.4,0.9
				C385.7,606.7,385.4,606.8,385.1,606.8z"/>
			<path class="st7" d="M396.6,604.1c0,0.3-0.1,0.6-0.2,0.9c-0.2,0.3-0.4,0.6-0.7,0.9c-0.3,0.3-0.8,0.5-1.3,0.7
				c-0.5,0.2-1.1,0.3-1.7,0.3c-1.3,0-2.4-0.4-3.2-1.2c-0.8-0.8-1.1-1.8-1.1-3.2c0-0.9,0.2-1.7,0.5-2.4c0.3-0.7,0.8-1.2,1.5-1.6
				c0.7-0.4,1.4-0.6,2.3-0.6c0.6,0,1.1,0.1,1.6,0.2c0.5,0.2,0.9,0.4,1.2,0.6c0.3,0.3,0.6,0.5,0.8,0.8c0.2,0.3,0.3,0.6,0.3,0.8
				c0,0.3-0.1,0.5-0.3,0.7c-0.2,0.2-0.4,0.3-0.7,0.3c-0.2,0-0.3,0-0.5-0.1c-0.1-0.1-0.3-0.2-0.4-0.5c-0.3-0.4-0.5-0.7-0.8-0.9
				c-0.3-0.2-0.7-0.3-1.1-0.3c-0.6,0-1.2,0.3-1.6,0.8c-0.4,0.5-0.6,1.2-0.6,2.1c0,0.4,0,0.8,0.2,1.1c0.1,0.3,0.2,0.6,0.4,0.9
				c0.2,0.2,0.4,0.4,0.7,0.6c0.3,0.1,0.6,0.2,0.9,0.2c0.4,0,0.8-0.1,1.1-0.3c0.3-0.2,0.6-0.5,0.8-0.9c0.1-0.2,0.3-0.4,0.4-0.6
				c0.2-0.1,0.3-0.2,0.6-0.2c0.3,0,0.5,0.1,0.7,0.3C396.5,603.7,396.6,603.9,396.6,604.1z"/>
			<path class="st7" d="M404.5,602.4c0-0.9-0.2-1.6-0.6-2.1c-0.4-0.5-0.9-0.7-1.6-0.7V598c0.7,0,1.3,0.1,1.8,0.3
				c0.5,0.2,1,0.5,1.4,0.9c0.4,0.4,0.7,0.9,0.9,1.4c0.2,0.5,0.3,1.1,0.3,1.8c0,0.6-0.1,1.2-0.3,1.8c-0.2,0.6-0.5,1-0.9,1.4
				c-0.4,0.4-0.8,0.7-1.4,0.9c-0.5,0.2-1.1,0.3-1.8,0.3v-1.6c0.7,0,1.2-0.2,1.6-0.7C404.3,603.9,404.5,603.3,404.5,602.4z
				 M402.3,599.6L402.3,599.6c-0.4,0-0.8,0.1-1.1,0.3c-0.3,0.2-0.6,0.5-0.8,1c-0.2,0.4-0.3,0.9-0.3,1.5c0,0.6,0.1,1.1,0.3,1.5
				c0.2,0.4,0.4,0.7,0.7,1c0.3,0.2,0.7,0.3,1.1,0.3h0v1.6h0c-0.7,0-1.3-0.1-1.8-0.3c-0.5-0.2-1-0.5-1.4-0.9
				c-0.4-0.4-0.7-0.9-0.9-1.4c-0.2-0.5-0.3-1.1-0.3-1.8c0-0.7,0.1-1.3,0.3-1.8c0.2-0.5,0.5-1,0.9-1.4c0.4-0.4,0.8-0.7,1.4-0.9
				c0.5-0.2,1.1-0.3,1.8-0.3h0V599.6z"/>
			<path class="st7" d="M415.6,602.5v2.9c0,0.5-0.1,0.8-0.3,1c-0.2,0.2-0.5,0.3-0.8,0.3c-0.3,0-0.6-0.1-0.8-0.3
				c-0.2-0.2-0.3-0.6-0.3-1V602c0-0.5,0-1-0.1-1.3c0-0.3-0.1-0.6-0.3-0.7c-0.2-0.2-0.4-0.3-0.8-0.3c-0.7,0-1.2,0.2-1.4,0.7
				c-0.2,0.5-0.3,1.2-0.3,2.1v2.9c0,0.5-0.1,0.8-0.3,1c-0.2,0.2-0.5,0.3-0.8,0.3c-0.3,0-0.6-0.1-0.8-0.3c-0.2-0.2-0.3-0.6-0.3-1
				v-6.2c0-0.4,0.1-0.7,0.3-0.9c0.2-0.2,0.4-0.3,0.7-0.3c0.3,0,0.6,0.1,0.7,0.3c0.2,0.2,0.3,0.5,0.3,0.8v0.2c0.4-0.4,0.8-0.8,1.2-1
				c0.4-0.2,0.9-0.3,1.4-0.3c0.5,0,1,0.1,1.4,0.3c0.4,0.2,0.7,0.5,1,1c0.4-0.4,0.8-0.8,1.2-1c0.4-0.2,0.9-0.3,1.4-0.3
				c0.6,0,1.1,0.1,1.5,0.3c0.4,0.2,0.8,0.6,1,1c0.2,0.4,0.3,1,0.3,1.9v4.3c0,0.5-0.1,0.8-0.3,1c-0.2,0.2-0.5,0.3-0.8,0.3
				c-0.3,0-0.6-0.1-0.8-0.3c-0.2-0.2-0.3-0.6-0.3-1v-3.7c0-0.5,0-0.8-0.1-1.1c0-0.3-0.1-0.5-0.3-0.7c-0.2-0.2-0.4-0.3-0.8-0.3
				c-0.3,0-0.6,0.1-0.8,0.3c-0.3,0.2-0.5,0.4-0.6,0.7C415.7,601,415.6,601.6,415.6,602.5z"/>
			<path class="st7" d="M310.9,592.3c0-0.1-0.1-0.3-0.1-0.4c0.7-0.1,1.2-0.9,0.9-1.6c-0.2-0.4-0.6-0.6-1-0.6h0
				c-0.3,0-0.7,0.2-0.9,0.5c-0.5,0.6-0.1,1.5,0.6,1.7c0,0.1,0.1,0.3,0.1,0.5c-1.1,0.1-2.2,0.3-3.1,0.9c0.1,0.3,0.2,0.5,0.3,0.8
				c1.9-0.8,3.9-0.6,5.9-0.4c0.1-0.3,0.1-0.5,0.2-0.8C312.8,592.5,311.9,592.3,310.9,592.3z"/>
			<path class="st7" d="M321.9,595.3c-0.3,0.1-0.3,0.5-0.3,0.8c-0.3,0.3-0.2,0.8-0.2,1.2c-0.1,0.2-0.3,0.2-0.5,0.3
				c-0.3-0.4-0.5-0.8-0.9-1.1l0,0c-0.4-0.3-0.8-0.7-1.2-0.9c-0.3,0.4-0.7,0.7-1,1.1c0.7,0.7,1.3,1.5,1.8,2.3c0.4,0.6,0.7,1.3,0.9,2
				c0.6-0.3,1.1-0.6,1.7-0.9c-0.3-0.7-0.6-1.3-1-2c0.2-0.1,0.6-0.3,0.6-0.6c0-0.4-0.1-0.7,0.2-1c0.4,0.3,1.1,0,1.1-0.6
				C323.1,595.4,322.4,595,321.9,595.3z"/>
			<path class="st7" d="M317.6,599.8c-0.1,0.9-1,1.7-1.9,1.6v3.6c1.7-0.5,3.3-1.1,4.8-2c0,0-0.3-1.8-1.6-3.7
				c-0.7-1.2-1.5-2.4-2.6-3.3c-0.2-0.2-0.5-0.4-0.7-0.5v2.1c0.2,0,0.5,0,0.7,0.1C317.2,598,317.8,598.9,317.6,599.8z M315.7,601.4
				L315.7,601.4c-0.5,0-1-0.2-1.4-0.6c-0.3-0.3-0.5-0.7-0.5-1.1c-0.1-0.9,0.5-1.9,1.4-2.1c0.2-0.1,0.3-0.1,0.5-0.1v-2.1
				c-1.1-0.8-2.4-1.3-3.8-1.3c-1.7,0-3.4,0.2-4.9,0.7v2c0.3,0,0.6,0,0.9,0.1c0.3,0.1,0.6,0.2,0.9,0.4c0.6,0.4,1,1,1.2,1.7
				c0.3,0.9,0.1,1.8-0.4,2.6c-0.4,0.5-0.9,0.9-1.5,1.2c-0.3,0.1-0.7,0.2-1.1,0.2v2.7l0.1,0c1.9,0.1,3.9,0.1,5.8-0.2
				c0.9-0.1,1.9-0.3,2.8-0.6V601.4z M307,594.9v2c-0.5,0-1,0.1-1.4,0.4c-0.9,0.5-1.6,1.5-1.6,2.5c-0.1,0.8,0.3,1.7,0.8,2.3
				c0.6,0.6,1.4,0.9,2.2,0.9v2.7c-1.9-0.1-3.9-0.5-5.8-1c-0.3-1.7-0.4-3.6,0.4-5.3c0.8-1.8,2.4-3.2,4.2-4
				C306.2,595.2,306.6,595.1,307,594.9z"/>
			<path class="st7" d="M301.7,596.7c-0.8,0.5-1.4,1.1-2,1.9c-0.2-0.3-0.2-0.6-0.4-0.9c-0.1-0.2-0.3-0.1-0.5-0.1
				c-0.2,0-0.4,0-0.6-0.1c0.2-0.3,0.2-0.8-0.2-1c-0.4-0.3-0.9,0-1,0.4c-0.2,0.5,0.4,1,0.8,0.8c0.3,0.4,0.7,0.3,1.1,0.3
				c0.2,0.3,0.3,0.6,0.5,0.9c-0.4,0.8-0.7,1.7-0.7,2.7c0.5,0.2,1.1,0.5,1.6,0.7c0-0.6,0.1-1.2,0.2-1.7c0.2-1.3,0.9-2.3,1.8-3.2
				C302.2,597.1,301.9,596.9,301.7,596.7z"/>
			<path class="st7" d="M314.2,606.1c-2,0.4-4,0.6-6,0.5c-1.4-0.1-2.7-0.2-4.1-0.5c-0.9-0.2-1.9-0.5-2.8-0.7
				c0.1,1.2,0.6,2.3,1.3,3.3c0.8,1.1,1.9,2.2,3.2,2.6c1,0.3,2.1,0.6,4.1,0.6h0.2l0.2,0c1.8,0,3.5-0.3,5.1-0.9c1-0.4,2-1,2.8-1.8
				c0.7-0.7,1.3-1.5,1.6-2.4c0.4-0.8,0.7-2.3,0.7-3.1C318.6,604.8,316.4,605.7,314.2,606.1z"/>
		</g>
	</g>
	<g>
		<path class="st5" d="M164.5,143.2c0.2-0.1,0.4-0.2,0.6-0.3c-0.1-0.1-0.2-0.1-0.4-0.1C164.6,143,164.5,143.1,164.5,143.2z"/>
		<path class="st5" d="M163.3,139.5c0.6-0.1,0.8-0.8,1-1.4c-0.9,0.1-1.7,0.3-2.5,0.5C162.2,139,162.7,139.4,163.3,139.5z"/>
		<path class="st5" d="M157.6,123.2c0.4,0,0.7-0.1,1-0.3c-0.2-0.7-0.5-1.3-0.9-1.8C157.2,121.6,157.2,121.5,157.6,123.2z"/>
		<path class="st5" d="M188.3,222.7c0,0.7,0,1.3,0,1.7c0.3-0.5,0.7-1.1,1-1.7C188.9,222.8,188.6,222.8,188.3,222.7z"/>
		<path class="st5" d="M140.4,220.6c0.7,4.1,1.6,3.9,3.3,6C143.2,223.7,142.6,221,140.4,220.6z"/>
		<path class="st5" d="M159.9,67.8c-3.2-1-3,0.6-5.7,1.4c-0.2,2.8,0.4,4.3,1,6.1C158.2,76.7,160.5,73.6,159.9,67.8z"/>
		<path class="st5" d="M158.6,294.1c0.3,2.1-0.8,2-0.5,4.1C160,298.8,161,293.9,158.6,294.1z"/>
		<path class="st5" d="M286.6,96c-0.1,2.1,0.3,3.7,1,4.7c-0.4-1.8,2.2,0.5,1.9-1.4C287.6,99.5,288.7,95.6,286.6,96z"/>
		<path class="st5" d="M333,445.4c1.3,0.8,1.7,0.5,2.7-0.6c-0.1,1.5,0.7,1.9,0.9,3c1.6,0.3,2-0.9,2.6-1.8c0-3.1-2.1-3.1-2.6-5.5
			C334.8,441.4,333.8,443.3,333,445.4z"/>
		<path class="st5" d="M373,389c-0.4-1.4-0.1-3.8-1.8-3.6c-0.9,1.3,0.2,1.7,0,3.6C372.5,389,372.1,388,373,389z"/>
		<path class="st5" d="M362.4,391.4c0.6,1,0.9,2.4,1.8,3.1C365.6,392.8,363.1,389.7,362.4,391.4z"/>
		<path class="st5" d="M344.1,432.6c-1.3,2,0.6,3.8,1.8,4.2C346.1,434.4,345.4,433.2,344.1,432.6z"/>
		<path class="st5" d="M179.1,131.3c-0.2-2.2,0.5-3.3,1.2-4.2c-0.4-0.4-0.9-0.6-1.4-0.7c-2,1.7-2.2,5.9-4.4,7.3
			c0.5,1.6,2.7,0.8,3.1,2.4c2.1-0.2,2.2-2.9,4.3-3.1c0.4-0.8,0.8-1.6,1.2-2.4c-0.5-0.7-1-1.4-1.5-2.2
			C181,129.9,180,131.1,179.1,131.3z"/>
		<path class="st5" d="M196.9,191.8c-0.2-0.2-0.3-0.3-0.5-0.5c0.1,0.2,0.3,0.4,0.4,0.8C196.8,192,196.9,191.9,196.9,191.8z"/>
		<path class="st5" d="M202.1,177.2c-0.2-2.1-0.6-4-2.7-3.7v2.4C200,176.8,201.5,176.4,202.1,177.2z"/>
		<path class="st5" d="M188.3,164.6c0.4-1.8,0.7-3.9,1.3-5.5c-0.9,0-0.6-1.6-1.8-1.2c-0.3,2.4-1.5,3.7-2.2,5.5
			C186.4,163.8,186.7,165,188.3,164.6z"/>
		<path class="st5" d="M195,153.7c-1.2-0.5-2-0.9-3.1,0.5c-0.1,2,0.1,3.5,0.8,4.4C193.5,157.1,194.3,155.5,195,153.7z"/>
		<path class="st5" d="M185.5,112.4c0,2.2-0.2,4.7,1.8,4.2C186.7,115.2,187.4,112.1,185.5,112.4z"/>
		<path class="st5" d="M192.4,165.7c0.9-1.2,1.5-3.3,2.2-4.8c-1.6,0-2.8,0.8-3,2.8C191.4,165,191.9,165.4,192.4,165.7z"/>
		<path class="st5" d="M61.9,245c-1.3-0.7-2.5-1.4-4.3-1.3c-0.2,4.8,0.1,8.9,2.4,10.1C59.6,249.3,62.4,249.5,61.9,245z"/>
		<path class="st5" d="M68.1,170c-0.7,0.9-0.8,4.1,0.5,4.1C69.3,173.2,69.4,170,68.1,170z"/>
		<path class="st5" d="M85.8,124l0,2.7C88,127.8,87.4,123.3,85.8,124z"/>
		<path class="st5" d="M78.2,172c0.8-3.5-3-3.4-2.9-0.7C75.9,172.1,77,172.1,78.2,172z"/>
		<path class="st5" d="M69.6,196.4c-1.1,1.5,0.2,3.8,1.9,3.4C71.2,198.2,70.8,196.6,69.6,196.4z"/>
		<path class="st5" d="M70.5,186.2c0.2,3.3,1.9,4.5,3.3,6.1C76.2,189.7,72.8,186.5,70.5,186.2z"/>
		<path class="st5" d="M144.6,60.4c0.3-0.8,0.6-1.8,0.4-3.4c-1.9-0.5-3-2-4.7-2.7C141.2,57.1,142.1,59.9,144.6,60.4z"/>
		<path class="st5" d="M140.8,117.2c0.7-3.2-0.2-5.8-0.9-8.8c0.2,4.1-0.9-0.5-2.9,0.6C135.5,113.1,138.9,115.7,140.8,117.2z"/>
		<path class="st5" d="M133.1,105.7c0.3-2.5-1.4-2-2.9-2c-1.7,2.7-1.9,7,1.4,7.4C131.5,108.8,130.5,105.5,133.1,105.7z"/>
		<path class="st5" d="M126,124c1.5,0.3,1.6-1.4,1.4-3.4C125.9,120.5,125,122.6,126,124z"/>
		<path class="st5" d="M115.9,104.4c1.8,0,1.4,0.7,2.9,0c0.2-3.3-0.4-5.3-2.4-5.4C115.7,100,115.9,102.4,115.9,104.4z"/>
		<path class="st5" d="M128.4,132.7c-0.5,1.5-0.1,4.4-1.4,4.8c-1.8,0.4-2,0.6-3.3-0.7c-0.3,3.1,1.8,2.8,1.4,6.1
			c4.3-0.6,7.1-3.4,8.1-8.8c1.7,1.2,4.4-1.2,4.3-4.8c-4.9,1.9-9.6-0.7-12.9-4.7c0.5,2.3-0.6,2.2-1.9,2c-0.1,3.9,1.5,5.6,2.4,8.1
			C126.5,135.1,127.5,131,128.4,132.7z"/>
		<path class="st5" d="M157.7,303.6c1.5-0.4,2.2,0.4,3.4,0.7c3.2-5.8-3.5-11.7-0.5-19.6c-5.1,0.5-2.1,9.2-4.7,12.2
			c-0.5-1.5-1.4-2.4-2-3.7c-0.1-0.4-0.2-0.7-0.4-1c-0.3-0.4-0.6-0.6-1-0.4c-0.1,0.7-0.1,1,0,1.3c-4.1,3.9-8.1,6.8-14.3,6.6
			c0.6-0.8,0.5-2.4,0.5-4c0.8-1.3,1.4,0.8,2.4-0.7c0.2-2.5-0.5-3.7-1-5.4c-3.7,1.8-4,8.3-8.6,8.8c-1.1,3.1-1.6,10.6,0,13.5
			c1.5,0.3,1.7-1.2,3.3-0.6c0.6-3.3-2.2-1.8-1.4-5.4c2.5,2.9,1.6-1.7,2.9-2.7c1.7,1-0.4,4.4,1.9,5.4c0.6-1,0.4-3,1.9-2.7
			c0.1,1.7,0.7,2.6,1.9,2.7c2-3.9,6.3-4.6,9.5-6.8c0.7,0.4,1.2,1.1,1.4,2c0.5,3.4-1.5,2.9-0.4,5.4c1.8-0.2,1.7-3,4.3-2.1
			C157.5,306.6,156.7,303.8,157.7,303.6z M158.6,294.1c2.4-0.3,1.4,4.6-0.5,4.1C157.8,296.1,158.9,296.2,158.6,294.1z"/>
		<path class="st5" d="M117.4,180.1c-1.3,2.3-3.4,3.3-3.4,7.4c0.8,1.2,1.6-0.6,3.4,0c0-1-0.2-2.5,0.4-2.7c2.3-0.8,1.6,2.7,3.4,2.7
			c0.8-0.9,1.9-1.4,1.9-3.4C119.9,184.6,120,180.4,117.4,180.1z"/>
		<path class="st5" d="M162,379.3c-1.5-0.3-1.6,1.5-1.5,3.4C162.5,383.4,163,380.6,162,379.3z"/>
		<path class="st5" d="M166.3,281.3c-2.5-2.1-3.2-6.7-7.2-6.7c0.7,4.5,5.9,2.5,5.3,8.8C165.6,283.5,166.4,283.1,166.3,281.3z"/>
		<path class="st5" d="M138.1,336.7c0.1,3.7-0.3,8.2,2.9,7.4c-0.1-3.2,3.5-5.8,6.2-4.7l0-4.7c-5.1,4.8-8-1.1-12.9-0.7
			C135.6,334.8,137,335.6,138.1,336.7z"/>
		<path class="st5" d="M142.9,347.6c-1.1-0.5-1.3-2.3-2.4-2.7c-0.1,1.6-0.1,3.2,0.5,4C142,349.1,142.7,348.7,142.9,347.6z"/>
		<path class="st5" d="M142.9,330c-0.9,1.3-0.1,3.5,1,4c0.1-0.8,0.5-1,1-1.3C144.7,331,144.1,330.1,142.9,330z"/>
		<path class="st5" d="M134.7,315.1c0.7,0.1,0.4,1.6,0.5,2.7c2.7-1,3.7,0,5.7,1.3c1-1.6,1.9-3.6,3.8-4v-4c-1.3-0.6-2.9-1-3.9-2
			C138.9,311.1,136.3,312.5,134.7,315.1z"/>
		<path class="st5" d="M113.5,166.6c1.1,2.5-0.4,3.2-0.9,5.4C114.7,172.5,116,166.2,113.5,166.6z"/>
		<path class="st5" d="M241.2,134.7c-0.1,0.7-0.7,0.7-1.3,0.6c0,1.4,1.3,4.3,1.8,3C240.7,137.8,243,135.6,241.2,134.7z"/>
		<path class="st5" d="M245.1,102.8c-0.4,2.7,1.6,4.3,2.9,2.7C248.4,102.6,246.8,102.6,245.1,102.8z"/>
		<path class="st5" d="M245.6,129.2c0.7-1.8,2.1-1.3,3.3-0.7c0-1.6,0.8-1.9,0.5-4C247.7,125,244.8,127.4,245.6,129.2z"/>
		<path class="st5" d="M242.2,154.1c-1.1-2-0.6-6.4-1.4-8.7c-1.9,4.6-1.7,8.7-3.8,13.5c2.1-0.9,1,2.6,2.9,2c0.1-2.1-0.9-2.8-0.5-5.4
			C240,154.6,241.6,155.1,242.2,154.1z"/>
		<path class="st5" d="M246.6,172.3c0.6,0.1,0.4,1.5,0.5,2.4c2.5-0.1,1.9,4.3,4,4.8C250.6,176.3,248.4,169.8,246.6,172.3z"/>
		<path class="st5" d="M247.3,154.9c0.6,0.7,1.3,1.4,2.3,1.7c0.5-2.7-0.7-5.7-2.3-7.3c-0.1-1.5-0.5-2.5-1.8-3.2
			c-0.1,0.8-0.3,1.5-0.5,2.2c-0.3,0.1-0.6,0.2-0.8,0.4c0.1,0.3,0.3,0.7,0.4,1.1c-0.6,1.8-1.3,3.5-2.1,5.1
			C244.1,157.4,245.3,155.1,247.3,154.9z"/>
		<path class="st5" d="M244.8,167.5c-0.9-1.9-1.4-4.1-3.1-4.9c0.1,0.4,0.3,0.8,0.4,1.2c-1.3,1.4-2,6.1,1.1,5.3c-0.1-1,0-2.2,0-3.2
			C243.7,166.4,244.2,167,244.8,167.5z"/>
		<path class="st5" d="M241.7,140c2.4-0.5,2.7,2.1,5.3,1.3c2.4-2.1,1.2-8.2-1.4-8.8C245.4,136.6,241.5,135.4,241.7,140z"/>
		<path class="st5" d="M230.6,173c0-1.9,0.7-8.6,2.6-11.5c5.5,1.2,5.6,12.8,11.1,12.1c0.4-3.8-3.4-1.8-4-4.2l0-4.2
			c-2.3-1.2-3.8-3.3-4.5-6.6c0.3-2.4,1.9-3.1,1.7-6.1c-2.6-0.8-2.4-3.2-2.7-6.4c0.8-0.7,1.6-1.4,2.6-1.9c-0.7-5,1.2-6.4,1.4-10.2
			c-1.7,1.2-2.1,4.3-4.8,4.1c0.8,2.3,0.1,4-0.6,5.8c-1,0.3-1.1,1.7-2.5,1.3c2,3.5-0.6,7.7,2.7,9.7c-0.5,0.8-2.1,0.4-2.7,1.2l0,3.6
			C226.5,162.6,229.2,168.9,230.6,173z"/>
		<path class="st5" d="M251.4,321.7c-1.4-0.1-3.2-0.4-2.9,2C249.6,325.2,250.4,322.4,251.4,321.7z"/>
		<path class="st5" d="M295,393.8c0.2-3.5-1.4-4.4-2.4-6.1c-0.1,0.5-0.4,0.8-1,0.7c0.1,1.7,0.9,2.1,0,3.4
			C292.5,392.7,293.5,393.5,295,393.8z"/>
		<path class="st5" d="M225.2,260.2c-2.2,0.4-1.7-3-3.6-3c-0.7,5.5-2.6,9.3-4,13.9c1.3-0.5,2.8-0.7,3.6-1.9c0.6-1.5-1.3-2.5,0-3
			c0.9,0.1,0.6,1.7,1.8,1.2C224.2,265.6,225.6,264.1,225.2,260.2z"/>
		<path class="st5" d="M238.5,79c1,0.3,3.3,1.9,4,0.6c-0.7-0.8-0.7-2.7-1.3-3.6C240,76.6,238.3,76.5,238.5,79z"/>
		<path class="st5" d="M248.7,187.4c-0.5-2.2-1.5-3.5-3.1-4.2C244.4,185.5,247.6,188.5,248.7,187.4z"/>
		<path class="st5" d="M249.5,302.1c-0.7,0.9-0.7,3.3,0.5,3.4C250.7,304.6,250.7,302.2,249.5,302.1z"/>
		<path class="st5" d="M237.9,183.9l1.9,0c0-2,0.1-4.1-1.4-4.1C237.1,179.9,237.3,183,237.9,183.9z"/>
		<path class="st5" d="M237.5,174.4c2.1,0.1,3.9,3.7,4.8,0c-0.4-0.2-0.6-0.6-0.5-1.4C240.4,173.7,237.2,171.7,237.5,174.4z"/>
		<path class="st5" d="M245.6,225.1c-1.3-0.9-2.7,2.8-5.3,0.7c-0.4,0.8-0.6,1.8-0.5,3.4C242.5,230.7,245.2,228.6,245.6,225.1z"/>
		<path class="st5" d="M113.1,136.8c1.2,0,0.7-2.6,1.9-2.7c0.1,2.5,0.5,1.9,0,4c1.7,0.3,2.7-0.3,3.9-0.7c0.6-3.1-1.4-2.7-1-5.4
			c-3.1-0.5-3.2-0.2-5.2,1.4c-2.6-1.9-0.9-5.9-1.9-9.5c-3.5,1.9,0.3,8.1-0.9,11.5C111.2,135.4,111.3,137.3,113.1,136.8z"/>
		<path class="st5" d="M105.9,157.1c-0.8-0.1-2.5-2.2-1.4-2.7c0.2,1.2,0.5-0.3,1-0.7c1.5,0.5,2.1,2.5,1.9,5.4c0.4,0.2,1,0,1,0.7
			c1.4-0.3,2.2-1.4,2.4-3.4c-2.7-1.8-2.4-7.8-6.7-7.4c0.6-0.8,0.7-3.3-0.5-3.3c-1.3,1.6-3.3,2.1-2.9,6c0.6,1.7,1.8-1.4,2.4,0.7
			c-1.8,1.3-2.4,7.1-1.4,10.2C104.6,162.8,103.9,158.1,105.9,157.1z"/>
		<path class="st5" d="M99.2,229.4c1-2.3-0.6-5.1-0.5-6.8C97.6,224.8,97.3,228.2,99.2,229.4z"/>
		<path class="st5" d="M94.4,175.4l2.4,0c-0.2-2.1-0.1-4.8-1.9-4.8C95.2,172.8,94,173,94.4,175.4z"/>
		<path class="st5" d="M94.4,119.3c0,0.8-0.6,0.9-0.4,2c0.7,0.3,1.2,1,1.9,1.3C95.9,120.7,95.9,119,94.4,119.3z"/>
		<path class="st5" d="M92.1,313.9c-3.4,4.5,0.7,6.7,3.8,6.7C96,316.6,94.3,314.9,92.1,313.9z"/>
		<path class="st5" d="M110.3,250.3c0.2,2.1-1.3,1.8-1.5,3.4C110.6,257.5,113.2,251.3,110.3,250.3z"/>
		<path class="st5" d="M106,245.6c-0.1,1.6-0.1,3.2,0.5,4c1.1,0.2,1.8-0.1,2.4-0.7l0-2.7C108,245,107,247.3,106,245.6z"/>
		<path class="st5" d="M98.2,149c-1.3,0.9-2.8,1.6-3.4,3.4c0.4,1.9,1.6,2.8,1.4,5.5c1.1,0.2,1-1.3,2.4-0.7
			C98.1,154,98.7,151.1,98.2,149z"/>
		<path class="st5" d="M103,139.6c-0.4-3.3-1.6-5.3-1.9-8.8c-2.8,1.3-4.7,7.3-4.8,10.1C97.9,141.3,99.7,137.2,103,139.6z"/>
		<path class="st5" d="M153.4,367.1c1.7-4.6-2.9-10.3-5.2-5.4c-1.1-1.9-2.9-4-4.8-2.7c0.6,2.6,0.9,5.1,1.5,6.1
			C146.6,368.3,149.6,365.4,153.4,367.1z"/>
		<path class="st5" d="M117,237.5c2.9,0.3,3.5-6.4,2.9-8.8C119.2,232.2,116.9,233.1,117,237.5z"/>
		<path class="st5" d="M115.5,286.8c-0.1,0.9-0.7,1.3-0.4,2.7c0.8-0.1,1.5,0.2,1.9,0.7C117.4,287.9,116.5,287.2,115.5,286.8z"/>
		<path class="st5" d="M119.8,269.2c1.4,0.9,1.7-0.3,3.9,0c-0.4-3.5-2.1-5.2-3.4-7.4C119.1,264,118.4,266.6,119.8,269.2z"/>
		<path class="st5" d="M119.9,310.4c-1-0.4-3-2.5-3.3,0c0.3,0.1,0.5,0.6,0.5,1.3C118.3,311.8,119.8,312.2,119.9,310.4z"/>
		<path class="st5" d="M116.1,344.9c1.7,0.9,1.9-4,1-4.7C116.5,341.5,114.8,342.9,116.1,344.9z"/>
		<path class="st5" d="M129.8,165.9c0.4,4.8,1.6,8.4,2.4,14.2c4.9-1.3-0.6-7.5,2-11C132.7,170.5,131.3,167.3,129.8,165.9z"/>
		<path class="st5" d="M124.6,215.2c0.6,0.1,0.5,1,0.5,2c1.2-0.6,2-1.7,2.4-3.4C126.6,212.5,125,213.7,124.6,215.2z"/>
		<path class="st5" d="M127.9,147.6c-1.6,3-4.5,11.7,0,12.1c-1.2-4.4,0.8-2,1.9-2.7C127.8,155.8,129.6,149.2,127.9,147.6z"/>
		<g>
			<path class="st6" d="M156.7,334c-1.1-1.6-1.3,1.1-2.4,1.3c0.1-1.8-0.2-2.9-1.5-2.7c-2.4,2.4,1.1,3.1,0.5,6.8l2.4,0
				C155,336,158,336,156.7,334z"/>
		</g>
		<g>
			<path class="st6" d="M207.3,71.2c-0.2,2.3-1.5,3.3-1.4,6.1c1.4-0.2,1.3-2.3,2.7-2.5c0,2.6,2.3,2.1,3.1,4.9
				c0.2-0.8,0.6-1.2,1.3-1.2c-0.1-2.8-1.6-3.8-1.3-7.3H207.3z"/>
		</g>
	</g>
	<g>
	</g>
	<g>
	</g>
	<g>
	</g>
	<g>
	</g>
	<g>
	</g>
	<g>
	</g>
</g>
</svg>
