<?xml version="1.0" encoding="utf-8"?>
<!-- Generator: Adobe Illustrator 19.0.0, SVG Export Plug-In . SVG Version: 6.00 Build 0)  -->
<svg version="1.1" id="Capa_1" xmlns="http://www.w3.org/2000/svg" xmlns:xlink="http://www.w3.org/1999/xlink" x="0px" y="0px"
	 viewBox="0 0 156 189" style="enable-background:new 0 0 156 189;" xml:space="preserve">
<style type="text/css">
	.st0{display:none;}
	.st1{display:inline;}
	.st2{fill:none;stroke:#F80E41;stroke-width:4.5716;stroke-linecap:round;stroke-linejoin:round;stroke-miterlimit:3.8637;}
	.st3{fill:#F80E41;}
	.st4{fill:#FFFFFF;}
	.st5{fill:none;stroke:#FFFFFF;stroke-width:4.5716;stroke-linecap:round;stroke-linejoin:round;stroke-miterlimit:3.8637;}
</style>
<g id="XMLID_2_" class="st0">
	<g id="XMLID_14_" class="st1">
		<g id="XMLID_40_">
			<path id="XMLID_41_" class="st2" d="M62.1,137.1h32.7c18.8-30.1,21.9-83.5-15.6-111.8C45.3,52.1,39.4,94.1,62.1,137.1z"/>
		</g>
		<g id="XMLID_38_">
			<path id="XMLID_39_" class="st2" d="M49.6,104.1c2.9,9.2,5.9,18,9,26.4c-4.4,2.9-6.4,7.9-4.3,16.2
				C34.8,132.9,33.3,118.7,49.6,104.1z"/>
		</g>
		<g id="XMLID_36_">
			<path id="XMLID_37_" class="st2" d="M108.5,104.1c-2.9,9.2-5.9,18-9,26.4c4.4,2.9,6.4,7.9,4.3,16.2
				C123.3,132.9,124.8,118.7,108.5,104.1z"/>
		</g>
		<g id="XMLID_29_">
			<g id="XMLID_33_">
				<circle id="XMLID_35_" class="st3" cx="79.7" cy="72.2" r="17.4"/>
				<path id="XMLID_34_" class="st3" d="M79.7,72.2"/>
			</g>
			<g id="XMLID_30_">
				<circle id="XMLID_32_" class="st2" cx="79.7" cy="72.2" r="17.4"/>
				<path id="XMLID_31_" class="st2" d="M79.7,72.2"/>
			</g>
		</g>
		<g id="XMLID_22_">
			<g id="XMLID_26_">
				<circle id="XMLID_28_" class="st4" cx="79.7" cy="72.2" r="7.3"/>
				<path id="XMLID_27_" class="st4" d="M79.7,72.2"/>
			</g>
			<g id="XMLID_23_">
				<circle id="XMLID_25_" class="st5" cx="79.7" cy="72.2" r="7.3"/>
				<path id="XMLID_24_" class="st5" d="M79.7,72.2"/>
			</g>
		</g>
		<g id="XMLID_20_">
			<line id="XMLID_21_" class="st2" x1="56.2" y1="122.3" x2="102.5" y2="122.3"/>
		</g>
		<g id="XMLID_18_">
			<line id="XMLID_19_" class="st2" x1="64.8" y1="40.1" x2="93" y2="40.1"/>
		</g>
		<g id="XMLID_15_">
			<path id="XMLID_17_" class="st4" d="M77.5,103.3h2.9c6,10.9,6.6,25.8,0,43.4h-2.7C70.9,131.5,70.8,117,77.5,103.3z"/>
			<path id="XMLID_16_" class="st2" d="M77.5,103.3h2.9c6,10.9,6.6,25.8,0,43.4h-2.7C70.9,131.5,70.8,117,77.5,103.3z"/>
		</g>
	</g>
	<g id="XMLID_9_" class="st1">
		<g id="XMLID_12_">
			<path id="XMLID_13_" class="st2" d="M68,139.2l0.1,17.7c-7.3,0-13.9,2.9-18.7,7.7c-3.1-5.2-8.8-8.7-15.3-8.7
				c-9.8,0-17.8,8-17.8,17.8"/>
		</g>
		<g id="XMLID_10_">
			<path id="XMLID_11_" class="st2" d="M90.1,139.2l-0.1,17.7c7.3,0,13.9,2.9,18.7,7.7c3.1-5.2,8.8-8.7,15.3-8.7
				c9.8,0,17.8,8,17.8,17.8"/>
		</g>
	</g>
	<g id="XMLID_7_" class="st1">
		<polygon id="XMLID_8_" class="st3" points="65.3,40.4 92.3,40.4 79.4,25 		"/>
	</g>
	<g id="XMLID_5_" class="st1">
		<polygon id="XMLID_6_" class="st3" points="56.7,122.9 62.2,136.7 73,136.7 72.1,122.6 		"/>
	</g>
	<g id="XMLID_3_" class="st1">
		<polygon id="XMLID_4_" class="st3" points="100.5,122.9 95,136.7 84.2,136.7 85.1,122.6 		"/>
	</g>
</g>
<g id="XMLID_93_">
	<g id="XMLID_116_">
		<path id="XMLID_117_" class="st2" d="M128.9,107c0,27.8-22.8,50.4-50.9,50.4S27.1,134.8,27.1,107c0-27.8,22.8-50.4,50.9-50.4
			S128.9,79.2,128.9,107z"/>
	</g>
	<g id="XMLID_113_">
		<g id="XMLID_114_">
			<path id="XMLID_115_" class="st2" d="M88.2,44c0,1.2-1,2.2-2.2,2.2H70c-1.2,0-2.2-1-2.2-2.2l0-10.3c0-1.2,1-2.2,2.2-2.2l16.1,0
				c1.2,0,2.2,1,2.2,2.2L88.2,44z"/>
		</g>
	</g>
	<g id="XMLID_106_">
		<g id="XMLID_110_">
			<g id="XMLID_111_">
				<path id="XMLID_112_" class="st2" d="M41.9,62.7l-3.7-5.3c-0.4-0.6-0.3-1.5,0.4-1.9l8.3-5.6c0.6-0.4,1.5-0.3,1.9,0.4l3.7,5.3"/>
			</g>
		</g>
		<g id="XMLID_107_">
			<g id="XMLID_108_">
				<path id="XMLID_109_" class="st2" d="M114.1,62.7l3.7-5.3c0.4-0.6,0.3-1.5-0.4-1.9l-8.3-5.6c-0.6-0.4-1.5-0.3-1.9,0.4l-3.7,5.3"
					/>
			</g>
		</g>
	</g>
	<g id="XMLID_104_">
		<line id="XMLID_105_" class="st2" x1="78" y1="54.7" x2="78" y2="46.9"/>
	</g>
	<g id="XMLID_101_">
		<path id="XMLID_103_" class="st3" d="M114.8,112.9l0-10.4l-9.2-0.8c-0.6-3.4-1.9-6.6-3.6-9.5l6.1-7.3l-7.3-7.4l-7,6
			c-2.8-1.9-5.9-3.3-9.2-4.1l-0.8-9.5H73.5l-0.8,9.3c-3.4,0.6-6.5,1.9-9.4,3.6l-7.2-6.2L48.8,84l5.9,7.1c-1.9,2.8-3.3,5.9-4.1,9.3
			l-9.5,0.8l0,10.4l9.2,0.8c0.6,3.4,1.9,6.6,3.6,9.5l-6.1,7.3l7.3,7.4l7-6c2.8,1.9,5.9,3.3,9.2,4.1l0.8,9.5l10.3,0l0.8-9.3
			c3.4-0.6,6.5-1.9,9.4-3.7l7.2,6.2l7.3-7.4l-5.9-7.1c1.9-2.8,3.3-5.9,4.1-9.3L114.8,112.9z"/>
		<path id="XMLID_102_" class="st2" d="M114.8,112.9l0-10.4l-9.2-0.8c-0.6-3.4-1.9-6.6-3.6-9.5l6.1-7.3l-7.3-7.4l-7,6
			c-2.8-1.9-5.9-3.3-9.2-4.1l-0.8-9.5H73.5l-0.8,9.3c-3.4,0.6-6.5,1.9-9.4,3.6l-7.2-6.2L48.8,84l5.9,7.1c-1.9,2.8-3.3,5.9-4.1,9.3
			l-9.5,0.8l0,10.4l9.2,0.8c0.6,3.4,1.9,6.6,3.6,9.5l-6.1,7.3l7.3,7.4l7-6c2.8,1.9,5.9,3.3,9.2,4.1l0.8,9.5l10.3,0l0.8-9.3
			c3.4-0.6,6.5-1.9,9.4-3.7l7.2,6.2l7.3-7.4l-5.9-7.1c1.9-2.8,3.3-5.9,4.1-9.3L114.8,112.9z"/>
	</g>
	<g id="XMLID_99_">
		<polyline id="XMLID_100_" class="st5" points="76.2,97.4 76.2,107.9 81.6,113 		"/>
	</g>
	<g id="XMLID_94_">
		<g id="XMLID_97_">
			<path id="XMLID_98_" class="st5" d="M61,102.6c1.6-8,8.6-14.1,17-14.1c8.8,0,16.1,6.6,17.2,15.2"/>
		</g>
		<g id="XMLID_95_">
			<path id="XMLID_96_" class="st5" d="M95.4,109.8c-1.6,8-8.6,14.1-17,14.1c-8.8,0-16.1-6.6-17.2-15.2"/>
		</g>
	</g>
</g>
</svg>
