<?xml version="1.0" encoding="utf-8"?>
<!-- Generator: Adobe Illustrator 19.0.0, SVG Export Plug-In . SVG Version: 6.00 Build 0)  -->
<svg version="1.1" id="Capa_1" xmlns="http://www.w3.org/2000/svg" xmlns:xlink="http://www.w3.org/1999/xlink" x="0px" y="0px"
	 viewBox="0 0 112 112" style="enable-background:new 0 0 112 112;" xml:space="preserve">
<style type="text/css">
	.st0{fill:#FFFFFF;}
	.st1{fill:#29ABE2}
</style>
<g>
	<circle class="st0" cx="56" cy="56" r="56.1"/>
	<g>
		<path class="st1" d="M89.5,60.5v23.1H76.1V62.1c0-5.4-1.9-9.1-6.8-9.1c-3.7,0-5.9,2.5-6.9,4.9c-0.4,0.9-0.4,2.1-0.4,3.3v22.5H48.6
			c0,0,0.2-36.5,0-40.3H62V49c0,0-0.1,0.1-0.1,0.1H62V49c1.8-2.7,5-6.7,12.1-6.7C82.9,42.4,89.5,48.1,89.5,60.5L89.5,60.5z
			 M34.6,23.9c-4.6,0-7.6,3-7.6,7c0,3.9,2.9,7,7.4,7h0.1c4.7,0,7.6-3.1,7.6-7C42,26.9,39.1,23.9,34.6,23.9L34.6,23.9z M27.8,83.6
			h13.4V43.3H27.8V83.6z"/>
	</g>
</g>
</svg>
