<?xml version="1.0" encoding="utf-8"?>
<!-- Generator: Adobe Illustrator 22.0.1, SVG Export Plug-In . SVG Version: 6.00 Build 0)  -->
<svg version="1.1" id="Capa_1" xmlns="http://www.w3.org/2000/svg" xmlns:xlink="http://www.w3.org/1999/xlink" x="0px" y="0px"
	 viewBox="0 0 112 112" style="enable-background:new 0 0 112 112;" xml:space="preserve">
<style type="text/css">
	.st0{fill:#FFFFFF;}
	.st1{fill:#E61753;}
</style>
<g>
	<circle class="st0" cx="56" cy="56" r="56.1"/>
	<g>
		<path class="st1" d="M68.1,72.6c0-4.9,1.3-8.7,3.1-12.3c1.8-3.5,3.8-7,5.6-10.5c0.8-1.5,1.4-3,1.8-4.6c0.4-1.5-0.4-2.9-1.6-3.5
			c-1.1-0.5-2.6-0.2-3.5,1c-1.1,1.6-2.3,3.2-3.1,5c-2.9,6.2-5.6,12.4-8.4,18.6c-1.2,2.7-2.7,5.2-4.8,7.3c-1.5,1.5-3.3,1.9-5.3,1.3
			c-1.9-0.6-2.9-2-2.6-4c0.4-2.2,1.2-4.3,1.9-6.4c1.6-4.4,3.3-8.7,4.8-13c0.4-1.3,0.5-2.7,0.6-4.1c0.1-1.6-0.8-2.7-2.1-3
			c-1.5-0.5-2.7-0.1-3.6,1.4c-0.7,1.2-1.2,2.5-1.7,3.7c-2.4,6.1-4.8,12.1-7,18.2c-0.8,2.3-1.2,4.7-1.9,7c-0.2,0.8-0.5,1.6-0.8,2.4
			c-1,2.3-2.6,3.7-5.1,4.2c-2.8,0.5-5.4,0.7-8.1-0.5c-3.2-1.4-4.9-3.7-5-7.3c-0.1-2.5,0.1-4.9,0.7-7.2c1.3-4.7,2.4-9.4,3.9-14
			c2-6,4.2-11.9,6.7-17.7c1.5-3.6,4.2-6.3,8.2-6.9c1.8-0.3,3.5,0,5.1,0.7c1.7,0.7,3.4,1.5,5,2.4c2.9,1.6,4.9,1.4,7.4-0.8
			c0.7-0.6,1.3-1.2,2-1.8c2.5-2.1,5.3-2.3,8-0.5c0.8,0.6,1.6,1.2,2.4,1.8c1.3,1,2.5,1.2,4.1,0.6c3.1-1.2,6.3-1.4,9.6-0.5
			c3.1,0.9,4.8,3.1,5,6.4c0.3,3.7-0.7,7.2-2,10.6c-1.1,2.9-2.4,5.6-3.7,8.5c-1.9,4.1-3.8,8.2-4.8,12.7c-0.3,1.6-0.5,3.2-0.4,4.8
			c0.2,2.4,1.5,3.7,3.9,4.2c1.3,0.2,2.7,0.3,4,0.7c1.1,0.4,2.3,1,3.2,1.8c1.5,1.4,1.3,3.4-0.3,4.5c-1.2,0.8-2.7,1.6-4.2,1.8
			c-4.3,0.6-8.4-0.5-11.9-2.9C69.7,80,67.9,76.4,68.1,72.6z"/>
	</g>
</g>
</svg>
