<?xml version="1.0" encoding="utf-8"?>
<!-- Generator: Adobe Illustrator 19.0.0, SVG Export Plug-In . SVG Version: 6.00 Build 0)  -->
<svg version="1.1" id="Capa_1" xmlns="http://www.w3.org/2000/svg" xmlns:xlink="http://www.w3.org/1999/xlink" x="0px" y="0px"
	 viewBox="0 0 143 193" style="enable-background:new 0 0 143 193;" xml:space="preserve">
<style type="text/css">
	.st0{display:none;}
	.st1{display:inline;}
	.st2{fill:none;stroke:#F80E41;stroke-width:4.5716;stroke-linecap:round;stroke-linejoin:round;stroke-miterlimit:3.8637;}
	.st3{fill:#F80E41;}
	.st4{fill:#FFFFFF;}
	.st5{fill:none;stroke:#FFFFFF;stroke-width:4.5716;stroke-linecap:round;stroke-linejoin:round;stroke-miterlimit:3.8637;}
	
		.st6{display:inline;fill:none;stroke:#F80E41;stroke-width:3.9685;stroke-linecap:round;stroke-linejoin:round;stroke-miterlimit:2;}
	
		.st7{display:inline;fill:none;stroke:#F80E41;stroke-width:2.8346;stroke-linecap:round;stroke-linejoin:round;stroke-miterlimit:2;}
	.st8{display:inline;fill:#F80E41;}
	.st9{display:inline;fill:#FFFFFF;}
	.st10{fill:none;stroke:#F80E41;stroke-width:3.9685;stroke-linecap:round;stroke-linejoin:round;stroke-miterlimit:2;}
	.st11{fill:none;stroke:#F80E41;stroke-width:2.8346;stroke-linecap:round;stroke-linejoin:round;stroke-miterlimit:2;}
	.st12{fill:none;stroke:#F80E41;stroke-width:3.9685;stroke-linecap:round;stroke-linejoin:round;stroke-miterlimit:3.8637;}
	.st13{fill:none;stroke:#F80E41;stroke-width:2.2677;stroke-linecap:round;stroke-linejoin:round;stroke-miterlimit:2;}
	.st14{fill:none;stroke:#F80E41;stroke-width:1.9211;stroke-linecap:round;stroke-linejoin:round;stroke-miterlimit:2;}
	.st15{fill:none;stroke:#F80E41;stroke-width:5.8957;stroke-miterlimit:3.8637;}
	.st16{fill:none;stroke:#F80E41;stroke-width:5.8957;stroke-linecap:round;stroke-linejoin:round;stroke-miterlimit:3.8637;}
	.st17{fill:none;stroke:#F80E41;stroke-width:4.4905;stroke-miterlimit:3.8637;}
	.st18{fill:#F51322;}
	.st19{fill:none;stroke:#F51322;stroke-width:3.7067;stroke-linecap:round;stroke-linejoin:round;stroke-miterlimit:3.8637;}
	.st20{fill:none;stroke:#F80E41;stroke-width:5.407;stroke-linecap:round;stroke-linejoin:round;stroke-miterlimit:3.8637;}
	.st21{fill:none;stroke:#F80E41;stroke-width:6.6655;stroke-linecap:round;stroke-linejoin:round;stroke-miterlimit:3.8637;}
	.st22{fill:none;stroke:#F80E41;stroke-width:6.1454;stroke-linecap:round;stroke-linejoin:round;stroke-miterlimit:3.8637;}
	.st23{fill:none;stroke:#F80E41;stroke-width:4.1737;stroke-linecap:round;stroke-linejoin:round;stroke-miterlimit:3.8637;}
	.st24{fill:none;stroke:#F80E41;stroke-width:3.5145;stroke-linecap:round;stroke-linejoin:round;stroke-miterlimit:3.8637;}
</style>
<g id="XMLID_2_" class="st0">
	<g id="XMLID_14_" class="st1">
		<g id="XMLID_40_">
			<path id="XMLID_41_" class="st2" d="M54.1,137.1h32.7c18.8-30.1,21.9-83.5-15.6-111.8C37.3,52.1,31.4,94.1,54.1,137.1z"/>
		</g>
		<g id="XMLID_38_">
			<path id="XMLID_39_" class="st2" d="M41.6,104.1c2.9,9.2,5.9,18,9,26.4c-4.4,2.9-6.4,7.9-4.3,16.2
				C26.8,132.9,25.3,118.7,41.6,104.1z"/>
		</g>
		<g id="XMLID_36_">
			<path id="XMLID_37_" class="st2" d="M100.5,104.1c-2.9,9.2-5.9,18-9,26.4c4.4,2.9,6.4,7.9,4.3,16.2
				C115.3,132.9,116.8,118.7,100.5,104.1z"/>
		</g>
		<g id="XMLID_29_">
			<g id="XMLID_33_">
				<circle id="XMLID_35_" class="st3" cx="71.7" cy="72.2" r="17.4"/>
				<path id="XMLID_34_" class="st3" d="M71.7,72.2"/>
			</g>
			<g id="XMLID_30_">
				<circle id="XMLID_32_" class="st2" cx="71.7" cy="72.2" r="17.4"/>
				<path id="XMLID_31_" class="st2" d="M71.7,72.2"/>
			</g>
		</g>
		<g id="XMLID_22_">
			<g id="XMLID_26_">
				<circle id="XMLID_28_" class="st4" cx="71.7" cy="72.2" r="7.3"/>
				<path id="XMLID_27_" class="st4" d="M71.7,72.2"/>
			</g>
			<g id="XMLID_23_">
				<circle id="XMLID_25_" class="st5" cx="71.7" cy="72.2" r="7.3"/>
				<path id="XMLID_24_" class="st5" d="M71.7,72.2"/>
			</g>
		</g>
		<g id="XMLID_20_">
			<line id="XMLID_21_" class="st2" x1="48.2" y1="122.3" x2="94.5" y2="122.3"/>
		</g>
		<g id="XMLID_18_">
			<line id="XMLID_19_" class="st2" x1="56.8" y1="40.1" x2="85" y2="40.1"/>
		</g>
		<g id="XMLID_15_">
			<path id="XMLID_17_" class="st4" d="M69.5,103.3h2.9c6,10.9,6.6,25.8,0,43.4h-2.7C62.9,131.5,62.8,117,69.5,103.3z"/>
			<path id="XMLID_16_" class="st2" d="M69.5,103.3h2.9c6,10.9,6.6,25.8,0,43.4h-2.7C62.9,131.5,62.8,117,69.5,103.3z"/>
		</g>
	</g>
	<g id="XMLID_9_" class="st1">
		<g id="XMLID_12_">
			<path id="XMLID_13_" class="st2" d="M60,139.2l0.1,17.7c-7.3,0-13.9,2.9-18.7,7.7c-3.1-5.2-8.8-8.7-15.3-8.7
				c-9.8,0-17.8,8-17.8,17.8"/>
		</g>
		<g id="XMLID_10_">
			<path id="XMLID_11_" class="st2" d="M82.1,139.2l-0.1,17.7c7.3,0,13.9,2.9,18.7,7.7c3.1-5.2,8.8-8.7,15.3-8.7
				c9.8,0,17.8,8,17.8,17.8"/>
		</g>
	</g>
	<g id="XMLID_7_" class="st1">
		<polygon id="XMLID_8_" class="st3" points="57.3,40.4 84.3,40.4 71.4,25 		"/>
	</g>
	<g id="XMLID_5_" class="st1">
		<polygon id="XMLID_6_" class="st3" points="48.7,122.9 54.2,136.7 65,136.7 64.1,122.6 		"/>
	</g>
	<g id="XMLID_3_" class="st1">
		<polygon id="XMLID_4_" class="st3" points="92.5,122.9 87,136.7 76.2,136.7 77.1,122.6 		"/>
	</g>
</g>
<g id="XMLID_93_" class="st0">
	<g id="XMLID_116_" class="st1">
		<path id="XMLID_117_" class="st2" d="M120.9,107c0,27.8-22.8,50.4-50.9,50.4S19.1,134.8,19.1,107c0-27.8,22.8-50.4,50.9-50.4
			S120.9,79.2,120.9,107z"/>
	</g>
	<g id="XMLID_113_" class="st1">
		<g id="XMLID_114_">
			<path id="XMLID_115_" class="st2" d="M80.2,44c0,1.2-1,2.2-2.2,2.2H62c-1.2,0-2.2-1-2.2-2.2l0-10.3c0-1.2,1-2.2,2.2-2.2l16.1,0
				c1.2,0,2.2,1,2.2,2.2L80.2,44z"/>
		</g>
	</g>
	<g id="XMLID_106_" class="st1">
		<g id="XMLID_110_">
			<g id="XMLID_111_">
				<path id="XMLID_112_" class="st2" d="M33.9,62.7l-3.7-5.3c-0.4-0.6-0.3-1.5,0.4-1.9l8.3-5.6c0.6-0.4,1.5-0.3,1.9,0.4l3.7,5.3"/>
			</g>
		</g>
		<g id="XMLID_107_">
			<g id="XMLID_108_">
				<path id="XMLID_109_" class="st2" d="M106.1,62.7l3.7-5.3c0.4-0.6,0.3-1.5-0.4-1.9l-8.3-5.6c-0.6-0.4-1.5-0.3-1.9,0.4l-3.7,5.3"
					/>
			</g>
		</g>
	</g>
	<g id="XMLID_104_" class="st1">
		<line id="XMLID_105_" class="st2" x1="70" y1="54.7" x2="70" y2="46.9"/>
	</g>
	<g id="XMLID_101_" class="st1">
		<path id="XMLID_103_" class="st3" d="M106.8,112.9l0-10.4l-9.2-0.8c-0.6-3.4-1.9-6.6-3.6-9.5l6.1-7.3l-7.3-7.4l-7,6
			c-2.8-1.9-5.9-3.3-9.2-4.1l-0.8-9.5H65.5l-0.8,9.3c-3.4,0.6-6.5,1.9-9.4,3.6l-7.2-6.2L40.8,84l5.9,7.1c-1.9,2.8-3.3,5.9-4.1,9.3
			l-9.5,0.8l0,10.4l9.2,0.8c0.6,3.4,1.9,6.6,3.6,9.5l-6.1,7.3l7.3,7.4l7-6c2.8,1.9,5.9,3.3,9.2,4.1l0.8,9.5l10.3,0l0.8-9.3
			c3.4-0.6,6.5-1.9,9.4-3.7l7.2,6.2l7.3-7.4l-5.9-7.1c1.9-2.8,3.3-5.9,4.1-9.3L106.8,112.9z"/>
		<path id="XMLID_102_" class="st2" d="M106.8,112.9l0-10.4l-9.2-0.8c-0.6-3.4-1.9-6.6-3.6-9.5l6.1-7.3l-7.3-7.4l-7,6
			c-2.8-1.9-5.9-3.3-9.2-4.1l-0.8-9.5H65.5l-0.8,9.3c-3.4,0.6-6.5,1.9-9.4,3.6l-7.2-6.2L40.8,84l5.9,7.1c-1.9,2.8-3.3,5.9-4.1,9.3
			l-9.5,0.8l0,10.4l9.2,0.8c0.6,3.4,1.9,6.6,3.6,9.5l-6.1,7.3l7.3,7.4l7-6c2.8,1.9,5.9,3.3,9.2,4.1l0.8,9.5l10.3,0l0.8-9.3
			c3.4-0.6,6.5-1.9,9.4-3.7l7.2,6.2l7.3-7.4l-5.9-7.1c1.9-2.8,3.3-5.9,4.1-9.3L106.8,112.9z"/>
	</g>
	<g id="XMLID_99_" class="st1">
		<polyline id="XMLID_100_" class="st5" points="68.2,97.4 68.2,107.9 73.6,113 		"/>
	</g>
	<g id="XMLID_94_" class="st1">
		<g id="XMLID_97_">
			<path id="XMLID_98_" class="st5" d="M53,102.6c1.6-8,8.6-14.1,17-14.1c8.8,0,16.1,6.6,17.2,15.2"/>
		</g>
		<g id="XMLID_95_">
			<path id="XMLID_96_" class="st5" d="M87.4,109.8c-1.6,8-8.6,14.1-17,14.1c-8.8,0-16.1-6.6-17.2-15.2"/>
		</g>
	</g>
</g>
<g id="XMLID_118_" class="st0">
	<g id="XMLID_146_" class="st1">
		<path id="XMLID_148_" class="st4" d="M124.5,107.1v-18h-9c-1-4.3-2.7-8-4.9-11.7l5.8-6.7L105,59l-6.9,5.6c-3.6-2.3-7.6-4-11.8-5
			l-0.1-8.8H70.5v96.8h15.8l0.1-10.2c4.2-1,8.2-2.7,11.8-5l6.9,6.4l11.4-11.6l-5.8-7.5c2.2-3.7,4-8.2,4.9-12.5L124.5,107.1z"/>
		<path id="XMLID_147_" class="st2" d="M124.5,107.1v-18h-9c-1-4.3-2.7-8-4.9-11.7l5.8-6.7L105,59l-6.9,5.6c-3.6-2.3-7.6-4-11.8-5
			l-0.1-8.8H70.5v96.8h15.8l0.1-10.2c4.2-1,8.2-2.7,11.8-5l6.9,6.4l11.4-11.6l-5.8-7.5c2.2-3.7,4-8.2,4.9-12.5L124.5,107.1z"/>
	</g>
	<g id="XMLID_144_" class="st1">
		<path id="XMLID_145_" class="st3" d="M70.5,147.6h15.8l0.1-10.2c4.2-1,8.2-2.7,11.8-5l6.9,6.4l11.4-11.6l-5.8-7.5
			c2.2-3.7,4-8.2,4.9-12.5l9,0v-18h-9c-1-4.3-2.7-8-4.9-11.7l5.8-6.7L105,59l-6.9,5.6c-3.6-2.3-7.6-4-11.8-5l-0.1-8.8H70.5V147.6z"
			/>
	</g>
	<g id="XMLID_142_" class="st1">
		<line id="XMLID_143_" class="st2" x1="70.5" y1="41.8" x2="70.5" y2="156.6"/>
	</g>
	<g id="XMLID_140_" class="st1">
		<path id="XMLID_141_" class="st5" d="M72.7,109.3h3.9c6.6,0,11.9-5,11.9-11.3c0-6.2-5.3-11.3-11.9-11.3h-3.9"/>
	</g>
	<g id="XMLID_137_" class="st1">
		<path id="XMLID_139_" class="st4" d="M56.9,50.8c-7-0.5-14.8,3.6-16.7,9.5c-8.9-0.3-16,6.9-16,16.4c0,0.7,0.1,1.5,0.1,2.2
			c-6.5,2.4-11.1,9.7-11.1,18.7c0,5.7,1.9,11,4.9,15c-0.5,2.1-0.7,4.3-0.4,6.6c1.2,9.7,9.4,17.2,18.5,16.8
			c2.4,6.2,8.9,11.5,16.6,11.5c12,0,17.6-6.7,17.6-6.7V57.6C70.5,57.6,65.5,51.4,56.9,50.8z"/>
		<path id="XMLID_138_" class="st2" d="M56.9,50.8c-7-0.5-14.8,3.6-16.7,9.5c-8.9-0.3-16,6.9-16,16.4c0,0.7,0.1,1.5,0.1,2.2
			c-6.5,2.4-11.1,9.7-11.1,18.7c0,5.7,1.9,11,4.9,15c-0.5,2.1-0.7,4.3-0.4,6.6c1.2,9.7,9.4,17.2,18.5,16.8
			c2.4,6.2,8.9,11.5,16.6,11.5c12,0,17.6-6.7,17.6-6.7V57.6C70.5,57.6,65.5,51.4,56.9,50.8z"/>
	</g>
	<g id="XMLID_135_" class="st1">
		<path id="XMLID_136_" class="st2" d="M55,79.7c-8.5-0.6-15.4-7.5-15.4-15.4c0-1.4,0.2-2.8,0.6-4.1"/>
	</g>
	<g id="XMLID_133_" class="st1">
		<path id="XMLID_134_" class="st2" d="M35.2,98.3c4.8,3,10.4,1,14.4-3.2c5.1-5.3,13.5-6.9,18.5-1c0.9,1.1,1.7,2.2,2.2,3.5"/>
	</g>
	<g id="XMLID_131_" class="st1">
		<path id="XMLID_132_" class="st2" d="M70.3,71.2c-6.8,1-12.9-3.3-15.2-9.5"/>
	</g>
	<g id="XMLID_129_" class="st1">
		<path id="XMLID_130_" class="st2" d="M70.3,125.3c-6.8-1.8-12.9,1.6-15.2,7.5"/>
	</g>
	<g id="XMLID_127_" class="st1">
		<path id="XMLID_128_" class="st2" d="M39.2,121.5c-3.9-1.2-7.7-4-7.7-7.7"/>
	</g>
	<g id="XMLID_125_" class="st1">
		<path id="XMLID_126_" class="st2" d="M37.4,138.6c-1.4-2.3-2.2-4.9-2.2-7.6c0-7.9,6.6-14.4,15.4-14.4c1.1,0,1.8-0.9,1.8-1.9
			c0-0.9,0,0.4,0,0c0-5.9,5.5-7.9,9-7.7"/>
	</g>
	<g id="XMLID_123_" class="st1">
		<path id="XMLID_124_" class="st2" d="M26.4,90.2c4.3,0.3,7.7,3.7,7.7,7.7c0,4-3.4,7-7.7,6.7"/>
	</g>
	<g id="XMLID_121_" class="st1">
		<path id="XMLID_122_" class="st2" d="M36.7,84c0-4.7,4.1-8.2,9.1-7.9"/>
	</g>
	<g id="XMLID_119_" class="st1">
		<path id="XMLID_120_" class="st5" d="M77.7,71.5c14.7,0,26.6,11.9,26.6,26.6c0,14.7-11.9,26.6-26.6,26.6"/>
	</g>
</g>
<g id="XMLID_149_" class="st0">
	<polyline id="XMLID_215_" class="st6" points="84.5,66.7 84.5,73.6 74.9,83.8 65.3,73.6 65.3,67.4 	"/>
	<polyline id="XMLID_214_" class="st6" points="65.3,125.5 65.3,118.5 74.9,108.4 84.5,118.5 84.5,124.8 	"/>
	<path id="XMLID_213_" class="st6" d="M22,88.4V73.1c0-6.3,4.5-11.5,10-11.5h7.5"/>
	<path id="XMLID_212_" class="st6" d="M41.5,134.8H32c-5.5,0-10-5.1-10-11.5v-15.3"/>
	<polyline id="XMLID_211_" class="st6" points="15.5,88.6 22.5,88.6 32.7,98.2 22.5,107.9 16.3,107.9 	"/>
	<path id="XMLID_210_" class="st6" d="M-16.9,75.7c-0.3-0.8-0.4-1.7-0.4-2.5c0-4.1,3.3-7.4,7.3-7.4c4,0,7.3,3.3,7.3,7.4"/>
	<path id="XMLID_209_" class="st6" d="M-2.7,124c0,4.1-3.3,7.4-7.3,7.4c-4,0-7.3-3.3-7.3-7.4"/>
	<path id="XMLID_208_" class="st6" d="M-17.1,75.4h10.4c13.3,0,24,10.9,24,24.3l0,0c0,13.4-10.8,24.3-24,24.3h-10.4"/>
	<path id="XMLID_207_" class="st7" d="M6.7,106.1c1.9-4.9,1.5-10.2-0.8-14.5"/>
	<path id="XMLID_206_" class="st6" d="M-32.9,108.1c5.8,2.1,11,6.3,14.1,12.3c0.8,1.6,1.4,2.8,2,4.7"/>
	<path id="XMLID_205_" class="st6" d="M-17.2,75.2c0.6,10.5-2.8,23.2-13.4,28.2l-2.6,1.2"/>
	<polyline id="XMLID_204_" class="st7" points="-1.6,96.5 -1.6,101.2 -10.9,101.2 	"/>
	<path id="XMLID_203_" class="st7" d="M-8.4,117c-2.6,0-4.7-2.1-4.7-4.7c0-2.6,2.1-4.7,4.7-4.7"/>
	<path id="XMLID_202_" class="st7" d="M-8.4,94c-2.6,0-4.7-2.1-4.7-4.7c0-2.6,2.1-4.7,4.7-4.7"/>
	<path id="XMLID_201_" class="st6" d="M-39.2,80.6"/>
	<path id="XMLID_200_" class="st6" d="M128.4,88.4V73.1c0-6.3-4.5-11.5-10-11.5h-9.5"/>
	<path id="XMLID_199_" class="st6" d="M107.5,134.8h10.8c5.5,0,10-5.1,10-11.5v-15.3"/>
	<polyline id="XMLID_198_" class="st6" points="134.8,88.6 127.8,88.6 117.6,98.2 127.8,107.9 134.1,107.9 	"/>
	<path id="XMLID_197_" class="st6" d="M167.2,75.7c0.3-0.8,0.4-1.7,0.4-2.5c0-4.1-3.3-7.4-7.3-7.4c-4,0-7.3,3.3-7.3,7.4"/>
	<path id="XMLID_196_" class="st6" d="M153,124c0,4.1,3.3,7.4,7.3,7.4c4,0,7.3-3.3,7.3-7.4"/>
	<path id="XMLID_195_" class="st6" d="M167.4,75.4H157c-13.3,0-24,10.9-24,24.3l0,0c0,13.4,10.8,24.3,24,24.3h10.4"/>
	<path id="XMLID_194_" class="st7" d="M143.6,106.1c-1.9-4.9-1.5-10.2,0.8-14.5"/>
	<path id="XMLID_193_" class="st6" d="M183.3,108.1c-5.8,2.1-11,6.3-14.1,12.3c-0.8,1.6-1.4,2.8-2,4.7"/>
	<path id="XMLID_192_" class="st6" d="M167.5,75.2c-0.6,10.5,2.8,23.2,13.4,28.2l2.6,1.2"/>
	<polyline id="XMLID_191_" class="st7" points="152,96.5 152,101.2 161.2,101.2 	"/>
	<path id="XMLID_190_" class="st7" d="M158.7,117c2.6,0,4.7-2.1,4.7-4.7c0-2.6-2.1-4.7-4.7-4.7"/>
	<path id="XMLID_189_" class="st7" d="M158.7,94c2.6,0,4.7-2.1,4.7-4.7c0-2.6-2.1-4.7-4.7-4.7"/>
	<path id="XMLID_188_" class="st6" d="M189.6,80.6"/>
	<path id="XMLID_187_" class="st6" d="M-18.7,126.4c-14.9,0-26.9-12-26.9-26.9s12-26.9,26.9-26.9"/>
	<path id="XMLID_186_" class="st6" d="M169,72.6c14.9,0,26.8,12,26.8,26.9s-12,26.9-26.9,26.9"/>
	<path id="XMLID_185_" class="st8" d="M84.8,73.1h15.3c6.3,0,11.5,4.5,11.5,10v12.5l0,13.4c0,5.5-5.1,10-11.5,10H84.8l-10.1-12
		l-9.6,12H49.8c-6.3,0-11.5-4.5-11.5-10l0-13.4V83.1c0-5.5,5.1-10,11.5-10H65l10.2,11L84.8,73.1z"/>
	<path id="XMLID_184_" class="st9" d="M90.1,95.4c0.5,0.6,0.5,1.2,0,1.8l-8.1,8.7h-5.1l8.5-9c0.4-0.3,0.4-0.6,0-1l-4.8-5.2
		l-5.2,13.6c-0.3,0.7-0.7,1.2-1.4,1.5h-4.3l-8.2-8.6c-0.5-0.6-0.5-1.2,0-1.8l8.1-8.7h5.1l-8.5,9c-0.4,0.3-0.4,0.6,0,1l4.9,5.2
		l5.4-14.1c0.2-0.6,0.6-1,1.1-1H82h0.1L90.1,95.4z"/>
	<g id="XMLID_167_" class="st1">
		<path id="XMLID_183_" class="st10" d="M97.4,34.2c0.8-0.3,1.7-0.4,2.5-0.4c4.1,0,7.4,3.3,7.4,7.3c0,4-3.3,7.3-7.4,7.3"/>
		<path id="XMLID_182_" class="st10" d="M49.1,48.4c-4.1,0-7.4-3.3-7.4-7.3c0-4,3.3-7.3,7.4-7.3"/>
		<path id="XMLID_181_" class="st10" d="M97.7,34v10.4c0,13.3-10.9,24-24.3,24l0,0c-13.4,0-24.3-10.8-24.3-24V34"/>
		<path id="XMLID_180_" class="st11" d="M67.1,57.8c4.9,1.9,10.2,1.5,14.5-0.8"/>
		<path id="XMLID_179_" class="st11" d="M56.1,45.7c0-2.6,2.1-4.7,4.7-4.7c2.6,0,4.7,2.1,4.7,4.7"/>
		<path id="XMLID_178_" class="st11" d="M79.2,45.7c0-2.6,2.1-4.7,4.7-4.7c2.6,0,4.7,2.1,4.7,4.7"/>
		<path id="XMLID_177_" class="st10" d="M92.6,11.9"/>
		<path id="XMLID_176_" class="st10" d="M45.1,32.3c0-14.9,12-26.9,26.9-26.9c14.9,0,26.9,12,26.9,26.9"/>
		<path id="XMLID_175_" class="st12" d="M44.1,48.8l-5,16.5c5.6,4.1,17,4.1,22,0"/>
		<line id="XMLID_174_" class="st12" x1="46.4" y1="31.7" x2="64.5" y2="31.7"/>
		<line id="XMLID_173_" class="st12" x1="64.7" y1="34.8" x2="64.7" y2="22.8"/>
		<line id="XMLID_172_" class="st12" x1="72.7" y1="36.8" x2="72.7" y2="18.8"/>
		<line id="XMLID_171_" class="st12" x1="81.7" y1="34.8" x2="81.7" y2="25.8"/>
		<path id="XMLID_170_" class="st12" d="M103.5,48.8l5,16.5c-5.6,4.1-17,4.1-22,0"/>
		<line id="XMLID_169_" class="st12" x1="82.4" y1="31.7" x2="98.5" y2="31.7"/>
		<path id="XMLID_168_" class="st13" d="M76.7,49.4c0,1.8-1.4,3.2-3.2,3.2s-3.2-1.4-3.2-3.2"/>
	</g>
	<g id="XMLID_150_" class="st1">
		<path id="XMLID_166_" class="st10" d="M51.2,158.4c-0.8,0.3-1.7,0.4-2.5,0.4c-4.1,0-7.4-3.3-7.4-7.3c0-4,3.3-7.3,7.4-7.3"/>
		<path id="XMLID_165_" class="st10" d="M99.6,144.2c4.1,0,7.4,3.3,7.4,7.3c0,4-3.3,7.3-7.4,7.3"/>
		<path id="XMLID_164_" class="st10" d="M51,158.5v-10.4c0-13.3,10.9-24,24.3-24l0,0c13.4,0,24.3,10.8,24.3,24v10.4"/>
		<path id="XMLID_163_" class="st11" d="M81.6,134.8c-4.9-1.9-10.2-1.5-14.5,0.8"/>
		<path id="XMLID_162_" class="st11" d="M92.5,146.9c0,2.6-2.1,4.7-4.7,4.7s-4.7-2.1-4.7-4.7"/>
		<path id="XMLID_161_" class="st11" d="M69.5,146.9c0,2.6-2.1,4.7-4.7,4.7c-2.6,0-4.7-2.1-4.7-4.7"/>
		<path id="XMLID_160_" class="st10" d="M56.1,180.7"/>
		<path id="XMLID_159_" class="st10" d="M103.5,160.2c0,14.9-12,26.9-26.9,26.9c-14.9,0-26.9-12-26.9-26.9"/>
		<path id="XMLID_158_" class="st12" d="M104.5,143.8l5-16.5c-5.6-4.1-17-4.1-22,0"/>
		<line id="XMLID_157_" class="st12" x1="102.3" y1="160.9" x2="84.1" y2="160.9"/>
		<line id="XMLID_156_" class="st12" x1="84" y1="157.8" x2="84" y2="169.8"/>
		<line id="XMLID_155_" class="st12" x1="76" y1="155.8" x2="76" y2="173.8"/>
		<line id="XMLID_154_" class="st12" x1="67" y1="157.8" x2="67" y2="166.8"/>
		<path id="XMLID_153_" class="st12" d="M45.2,143.8l-5-16.5c5.6-4.1,17-4.1,22,0"/>
		<line id="XMLID_152_" class="st12" x1="66.3" y1="160.9" x2="50.1" y2="160.9"/>
		<path id="XMLID_151_" class="st14" d="M71.9,143.2c0-1.8,1.4-3.2,3.2-3.2c1.8,0,3.2,1.4,3.2,3.2"/>
	</g>
</g>
<g id="XMLID_255_" class="st0">
	<g id="XMLID_266_" class="st1">
		<path id="XMLID_267_" class="st15" d="M63.4,46.5l34.1,21.1l22.8,41.6l-3,26.2c0,6.1-12.2,7.6-12.2,0v-18c0-26.7-36.5-27.2-36.5,0
			c0,18.6-10.4,23.8-15.8,18.5c1.7-7.2,1.7-14.4,0-21.6c-5.3-9.9-5.3-19.5,0-28.7l-6.1-7.7L63.4,46.5z"/>
	</g>
	<g id="XMLID_264_" class="st1">
		<polyline id="XMLID_265_" class="st16" points="43.3,27.1 66.9,39.1 42.7,84.7 17.2,70.6 26.3,53 		"/>
	</g>
	<g id="XMLID_261_" class="st1">
		<circle id="XMLID_263_" class="st4" cx="37.5" cy="68.3" r="3.3"/>
		<circle id="XMLID_262_" class="st17" cx="37.5" cy="68.3" r="3.3"/>
	</g>
	<g id="XMLID_256_" class="st1">
		<g id="XMLID_259_">
			<polygon id="XMLID_260_" class="st18" points="99.4,131.5 109.1,142.7 83.1,173.3 57.5,142.7 67.2,131.5 			"/>
		</g>
		<g id="XMLID_257_">
			<path id="XMLID_258_" class="st4" d="M98.2,145.3c0.5,0.7,0.5,1.3,0,1.8l-8.5,9h-5.3l8.8-9.4c0.4-0.3,0.4-0.7,0-1l-5-5.4
				l-5.4,14.1c-0.3,0.7-0.8,1.3-1.4,1.6h-4.4l-8.6-9c-0.5-0.7-0.5-1.3,0-1.8l8.5-9h5.3l-8.8,9.4c-0.4,0.3-0.4,0.7,0,1l5.1,5.4
				l5.6-14.7c0.2-0.6,0.6-1,1.2-1.1h4.6h0.1L98.2,145.3z"/>
		</g>
	</g>
</g>
<g id="XMLID_294_" class="st0">
	<g id="XMLID_312_" class="st1">
		<g id="XMLID_313_">
			<ellipse id="XMLID_315_" class="st3" cx="71.8" cy="156.4" rx="54.1" ry="10.5"/>
			<path id="XMLID_314_" class="st3" d="M71.8,156.4"/>
		</g>
	</g>
	<g id="XMLID_307_" class="st1">
		<path id="XMLID_311_" class="st4" d="M35.7,83c0-7.6,69.6-7.6,69.6,0v59.5c0,7.6-6.2,13.8-13.8,13.8h-42
			c-7.6,0-13.8-6.2-13.8-13.8V83z"/>
		<g id="XMLID_309_">
			<path id="XMLID_310_" class="st19" d="M35.7,83c0-7.6,69.6-7.6,69.6,0v59.5c0,7.6-6.2,13.8-13.8,13.8h-42
				c-7.6,0-13.8-6.2-13.8-13.8V83z"/>
		</g>
		<path id="XMLID_308_" class="st20" d="M35.7,83c0-7.6,69.6-7.6,69.6,0v59.5c0,7.6-6.2,13.8-13.8,13.8h-42
			c-7.6,0-13.8-6.2-13.8-13.8V83z"/>
	</g>
	<g id="XMLID_305_" class="st1">
		<polygon id="XMLID_306_" class="st18" points="87.3,103 96.6,113.7 71.6,143.1 47.1,113.7 56.3,103 		"/>
	</g>
	<g id="XMLID_303_" class="st1">
		<path id="XMLID_304_" class="st4" d="M86.1,116.2c0.5,0.6,0.5,1.2,0,1.8l-8.1,8.7h-5.1l8.5-9c0.4-0.3,0.4-0.6,0-1l-4.8-5.2
			l-5.2,13.6c-0.3,0.7-0.7,1.2-1.4,1.5h-4.3l-8.2-8.6c-0.5-0.6-0.5-1.2,0-1.8l8.1-8.7h5.1l-8.5,9c-0.4,0.3-0.4,0.6,0,1l4.9,5.2
			l5.4-14.1c0.2-0.6,0.6-1,1.1-1H78H78L86.1,116.2z"/>
	</g>
	<g id="XMLID_301_" class="st1">
		<path id="XMLID_302_" class="st21" d="M108.5,91.1c12.1,0,21.8,9.8,21.8,21.8c0,12.1-9.8,21.8-21.8,21.8"/>
	</g>
	<g id="XMLID_299_" class="st1">
		<path id="XMLID_300_" class="st22" d="M85.8,23.1c0,0-43.7,6.4-17.5,24.3c21.1,14.4,1.7,21.4,1.7,21.4"/>
	</g>
	<g id="XMLID_295_" class="st1">
		<g id="XMLID_296_">
			<ellipse id="XMLID_298_" class="st3" cx="70.7" cy="83.1" rx="36.5" ry="7.5"/>
			<path id="XMLID_297_" class="st3" d="M70.7,83.1"/>
		</g>
	</g>
</g>
<g id="XMLID_316_">
	<g id="XMLID_318_">
		<path id="XMLID_334_" class="st23" d="M85.9,145.5h19.4c8,0,14.5,5.7,14.5,12.7v15.9"/>
		<path id="XMLID_333_" class="st23" d="M27,174.1v-15.9c0-7,6.5-12.7,14.5-12.7h19.4"/>
		<polyline id="XMLID_332_" class="st23" points="85.6,137.3 85.6,146.2 73.4,159.1 61.2,146.2 61.2,138.3 		"/>
		<path id="XMLID_331_" class="st23" d="M45.7,71.4C33.8,70.9,31.9,81.5,31,86.1c-5.1,3-8.4,8.3-8.4,14.4c0,5.4,2.7,10.2,6.8,13.3
			c-0.7,1.6-1.2,3.3-1.2,5.1c0,7.7,7.4,13.9,16.6,13.9c0.8,0,3.3,0,4.1-0.1"/>
		<path id="XMLID_330_" class="st24" d="M101.1,97c0.8-0.3,1.8-0.5,2.7-0.5c4.4,0,7.9,3.5,7.9,7.8c0,4.3-3.5,7.8-7.9,7.8"/>
		<path id="XMLID_329_" class="st24" d="M39.5,112.1c-4.4,0-7.9-3.5-7.9-7.8c0-4.3,3.5-7.8,7.9-7.8"/>
		<path id="XMLID_328_" class="st23" d="M102.3,96v13.2c0,16.8-13.8,30.5-30.8,30.5l0,0c-17,0-30.8-13.6-30.8-30.5V96"/>
		<path id="XMLID_327_" class="st23" d="M63.4,126.1c6.2,2.5,12.9,1.9,18.4-1"/>
		<path id="XMLID_326_" class="st23" d="M60.9,75.9c-2.6,7.4-8,13.9-15.5,17.8c-2,1-3.6,1.8-5.9,2.6"/>
		<path id="XMLID_325_" class="st23" d="M102.5,95.8c-13.3,0.7-29.4-3.5-35.7-17l-1.5-3.3"/>
		<polyline id="XMLID_324_" class="st23" points="75.6,115.6 69.6,115.6 69.6,103.8 		"/>
		<path id="XMLID_323_" class="st23" d="M49.6,107c0-3.3,2.6-5.9,5.9-5.9s5.9,2.7,5.9,5.9"/>
		<path id="XMLID_322_" class="st23" d="M78.8,107c0-3.3,2.6-5.9,5.9-5.9c3.3,0,5.9,2.7,5.9,5.9"/>
		<path id="XMLID_319_" class="st3" d="M121.7,63.2c0-1.7-1-3.1-2.5-3.7V46.2c0-1.7-1.3-3.1-2.9-3.4c-0.2-0.2-0.4-0.3-0.6-0.5
			L71.5,22.3c-0.5-0.2-1.2-0.2-1.7,0L25.6,42.4c-0.7,0.3-1.2,1.1-1.2,1.9s0.5,1.5,1.2,1.9l18.6,8.5h-0.1v23.2
			c0,6,12.7,11.5,26.5,11.5c13.9,0,26.5-5.5,26.5-11.5V54.7h-0.1l18.6-8.5c0.2-0.1,0.3-0.2,0.4-0.3c0.1,0.1,0.1,0.2,0.1,0.3v13.3
			c-1.5,0.6-2.5,2-2.5,3.7c0,1.7,1,3.1,2.5,3.7v10.2c0,0.8,0.7,1.5,1.5,1.5c0.8,0,1.5-0.7,1.5-1.5V66.9
			C120.7,66.3,121.7,64.9,121.7,63.2z M70.6,26.4l35.9,16.4H70.7c-0.8,0-1.5,0.7-1.5,1.5c0,0.8,0.7,1.5,1.5,1.5h35.9L70.6,62.2
			L31.5,44.3L70.6,26.4z"/>
	</g>
	<path id="XMLID_317_" class="st23" d="M97.5,71.4c11.9-0.5,13.8,10.1,14.7,14.7c5.1,3,8.4,8.3,8.4,14.4c0,5.4-2.7,10.2-6.8,13.3
		c0.7,1.6,1.2,3.3,1.2,5.1c0,7.7-7.4,13.9-16.6,13.9c-0.8,0-3.3,0-4.1-0.1"/>
</g>
</svg>
