<?xml version="1.0" standalone="no"?>
<!DOCTYPE svg PUBLIC "-//W3C//DTD SVG 20010904//EN"
 "http://www.w3.org/TR/2001/REC-SVG-20010904/DTD/svg10.dtd">
<svg version="1.0" xmlns="http://www.w3.org/2000/svg"
 width="1204.000000pt" height="376.000000pt" viewBox="0 0 1204.000000 376.000000"
 preserveAspectRatio="xMidYMid meet">
<style type="text/css">
	.st0{fill:rgb(134, 36, 131);}
</style>
<g transform="translate(0.000000,376.000000) scale(0.100000,-0.100000)" stroke="none">
<path class="st0" d="M2496 3559 c-406 -109 -740 -200 -741 -201 -1 -2 -51 -90 -110 -195
l-109 -193 -225 0 -226 0 -545 -545 -545 -545 545 -545 545 -545 225 0 225 0
109 -192 c60 -106 110 -194 112 -196 7 -10 1489 -400 1495 -394 6 6 399 1468
399 1483 0 4 -49 91 -110 194 -60 103 -110 190 -110 195 0 4 50 93 111 197
l111 188 -101 380 c-256 956 -298 1109 -307 1111 -5 1 -342 -87 -748 -197z
m214 -366 c0 -5 -146 -260 -324 -568 l-324 -560 -657 -3 -657 -2 33 37 c18 21
204 212 413 425 l381 387 560 145 c616 159 575 149 575 139z m491 -767 l152
-546 -152 -548 c-83 -301 -155 -556 -160 -567 -10 -25 25 -82 -351 570 -275
477 -310 542 -301 563 11 22 598 1043 629 1091 15 24 15 25 23 4 4 -11 76
-266 160 -567z m-814 -1294 c179 -310 323 -565 321 -567 -2 -3 -258 61 -569
140 l-564 145 -403 407 c-221 225 -407 416 -412 426 -10 16 22 17 645 15 l657
-3 325 -563z"/>
<path class="st0" d="M7910 3460 l0 -300 280 0 280 0 0 300 0 300 -280 0 -280 0 0 -300z"/>
<path class="st0" d="M9295 3424 c-126 -18 -249 -35 -272 -39 l-43 -6 0 -230 0 -229 -130
0 -130 0 0 -230 0 -230 130 0 130 0 0 -527 c1 -574 5 -635 54 -732 57 -111
170 -188 319 -216 153 -29 387 -16 559 32 56 16 59 18 55 42 -3 14 -17 107
-32 206 -15 99 -31 184 -36 189 -4 5 -28 4 -55 -3 -26 -7 -84 -15 -129 -18
-92 -6 -139 9 -155 53 -6 15 -10 222 -10 500 l0 474 200 0 c199 0 200 0 204
23 6 27 26 346 26 400 l0 37 -215 0 -215 0 0 270 c0 210 -3 270 -12 269 -7 -1
-116 -16 -243 -35z"/>
<path class="st0" d="M7025 2944 c-135 -18 -307 -63 -440 -114 -60 -23 -116 -43 -124 -43
-8 -1 -24 25 -40 66 l-26 67 -212 0 -213 0 0 -955 0 -955 285 0 285 0 0 630 0
630 61 30 c86 44 257 99 325 106 73 7 121 -15 146 -66 17 -32 18 -86 18 -682
l0 -648 280 0 280 0 0 748 c0 690 -2 754 -19 837 -52 251 -193 368 -440 364
-36 -1 -111 -7 -166 -15z"/>
<path class="st0" d="M4062 2148 c3 -761 4 -774 25 -851 44 -156 110 -243 222 -295 152
-72 573 -17 874 113 l77 34 14 -32 c7 -18 19 -49 26 -70 l14 -37 213 0 213 0
0 955 0 955 -285 0 -285 0 0 -635 0 -636 -67 -30 c-145 -65 -243 -93 -330 -94
-76 0 -85 2 -108 26 -15 14 -30 43 -35 65 -5 21 -10 324 -10 672 l0 632 -280
0 -281 0 3 -772z"/>
<path class="st0" d="M7910 1965 l0 -955 280 0 280 0 0 955 0 955 -280 0 -280 0 0 -955z"/>
<path class="st0" d="M10125 2878 c8 -24 125 -403 260 -843 136 -440 262 -851 281 -912
l35 -113 90 0 c49 0 89 -4 89 -8 0 -6 -177 -626 -216 -754 -5 -17 12 -18 264
-18 l269 0 418 1332 c230 733 420 1339 423 1346 3 9 -58 12 -285 12 l-289 0
-183 -642 c-101 -354 -189 -656 -195 -672 -11 -26 -28 28 -190 595 -98 343
-185 645 -193 672 l-14 47 -289 0 -289 0 14 -42z"/>
</g>
</svg>
