<?xml version="1.0" standalone="no"?>
<!DOCTYPE svg PUBLIC "-//W3C//DTD SVG 20010904//EN"
 "http://www.w3.org/TR/2001/REC-SVG-20010904/DTD/svg10.dtd">
<svg version="1.0" xmlns="http://www.w3.org/2000/svg"
 width="300.000000pt" height="156.000000pt" viewBox="0 0 300.000000 156.000000"
 preserveAspectRatio="xMidYMid meet">
<style type="text/css">
	.st0{fill:rgb(134, 36, 131);}
</style>
<g transform="translate(0.000000,156.000000) scale(0.050000,-0.050000)" stroke="none">
<path class="st0" d="M4340 2625 c-382 -135 -539 -732 -321 -1216 37 -82 52 -143 46 -186
-20 -134 158 -220 255 -123 86 86 37 223 -93 257 -104 28 -203 359 -178 599
68 672 781 789 903 148 9 -46 28 -73 62 -85 83 -32 92 -25 78 61 -68 425 -403
668 -752 545z"/>
<path class="st0" d="M1046 2491 c-116 -51 -164 -244 -121 -483 l15 -83 -122 -44 c-266
-97 -378 -283 -268 -445 48 -71 293 -216 365 -216 22 0 27 -15 19 -57 -104
-520 172 -709 544 -372 l84 75 74 -72 c343 -333 641 -156 558 331 -13 77 -11
95 12 95 75 0 318 146 368 222 104 158 -9 339 -274 438 l-122 45 16 93 c83
481 -174 642 -539 339 l-95 -79 -97 82 c-158 132 -306 179 -417 131z m188 -92
c31 -12 103 -57 161 -101 l105 -79 -93 -115 c-85 -103 -103 -115 -190 -127
-53 -7 -119 -18 -145 -25 -47 -11 -50 -6 -63 99 -37 295 42 417 225 348z m837
-20 c75 -83 57 -434 -22 -424 -242 31 -238 30 -336 149 l-93 115 106 79 c170
129 278 154 345 81z m-442 -309 l53 -70 -123 0 c-134 0 -133 -5 -42 105 40 48
51 45 112 -35z m154 -217 c19 -23 63 -97 99 -165 l66 -123 -49 -92 c-26 -51
-71 -126 -100 -168 l-51 -75 -176 -6 c-205 -7 -205 -7 -313 178 -97 166 -97
155 7 338 83 146 87 150 174 162 154 20 306 -2 343 -49z m-543 32 c-1 -8 -27
-59 -59 -113 l-58 -99 -31 76 c-42 101 -41 108 23 122 30 7 64 16 75 19 35 12
50 10 50 -5z m765 -14 c64 -14 65 -21 23 -122 l-31 -76 -58 99 c-81 137 -85
131 66 99z m-1006 -116 c14 -47 37 -107 50 -133 22 -41 -31 -245 -82 -320 -13
-17 -226 85 -294 140 -135 112 -90 223 134 330 175 84 162 85 192 -17z m1329
11 c208 -105 249 -216 119 -324 -68 -55 -281 -157 -294 -140 -51 75 -104 279
-82 320 13 26 36 86 50 133 29 97 35 97 207 11z m-1094 -518 c-4 -5 -43 -1
-86 8 -84 18 -91 40 -48 154 l22 58 60 -106 c34 -58 57 -110 52 -114z m804
113 c26 -80 18 -92 -83 -109 -90 -16 -89 -18 -20 107 59 107 68 107 103 2z
m-757 -212 c18 -5 74 -58 125 -118 l94 -108 -85 -69 c-305 -247 -467 -144
-402 253 l13 77 112 -13 c62 -7 126 -17 143 -22z m830 -80 c46 -370 -134 -459
-415 -206 l-75 67 98 108 c80 90 112 111 184 123 194 31 193 32 208 -92z
m-448 36 c-48 -89 -99 -115 -145 -73 -98 88 -90 108 42 108 110 0 120 -3 103
-35z"/>
<path class="st0" d="M1490 1742 c-103 -44 -145 -169 -91 -270 84 -158 341 -91 341 89 0
133 -134 230 -250 181z"/>
<path class="st0" d="M4313 1999 c-41 -32 -53 -60 -53 -117 0 -139 146 -199 249 -103 144
135 659 -52 856 -311 297 -388 8 -823 -452 -681 -93 29 -101 29 -155 -12 -79
-58 -75 -65 58 -102 566 -159 981 281 723 766 -152 284 -479 478 -870 513 -82
7 -149 20 -149 28 0 17 -92 60 -128 60 -15 0 -50 -19 -79 -41z"/>
<path class="st0" d="M3682 1610 c-371 -392 -204 -924 303 -965 336 -27 784 219 933 510
23 47 52 85 63 85 99 0 150 184 73 257 -129 121 -316 -23 -233 -179 72 -134
-384 -495 -673 -534 -495 -66 -727 362 -390 717 73 76 77 86 59 150 -23 86
-12 89 -135 -41z"/>
<path class="st0" d="M2967 1650 c-6 -17 -6 -53 1 -80 12 -46 7 -50 -58 -50 -49 0 -70 -9
-70 -30 0 -21 21 -30 69 -30 68 0 68 -1 57 -72 -10 -63 -7 -71 26 -64 30 5 37
21 32 72 -6 61 -4 64 65 64 50 0 71 9 71 30 0 21 -21 30 -73 30 -71 0 -72 1
-61 68 12 72 -36 122 -59 62z"/>
</g>
</svg>
