<?xml version="1.0" standalone="no"?>
<!DOCTYPE svg PUBLIC "-//W3C//DTD SVG 20010904//EN"
 "http://www.w3.org/TR/2001/REC-SVG-20010904/DTD/svg10.dtd">
<svg version="1.0" xmlns="http://www.w3.org/2000/svg"
 width="650.000000pt" height="230.000000pt" viewBox="0 0 650.000000 230.000000"
 preserveAspectRatio="xMidYMid meet">
 <style type="text/css">
	.st0{fill:rgb(134, 36, 131);}
</style>
<g transform="translate(0.000000,230.000000) scale(0.100000,-0.100000)" stroke="none">
<path class="st0" d="M1075 2284 c-243 -29 -422 -96 -595 -225 -88 -65 -201 -182 -257
-265 -77 -112 -158 -299 -179 -408 -3 -20 -10 -34 -14 -31 -15 9 -20 -41 -20
-211 0 -220 23 -318 119 -512 59 -120 115 -197 215 -297 155 -154 336 -256
554 -311 81 -21 118 -24 262 -24 192 0 284 18 451 87 245 102 467 312 584 551
89 183 115 299 115 512 0 172 -11 247 -56 370 -65 182 -148 315 -279 445 -121
121 -309 244 -385 251 -14 1 -68 13 -120 28 -136 37 -288 52 -395 40z m311
-164 c286 -67 533 -259 661 -515 45 -89 90 -238 102 -340 16 -143 6 -317 -25
-417 -84 -268 -276 -486 -539 -609 -148 -69 -215 -83 -415 -83 -149 0 -186 3
-250 22 -41 11 -76 25 -78 31 -2 5 -10 7 -19 4 -11 -4 -14 -2 -9 5 4 7 0 14
-11 18 -202 64 -445 295 -542 514 -65 147 -98 348 -81 495 41 370 259 674 587
815 208 89 410 109 619 60z"/>
<path class="st0" d="M1045 1836 c-16 -12 -61 -36 -100 -51 -38 -16 -110 -56 -158 -88 -98
-65 -270 -231 -343 -329 -52 -71 -120 -204 -130 -255 -3 -18 -10 -31 -14 -28
-9 6 -20 -45 -20 -96 0 -54 20 -49 50 13 51 106 186 266 269 319 47 30 99 37
119 17 9 -9 12 -89 12 -300 0 -185 4 -288 10 -288 16 0 11 -19 -11 -41 -17
-17 -30 -20 -66 -16 l-45 5 53 -54 c88 -89 295 -182 439 -197 l55 -6 80 87 80
88 76 -63 c42 -35 81 -63 86 -63 31 0 206 158 279 252 59 76 146 219 138 227
-4 3 -9 -1 -12 -9 -3 -8 -25 -35 -49 -61 -55 -59 -151 -111 -196 -107 -17 2
-30 7 -27 11 3 5 -3 13 -12 18 -15 9 -17 40 -18 342 l0 332 31 50 c17 27 64
91 105 141 72 89 94 125 56 91 -10 -10 -50 -28 -88 -41 -114 -39 -208 -93
-311 -182 -29 -25 -43 -32 -43 -21 0 8 -7 18 -16 21 -9 4 -13 2 -8 -5 4 -8 -3
-9 -25 -5 -100 19 -98 19 -73 1 12 -9 31 -34 42 -55 19 -37 20 -60 20 -338 0
-213 3 -301 12 -310 8 -8 5 -16 -13 -31 -34 -29 -102 -61 -142 -68 -29 -4 -38
0 -66 28 -17 19 -34 43 -37 54 -3 11 -4 176 -2 367 l3 347 -21 -20 c-27 -25
-29 -25 -54 17 -34 54 -26 143 19 207 18 26 50 59 72 74 21 14 39 30 39 34 0
14 -13 10 -45 -15z"/>
<path class="st0" d="M2535 1530 c-3 -5 -35 -10 -71 -10 l-64 0 0 -195 c0 -224 4 -241 73
-277 40 -22 53 -23 247 -23 187 0 208 2 239 20 73 43 76 52 79 286 2 117 0
209 -5 209 -5 0 -14 -5 -20 -11 -6 -6 -38 -9 -77 -7 l-66 3 0 -163 c0 -115 3
-161 11 -156 23 14 3 -40 -22 -58 -42 -32 -262 -36 -260 -5 1 4 -8 16 -19 27
-18 18 -20 33 -20 195 0 160 -6 197 -25 165z"/>
<path class="st0" d="M3360 1532 c0 -10 -26 -12 -115 -10 l-115 3 0 -252 0 -253 80 0 80 0
2 185 3 184 144 -184 144 -185 118 0 119 0 0 260 c0 143 -4 260 -8 260 -4 0
-13 -5 -19 -11 -6 -6 -38 -9 -77 -7 l-66 3 0 -172 c0 -109 4 -173 10 -173 6 0
10 -7 10 -15 0 -8 -4 -15 -10 -15 -5 0 -10 6 -10 14 0 7 -57 87 -126 177 -137
179 -164 210 -164 191z"/>
<path class="st0" d="M5154 1530 c-7 -7 -98 -10 -277 -8 l-267 3 0 -252 0 -253 284 0 c157
0 286 3 288 8 7 16 -7 126 -15 115 -6 -10 -58 -13 -200 -13 l-192 0 0 50 0 50
188 0 187 0 0 63 c-1 54 -2 60 -14 45 -12 -16 -33 -18 -188 -18 l-174 0 0 50
1 50 201 0 201 0 -4 53 c-6 68 -6 70 -19 57z"/>
<path class="st0" d="M5660 1530 c0 -6 -34 -10 -82 -10 l-83 0 -114 -213 c-126 -234 -147
-268 -163 -264 -6 1 -13 -4 -15 -10 -4 -10 17 -13 84 -13 l89 0 22 45 22 45
158 0 159 0 24 -45 24 -45 82 0 c46 0 83 4 83 9 0 9 -34 72 -227 429 -40 74
-63 100 -63 72z m-35 -199 c24 -49 49 -92 55 -96 28 -18 1 -25 -95 -25 -62 0
-105 4 -105 10 0 10 92 200 97 200 2 0 23 -40 48 -89z"/>
<path class="st0" d="M6140 1529 c0 -7 -24 -9 -70 -7 l-70 3 0 -252 0 -253 250 0 250 0 0
67 c0 52 -3 64 -12 55 -8 -8 -60 -12 -170 -12 l-158 0 0 205 c0 130 -4 205
-10 205 -5 0 -10 -5 -10 -11z"/>
<path class="st0" d="M3910 1273 l0 -253 80 0 80 0 0 70 0 70 126 0 c69 0 134 -5 145 -10
15 -9 19 -22 19 -70 l0 -60 86 0 87 0 -6 81 c-6 93 -23 123 -65 112 -22 -5
-21 -2 15 33 46 45 59 93 48 176 -5 38 -15 60 -35 80 -25 25 -58 40 -47 21 5
-7 -200 -7 -446 0 l-87 2 0 -252z m431 137 c14 -8 19 -21 19 -51 0 -24 4 -38
10 -34 18 11 10 -22 -10 -40 -16 -14 -44 -18 -155 -23 l-135 -5 0 82 0 81 126
0 c69 0 134 -5 145 -10z"/>
<path class="st0" d="M3666 854 c-5 -14 -27 -15 -161 -12 l-155 3 0 -142 0 -143 170 0 170
0 0 43 c-1 37 -2 40 -14 25 -11 -15 -30 -18 -118 -18 l-105 0 -1 35 -1 35 114
0 115 0 0 35 c0 34 -12 46 -25 25 -3 -6 -49 -10 -103 -10 l-98 0 -2 30 -2 30
120 0 120 0 0 40 c0 40 -13 53 -24 24z"/>
<path class="st0" d="M3860 854 c0 -13 -11 -15 -65 -12 l-65 4 0 -143 0 -143 50 0 49 0 3
101 3 102 78 -102 78 -101 70 0 69 0 0 158 c-1 133 -3 154 -14 139 -10 -13
-23 -16 -50 -13 l-36 5 0 -89 c0 -49 5 -92 10 -95 6 -3 10 -13 10 -21 0 -8 -4
-14 -10 -14 -5 0 -10 7 -10 16 0 14 -155 224 -166 224 -2 0 -4 -7 -4 -16z"/>
<path class="st0" d="M4690 855 c-8 -10 -25 -14 -46 -11 l-34 3 0 -143 0 -144 50 0 50 0 0
155 c0 85 -2 155 -4 155 -2 0 -9 -7 -16 -15z"/>
<path class="st0" d="M5146 855 c-4 -11 -16 -14 -41 -12 l-35 4 0 -93 c0 -52 4 -96 10 -99
12 -7 4 -25 -11 -25 -5 0 -9 7 -9 16 0 15 -133 198 -153 211 -5 3 -13 0 -17
-7 -5 -8 -27 -11 -69 -8 l-61 4 0 -143 0 -143 50 0 50 0 0 106 0 107 81 -107
82 -106 73 0 74 0 0 155 c0 140 -7 183 -24 140z"/>
<path class="st0" d="M5526 854 c-5 -13 -27 -15 -156 -12 l-150 3 0 -142 0 -143 170 0 170
0 0 40 c0 40 -15 54 -26 25 -5 -12 -27 -15 -108 -15 -57 0 -105 2 -108 5 -2 3
-3 18 0 35 l4 30 109 0 109 0 0 35 c0 19 -4 35 -10 35 -5 0 -10 -4 -10 -10 0
-6 -41 -10 -103 -10 l-103 0 1 30 0 30 117 0 118 0 0 40 c0 40 -13 53 -24 24z"/>
<path class="st0" d="M4514 852 c3 -5 -41 -7 -97 -5 -133 6 -176 -4 -204 -45 -18 -27 -22
-29 -26 -15 -3 10 -5 -24 -6 -75 -1 -91 0 -94 28 -123 l29 -29 137 0 137 0 29
29 c26 26 29 36 29 90 0 34 -4 61 -9 61 -5 0 -11 -4 -13 -10 -1 -5 -47 -10
-100 -11 -96 -1 -98 -2 -98 -25 0 -22 4 -24 54 -24 63 0 86 -7 86 -26 0 -22
-35 -34 -104 -34 -68 0 -99 7 -91 20 3 5 1 11 -5 15 -14 9 -13 118 2 133 7 7
43 12 91 12 71 0 79 -2 84 -20 5 -18 12 -21 52 -18 l46 3 -3 35 c-4 34 -26 70
-44 70 -5 0 -7 -4 -4 -8z"/>
</g>
</svg>
