<?xml version="1.0" standalone="no"?>
<!DOCTYPE svg PUBLIC "-//W3C//DTD SVG 20010904//EN"
 "http://www.w3.org/TR/2001/REC-SVG-20010904/DTD/svg10.dtd">
<svg version="1.0" xmlns="http://www.w3.org/2000/svg"
 width="1800.000000pt" height="531.000000pt" viewBox="0 0 1800.000000 531.000000"
 preserveAspectRatio="xMidYMid meet">
<style type="text/css">
	.st0{fill:rgb(134, 36, 131);}
</style>
<g transform="translate(0.000000,531.000000) scale(0.100000,-0.100000)" stroke="none">
<path class="st0" d="M3640 4565 l0 -325 -655 0 -655 0 0 -325 0 -325 -330 0 -330 0 0
-330 0 -330 -280 0 c-258 0 -281 -1 -287 -17 -4 -10 -7 -125 -8 -256 l0 -238
-40 6 c-128 20 -260 77 -349 150 -31 25 -58 45 -61 45 -3 0 -5 -16 -5 -36 0
-107 -109 -178 -372 -239 -43 -10 -78 -22 -78 -27 0 -4 208 -8 463 -8 364 0
464 -3 464 -12 4 -63 55 -260 88 -341 60 -146 175 -349 240 -424 5 -6 21 -26
35 -45 30 -40 200 -212 255 -257 218 -180 494 -316 796 -395 238 -61 382 -76
721 -76 455 0 780 43 1168 155 346 100 634 233 935 431 165 109 263 191 446
374 185 183 324 352 414 499 6 9 20 33 33 54 l24 37 619 0 c340 0 619 4 619 8
0 4 -33 16 -72 25 -262 61 -373 131 -373 233 0 52 -11 55 -51 13 -103 -107
-326 -179 -560 -179 l-122 0 49 91 c27 49 49 92 49 94 0 2 18 41 39 87 22 46
42 95 46 109 6 26 7 26 144 33 337 17 557 113 743 326 33 38 128 205 128 225
0 21 -218 122 -315 147 -118 29 -363 32 -464 4 -67 -18 -80 -14 -81 24 0 63
-75 245 -134 329 -45 64 -210 234 -290 299 l-69 56 -53 -59 c-86 -98 -132
-194 -170 -357 -25 -108 -22 -355 6 -443 5 -16 17 -55 26 -85 9 -30 20 -59 24
-65 12 -16 70 -123 70 -129 0 -24 -237 -108 -394 -140 -115 -23 -150 -26 -357
-26 l-229 0 0 330 0 330 -330 0 -330 0 0 650 0 650 -400 0 -400 0 0 -325z
m680 -65 l0 -280 -280 0 -280 0 0 280 0 280 280 0 280 0 0 -280z m-655 -655
l0 -280 -282 -3 -283 -2 0 285 0 285 283 -2 282 -3 0 -280z m-655 0 l0 -275
-280 0 -280 0 0 275 0 275 280 0 280 0 0 -275z m1310 0 l0 -275 -280 0 -280 0
0 275 0 275 280 0 280 0 0 -275z m2038 65 c76 -90 132 -180 167 -273 26 -71
46 -208 37 -265 -2 -18 -2 -32 2 -32 3 0 35 11 71 25 36 13 100 32 143 41 94
20 293 23 377 5 71 -15 215 -69 215 -80 0 -23 -85 -134 -141 -184 -73 -67
-225 -146 -329 -171 -97 -23 -253 -38 -359 -34 l-94 3 -57 -130 c-64 -148
-153 -330 -179 -364 l-18 -23 -77 21 c-68 19 -163 61 -206 92 -12 9 -23 3 -53
-24 -46 -45 -166 -91 -289 -114 -127 -23 -439 -23 -601 1 -230 33 -399 90
-461 155 l-28 30 -52 -41 c-280 -223 -906 -218 -1158 10 l-39 35 -32 -33
c-146 -150 -792 -229 -1145 -139 -91 23 -188 68 -221 103 l-23 24 -46 -29
c-55 -35 -128 -63 -214 -83 -72 -17 -316 -41 -324 -33 -10 9 -17 289 -10 350
l7 57 2202 3 2202 3 98 22 c199 46 414 136 506 211 l35 29 -49 53 c-59 66
-119 189 -141 289 -25 111 -23 293 4 402 21 86 55 165 94 221 l20 27 51 -42
c28 -24 79 -77 115 -118z m-3348 -720 l0 -280 -280 0 -279 0 -3 281 c-2 154
-2 281 -1 282 1 1 128 1 282 -1 l281 -3 0 -279z m-660 5 l0 -275 -280 0 -280
0 0 275 0 275 280 0 280 0 0 -275z m1310 0 l0 -275 -280 0 -280 0 0 275 0 275
280 0 280 0 0 -275z m660 -5 l0 -280 -280 0 -280 0 0 280 0 280 280 0 280 0 0
-280z m660 5 l0 -275 -280 0 -280 0 0 275 0 275 280 0 280 0 0 -275z m-468
-892 c-552 -2 -1452 -2 -2000 0 -548 1 -97 2 1003 2 1100 0 1549 -1 997 -2z
m-1445 -329 c52 -39 68 -71 68 -134 0 -63 -16 -95 -68 -134 -41 -30 -122 -32
-172 -4 -43 25 -85 93 -85 138 0 45 42 113 85 138 50 28 131 26 172 -4z m-367
-404 c-17 -10 -11 -25 61 -145 70 -118 148 -213 244 -297 81 -70 220 -164 320
-217 l70 -36 -155 -3 c-519 -11 -979 118 -1338 375 -68 49 -292 239 -292 248
0 1 120 2 268 2 298 -1 456 11 655 52 137 28 189 34 167 21z"/>
<path class="st0" d="M3800 4495 l0 -235 25 0 25 0 0 235 0 235 -25 0 -25 0 0 -235z"/>
<path class="st0" d="M3890 4494 l0 -235 23 3 22 3 3 233 2 232 -25 0 -25 0 0 -236z"/>
<path class="st0" d="M3970 4495 l0 -235 25 0 25 0 0 235 0 235 -25 0 -25 0 0 -235z"/>
<path class="st0" d="M4060 4495 l0 -235 25 0 25 0 0 235 0 235 -25 0 -25 0 0 -235z"/>
<path class="st0" d="M4150 4495 c0 -228 1 -235 20 -235 19 0 20 7 20 235 0 228 -1 235
-20 235 -19 0 -20 -7 -20 -235z"/>
<path class="st0" d="M4230 4495 l0 -235 25 0 25 0 0 235 0 235 -25 0 -25 0 0 -235z"/>
<path class="st0" d="M3150 3845 c0 -228 1 -235 20 -235 19 0 20 7 20 235 0 228 -1 235
-20 235 -19 0 -20 -7 -20 -235z"/>
<path class="st0" d="M3230 3845 l0 -235 25 0 25 0 0 235 0 235 -25 0 -25 0 0 -235z"/>
<path class="st0" d="M3320 3845 l0 -235 25 0 25 0 0 235 0 235 -25 0 -25 0 0 -235z"/>
<path class="st0" d="M3400 3845 l0 -235 25 0 25 0 0 235 0 235 -25 0 -25 0 0 -235z"/>
<path class="st0" d="M3490 3845 l0 -235 25 0 25 0 0 235 0 235 -25 0 -25 0 0 -235z"/>
<path class="st0" d="M3580 3855 c0 -124 -1 -228 -2 -232 -2 -5 7 -9 20 -11 l22 -3 0 235
c0 229 -1 236 -20 236 -19 0 -20 -7 -20 -225z"/>
<path class="st0" d="M2938 4083 c-17 -4 -18 -24 -18 -239 l0 -234 25 0 25 0 0 234 c0 129
-3 237 -7 239 -5 2 -16 2 -25 0z"/>
<path class="st0" d="M2490 3845 l0 -235 25 0 25 0 0 235 0 235 -25 0 -25 0 0 -235z"/>
<path class="st0" d="M2570 3845 l0 -236 28 3 27 3 0 230 0 230 -27 3 -28 3 0 -236z"/>
<path class="st0" d="M2660 3845 l0 -235 25 0 25 0 0 235 0 235 -25 0 -25 0 0 -235z"/>
<path class="st0" d="M2740 3845 l0 -235 30 0 30 0 0 235 0 235 -30 0 -30 0 0 -235z"/>
<path class="st0" d="M2830 3845 l0 -235 25 0 25 0 0 235 0 235 -25 0 -25 0 0 -235z"/>
<path class="st0" d="M3903 4082 l-23 -3 0 -235 0 -234 30 0 30 0 0 234 c0 129 -3 236 -7
238 -5 2 -18 2 -30 0z"/>
<path class="st0" d="M3800 3845 l0 -235 25 0 25 0 0 235 0 235 -25 0 -25 0 0 -235z"/>
<path class="st0" d="M3970 3845 l0 -235 25 0 25 0 0 235 0 235 -25 0 -25 0 0 -235z"/>
<path class="st0" d="M4060 3845 l0 -235 25 0 25 0 0 235 0 235 -25 0 -25 0 0 -235z"/>
<path class="st0" d="M4140 3845 l0 -235 30 0 30 0 0 235 0 235 -30 0 -30 0 0 -235z"/>
<path class="st0" d="M4230 3845 l0 -235 25 0 25 0 0 235 0 235 -25 0 -25 0 0 -235z"/>
<path class="st0" d="M2490 3195 l0 -235 25 0 25 0 0 235 0 235 -25 0 -25 0 0 -235z"/>
<path class="st0" d="M2570 3195 l0 -235 25 0 25 0 0 235 0 235 -25 0 -25 0 0 -235z"/>
<path class="st0" d="M2660 3195 l0 -235 25 0 25 0 0 235 0 235 -25 0 -25 0 0 -235z"/>
<path class="st0" d="M2750 3195 c0 -228 1 -235 20 -235 19 0 20 7 20 235 0 228 -1 235
-20 235 -19 0 -20 -7 -20 -235z"/>
<path class="st0" d="M2830 3195 l0 -235 25 0 25 0 0 235 0 235 -25 0 -25 0 0 -235z"/>
<path class="st0" d="M2920 3196 l0 -236 25 0 25 0 -2 233 -3 232 -22 3 -23 3 0 -235z"/>
<path class="st0" d="M1832 3193 c3 -230 4 -238 23 -238 19 0 20 8 23 238 l2 237 -25 0
-25 0 2 -237z"/>
<path class="st0" d="M1912 3193 l3 -238 25 0 25 0 3 238 2 237 -30 0 -30 0 2 -237z"/>
<path class="st0" d="M2002 3193 c3 -237 3 -238 25 -241 32 -5 34 13 31 258 l-3 215 -28 3
-27 3 2 -238z"/>
<path class="st0" d="M2090 3189 l0 -240 23 3 22 3 3 238 2 237 -25 0 -25 0 0 -241z"/>
<path class="st0" d="M2172 3193 l3 -238 25 0 25 0 3 238 2 237 -30 0 -30 0 2 -237z"/>
<path class="st0" d="M2262 3193 c3 -230 4 -238 23 -238 19 0 20 8 23 238 l2 237 -25 0
-25 0 2 -237z"/>
<path class="st0" d="M3142 3193 l3 -238 25 0 25 0 3 238 2 237 -30 0 -30 0 2 -237z"/>
<path d="M3232 3193 c3 -230 4 -238 23 -238 19 0 20 8 23 238 l2 237 -25 0
-25 0 2 -237z"/>
<path class="st0" d="M3312 3193 l3 -238 25 0 25 0 3 238 2 237 -30 0 -30 0 2 -237z"/>
<path class="st0" d="M3402 3193 l3 -238 23 -3 22 -3 0 240 0 241 -25 0 -25 0 2 -237z"/>
<path class="st0" d="M3490 3189 l0 -240 23 3 22 3 3 238 2 237 -25 0 -25 0 0 -241z"/>
<path class="st0" d="M3572 3193 l3 -238 25 0 25 0 0 235 0 235 -28 3 -27 3 2 -238z"/>
<path class="st0" d="M3800 3195 l0 -235 25 0 25 0 0 235 0 235 -25 0 -25 0 0 -235z"/>
<path class="st0" d="M3890 3195 l0 -235 25 0 25 0 0 235 0 235 -25 0 -25 0 0 -235z"/>
<path class="st0" d="M3970 3195 l0 -235 25 0 25 0 0 235 0 235 -25 0 -25 0 0 -235z"/>
<path class="st0" d="M4060 3195 l0 -235 25 0 25 0 0 235 0 235 -25 0 -25 0 0 -235z"/>
<path class="st0" d="M4150 3195 c0 -228 1 -235 20 -235 19 0 20 7 20 235 0 228 -1 235
-20 235 -19 0 -20 -7 -20 -235z"/>
<path class="st0" d="M4230 3195 l0 -235 25 0 25 0 0 235 0 235 -25 0 -25 0 0 -235z"/>
<path class="st0" d="M4460 3189 l0 -240 23 3 22 3 3 238 2 237 -25 0 -25 0 0 -241z"/>
<path class="st0" d="M4542 3193 l3 -238 25 0 25 0 3 238 2 237 -30 0 -30 0 2 -237z"/>
<path class="st0" d="M4630 3189 l0 -240 23 3 22 3 3 238 2 237 -25 0 -25 0 0 -241z"/>
<path class="st0" d="M4712 3193 l3 -238 25 0 25 0 3 238 2 237 -30 0 -30 0 2 -237z"/>
<path class="st0" d="M4802 3193 c3 -230 4 -238 23 -238 19 0 20 8 23 238 l2 237 -25 0
-25 0 2 -237z"/>
<path class="st0" d="M4890 3189 l0 -240 23 3 22 3 3 238 2 237 -25 0 -25 0 0 -241z"/>
<path class="st0" d="M2934 1940 c-37 -15 -64 -59 -64 -105 0 -37 5 -48 35 -74 42 -37 85
-40 131 -12 48 29 74 132 29 115 -41 -16 -94 31 -66 59 6 6 11 15 11 19 0 10
-49 9 -76 -2z"/>
<path class="st0" d="M9360 3842 c-20 -9 -44 -34 -57 -57 -22 -39 -23 -47 -23 -368 l0
-328 -62 44 c-87 62 -196 115 -287 139 -107 28 -352 31 -466 4 -116 -27 -244
-89 -360 -176 -46 -34 -153 -150 -189 -205 -34 -50 -100 -189 -105 -220 -1 -5
-7 -28 -13 -50 -18 -59 -17 -397 1 -455 8 -25 15 -49 17 -55 1 -5 12 -34 23
-64 52 -130 159 -276 269 -367 84 -69 243 -147 347 -171 112 -25 350 -24 460
1 192 44 403 183 530 351 45 58 100 171 119 243 10 35 20 73 24 85 4 12 8 369
9 793 l3 771 -23 34 c-29 43 -80 69 -137 69 -25 0 -61 -8 -80 -18z m-537 -877
c195 -51 366 -206 428 -388 46 -135 32 -311 -33 -434 -177 -333 -551 -432
-860 -227 -230 153 -316 432 -212 690 72 180 216 311 394 358 72 19 211 20
283 1z"/>
<path class="st0" d="M13575 3831 c-17 -10 -40 -31 -50 -47 -20 -28 -20 -55 -23 -1068 -2
-663 1 -1058 7 -1093 16 -85 64 -123 157 -123 80 0 121 26 147 94 15 42 17 75
15 222 l-3 173 25 -22 c41 -36 50 -45 246 -238 215 -211 262 -244 331 -236
103 11 166 112 133 213 -12 35 -176 206 -648 678 -2 3 137 149 310 325 180
183 323 336 333 357 20 43 15 122 -10 160 -35 54 -137 78 -201 48 -23 -11
-137 -116 -279 -255 l-240 -237 0 477 c0 527 1 520 -64 565 -47 33 -139 36
-186 7z"/>
<path class="st0" d="M15474 3296 c-99 -19 -136 -32 -229 -80 -171 -87 -292 -191 -379
-323 -189 -289 -204 -597 -45 -901 112 -212 259 -347 471 -431 140 -56 190
-66 353 -65 175 0 232 12 371 79 118 57 154 96 154 166 0 65 -23 114 -69 145
-48 33 -87 30 -206 -11 -55 -20 -116 -40 -135 -45 -48 -13 -216 -12 -265 1
l-40 11 45 37 c24 20 164 140 311 266 146 127 317 273 380 325 62 52 137 117
166 144 82 76 112 156 80 216 -57 107 -70 123 -163 215 -83 82 -81 80 -163
128 -145 85 -283 126 -451 132 -74 3 -141 0 -186 -9z m321 -331 c90 -31 178
-79 229 -126 l49 -45 -53 -45 c-29 -24 -168 -143 -310 -264 -566 -483 -533
-457 -544 -437 -5 9 -12 19 -16 22 -21 16 -70 125 -85 188 -14 55 -17 97 -12
175 6 114 13 140 64 245 70 141 239 264 418 302 58 13 202 4 260 -15z"/>
<path class="st0" d="M10510 3288 c-255 -36 -536 -236 -656 -468 -15 -30 -29 -57 -29 -60
-1 -3 -7 -18 -14 -35 -60 -145 -60 -505 0 -650 7 -17 13 -32 13 -35 1 -3 24
-46 51 -95 54 -96 172 -230 261 -295 118 -88 249 -134 426 -152 257 -26 476
30 668 172 130 96 256 255 295 370 1 3 7 17 13 32 41 100 56 382 26 526 -45
221 -211 451 -419 578 -170 104 -403 145 -635 112z m354 -341 c172 -64 306
-201 378 -387 18 -48 18 -273 -1 -320 -64 -163 -140 -264 -256 -340 -104 -68
-162 -84 -305 -84 -142 -1 -190 12 -312 86 -228 136 -341 425 -259 659 66 186
184 317 344 380 84 33 117 38 232 35 88 -3 124 -8 179 -29z"/>
<path class="st0" d="M12435 3283 c-147 -31 -309 -123 -435 -246 -62 -60 -130 -139 -130
-152 0 -3 -12 -24 -26 -47 -30 -48 -58 -124 -81 -223 -17 -75 -23 -273 -11
-360 19 -133 97 -318 183 -434 35 -46 152 -154 211 -193 151 -100 273 -133
494 -132 214 0 348 29 451 95 66 42 89 84 89 163 0 57 -3 65 -32 93 -18 17
-43 36 -55 42 -34 17 -107 13 -160 -10 -143 -62 -215 -75 -330 -60 -195 25
-360 128 -454 283 -55 90 -78 177 -78 293 -2 171 52 297 185 436 115 119 283
175 459 151 47 -6 100 -18 118 -26 170 -78 245 -80 315 -10 34 34 34 35 30
111 -2 48 -8 78 -16 81 -7 2 -12 9 -12 15 0 7 -9 17 -19 22 -204 106 -278 125
-481 124 -88 0 -173 -7 -215 -16z"/>
<path class="st0" d="M17486 3279 c-148 -16 -285 -72 -414 -169 -161 -121 -264 -258 -324
-432 l-33 -93 -3 -489 c-2 -360 0 -497 9 -518 49 -119 252 -114 296 7 8 20 11
162 12 425 0 217 3 417 6 445 24 182 113 322 276 428 71 47 153 73 267 86 102
11 162 37 181 78 6 13 11 53 11 89 0 59 -3 67 -32 100 -49 52 -92 60 -252 43z"/>
</g>
</svg>
