<?xml version="1.0" standalone="no"?>
<!DOCTYPE svg PUBLIC "-//W3C//DTD SVG 20010904//EN"
 "http://www.w3.org/TR/2001/REC-SVG-20010904/DTD/svg10.dtd">
<svg version="1.0" xmlns="http://www.w3.org/2000/svg"
 width="300.000000pt" height="290.000000pt" viewBox="0 0 300.000000 290.000000"
 preserveAspectRatio="xMidYMid meet">
 <style type="text/css">
	.st0{fill:rgb(134, 36, 131);}
</style>
<g transform="translate(0.000000,290.000000) scale(0.100000,-0.100000)" stroke="none">
<path class="st0" d="M594 2804 c4 -10 286 -498 490 -849 50 -85 139 -238 324 -558 l80
-138 35 63 c19 35 66 117 104 183 458 788 561 965 667 1150 32 55 66 114 76
130 l19 30 -347 -2 -347 -2 -97 -163 c-53 -90 -97 -169 -97 -175 -2 -30 -21
-7 -76 90 -33 56 -78 135 -101 175 l-42 73 -346 2 c-257 1 -345 -1 -342 -9z
m482 -212 c50 -86 132 -229 184 -317 51 -88 122 -211 157 -272 36 -62 68 -113
71 -113 4 0 12 10 18 23 5 12 55 99 109 192 201 347 274 473 336 579 l64 109
135 -3 c74 -2 147 -3 163 -2 15 1 27 -1 27 -3 0 -2 -22 -42 -49 -87 -27 -46
-58 -99 -69 -118 -127 -222 -216 -374 -222 -380 -3 -3 -11 -16 -17 -30 -16
-32 -67 -122 -102 -180 -16 -25 -61 -103 -102 -175 -41 -71 -78 -138 -84 -147
-5 -9 -31 -54 -57 -100 -91 -159 -143 -241 -152 -241 -9 1 -61 88 -284 473
-52 91 -110 190 -127 220 -140 240 -221 380 -238 410 -10 19 -53 92 -93 162
-41 69 -74 131 -74 137 0 6 -4 11 -8 11 -5 0 -14 11 -20 25 l-11 24 157 3
c153 3 157 2 177 -20 11 -13 61 -94 111 -180z m202 170 c19 -28 118 -195 156
-266 27 -49 49 -64 68 -48 8 6 52 76 98 154 45 79 89 153 97 166 14 22 18 23
154 21 76 -1 139 -3 139 -4 0 -3 -86 -152 -129 -225 -12 -19 -42 -71 -67 -115
-25 -44 -54 -93 -63 -110 -99 -170 -140 -240 -174 -300 -22 -38 -48 -80 -57
-92 -17 -22 -18 -22 -63 55 -25 42 -55 95 -67 117 -24 44 -32 57 -112 195 -30
52 -72 124 -93 160 -21 36 -69 118 -106 182 -38 65 -69 121 -69 125 0 5 61 9
135 10 l135 2 18 -27z"/>
<path class="st0" d="M920 960 c0 -20 112 -374 121 -384 5 -5 11 -7 15 -3 6 6 123 375 124
390 0 4 -6 7 -13 7 -11 0 -108 -295 -107 -327 0 -7 -3 -13 -7 -13 -5 0 -31 75
-59 167 -27 92 -55 168 -62 171 -7 2 -12 -2 -12 -8z"/>
<path class="st0" d="M1794 939 c-3 -6 -2 -15 4 -21 13 -13 32 -2 32 18 0 16 -26 19 -36 3z"/>
<path class="st0" d="M1533 832 c-12 -2 -34 -17 -48 -33 -34 -41 -36 -142 -5 -182 35 -45
131 -57 161 -21 16 20 5 28 -19 15 -51 -27 -129 -1 -133 44 -1 8 -2 20 -3 27
-1 8 21 11 70 9 55 -2 75 2 88 14 49 49 -30 140 -111 127z m72 -47 c14 -13 25
-33 25 -45 0 -18 -6 -20 -76 -20 -65 0 -75 2 -70 16 3 9 6 20 6 25 0 18 41 49
65 49 14 0 37 -11 50 -25z"/>
<path class="st0" d="M1934 826 c-33 -14 -44 -33 -44 -71 0 -28 13 -39 75 -62 53 -20 69
-49 45 -79 -15 -17 -73 -18 -100 -2 -10 7 -22 9 -26 6 -12 -12 7 -27 46 -38
76 -21 141 32 110 90 -6 12 -36 33 -66 46 -63 28 -74 46 -48 75 16 18 26 20
66 15 49 -7 67 7 26 19 -48 14 -54 14 -84 1z"/>
<path class="st0" d="M1200 745 c0 -99 14 -136 61 -160 40 -21 82 -12 114 27 23 27 25 38
25 124 0 77 -3 94 -15 94 -12 0 -15 -17 -15 -93 0 -80 -3 -96 -20 -115 -27
-29 -71 -28 -98 1 -19 20 -22 35 -22 115 0 75 -3 92 -15 92 -12 0 -15 -16 -15
-85z"/>
<path class="st0" d="M1800 668 c0 -90 -4 -168 -8 -174 -4 -6 -15 -13 -24 -17 -26 -9 -22
-29 5 -25 44 6 57 57 57 226 0 128 -2 152 -15 152 -13 0 -15 -25 -15 -162z"/>
<path class="st0" d="M1703 604 c-8 -21 13 -42 28 -27 13 13 5 43 -11 43 -6 0 -13 -7 -17
-16z"/>
</g>
</svg>
