<?xml version="1.0" standalone="no"?>
<!DOCTYPE svg PUBLIC "-//W3C//DTD SVG 20010904//EN"
 "http://www.w3.org/TR/2001/REC-SVG-20010904/DTD/svg10.dtd">
<svg version="1.0" xmlns="http://www.w3.org/2000/svg"
 width="910.000000pt" height="380.000000pt" viewBox="0 0 910.000000 380.000000"
 preserveAspectRatio="xMidYMid meet">
<style type="text/css">
	.st0{fill:rgb(134, 36, 131);}
</style>
<g transform="translate(0.000000,380.000000) scale(0.100000,-0.100000)" stroke="none">
<path class="st0" d="M1784 3775 c-34 -17 -107 -82 -234 -210 l-185 -185 219 -219 219
-219 78 5 c61 5 89 2 125 -12 58 -22 117 -74 152 -134 24 -41 27 -56 27 -143
l0 -98 204 -204 204 -204 78 5 c97 7 152 -11 217 -71 172 -157 92 -438 -138
-487 -140 -30 -284 63 -327 210 -13 47 -14 65 -4 120 l12 65 -200 200 -201
201 0 -525 1 -525 38 -26 c146 -101 163 -306 36 -434 -55 -54 -116 -79 -195
-79 -148 0 -265 105 -286 257 -13 93 47 213 132 263 l44 26 -1 526 0 527 -47
30 c-97 62 -146 181 -122 295 l13 62 -216 216 -217 217 -581 -580 c-415 -415
-587 -593 -605 -627 -31 -60 -33 -163 -5 -223 27 -57 1732 -1758 1783 -1780
48 -19 158 -19 206 0 26 11 292 270 891 868 684 684 858 862 877 902 33 69 33
154 -1 221 -36 71 -1710 1744 -1775 1773 -65 30 -152 28 -216 -4z"/>
<path class="st0" d="M6944 3779 c-70 -27 -137 -99 -158 -170 -20 -66 -21 -191 -2 -253 40
-132 153 -206 317 -206 213 0 329 116 329 330 0 156 -58 256 -176 300 -76 28
-236 28 -310 -1z"/>
<path class="st0" d="M8105 3408 c-40 -318 -158 -473 -396 -524 l-79 -17 0 -164 0 -163
128 0 c86 0 132 -4 140 -12 9 -9 12 -146 12 -554 0 -596 4 -641 59 -760 57
-121 167 -199 325 -229 101 -20 307 -19 421 1 148 26 385 109 385 134 0 12
-90 313 -95 318 -1 1 -40 -8 -86 -22 -110 -31 -220 -41 -293 -26 -73 15 -127
65 -144 133 -8 32 -12 197 -12 531 l0 486 270 0 270 0 0 185 0 185 -270 0
-270 0 0 275 0 275 -179 0 -179 0 -7 -52z"/>
<path class="st0" d="M5207 2855 c-108 -18 -239 -62 -314 -106 -136 -80 -242 -226 -283
-385 -29 -114 -28 -295 3 -402 39 -132 123 -250 229 -317 l44 -28 -131 -131
c-158 -158 -185 -203 -185 -310 1 -104 39 -175 121 -223 l28 -17 -66 -69 c-36
-39 -77 -95 -92 -126 -23 -50 -26 -68 -26 -171 0 -102 3 -121 25 -165 70 -143
232 -228 515 -272 168 -26 551 -23 706 5 415 76 637 277 656 593 14 232 -57
377 -224 461 -136 68 -310 95 -803 124 -162 10 -298 20 -302 24 -4 3 15 43 44
89 l51 83 61 -9 c33 -4 142 -8 241 -8 155 1 192 4 264 23 169 46 308 135 389
250 137 196 145 482 18 671 l-33 49 41 6 c22 3 88 8 146 11 155 10 140 -9 140
171 l0 154 -347 0 c-273 1 -362 4 -413 16 -95 22 -392 27 -503 9z m398 -384
c113 -50 168 -142 169 -281 1 -134 -49 -220 -161 -275 -48 -24 -74 -30 -149
-33 -239 -11 -367 108 -351 326 10 138 81 233 202 272 83 27 219 23 290 -9z
m-169 -1661 c288 -20 334 -26 397 -51 84 -35 69 -168 -25 -223 -83 -47 -140
-58 -341 -63 -205 -6 -308 5 -390 39 -124 53 -142 158 -49 285 28 38 34 41 69
37 21 -2 173 -13 339 -24z"/>
<path class="st0" d="M6665 2858 c-5 -17 -35 -249 -35 -274 0 -16 20 -27 110 -58 67 -24
115 -46 120 -57 6 -11 10 -239 10 -583 l0 -566 -22 -14 c-13 -7 -67 -19 -120
-26 l-98 -13 0 -148 0 -149 520 0 520 0 0 149 0 148 -97 13 c-54 7 -108 17
-120 21 l-23 9 0 780 0 780 -380 0 c-296 0 -382 -3 -385 -12z"/>
</g>
</svg>
