<?xml version="1.0" standalone="no"?>
<!DOCTYPE svg PUBLIC "-//W3C//DTD SVG 20010904//EN"
 "http://www.w3.org/TR/2001/REC-SVG-20010904/DTD/svg10.dtd">
<svg version="1.0" xmlns="http://www.w3.org/2000/svg"
 width="1200.000000pt" height="418.000000pt" viewBox="0 0 1200.000000 418.000000"
 preserveAspectRatio="xMidYMid meet">
 <style type="text/css">
	.st0{fill:rgb(134, 36, 131);}
</style>
<g transform="translate(0.000000,418.000000) scale(0.100000,-0.100000)" stroke="none">
<path class="st0" d="M1410 3684 l0 -497 -37 7 c-228 40 -471 24 -678 -45 -458 -153 -715
-559 -692 -1094 11 -240 59 -405 163 -561 148 -223 388 -356 739 -411 258 -41
783 -12 1138 63 l27 6 0 1514 0 1514 -330 0 -330 0 0 -496z m-47 -1014 l47
-12 0 -528 0 -527 -67 -6 c-261 -25 -433 19 -543 140 -86 94 -130 228 -130
393 0 292 139 490 384 546 71 16 237 13 309 -6z"/>
<path class="st0" d="M2460 3845 l0 -335 330 0 330 0 -2 333 -3 332 -327 3 -328 2 0 -335z"/>
<path class="st0" d="M4250 3214 c-233 -17 -477 -77 -682 -167 l-58 -26 0 -252 c0 -197 3
-250 13 -246 353 151 528 193 774 186 104 -3 126 -7 150 -25 48 -35 63 -78 63
-181 0 -51 -2 -93 -5 -93 -29 0 -224 -25 -317 -41 -479 -80 -727 -244 -793
-521 -19 -83 -19 -283 0 -366 32 -134 100 -234 208 -303 224 -145 562 -160
1445 -63 l62 7 0 751 c0 413 -5 792 -10 842 -30 281 -164 422 -457 478 -82 15
-299 26 -393 20z m290 -1453 l0 -219 -87 -13 c-136 -20 -318 -18 -375 4 -104
40 -145 157 -92 259 29 56 100 102 206 133 52 15 275 52 326 54 l22 1 0 -219z"/>
<path class="st0" d="M6310 3213 c-237 -10 -591 -67 -842 -134 l-38 -10 0 -989 0 -990 330
0 330 0 2 778 3 777 70 19 c50 13 108 19 205 20 122 1 140 -1 188 -23 65 -29
106 -75 129 -143 16 -48 18 -115 21 -740 l3 -688 325 0 325 0 -4 782 c-3 703
-5 790 -20 847 -30 113 -75 189 -157 272 -128 129 -300 196 -563 218 -122 10
-157 11 -307 4z"/>
<path class="st0" d="M10704 3205 c-385 -70 -661 -301 -777 -653 -55 -165 -70 -282 -64
-491 4 -125 11 -201 25 -262 82 -349 299 -594 623 -704 277 -95 659 -79 911
38 322 148 519 438 567 832 56 456 -95 868 -391 1072 -129 89 -232 131 -401
164 -116 23 -380 25 -493 4z m368 -535 c106 -39 186 -142 230 -295 20 -69 23
-103 23 -245 0 -141 -3 -176 -23 -243 -44 -154 -111 -244 -220 -295 -49 -23
-70 -27 -152 -27 -81 0 -103 4 -150 26 -108 50 -173 131 -218 267 -34 104 -43
345 -18 468 30 143 90 247 181 309 97 67 227 80 347 35z"/>
<path class="st0" d="M8825 3204 c-263 -28 -460 -76 -632 -155 -410 -188 -623 -530 -623
-999 0 -460 210 -793 580 -922 210 -73 493 -76 693 -7 49 17 90 29 92 27 8 -8
-15 -197 -31 -248 -51 -171 -153 -268 -334 -317 -93 -26 -409 -26 -530 0 -106
22 -253 70 -347 113 l-73 33 0 -303 0 -303 118 -36 c200 -61 369 -87 585 -87
493 -1 844 151 1050 454 92 136 151 309 179 529 14 112 17 1268 4 1536 l-7
143 77 -3 78 -4 109 228 c60 125 107 230 105 233 -9 8 -208 44 -362 65 -112
15 -221 21 -421 24 -148 1 -288 1 -310 -1z m99 -676 c3 -90 8 -326 11 -525 l6
-362 -38 -10 c-148 -40 -294 -40 -396 -2 -170 65 -256 211 -265 448 -7 198 31
325 130 429 109 115 277 177 494 183 l52 1 6 -162z"/>
<path class="st0" d="M2460 2408 c0 -1133 -14 -1281 -137 -1521 -77 -150 -219 -275 -432
-382 -54 -27 -71 -39 -60 -45 8 -5 145 -70 304 -145 l290 -137 61 31 c388 201
564 482 614 986 7 66 14 479 17 1043 l6 932 -332 0 -331 0 0 -762z"/>
</g>
</svg>
