<?xml version="1.0" standalone="no"?>
<!DOCTYPE svg PUBLIC "-//W3C//DTD SVG 20010904//EN"
 "http://www.w3.org/TR/2001/REC-SVG-20010904/DTD/svg10.dtd">
<svg version="1.0" xmlns="http://www.w3.org/2000/svg"
 width="300.000000pt" height="300.000000pt" viewBox="0 0 300.000000 300.000000"
 preserveAspectRatio="xMidYMid meet">
<style type="text/css">
	.st0{fill:rgb(134, 36, 131);}
</style>
<g transform="translate(0.000000,300.000000) scale(0.050000,-0.050000)"
fill="#000000" stroke="none">
<path class="st0" d="M3710 4881 c-787 -88 -1568 -803 -1664 -1521 -6 -49 -18 -99 -25
-110 -30 -43 -24 -658 8 -838 78 -446 157 -578 382 -643 65 -18 128 -40 139
-48 11 -8 54 -16 95 -18 42 -2 100 -14 130 -25 79 -30 753 -29 886 1 460 105
779 272 987 516 68 80 -15 54 -120 -37 -116 -100 -217 -147 -388 -178 -71 -13
-136 -34 -144 -46 -8 -13 -20 -16 -28 -9 -8 8 -25 6 -38 -5 -13 -10 -40 -22
-62 -25 -21 -3 -47 -11 -58 -18 -20 -11 -118 -21 -253 -25 -40 -1 -69 -9 -64
-17 10 -16 -48 -22 -203 -19 -252 4 -390 14 -390 28 0 9 -16 16 -35 16 -30 -1
-31 -3 -5 -20 38 -24 9 -26 -36 -2 -19 10 -92 23 -164 30 -71 7 -133 22 -137
33 -3 10 -15 14 -26 7 -25 -15 -122 49 -107 71 5 10 -17 24 -52 31 -53 12 -60
21 -49 62 7 27 3 48 -9 48 -11 0 -20 18 -20 40 0 22 -11 40 -23 40 -13 0 -18
6 -11 13 7 7 4 29 -7 50 -15 27 -14 37 5 37 19 1 20 5 3 15 -25 16 -45 104
-55 235 -3 44 -13 97 -22 118 -14 31 -10 36 17 26 24 -9 33 -2 33 28 0 22 -9
35 -20 28 -11 -7 -20 7 -20 30 0 23 9 37 20 30 11 -7 20 1 20 17 0 16 -14 34
-30 40 -17 7 -30 26 -30 45 0 22 11 28 32 20 26 -10 30 -4 20 33 -20 67 -27
215 -11 215 7 0 9 21 4 48 -5 26 3 69 17 95 14 26 27 74 29 107 2 33 6 62 9
65 3 3 7 12 10 20 25 71 34 106 30 117 -2 8 4 19 13 26 9 6 36 53 59 102 24
50 73 128 110 174 103 127 148 194 143 211 -3 8 7 15 21 15 14 0 69 41 121 90
53 50 103 86 113 80 9 -6 22 5 29 25 11 35 115 107 169 117 15 3 33 14 40 24
15 24 164 104 194 104 12 0 48 13 81 29 32 17 95 36 138 42 43 7 95 21 114 32
20 10 69 18 110 18 41 0 125 2 185 5 61 3 146 -2 190 -11 44 -9 98 -20 120
-24 22 -4 40 -9 40 -11 0 -3 107 -21 145 -25 14 -1 23 -15 20 -31 -3 -20 16
-33 55 -38 32 -5 66 -19 74 -32 9 -13 16 -16 16 -7 0 10 14 6 31 -8 17 -14 26
-38 20 -54 -8 -20 -2 -26 17 -18 29 11 113 -60 167 -142 16 -25 41 -45 55 -45
15 0 21 -18 15 -50 -8 -40 -3 -48 23 -38 17 7 33 2 35 -10 1 -12 4 -29 7 -37
2 -8 11 -44 20 -80 8 -35 22 -60 30 -55 8 5 21 -37 29 -94 7 -57 19 -113 26
-124 21 -34 20 -400 -1 -427 -10 -13 -13 -38 -7 -54 6 -16 2 -35 -9 -42 -12
-7 -16 -25 -11 -39 6 -14 5 -32 -2 -38 -7 -7 -15 -28 -17 -47 -3 -19 -9 -65
-15 -101 -6 -40 2 -87 21 -121 38 -65 -57 -229 -162 -280 -71 -34 -74 -30 -46
72 27 102 4 137 -75 117 -102 -26 -166 -200 -100 -273 41 -45 -163 -279 -243
-279 -70 0 -10 390 82 541 23 36 -60 18 -138 -30 l-78 -48 -39 48 c-107 137
-449 -65 -516 -305 -31 -110 -169 -226 -269 -226 -134 0 -231 145 -115 172
231 54 369 246 256 359 -135 134 -406 -21 -485 -277 -54 -176 -244 -318 -326
-244 -59 53 -57 248 2 302 195 175 358 636 260 734 -54 54 -246 -47 -300 -157
-385 -794 -194 -1328 308 -863 39 36 40 36 46 -4 30 -191 326 -220 514 -51
l80 72 27 -70 c59 -153 203 -157 346 -10 113 116 117 117 117 27 0 -71 55
-150 105 -150 79 0 327 211 424 360 43 66 171 139 171 98 0 -10 -27 -66 -60
-125 -74 -131 -77 -217 -11 -284 71 -70 165 -43 320 93 l71 62 0 -102 c0 -56
2 -102 5 -102 3 0 46 13 95 27 l90 27 11 141 c12 149 87 277 212 359 75 49 81
16 24 -150 -92 -265 -89 -341 10 -386 95 -43 373 132 373 234 0 62 -3 61 -86
-22 -149 -149 -180 -95 -94 160 129 381 -19 477 -289 189 -102 -109 -107 -104
-52 53 l39 110 -94 -13 c-119 -17 -224 -190 -224 -369 0 -46 -148 -180 -199
-180 -81 0 -70 106 44 401 27 71 50 147 51 169 1 22 25 105 53 185 371 1037
-354 1967 -1439 1846z m-737 -1692 c20 -52 -51 -277 -129 -408 -65 -110 -126
-167 -96 -89 7 17 18 56 24 85 66 285 169 496 201 412z m483 -483 c10 -67 -45
-154 -124 -196 -87 -47 -100 -36 -73 65 42 159 180 250 197 131z m721 19 c23
-42 3 -163 -45 -275 -92 -216 -275 -240 -241 -32 41 244 218 434 286 307z"/>
<path class="st0" d="M4186 3558 c-58 -33 -70 -33 -120 -7 -78 40 -224 37 -271 -6 -30 -27
-84 -37 -238 -42 -148 -5 -203 -14 -211 -35 -5 -15 -18 -28 -28 -28 -97 0
-118 -285 -27 -361 16 -13 24 -32 18 -41 -11 -18 8 -20 221 -23 61 -1 110 -8
110 -16 0 -8 18 -19 40 -25 22 -6 40 -4 40 4 0 7 17 13 38 13 25 0 34 -10 27
-30 -6 -19 2 -15 22 9 17 22 32 31 33 20 0 -11 9 -6 20 10 17 25 23 25 38 3
10 -16 22 -19 29 -8 6 11 109 21 227 23 266 4 285 7 316 49 13 18 37 33 52 33
23 1 24 3 1 18 -16 10 -19 22 -8 29 11 7 18 51 15 98 -3 47 4 96 15 110 14 17
12 25 -5 25 -13 0 -19 13 -13 30 7 19 0 30 -19 30 -17 0 -26 8 -20 17 42 67
-211 151 -302 101z m-175 -170 c-15 -96 3 -110 59 -48 35 39 90 55 90 26 0 -7
-18 -32 -40 -56 -39 -42 -39 -42 10 -115 31 -45 42 -78 29 -86 -26 -16 -74 23
-90 73 -19 60 -72 48 -65 -15 3 -29 -5 -57 -18 -61 -28 -10 -46 346 -18 374
36 36 56 -6 43 -92z m246 85 c25 -29 11 -53 -30 -53 -15 0 -27 18 -27 40 0 46
25 52 57 13z m123 -51 c0 -21 11 -43 25 -48 20 -7 20 -14 0 -35 -36 -38 -31
-160 7 -188 26 -19 27 -27 5 -45 -70 -58 -112 73 -99 309 3 55 62 61 62 7z
m-891 -42 c28 -10 51 -33 51 -50 0 -36 -42 -40 -76 -6 -18 18 -29 19 -48 0
-18 -18 -6 -30 49 -53 114 -48 125 -122 24 -168 -60 -27 -169 17 -169 68 0 33
51 40 70 9 19 -31 90 -23 90 10 0 17 -17 30 -38 30 -140 0 -146 132 -8 179 2
0 26 -8 55 -19z m272 -1 c22 -11 39 -38 39 -60 0 -48 -16 -49 -63 -6 -48 43
-97 5 -97 -76 0 -70 47 -95 97 -49 47 42 63 40 63 -7 0 -79 -116 -105 -180
-41 -110 110 9 310 141 239z m139 -141 c0 -104 -7 -139 -25 -133 -40 13 -46
275 -6 275 25 0 31 -27 31 -142z m360 0 c0 -104 -7 -139 -25 -133 -40 13 -46
275 -6 275 25 0 31 -27 31 -142z"/>
<path class="st0" d="M510 3533 c-791 -311 -589 -1548 293 -1801 255 -72 631 -73 790 -1
35 16 72 29 82 29 222 0 258 878 52 1253 -79 145 -416 447 -499 447 -6 0 -40
13 -75 28 -35 15 -94 38 -131 50 -89 29 -435 26 -512 -5z m425 -177 c18 -15
25 -13 25 7 0 17 6 19 15 6 8 -11 56 -33 105 -49 50 -15 111 -44 137 -64 26
-19 55 -31 64 -25 10 5 27 -8 39 -30 12 -23 32 -42 46 -42 13 -1 60 -46 104
-100 44 -54 92 -112 106 -129 15 -16 21 -30 14 -30 -7 0 2 -20 19 -44 17 -25
31 -74 31 -110 0 -37 8 -66 17 -66 10 0 13 -23 8 -50 -5 -28 1 -64 15 -80 17
-21 18 -30 2 -30 -12 0 -22 -28 -22 -61 0 -36 8 -56 20 -49 11 7 20 -10 20
-40 0 -30 -9 -47 -20 -40 -11 7 -20 3 -20 -9 0 -11 11 -21 25 -21 18 -1 19 -5
2 -15 -12 -8 -23 -60 -24 -115 -3 -143 -7 -170 -28 -170 -9 0 -12 -8 -6 -18
10 -17 -102 -80 -167 -93 -17 -3 -32 -7 -32 -9 0 -2 -84 -8 -187 -14 -119 -6
-184 -3 -176 9 7 12 -13 17 -50 12 -61 -7 -185 23 -307 74 -33 14 -73 28 -89
31 -15 3 -36 20 -45 37 -10 17 -31 31 -48 31 -16 0 -35 16 -42 35 -7 19 -30
47 -50 61 -20 15 -32 35 -26 44 6 10 -11 33 -39 51 -28 18 -46 40 -41 49 5 9
-4 21 -20 27 -17 7 -30 26 -30 43 0 17 -15 54 -32 81 -18 27 -25 49 -16 49 8
0 -2 13 -23 28 -21 16 -33 35 -25 42 7 8 -3 32 -23 54 -22 23 -32 55 -26 81 7
26 4 36 -10 28 -11 -7 -26 1 -33 19 -17 43 8 131 32 115 12 -7 15 4 8 28 -9
26 -3 44 17 52 19 7 26 25 17 47 -7 20 -5 29 4 21 19 -17 68 43 69 85 1 40 95
140 132 140 16 0 29 14 29 32 0 20 11 28 30 21 19 -7 30 0 30 19 0 17 8 26 17
20 9 -6 32 0 51 14 42 31 372 39 407 10z"/>
</g>
</svg>
