<?xml version="1.0" standalone="no"?>
<!DOCTYPE svg PUBLIC "-//W3C//DTD SVG 20010904//EN"
 "http://www.w3.org/TR/2001/REC-SVG-20010904/DTD/svg10.dtd">
<svg version="1.0" xmlns="http://www.w3.org/2000/svg"
 width="1280.000000pt" height="666.000000pt" viewBox="0 0 1280.000000 666.000000"
 preserveAspectRatio="xMidYMid meet">
<style type="text/css">
	.st0{fill:rgb(134, 36, 131);}
</style>
<g transform="translate(0.000000,666.000000) scale(0.100000,-0.100000)" stroke="none">
<path class="st0" d="M10093 6642 c-101 -41 -182 -126 -248 -260 -55 -113 -46 -69 -241
-1169 -9 -51 -21 -99 -28 -107 -6 -9 -132 -53 -281 -100 -496 -155 -863 -274
-917 -297 -146 -63 -236 -136 -283 -233 -24 -49 -29 -71 -29 -136 0 -68 5 -86
36 -152 43 -90 133 -187 223 -239 33 -19 226 -109 428 -198 321 -143 371 -162
392 -153 22 10 174 107 463 295 72 48 132 91 132 96 0 5 -196 87 -435 182
-239 95 -435 176 -435 180 0 9 60 28 739 243 217 68 400 130 407 138 6 7 58
272 114 588 56 316 103 576 105 578 5 6 44 -56 292 -468 303 -503 275 -459
294 -465 9 -3 209 46 445 109 667 178 705 187 715 184 5 -2 -15 -30 -43 -64
-29 -33 -102 -119 -163 -190 -105 -124 -280 -330 -488 -573 -53 -62 -97 -121
-97 -129 0 -18 -2 -14 283 -554 234 -444 231 -439 214 -433 -10 3 -517 143
-770 212 -34 9 -61 12 -66 7 -9 -10 84 -563 96 -575 9 -8 766 -240 858 -262
94 -24 166 -29 236 -18 189 31 326 178 337 362 7 126 -4 155 -298 709 -292
552 -283 533 -270 553 6 10 73 91 148 180 573 672 738 868 765 907 56 80 76
145 77 241 0 81 -2 90 -32 135 -24 36 -49 57 -92 79 -57 29 -65 30 -185 30
l-126 0 -530 -142 c-291 -78 -573 -153 -625 -167 -52 -14 -102 -24 -111 -21
-9 3 -75 103 -146 223 -192 320 -381 631 -416 682 -48 70 -137 154 -192 180
-66 33 -189 38 -252 12z"/>
<path class="st0" d="M5651 4270 c-93 -33 -163 -98 -214 -195 -25 -50 -31 -75 -35 -146 -7
-140 34 -227 136 -286 38 -22 60 -28 131 -31 58 -2 99 1 126 11 43 15 42 14
58 139 l6 47 -51 -27 c-65 -34 -144 -36 -185 -6 -35 25 -73 98 -73 139 0 60
29 122 80 169 77 72 167 83 244 31 l35 -23 5 36 c21 140 22 131 -18 147 -51
22 -178 19 -245 -5z"/>
<path class="st0" d="M3045 4003 c-81 -153 -161 -302 -178 -330 l-29 -53 89 0 89 0 34 70
34 70 107 0 107 0 6 -27 c3 -16 8 -47 11 -70 l7 -43 79 0 c43 0 79 2 79 4 0 5
-98 541 -111 604 l-10 52 -83 0 -83 0 -148 -277z"/>
<path class="st0" d="M3910 4273 c0 -5 -25 -148 -55 -318 -30 -171 -55 -316 -55 -322 0 -9
21 -13 73 -13 l73 0 20 118 19 117 90 6 c103 6 136 20 188 78 43 48 61 106 55
184 -5 61 -23 95 -72 131 -24 19 -44 21 -182 24 -85 2 -154 0 -154 -5z m245
-157 c20 -31 11 -70 -22 -96 -31 -24 -129 -29 -120 -6 3 7 9 35 12 62 4 27 9
52 12 57 2 4 26 7 53 7 41 0 52 -4 65 -24z"/>
<path class="st0" d="M4786 4198 c-91 -168 -306 -572 -306 -575 0 -2 38 -3 85 -3 l85 0 35
70 35 70 109 0 109 0 7 -57 c11 -86 8 -83 94 -83 l77 0 -60 330 -60 330 -82 0
-83 0 -45 -82z"/>
<path class="st0" d="M6261 3978 c-29 -167 -55 -315 -58 -330 l-5 -28 74 0 75 0 7 43 c4
23 14 81 23 130 l16 87 137 0 137 0 -18 -107 c-10 -60 -21 -118 -24 -130 -5
-22 -3 -23 70 -23 41 0 75 1 75 3 1 1 27 148 59 327 l57 325 -69 3 c-38 2 -72
1 -74 -2 -3 -3 -14 -51 -24 -108 -10 -57 -21 -113 -24 -125 -5 -22 -9 -23
-140 -23 -101 0 -135 3 -135 13 0 6 9 61 20 121 11 60 20 113 20 118 0 4 -33
8 -73 8 l-73 0 -53 -302z"/>
<path class="st0" d="M7285 4258 c-2 -13 -27 -153 -55 -313 -28 -159 -52 -298 -54 -307 -4
-17 10 -18 184 -18 213 0 191 -10 205 93 l7 47 -112 0 -112 0 7 53 c4 28 9 55
12 60 2 4 51 7 107 7 l104 0 7 48 c3 26 9 57 12 70 5 22 4 22 -102 22 -87 0
-106 3 -102 14 3 7 9 34 12 60 l7 46 113 0 c127 0 119 -5 130 83 l7 57 -186 0
c-184 0 -186 0 -191 -22z"/>
<path class="st0" d="M1435 4009 c-239 -35 -466 -154 -630 -331 -80 -87 -183 -240 -218
-324 -80 -191 -73 -423 18 -621 58 -126 84 -158 451 -558 252 -275 323 -359
365 -438 44 -82 47 -175 10 -252 -70 -141 -271 -254 -433 -243 -155 12 -264
104 -358 302 -30 63 -59 115 -64 115 -19 2 -576 -303 -576 -314 0 -20 68 -184
111 -266 102 -197 269 -329 494 -391 111 -30 427 -33 550 -4 393 92 663 304
830 651 67 140 86 218 92 376 8 203 -24 329 -124 484 -60 93 -91 128 -358 410
-248 262 -388 423 -422 487 -60 109 -4 230 140 305 46 25 63 28 147 28 83 0
103 -4 153 -27 72 -34 155 -117 217 -216 24 -40 49 -72 55 -72 9 0 503 364
528 389 12 12 -150 227 -226 298 -114 108 -258 182 -407 209 -83 15 -252 16
-345 3z"/>
<path class="st0" d="M9780 3858 c-299 -191 -509 -330 -520 -343 -6 -7 -40 -233 -76 -502
-160 -1212 -294 -2238 -294 -2255 0 -17 15 -18 299 -18 l298 0 5 38 c3 21 41
306 84 635 43 328 81 597 84 597 3 0 192 -284 420 -630 279 -424 422 -632 435
-635 42 -9 715 -10 715 -1 0 6 -8 19 -19 30 -42 47 -1074 1502 -1075 1516 -1
9 140 164 313 345 172 182 320 340 329 353 14 21 11 47 -33 305 -26 155 -51
285 -55 290 -3 4 -222 -231 -485 -523 -263 -292 -479 -529 -480 -528 -1 2 38
305 86 673 49 369 88 683 87 698 l-3 29 -115 -74z"/>
<path class="st0" d="M3575 3163 c-16 -2 -73 -10 -125 -19 -345 -59 -677 -268 -903 -569
-75 -100 -173 -289 -211 -406 -37 -116 -75 -355 -141 -879 -14 -113 -57 -443
-95 -734 -39 -291 -70 -535 -70 -542 0 -20 528 -21 535 -1 2 6 30 205 61 442
30 237 57 432 59 433 2 2 23 -9 47 -26 62 -42 182 -101 263 -129 105 -36 224
-53 364 -53 381 0 709 138 987 415 299 298 434 605 434 983 0 320 -99 573
-299 772 -124 123 -283 219 -449 270 -128 40 -328 59 -457 43z m235 -573 c157
-52 283 -161 350 -301 50 -105 75 -220 66 -309 -21 -234 -134 -442 -311 -577
-255 -194 -528 -229 -778 -100 -216 111 -337 344 -307 592 42 352 296 628 653
710 87 20 243 13 327 -15z"/>
<path class="st0" d="M6246 3159 c-320 -37 -606 -178 -847 -419 -165 -164 -275 -336 -348
-543 -130 -370 -94 -757 100 -1047 144 -215 360 -368 617 -438 89 -24 114 -26
297 -26 175 -1 211 2 290 22 131 32 266 84 280 107 14 22 101 663 91 672 -3 3
-30 -17 -60 -45 -143 -135 -340 -215 -531 -215 -103 -1 -171 15 -272 65 -144
70 -242 179 -301 336 -23 59 -26 83 -26 197 -1 110 3 142 22 205 87 276 306
488 581 562 92 25 268 29 351 9 255 -62 412 -280 435 -602 8 -106 0 -186 -75
-754 -27 -203 -52 -400 -56 -437 l-7 -68 266 0 267 0 5 22 c4 20 107 800 135
1030 45 371 26 566 -75 775 -206 423 -642 650 -1139 592z"/>
<path class="st0" d="M8425 3099 c-264 -39 -513 -247 -599 -502 -21 -63 -45 -214 -106
-687 -28 -212 -73 -555 -100 -764 -28 -208 -50 -384 -50 -392 0 -12 47 -14
278 -14 l277 0 107 818 c59 449 113 835 120 856 14 44 65 101 106 119 16 7
108 14 222 17 l195 5 31 235 c17 129 33 254 36 278 l6 42 -231 -1 c-128 -1
-259 -5 -292 -10z"/>
<path class="st0" d="M11330 1000 c0 -17 7 -20 45 -20 l45 0 0 -120 0 -120 25 0 25 0 0
120 0 120 45 0 c38 0 45 3 45 20 0 19 -7 20 -115 20 -108 0 -115 -1 -115 -20z"/>
<path class="st0" d="M11610 880 l0 -140 25 0 c24 0 24 1 27 103 l3 102 39 -102 c33 -85
43 -103 60 -103 18 0 28 18 63 108 l42 107 1 -107 0 -108 25 0 25 0 0 141 0
140 -41 -3 -41 -3 -34 -90 c-19 -49 -36 -91 -38 -92 -1 -2 -20 40 -40 92 l-38
95 -39 0 -39 0 0 -140z"/>
</g>
</svg>
