<?xml version="1.0" standalone="no"?>
<!DOCTYPE svg PUBLIC "-//W3C//DTD SVG 20010904//EN"
 "http://www.w3.org/TR/2001/REC-SVG-20010904/DTD/svg10.dtd">
<svg version="1.0" xmlns="http://www.w3.org/2000/svg"
 width="1200.000000pt" height="431.000000pt" viewBox="0 0 1200.000000 431.000000"
 preserveAspectRatio="xMidYMid meet">
 <style type="text/css">
	.st0{fill:rgb(134, 36, 131);}
</style>
<g transform="translate(0.000000,431.000000) scale(0.100000,-0.100000)" stroke="none">
<path class="st0" d="M9599 4306 c-2 -2 -34 -7 -72 -10 -74 -7 -220 -41 -252 -59 -11 -6
-24 -10 -28 -9 -5 1 -6 -2 -3 -6 5 -9 -78 -47 -88 -40 -3 2 -12 -6 -21 -17 -9
-11 -14 -15 -11 -8 4 7 -4 6 -24 -3 -17 -9 -28 -19 -26 -23 7 -11 -69 -52 -79
-43 -5 4 -4 1 0 -7 6 -11 4 -13 -8 -8 -10 4 -16 2 -14 -5 1 -6 -4 -13 -12 -16
-9 -3 -11 0 -6 9 5 7 -8 0 -28 -15 -20 -15 -35 -32 -34 -37 1 -5 -14 -19 -33
-31 l-35 -22 20 23 c19 22 17 22 -20 -3 -22 -15 -40 -31 -40 -36 0 -5 -4 -12
-9 -17 -5 -5 -6 -2 -1 6 5 9 3 12 -6 9 -8 -3 -13 -11 -11 -17 1 -7 -2 -10 -7
-6 -6 3 -18 -1 -28 -10 -10 -8 -20 -14 -23 -13 -9 4 -100 -63 -113 -83 -6 -10
-15 -19 -20 -19 -12 0 -97 -73 -97 -83 0 -12 -33 -54 -41 -53 -10 1 -49 -36
-49 -46 0 -5 6 -6 13 -2 8 5 8 2 -2 -9 -16 -20 -26 -23 -15 -4 5 8 2 8 -9 -2
-18 -14 -24 -37 -8 -26 5 3 0 -12 -12 -34 -12 -22 -25 -37 -29 -35 -12 8 -29
-35 -24 -59 3 -12 3 -17 0 -10 -4 9 -16 5 -43 -13 -21 -13 -48 -27 -61 -29
-48 -9 -118 -74 -146 -135 -38 -81 -48 -155 -26 -182 5 -7 13 -33 17 -58 4
-25 13 -57 20 -71 15 -28 83 -79 106 -79 9 0 42 -9 75 -21 32 -11 65 -22 73
-23 16 -3 54 -123 46 -144 -3 -7 -1 -11 4 -8 4 3 13 -7 20 -22 11 -25 10 -26
-4 -8 -21 27 -19 13 5 -35 13 -24 25 -37 32 -33 7 4 8 3 4 -5 -4 -6 0 -23 9
-37 9 -14 18 -35 20 -46 13 -64 87 -208 108 -208 4 0 5 -5 2 -10 -4 -6 10 -26
30 -45 23 -21 34 -38 30 -46 -5 -7 -4 -10 2 -6 8 5 45 -50 46 -70 0 -4 7 -14
16 -21 9 -8 10 -10 2 -6 -9 4 -5 -8 9 -34 13 -23 27 -39 31 -36 10 6 51 -71
43 -79 -9 -9 29 -66 39 -60 6 3 7 1 4 -4 -4 -6 -4 -26 0 -44 7 -33 7 -33 15
-9 4 16 6 5 3 -30 -3 -35 -1 -46 3 -30 8 24 16 -26 26 -155 2 -16 8 -57 14
-90 21 -109 34 -317 26 -405 -4 -47 -7 -114 -5 -150 2 -67 26 -176 42 -196 15
-18 19 -53 7 -60 -7 -4 -8 -2 -4 4 4 7 5 12 1 12 -3 0 -14 -15 -25 -33 -30
-49 -26 -80 16 -116 32 -29 39 -31 85 -25 40 5 49 4 49 -9 0 -8 17 -30 38 -49
21 -19 41 -42 45 -51 3 -9 16 -21 29 -28 22 -12 22 -11 9 7 -8 10 7 -3 32 -30
39 -40 51 -47 72 -42 15 4 25 2 25 -4 0 -6 -4 -8 -10 -5 -5 3 -16 -11 -25 -31
-19 -45 -19 -57 0 -24 8 14 14 22 15 18 0 -4 -16 -36 -36 -70 -20 -35 -33 -55
-30 -45 9 27 -2 20 -20 -14 -20 -40 -12 -75 29 -117 31 -32 32 -32 127 -32
109 0 115 3 143 78 9 23 17 44 17 47 0 3 0 6 1 8 0 1 2 10 4 21 5 24 18 37 41
40 10 2 20 9 22 16 3 7 0 10 -7 6 -17 -11 -13 0 6 15 15 12 16 12 8 -1 -6 -12
-5 -13 6 -3 7 8 44 14 88 15 l76 2 -85 6 -85 6 93 2 c51 1 91 -2 88 -7 -3 -4
7 -6 22 -3 21 4 23 6 9 11 -11 4 12 12 60 20 43 8 111 25 152 38 40 13 75 22
77 20 2 -2 -28 -14 -66 -27 -38 -13 -68 -25 -66 -28 4 -3 65 16 174 54 23 9
40 19 37 24 -7 12 80 41 100 34 13 -5 16 -4 11 4 -5 8 -2 10 8 6 8 -3 29 4 45
15 16 12 33 21 38 21 4 0 25 11 44 25 20 13 39 21 43 18 3 -4 6 -1 6 5 0 7 3
11 8 10 17 -5 84 26 110 51 33 33 98 79 88 63 -11 -18 1 -15 34 10 16 11 27
24 25 28 -2 4 15 22 38 41 23 18 36 26 28 16 -7 -9 -9 -17 -4 -17 13 0 45 35
38 41 -2 3 17 25 42 50 26 24 39 33 28 19 -17 -22 -15 -21 12 4 18 16 30 33
27 37 -2 4 9 1 26 -7 16 -9 34 -13 39 -10 5 4 13 1 17 -5 4 -8 3 -9 -4 -5 -7
4 -12 5 -12 3 0 -3 20 -17 44 -31 52 -30 85 -33 129 -9 30 16 36 18 55 22 4 1
1 5 -6 10 -11 7 -11 11 1 22 40 41 23 139 -33 194 -22 22 -40 34 -40 28 0 -7
-19 -5 -55 5 -30 8 -55 19 -55 24 0 5 9 21 19 36 11 15 25 59 31 97 7 39 19
95 26 125 8 30 13 75 12 100 l-1 45 -7 -50 -7 -50 -1 58 c-1 34 2 56 7 52 6
-3 8 10 6 32 -4 28 -3 31 3 14 4 -14 6 54 4 150 -2 96 -3 185 -4 199 0 14 3
70 6 125 3 55 1 131 -5 170 -6 38 -14 108 -19 155 -4 47 -11 99 -14 115 -6 29
-6 29 4 5 6 -14 15 -59 19 -100 7 -62 9 -67 10 -27 0 26 -8 88 -19 139 -17 73
-18 93 -8 100 9 5 8 8 -6 8 -11 0 -17 3 -13 6 8 9 48 -6 42 -16 -8 -12 24 -21
52 -14 19 5 22 9 11 16 -9 7 -7 8 10 5 12 -3 20 -1 17 3 -3 5 4 14 15 20 11 6
20 18 20 26 0 8 4 13 9 10 9 -6 41 68 41 95 0 8 -7 24 -15 35 -15 19 -15 19
-9 -1 6 -20 5 -20 -7 0 -45 71 -85 87 -188 79 l-76 -6 -19 53 c-10 29 -30 69
-45 88 -14 19 -26 41 -26 50 0 9 -5 16 -12 16 -6 0 -15 4 -20 9 -5 5 -3 6 5 2
6 -4 12 -3 12 3 0 5 -9 13 -21 16 -11 4 -26 21 -34 38 -16 38 -41 105 -49 130
-3 11 -11 15 -17 11 -8 -4 -9 -3 -5 5 9 14 -3 53 -14 46 -10 -6 -32 64 -34
107 0 14 -4 24 -7 22 -4 -2 -9 3 -13 11 -3 8 -1 15 4 15 12 0 -34 95 -51 106
-8 5 -9 3 -4 -6 5 -9 4 -11 -3 -6 -7 4 -12 13 -12 20 0 7 -11 35 -25 62 -14
27 -19 40 -10 30 8 -11 15 -15 15 -9 0 6 -9 21 -21 34 -11 13 -17 18 -13 10 4
-9 3 -12 -4 -7 -6 4 -9 12 -6 19 2 7 -14 30 -36 52 -28 28 -37 42 -29 51 5 6
11 25 13 40 6 44 18 85 32 113 24 45 14 146 -17 179 -10 11 -15 23 -12 26 4 3
1 6 -6 6 -6 0 -32 21 -56 46 -28 29 -51 44 -60 40 -8 -3 -15 -1 -15 5 0 6 -7
9 -15 6 -8 -4 -17 -1 -21 5 -10 15 -145 3 -185 -17 -43 -22 -80 -55 -73 -66 3
-5 0 -9 -6 -9 -18 0 -70 30 -70 40 0 11 -105 51 -145 55 -16 2 -50 8 -75 14
-43 10 -202 15 -211 7z m291 -66 c122 -41 217 -100 254 -158 13 -20 45 -53 71
-72 55 -41 153 -124 210 -177 97 -91 194 -253 250 -418 54 -160 90 -242 156
-356 36 -64 89 -174 118 -245 45 -110 55 -148 72 -269 11 -77 24 -160 29 -185
60 -280 58 -718 -4 -1060 -56 -303 -99 -391 -266 -545 -87 -80 -289 -208 -390
-246 -29 -11 -69 -28 -89 -39 -21 -10 -126 -48 -234 -85 -175 -59 -212 -67
-325 -78 l-127 -13 -42 31 c-92 66 -116 77 -155 72 -21 -3 -50 -14 -64 -25
l-27 -19 -80 54 c-115 79 -186 164 -247 297 -41 89 -67 217 -51 258 5 13 7
138 5 279 -3 248 -4 259 -33 365 -16 60 -35 129 -42 154 -21 80 -80 234 -104
275 -13 22 -55 80 -94 129 -78 99 -177 274 -215 379 -13 37 -36 87 -49 110
-74 126 -102 365 -78 662 12 138 36 205 106 293 60 74 106 115 210 185 39 26
90 63 115 82 104 81 361 245 435 277 116 51 286 101 375 112 84 10 246 -3 310
-24z m531 -46 c110 -58 132 -128 85 -274 -13 -41 -28 -76 -34 -78 -10 -3 -30
15 -90 79 -32 35 -32 36 -16 68 47 93 -50 176 -148 125 -29 -15 -31 -15 -59
12 -16 15 -29 31 -29 35 0 14 70 61 103 70 53 13 115 1 188 -37z m-2122 -837
c7 -9 8 -38 4 -81 -5 -57 -9 -69 -28 -76 -23 -9 -75 -65 -75 -80 0 -15 61 -80
75 -80 8 0 18 -21 24 -50 14 -64 14 -120 1 -120 -5 0 -10 5 -10 10 0 6 -8 10
-18 10 -11 0 -47 14 -81 31 -51 26 -66 39 -86 79 -28 56 -32 104 -13 180 24
93 56 133 133 170 48 23 59 24 74 7z m2914 -578 c27 -14 37 -28 37 -52 0 -15
-3 -15 -20 -5 -26 17 -35 4 -16 -24 35 -49 6 -96 -53 -85 -98 20 -121 29 -121
48 0 11 -6 32 -14 47 -27 52 -24 66 14 73 60 11 150 10 173 -2z m-120 -1750
c44 -12 105 -62 118 -97 12 -31 3 -41 -15 -17 -19 26 -31 1 -17 -34 16 -38 0
-78 -35 -87 -24 -6 -32 -1 -59 30 -20 24 -44 40 -65 45 -49 10 -57 30 -33 82
11 24 24 54 27 67 8 25 23 27 79 11z m-1589 -695 c24 -14 47 -32 50 -40 4 -10
-7 -35 -27 -63 -19 -25 -46 -71 -62 -101 -32 -63 -50 -79 -86 -80 -22 0 -30 7
-42 39 -27 67 -59 62 -37 -5 7 -19 10 -37 7 -40 -10 -11 -36 10 -48 37 -11 28
-8 38 51 154 35 68 70 126 79 128 26 8 69 -3 115 -29z"/>
<path class="st0" d="M9650 4228 c-84 -12 -160 -48 -233 -111 -69 -59 -101 -117 -116 -212
-20 -125 30 -255 132 -344 99 -87 157 -107 277 -97 69 6 93 14 164 52 95 50
142 100 183 191 23 53 25 67 21 155 -4 79 -10 107 -32 152 -51 104 -138 172
-268 210 -31 9 -58 15 -60 15 -1 -1 -32 -6 -68 -11z m159 -54 c92 -26 167 -86
190 -153 15 -45 15 -45 -16 -22 -54 40 -142 22 -180 -35 -18 -28 -19 -93 -3
-124 27 -51 121 -65 177 -27 36 24 48 61 41 121 -5 47 6 37 22 -19 27 -98 -9
-232 -84 -308 -50 -51 -71 -63 -145 -87 -73 -23 -143 -25 -221 -6 -87 22 -102
30 -161 92 -71 76 -104 168 -97 272 4 59 11 76 51 138 54 83 54 83 137 126
117 60 167 65 289 32z"/>
<path class="st0" d="M8739 3777 c-83 -35 -124 -63 -167 -115 -69 -83 -84 -123 -86 -231
-2 -163 43 -247 174 -328 78 -49 90 -53 147 -53 83 0 196 25 260 57 56 28 129
112 158 180 20 46 21 175 3 236 -24 82 -95 176 -162 214 -85 49 -112 57 -191
60 -66 3 -90 0 -136 -20z m307 -59 c71 -43 103 -88 139 -191 62 -178 3 -321
-171 -411 -69 -36 -197 -46 -271 -22 -73 24 -162 100 -195 165 -25 49 -28 65
-28 157 0 57 4 114 10 129 11 30 87 113 143 157 61 49 100 59 213 55 97 -2
104 -4 160 -39z"/>
<path class="st0" d="M8998 3599 c-93 -49 -87 -182 9 -208 54 -15 71 -14 110 10 84 52 68
183 -25 209 -48 13 -50 13 -94 -11z"/>
<path class="st0" d="M9365 3421 c-84 -40 -107 -68 -113 -138 -4 -45 -11 -65 -33 -91 -23
-26 -29 -42 -29 -80 0 -101 88 -161 173 -117 32 16 31 17 62 -85 19 -63 49
-100 81 -100 21 0 64 15 129 45 17 7 44 19 62 25 73 27 79 73 23 181 -16 32
-30 63 -30 68 0 6 15 17 34 26 18 9 42 31 52 50 16 30 16 38 4 75 -13 40 -68
99 -93 101 -7 0 -37 1 -68 2 -50 2 -60 6 -87 35 -39 41 -84 42 -167 3z m336
-92 c20 -10 39 -25 43 -34 27 -71 -25 -128 -125 -139 -94 -9 -145 -31 -207
-86 -57 -51 -111 -71 -141 -53 -9 5 -24 26 -34 46 -22 44 -16 85 19 127 20 23
35 30 82 35 79 9 110 22 164 73 70 65 117 73 199 31z m-44 -231 c32 -35 60
-84 73 -129 13 -45 -14 -65 -81 -60 -20 1 -95 145 -94 181 0 17 7 26 25 31 41
11 45 10 77 -23z m-118 -55 c12 -27 30 -59 39 -73 9 -14 17 -41 19 -61 3 -48
-22 -71 -73 -67 -33 3 -40 8 -59 47 -12 24 -28 68 -35 98 -12 55 -12 56 16 79
45 37 67 31 93 -23z"/>
<path class="st0" d="M10196 2362 c-2 -4 -8 -40 -12 -80 -8 -82 -35 -134 -71 -137 -26 -2
-24 0 -43 -40 -24 -49 -24 -51 -3 -32 11 9 26 17 35 17 8 0 25 11 37 24 34 36
121 44 168 15 19 -12 50 -25 70 -30 31 -7 42 -4 80 22 32 22 43 37 44 57 2 48
-2 66 -27 109 -19 34 -34 45 -79 62 -56 21 -188 30 -199 13z m168 -32 c56 -12
88 -40 104 -89 18 -53 8 -64 -24 -26 -24 29 -25 29 -17 5 13 -44 9 -82 -10
-94 -14 -9 -28 -5 -70 16 -32 18 -71 29 -102 30 -47 3 -50 5 -47 28 2 14 6 48
9 77 3 37 10 53 21 56 30 8 96 7 136 -3z"/>
<path class="st0" d="M7543 2426 c-5 -9 -17 -18 -26 -20 -9 -1 -19 -5 -23 -8 -3 -4 -12 -4
-20 -1 -8 3 -14 0 -14 -5 0 -6 -8 -11 -17 -11 -55 0 -154 -15 -160 -24 -4 -6
-1 -7 8 -2 8 5 11 4 6 -1 -15 -16 -81 -31 -108 -23 -31 8 -121 2 -129 -9 -3
-5 -14 -9 -25 -9 -73 -4 -125 -18 -125 -34 0 -16 -39 -10 -48 8 -9 15 -11 14
-21 -4 -7 -15 -23 -22 -51 -25 -22 -2 -40 0 -40 4 0 13 -28 9 -33 -4 -3 -7 -6
-8 -6 -3 -1 13 -61 11 -88 -3 -16 -9 -22 -9 -25 0 -3 7 -10 8 -17 4 -11 -7
-11 -10 0 -18 10 -7 2 -8 -24 -4 -20 2 -35 1 -32 -4 3 -5 -7 -6 -22 -2 -27 7
-58 7 -148 1 l-40 -2 29 -12 c27 -11 26 -12 -30 -17 -33 -3 -80 -5 -107 -4
-33 1 -46 -3 -43 -11 3 -7 -1 -10 -10 -6 -7 3 -14 8 -14 12 0 4 -17 7 -37 8
-44 1 -68 -13 -53 -32 7 -8 5 -12 -5 -12 -8 0 -12 4 -9 9 3 4 -8 8 -25 8 -16
0 -33 -4 -36 -10 -3 -5 -11 -10 -16 -10 -6 0 -7 5 -4 10 4 6 -3 8 -17 6 -34
-7 -35 -7 -13 -16 16 -7 17 -9 3 -9 -9 -1 -20 4 -23 9 -8 13 -45 13 -45 0 0
-5 6 -7 14 -4 8 3 16 1 19 -3 3 -5 -2 -9 -11 -10 -10 -1 -22 -2 -27 -3 -28 -6
-75 1 -70 10 3 6 2 10 -4 10 -5 0 -11 -5 -13 -12 -3 -7 -14 -9 -34 -3 -26 7
-27 8 -9 15 18 8 17 9 -7 9 -15 1 -30 -4 -33 -10 -5 -6 -12 -4 -21 8 -14 17
-15 17 -9 -3 5 -19 2 -21 -21 -16 -20 4 -25 2 -19 -8 5 -9 4 -11 -4 -6 -6 4
-18 2 -26 -4 -12 -10 -15 -9 -16 6 -1 11 -1 23 0 27 1 5 -4 7 -11 4 -7 -2 -12
-10 -10 -16 1 -7 -2 -10 -7 -7 -5 4 -13 2 -16 -4 -5 -8 -11 -7 -21 1 -9 7 -14
8 -14 1 0 -7 -13 -9 -35 -5 -23 4 -35 2 -35 -6 0 -6 -8 -11 -17 -11 -15 0 -16
2 -3 10 10 6 6 9 -18 8 -17 -1 -30 -4 -27 -7 2 -4 -5 -7 -16 -7 -10 0 -19 4
-19 8 0 4 -7 8 -16 8 -8 0 -13 -4 -10 -9 3 -5 0 -9 -7 -8 -6 0 -21 -1 -32 -2
l-20 -2 20 -9 c15 -6 10 -8 -20 -7 -27 1 -39 -2 -38 -10 2 -7 -4 -10 -13 -6
-13 5 -13 7 -2 14 10 7 8 9 -6 9 -10 0 -25 -8 -33 -17 -8 -10 -12 -12 -8 -5 3
6 1 12 -4 12 -6 0 -11 -7 -11 -15 0 -8 -6 -15 -14 -15 -8 0 -17 -6 -19 -12 -4
-10 -6 -10 -6 0 -1 7 -14 12 -32 12 -24 0 -29 -3 -21 -12 8 -10 3 -13 -21 -15
-26 -1 -28 0 -12 7 14 6 15 9 4 9 -8 1 -20 -4 -25 -9 -6 -6 -38 -11 -72 -13
-38 -1 -62 -6 -62 -13 0 -16 -34 -28 -38 -15 -2 6 -8 11 -13 11 -6 0 -7 -4 -4
-10 3 -5 -2 -10 -12 -11 -10 0 -49 -1 -86 -1 -40 -1 -71 -6 -73 -12 -2 -6 -20
-11 -39 -10 -19 1 -35 -1 -35 -5 0 -3 -37 -6 -82 -6 -64 0 -82 -3 -85 -15 -4
-13 -3 -13 7 0 9 12 11 12 8 1 -5 -19 -25 -22 -136 -22 -63 -1 -95 -5 -98 -13
-2 -6 -18 -13 -34 -14 -16 -1 -41 -7 -55 -12 -16 -6 -24 -6 -20 -1 3 6 -6 9
-20 8 -14 -1 -29 -8 -34 -15 -5 -8 -11 -13 -15 -13 -3 1 -7 0 -8 0 -2 -1 -19
-3 -38 -4 -19 -2 -57 -6 -85 -10 -27 -3 -62 -6 -78 -5 -15 0 -27 -5 -27 -11 0
-6 -9 -9 -20 -6 -11 3 -22 2 -24 -2 -2 -3 -30 -6 -62 -5 -48 1 -55 -1 -41 -11
16 -11 14 -13 -10 -15 -16 -1 -45 -2 -65 -2 -21 -1 -38 -5 -38 -9 0 -5 -7 -5
-17 -2 -10 4 -14 2 -10 -4 3 -5 1 -10 -6 -10 -7 0 -21 -4 -32 -8 -19 -7 -19
-7 -2 6 16 13 15 14 -14 16 -21 2 -29 -2 -26 -10 3 -9 -9 -12 -44 -11 -27 1
-46 -2 -43 -7 3 -5 -5 -9 -18 -9 -18 0 -20 2 -8 10 12 8 11 10 -7 10 -13 0
-23 -6 -23 -12 0 -9 -3 -10 -8 -2 -4 6 -16 10 -27 8 -11 -2 -30 -5 -42 -6 -27
-3 -31 -18 -5 -19 23 -1 -88 -28 -113 -28 -16 1 -15 2 5 9 17 5 19 8 7 9 -9 1
-26 -5 -37 -11 -14 -9 -23 -10 -28 -3 -9 13 -35 19 -28 6 7 -11 -32 -26 -41
-17 -4 3 2 6 13 6 16 0 17 2 4 10 -22 14 -28 12 -35 -10 -3 -11 -14 -20 -23
-20 -15 0 -15 2 -2 10 10 7 1 8 -30 3 -25 -3 -52 -7 -62 -7 -11 0 -16 -8 -15
-26 2 -21 -3 -25 -28 -27 l-30 -2 30 9 c28 8 28 8 -10 7 -44 -2 -47 -9 -45
-91 1 -49 7 -59 31 -53 11 3 19 1 19 -4 0 -5 -5 -9 -11 -9 -5 0 -7 -5 -4 -10
4 -6 18 -10 33 -9 15 0 55 0 90 -1 38 -1 69 3 78 11 8 7 26 14 39 15 14 1 35
10 47 18 15 11 45 16 89 16 37 0 86 7 109 15 49 17 61 19 40 5 -25 -16 51 -12
83 4 15 8 27 11 27 5 0 -5 7 -9 16 -9 9 0 12 5 8 12 -4 7 -3 8 4 4 16 -10 212
5 212 16 0 5 -4 7 -9 3 -5 -3 -12 -2 -15 3 -6 10 9 12 88 13 37 1 54 4 45 9
-9 6 -3 8 19 8 17 -1 29 -5 26 -9 -3 -5 2 -7 10 -4 53 17 51 16 36 25 -12 8
-10 10 8 10 13 0 21 -4 18 -9 -4 -5 3 -7 15 -4 16 4 17 8 7 14 -9 6 -9 9 -1 9
6 0 15 -4 18 -10 3 -5 20 -8 38 -6 18 2 59 4 93 5 45 1 66 6 82 21 21 20 48
18 65 -4 6 -7 7 -5 4 5 -4 13 7 15 77 15 86 0 140 9 132 23 -3 4 7 13 22 20
26 11 26 11 7 -5 -19 -16 -18 -16 20 -10 22 3 50 6 63 6 13 0 20 4 17 10 -3 6
-1 10 4 10 6 0 11 -5 11 -12 0 -6 6 -4 13 6 7 9 22 18 35 19 12 0 22 5 22 9 0
4 8 8 18 8 14 0 15 -2 2 -10 -9 -6 -11 -10 -3 -10 7 0 10 -7 7 -15 -4 -9 0
-15 9 -15 17 0 30 50 13 50 -6 0 -3 5 7 11 10 6 25 8 33 5 9 -3 25 -1 36 5 16
8 19 8 13 -1 -6 -10 5 -11 51 -5 32 4 74 8 92 8 36 0 45 16 10 18 -13 1 -3 5
22 10 25 5 59 7 77 4 17 -3 34 -1 38 5 3 5 12 10 18 10 7 0 6 -4 -3 -10 -11
-7 -9 -8 10 -6 14 2 32 6 40 9 8 3 24 8 35 12 11 4 38 8 60 9 32 1 40 5 39 19
-1 9 2 17 7 17 5 0 9 -5 9 -11 0 -5 4 -8 9 -5 5 4 12 0 14 -6 3 -8 6 -6 6 5 1
17 15 21 59 17 13 -1 30 4 39 12 14 11 15 11 9 0 -7 -12 -4 -12 15 -1 28 15
49 19 104 22 24 1 43 8 47 17 5 12 7 12 7 -3 1 -14 5 -16 19 -9 9 5 23 7 30 5
6 -3 12 0 12 6 0 6 8 11 18 11 10 0 22 3 26 7 4 4 78 8 164 8 86 0 163 4 170
9 12 7 39 11 120 18 12 1 22 5 22 8 0 3 16 4 36 2 26 -3 35 -1 30 7 -8 12 14
14 91 11 23 -1 51 3 62 9 13 8 20 8 23 0 2 -6 14 -1 27 10 13 12 29 21 35 21
6 0 4 -5 -4 -10 -13 -9 -13 -10 0 -10 9 0 21 5 27 11 12 12 137 14 155 3 7 -4
8 -3 4 4 -5 8 6 10 40 6 38 -4 46 -3 41 9 -4 10 0 13 11 10 9 -2 40 2 69 9 29
8 86 13 127 12 42 -1 76 2 76 6 0 5 9 6 19 3 12 -3 26 3 37 16 12 14 29 21 49
20 l30 -2 -35 -7 -35 -7 40 -3 c47 -4 52 -3 85 5 19 5 21 4 10 -4 -12 -8 -10
-10 10 -8 30 2 72 22 68 32 -2 4 11 9 27 11 17 2 46 5 65 8 26 4 30 3 15 -4
-13 -6 2 -7 45 -3 36 3 73 10 82 14 9 5 23 6 31 4 7 -3 20 1 27 10 14 17 80
21 80 5 0 -5 11 -10 24 -10 14 0 28 5 31 10 3 6 12 10 18 10 7 0 6 -4 -3 -10
-13 -8 -13 -10 1 -10 9 0 19 7 23 15 3 8 11 15 18 15 9 0 9 -3 -2 -10 -12 -7
-10 -9 8 -7 15 1 20 6 17 18 -4 13 2 15 32 14 42 -2 77 11 68 26 -4 5 -2 9 3
9 12 0 21 69 10 76 -5 3 -6 9 -3 14 8 14 -30 30 -69 30 -20 0 -36 5 -36 11 0
6 -24 10 -62 9 -95 -2 -98 -2 -107 22 -7 20 -9 20 -18 4z"/>
<path class="st0" d="M7456 1833 c-4 -4 -41 -8 -84 -10 -91 -2 -123 -9 -119 -25 1 -7 -19
-12 -58 -13 -33 -1 -70 -6 -82 -10 -15 -5 -23 -3 -23 4 0 6 -8 11 -17 11 -15
0 -16 -2 -3 -10 10 -6 5 -9 -20 -8 -19 0 -53 -4 -76 -10 -23 -7 -55 -13 -73
-14 -32 -2 -41 -12 -18 -21 6 -3 -4 -7 -23 -8 -19 -1 -42 -3 -50 -4 -8 0 -20
-3 -25 -7 -6 -3 -35 -8 -65 -12 -37 -3 -47 -2 -30 3 29 10 6 14 -28 4 -18 -4
-20 -8 -10 -14 10 -7 10 -9 -2 -9 -9 0 -21 5 -28 12 -9 9 -16 7 -31 -6 -11
-10 -21 -13 -25 -7 -4 5 -19 8 -34 6 -15 -2 -30 -4 -34 -4 -5 -1 -7 -6 -5 -12
3 -16 -61 -32 -105 -26 -38 5 -54 -7 -20 -16 9 -3 1 -5 -18 -6 -26 0 -31 2
-20 9 11 8 9 9 -10 6 -14 -3 -38 -5 -55 -6 -30 -2 -30 -2 -5 -10 22 -7 20 -8
-15 -9 -29 0 -36 2 -25 9 8 5 10 10 4 10 -16 0 -35 -25 -27 -34 4 -4 -1 -4
-11 0 -14 5 -15 9 -4 15 17 11 -26 12 -73 2 l-34 -8 45 -6 c44 -6 43 -6 -15
-7 -33 0 -54 2 -47 5 21 8 4 21 -23 15 -14 -2 -25 -10 -25 -18 0 -8 -6 -11
-15 -8 -8 4 -15 12 -15 19 0 16 -32 13 -38 -3 -2 -8 3 -10 15 -5 10 3 15 2 10
-2 -9 -10 -62 -18 -129 -19 -25 -1 -44 -4 -41 -8 2 -5 -17 -7 -44 -7 l-48 2
40 7 c31 6 25 8 -30 5 -45 -2 -69 -6 -67 -14 1 -6 -5 -11 -14 -11 -8 0 -13 4
-10 9 4 5 -3 7 -15 4 -15 -4 -17 -8 -7 -14 9 -6 6 -8 -9 -6 -12 0 -19 5 -16
10 3 5 -4 6 -15 3 -17 -6 -87 -12 -156 -15 -14 -1 -16 -4 -7 -14 13 -17 21
-16 -146 -18 -73 -1 -133 -6 -133 -11 0 -5 -5 -6 -11 -2 -21 12 -82 17 -75 5
4 -6 2 -11 -3 -11 -6 0 -11 5 -11 10 0 18 -68 11 -79 -7 -7 -12 -10 -13 -11
-4 0 9 -10 12 -35 9 -19 -2 -35 0 -35 4 0 4 -5 8 -11 8 -6 0 -8 -7 -5 -16 4
-12 1 -14 -14 -9 -15 5 -20 2 -20 -14 0 -17 -4 -19 -31 -11 -25 7 -30 6 -25
-5 6 -17 -29 -21 -39 -5 -4 7 -13 7 -26 0 -10 -6 -61 -9 -115 -7 -83 2 -97 1
-105 -15 -7 -14 -14 -15 -34 -8 -15 6 -26 6 -30 0 -3 -6 -20 -9 -38 -9 -64 3
-137 -4 -137 -14 0 -6 -5 -6 -12 1 -21 16 -120 7 -134 -13 -10 -13 -28 -18
-71 -19 -42 -1 -57 -5 -55 -14 1 -8 -2 -11 -8 -7 -5 3 -18 8 -27 10 -10 2 -25
5 -33 7 -8 1 -14 -2 -13 -8 1 -6 -13 -10 -33 -9 -21 0 -39 -5 -43 -13 -6 -10
-10 -11 -15 -3 -9 14 -46 14 -46 0 0 -6 7 -9 15 -5 8 3 15 1 15 -4 0 -6 -7
-10 -15 -10 -9 0 -18 -7 -21 -15 -4 -8 -10 -12 -16 -9 -5 4 -8 -14 -6 -43 2
-32 7 -47 16 -46 6 2 12 -2 12 -7 0 -6 8 -10 18 -11 14 0 14 -2 -3 -8 -17 -7
-17 -8 7 -13 15 -3 25 -2 23 3 -3 4 4 5 16 2 13 -4 16 -8 9 -13 -6 -4 3 -7 20
-7 18 0 36 -6 41 -14 7 -11 9 -11 9 -1 0 10 14 12 58 7 99 -11 143 -5 112 15
-19 12 -4 13 18 1 27 -14 95 -24 88 -13 -3 6 1 13 10 16 24 9 31 7 14 -4 -11
-7 -7 -9 15 -5 40 7 116 13 188 14 34 1 57 5 57 12 0 7 -14 10 -35 7 -20 -2
-31 0 -26 5 4 4 48 10 97 12 49 2 96 6 105 10 10 3 20 2 23 -4 5 -7 15 -7 32
-1 14 6 23 6 20 1 -7 -10 90 -8 100 2 4 4 -5 7 -21 7 -16 0 -26 3 -22 6 10 10
98 -6 92 -17 -9 -14 5 -11 21 6 9 8 21 15 27 15 7 0 6 -4 -3 -10 -11 -7 -6
-10 20 -10 36 0 82 19 50 20 -8 1 -4 6 10 12 39 17 239 45 253 36 14 -10 164
1 188 13 12 6 88 13 192 19 4 0 7 5 7 11 0 6 -9 8 -22 4 -22 -6 -22 -5 1 8 28
16 61 11 61 -9 0 -8 10 -14 23 -13 21 0 21 1 2 9 -17 7 -17 9 -2 9 9 1 17 6
17 12 0 7 7 8 18 4 9 -4 24 -7 32 -6 8 1 23 1 33 2 9 0 15 4 12 9 -3 5 8 4 25
-1 23 -8 34 -8 45 1 11 9 15 9 15 1 0 -6 11 -11 25 -11 14 0 25 5 25 10 0 6
21 10 46 10 32 0 43 -3 38 -12 -4 -7 -3 -8 4 -4 7 4 12 13 12 21 0 8 8 14 18
14 46 2 59 2 89 0 18 -1 30 -6 27 -11 -3 -4 5 -6 18 -4 13 2 31 -3 41 -12 15
-14 17 -14 17 0 0 9 7 18 15 22 9 3 15 0 15 -8 0 -8 11 -16 25 -18 13 -3 22
-2 20 2 -4 7 25 10 103 10 23 0 42 4 42 10 0 5 18 8 40 6 22 -2 43 1 46 5 3 5
11 9 17 9 8 0 7 -3 -2 -9 -9 -6 4 -9 37 -8 29 1 52 6 52 10 0 4 10 3 21 -4 20
-10 21 -9 15 17 -6 23 -5 26 7 16 8 -7 16 -10 19 -7 2 3 40 6 84 6 49 1 85 7
94 15 9 7 27 13 40 13 14 1 35 1 47 1 12 0 25 5 29 11 4 8 9 7 15 -2 7 -11 9
-11 9 -1 0 9 5 10 19 2 13 -6 22 -7 26 0 3 5 13 6 22 3 9 -3 21 0 27 8 6 8 31
15 60 15 27 1 52 7 56 15 6 9 12 10 22 2 15 -12 137 -14 139 -1 1 4 2 12 3 17
2 17 16 24 28 14 14 -11 73 -11 84 0 12 12 26 8 18 -5 -5 -7 -3 -8 5 -4 7 5
10 11 7 14 -11 10 16 32 39 32 13 0 31 3 40 6 13 5 14 8 3 15 -10 7 -9 9 3 9
9 0 19 7 23 15 4 11 13 14 32 9 25 -7 27 -5 20 22 -4 19 -3 24 3 15 7 -11 10
-9 15 8 3 11 9 31 12 42 4 14 2 19 -5 15 -7 -4 -11 1 -11 12 0 24 -30 38 -43
20 -6 -9 -7 -7 -3 6 9 25 -12 50 -30 35 -10 -8 -16 -3 -28 20 -19 36 -32 45
-48 34 -20 -12 -50 -14 -43 -3 7 11 -8 14 -19 3z"/>
</g>
</svg>
