<?xml version="1.0" standalone="no"?>
<!DOCTYPE svg PUBLIC "-//W3C//DTD SVG 20010904//EN"
 "http://www.w3.org/TR/2001/REC-SVG-20010904/DTD/svg10.dtd">
<svg version="1.0" xmlns="http://www.w3.org/2000/svg"
 width="1286.000000pt" height="300.000000pt" viewBox="0 0 1286.000000 300.000000"
 preserveAspectRatio="xMidYMid meet">
 <style type="text/css">
	.st0{fill:rgb(134, 36, 131);}
</style>
<g transform="translate(0.000000,300.000000) scale(0.100000,-0.100000)" stroke="none">
<path class="st0" d="M1895 2316 c-33 -6 -82 -22 -110 -36 -53 -25 -164 -111 -179 -139 -5
-9 -22 -31 -38 -49 -15 -18 -28 -39 -28 -46 0 -8 -6 -19 -14 -25 -8 -7 -18
-27 -21 -44 -4 -18 -16 -58 -26 -89 -23 -71 -24 -135 -2 -204 16 -51 16 -56
-6 -146 -30 -119 -46 -140 -361 -453 -238 -237 -280 -289 -280 -343 0 -34 49
-115 84 -137 58 -38 175 -26 229 24 35 32 52 64 61 114 5 26 22 52 61 91 62
63 107 90 136 81 30 -10 48 11 47 58 0 34 5 46 31 69 19 17 43 28 60 28 29 0
91 29 91 42 0 13 91 67 132 79 29 7 93 9 204 4 147 -7 165 -6 205 12 25 11 61
23 81 27 20 3 41 13 48 21 7 8 18 15 26 15 18 0 127 103 164 154 70 98 110
221 110 339 0 70 -21 180 -41 216 -5 9 -15 32 -24 51 -47 107 -119 176 -261
251 -85 44 -254 60 -379 35z m293 -292 c53 -31 68 -46 105 -102 41 -64 37
-108 -16 -174 -98 -120 -197 -128 -297 -23 -34 35 -35 38 -35 118 0 95 13 119
93 174 57 40 91 41 150 7z"/>
<path class="st0" d="M10725 2250 c-22 -11 -44 -20 -50 -20 -22 0 -78 -70 -98 -122 -11
-29 -23 -84 -26 -122 -6 -69 -6 -70 -48 -91 -22 -13 -53 -25 -68 -29 -31 -8
-42 -30 -25 -51 8 -10 31 -15 66 -15 42 0 55 -4 64 -19 6 -13 10 -154 10 -389
0 -417 -3 -402 71 -386 l41 9 -1 365 c-1 281 2 371 12 390 12 24 18 25 104 28
96 3 107 8 118 53 10 41 -14 52 -109 50 -67 -1 -88 2 -106 17 -22 17 -22 20
-9 97 10 63 18 86 39 107 36 36 93 50 145 37 70 -19 87 -17 104 14 15 27 15
29 -9 48 -66 52 -157 64 -225 29z"/>
<path class="st0" d="M3745 2154 c-130 -43 -165 -62 -230 -125 -49 -48 -78 -94 -127 -208
-21 -51 -23 -68 -23 -240 0 -198 1 -202 68 -340 36 -72 168 -182 237 -196 19
-4 49 -14 65 -23 23 -12 61 -16 160 -16 108 0 142 4 203 23 60 19 73 27 79 49
10 42 -8 57 -63 54 -27 -2 -65 -7 -84 -13 -48 -12 -189 -11 -247 2 -70 16
-110 38 -169 91 -110 101 -152 267 -124 492 12 95 39 160 97 233 39 49 130
113 161 113 11 0 33 5 49 11 37 14 181 14 216 0 16 -6 43 -11 60 -11 18 0 41
-7 51 -15 31 -23 43 -18 66 30 23 48 20 65 -11 65 -11 0 -45 9 -77 21 -39 14
-91 22 -167 25 -100 4 -117 2 -190 -22z"/>
<path class="st0" d="M5115 2155 c-42 -42 -28 -134 23 -147 31 -8 62 10 78 47 12 30 12 39
0 69 -14 33 -41 56 -66 56 -6 0 -22 -11 -35 -25z"/>
<path class="st0" d="M11079 2149 c-34 -37 -36 -62 -9 -107 18 -29 25 -33 57 -30 33 3 39
8 51 40 16 43 10 80 -18 108 -28 28 -47 25 -81 -11z"/>
<path class="st0" d="M6581 2089 c-11 -12 -25 -47 -31 -78 -14 -72 -20 -82 -62 -106 -75
-43 -94 -62 -82 -82 7 -12 26 -19 52 -21 71 -5 72 -8 72 -320 0 -294 6 -347
48 -397 52 -62 156 -93 254 -75 59 11 69 22 66 65 -3 26 -7 30 -28 27 -83 -11
-116 -6 -154 20 -21 14 -48 41 -60 60 -20 31 -21 47 -24 301 -4 337 -13 317
132 317 110 0 119 4 130 50 11 45 -2 51 -128 53 -91 2 -119 5 -126 17 -6 8 -9
49 -9 92 2 101 -10 120 -50 77z"/>
<path class="st0" d="M4446 1897 c-15 -11 -17 -56 -16 -440 0 -235 0 -431 0 -436 0 -5 18
-12 40 -16 71 -12 70 -17 70 294 l0 276 29 60 c54 113 135 165 257 165 l63 0
13 41 c11 37 10 43 -6 55 -27 19 -124 8 -188 -21 -53 -24 -128 -86 -128 -105
0 -17 -47 -11 -54 6 -3 9 -6 35 -6 59 0 23 -6 47 -12 52 -24 18 -46 22 -62 10z"/>
<path class="st0" d="M5112 1902 c-10 -7 -13 -101 -13 -447 0 -474 -1 -461 55 -450 16 3
35 5 42 5 12 0 14 73 14 439 0 242 -3 442 -7 444 -18 10 -79 16 -91 9z"/>
<path class="st0" d="M5522 1902 c-10 -7 -13 -140 -13 -652 0 -512 3 -645 13 -652 12 -7
73 -1 91 9 4 3 7 118 7 256 l-1 252 23 -3 c12 -1 34 -13 48 -26 83 -80 246
-103 350 -50 110 55 151 104 191 226 25 76 35 224 21 293 -25 115 -37 152 -66
195 -33 49 -92 110 -107 110 -6 0 -31 9 -56 21 -69 31 -183 28 -254 -7 -30
-15 -69 -40 -87 -56 -18 -15 -38 -28 -45 -28 -22 0 -37 23 -37 55 0 16 -4 35
-8 42 -10 16 -54 25 -70 15z m454 -119 c57 -19 93 -55 132 -133 25 -52 27 -63
27 -191 0 -122 -2 -141 -24 -190 -62 -137 -178 -188 -325 -144 -127 39 -177
162 -161 400 7 110 26 165 76 214 57 57 178 77 275 44z"/>
<path class="st0" d="M7395 1900 c-33 -3 -74 -13 -92 -23 -18 -9 -38 -17 -45 -17 -20 0
-96 -65 -128 -108 -16 -22 -41 -75 -55 -117 -25 -71 -27 -87 -23 -199 3 -88 9
-129 21 -151 9 -16 17 -37 17 -46 0 -39 135 -189 170 -189 6 0 30 -10 53 -22
60 -31 192 -31 259 0 26 12 53 22 61 22 23 0 112 94 145 152 67 117 69 365 5
492 -47 94 -103 145 -203 183 -65 25 -103 30 -185 23z m178 -129 c61 -29 94
-74 124 -164 53 -163 13 -366 -90 -447 -59 -47 -172 -63 -261 -38 -88 25 -158
124 -171 243 -19 181 8 297 90 380 20 19 46 35 58 35 12 0 29 5 37 11 27 18
160 6 213 -20z"/>
<path class="st0" d="M8480 1900 c-202 -4 -238 -7 -260 -22 -13 -10 -32 -18 -41 -18 -26 0
-74 -44 -106 -98 -26 -44 -28 -53 -28 -162 0 -113 1 -116 32 -164 18 -27 46
-57 63 -67 16 -10 30 -25 30 -32 0 -7 -16 -31 -36 -53 -57 -61 -66 -142 -21
-191 26 -29 19 -44 -47 -93 -61 -44 -106 -117 -106 -168 0 -72 86 -192 137
-192 10 0 30 -6 44 -14 44 -23 81 -28 194 -27 81 1 129 7 180 22 146 44 199
88 234 195 20 64 21 72 7 110 -24 70 -43 99 -81 129 -43 32 -107 43 -310 53
-153 8 -185 21 -185 75 0 36 23 76 62 107 22 17 45 21 129 25 117 6 128 8 175
40 108 73 150 226 94 346 -24 50 -24 51 -5 65 10 8 40 14 65 14 57 0 70 12 70
67 0 32 -5 45 -19 53 -11 5 -23 9 -28 8 -4 -1 -114 -5 -243 -8z m-44 -112 c36
-10 54 -23 80 -57 32 -41 34 -49 34 -123 0 -98 -15 -135 -70 -173 -41 -28 -49
-30 -137 -29 -92 0 -94 1 -129 35 -71 67 -92 157 -55 241 43 100 148 140 277
106z m165 -811 c48 -41 58 -78 39 -148 -15 -55 -73 -95 -161 -114 -143 -29
-314 -12 -366 37 -56 53 -49 150 16 211 l40 37 203 0 c195 -1 204 -2 229 -23z"/>
<path class="st0" d="M9313 1899 c-52 -12 -132 -59 -167 -100 -47 -56 -69 -50 -77 19 -10
79 -13 84 -56 80 l-38 -3 -3 -434 c-1 -239 1 -438 5 -442 13 -12 77 -20 91
-11 9 6 13 78 15 298 l2 289 29 48 c36 61 90 115 136 135 19 9 69 19 110 22
l75 5 9 37 c13 50 -2 67 -59 65 -24 -1 -56 -5 -72 -8z"/>
<path class="st0" d="M9849 1899 c-25 -4 -60 -14 -77 -23 -17 -9 -41 -16 -54 -16 -38 0
-70 -28 -66 -57 4 -38 28 -49 75 -36 144 41 227 44 293 11 56 -29 80 -71 87
-150 8 -83 1 -88 -142 -88 -70 0 -131 -6 -165 -15 -30 -9 -74 -21 -98 -26 -29
-7 -58 -26 -91 -58 -53 -52 -71 -95 -71 -171 1 -110 41 -182 129 -231 50 -28
65 -31 141 -32 74 0 92 4 140 28 30 15 73 43 95 62 57 49 79 42 85 -25 6 -52
19 -72 50 -72 41 0 42 3 40 356 0 186 -4 350 -7 364 -32 128 -188 206 -364
179z m241 -479 c23 -23 25 -56 9 -131 -16 -73 -81 -142 -154 -164 -121 -35
-241 -8 -270 61 -29 69 -14 145 39 194 37 34 140 57 259 59 85 1 100 -2 117
-19z"/>
<path class="st0" d="M11092 1900 l-22 -9 2 -438 3 -438 37 -9 c71 -18 68 -36 68 450 0
418 -1 434 -19 444 -23 12 -38 12 -69 0z"/>
<path class="st0" d="M11665 1879 c-22 -10 -49 -19 -60 -19 -53 0 -82 -54 -51 -96 13 -17
18 -17 37 -6 26 16 100 31 191 39 131 10 204 -44 215 -162 9 -94 7 -95 -148
-95 -104 0 -141 -4 -186 -20 -32 -11 -64 -20 -73 -20 -8 0 -38 -16 -66 -36
-41 -28 -56 -46 -72 -87 -32 -81 -33 -102 -16 -178 19 -86 52 -127 132 -166
115 -56 280 -26 367 68 20 21 40 39 46 39 11 0 24 -29 39 -86 11 -45 38 -61
72 -43 17 9 18 29 18 308 0 359 -9 427 -66 496 -20 25 -44 45 -53 45 -9 0 -29
9 -46 20 -42 28 -220 28 -280 -1z m309 -452 c12 -9 20 -31 23 -63 6 -64 -23
-136 -76 -188 -43 -42 -86 -57 -185 -63 -85 -6 -134 13 -171 66 -63 92 -6 205
121 242 75 21 262 25 288 6z"/>
</g>
</svg>
