<?xml version="1.0" standalone="no"?>
<!DOCTYPE svg PUBLIC "-//W3C//DTD SVG 20010904//EN"
 "http://www.w3.org/TR/2001/REC-SVG-20010904/DTD/svg10.dtd">
<svg version="1.0" xmlns="http://www.w3.org/2000/svg"
 width="2181.000000pt" height="551.000000pt" viewBox="0 0 2181.000000 551.000000"
 preserveAspectRatio="xMidYMid meet">
<style type="text/css">
	.st0{fill:rgb(134, 36, 131);}
</style>
<g transform="translate(0.000000,551.000000) scale(0.100000,-0.100000)" stroke="none">
<path class ="st0" d="M3465 4291 c39 -11 81 -24 95 -29 l25 -10 -28 -7 c-37 -10 -27 -16
90 -56 150 -50 131 -57 -57 -23 -180 33 -495 29 -575 -8 -27 -12 -33 -32 -13
-44 6 -4 110 -13 231 -21 226 -13 405 -42 517 -82 46 -16 50 -20 25 -20 -16 0
-64 4 -105 9 -243 32 -481 31 -628 -1 -86 -20 -41 -29 143 -29 110 0 224 -7
325 -20 164 -21 233 -39 274 -71 13 -11 45 -23 70 -28 25 -4 76 -26 113 -49
37 -22 78 -43 91 -47 12 -3 22 -10 22 -14 0 -4 18 -16 40 -26 21 -10 40 -24
42 -32 2 -8 43 -49 93 -91 109 -94 208 -207 288 -327 59 -91 153 -276 177
-350 7 -22 23 -53 36 -70 18 -25 24 -52 34 -160 21 -237 4 -481 -46 -653 -33
-112 -121 -307 -168 -367 -33 -44 -35 -50 -19 -56 15 -6 13 -11 -21 -40 -22
-19 -85 -78 -142 -131 -56 -53 -125 -113 -153 -133 -28 -20 -51 -43 -51 -49 0
-13 -6 -16 -174 -87 -100 -42 -250 -95 -296 -105 -25 -6 -25 -6 4 18 l28 24
-81 -15 c-57 -11 -75 -18 -59 -22 l23 -6 -25 -6 c-52 -12 -186 -18 -170 -8 12
9 9 11 -15 11 -23 0 -27 -3 -15 -10 22 -14 -90 -12 -240 5 -154 17 -321 69
-494 155 -66 33 -122 57 -125 55 -8 -9 29 -78 80 -146 27 -37 49 -72 49 -79 0
-10 -14 -11 -56 -7 -113 12 -257 102 -469 293 -91 82 -106 93 -87 61 24 -42
27 -57 11 -57 -13 0 -42 22 -140 104 l-71 59 33 -54 c215 -354 578 -624 989
-734 133 -35 144 -31 23 10 -91 30 -243 99 -243 109 0 2 43 -13 95 -35 195
-79 378 -117 610 -127 117 -5 148 -8 115 -14 -26 -4 -1 -5 60 -3 109 5 218 22
354 56 43 11 80 18 82 16 6 -5 -127 -57 -216 -83 -41 -13 -67 -23 -58 -23 20
-1 367 78 383 87 6 3 6 1 2 -4 -5 -5 -47 -23 -95 -41 -48 -17 -82 -32 -75 -32
20 -2 216 70 303 110 116 54 89 33 -39 -31 -116 -58 -272 -112 -376 -129 -38
-7 -78 -14 -88 -16 -9 -2 -14 1 -11 6 3 6 -18 6 -53 2 -32 -5 -157 -8 -278 -7
-199 0 -232 3 -348 27 -143 30 -299 80 -411 131 -42 19 -76 33 -76 31 0 -8
109 -65 170 -89 100 -39 201 -64 395 -96 98 -16 181 -32 184 -36 9 -9 -147 4
-254 22 -525 86 -1003 412 -1297 887 -119 191 -222 445 -273 674 -29 126 -35
144 -35 96 0 -108 72 -413 135 -573 20 -49 38 -100 40 -111 4 -20 49 -105 84
-159 9 -14 11 -21 4 -17 -15 9 -127 195 -173 287 -17 33 -51 111 -76 173 -67
167 -86 207 -100 207 -51 0 -23 -176 60 -378 242 -592 683 -1023 1242 -1215
226 -78 465 -107 731 -87 254 18 418 53 664 140 288 103 469 206 606 346 313
319 525 756 587 1212 20 144 21 449 1 597 -89 672 -535 1242 -1189 1519 -185
79 -423 143 -601 160 l-60 6 70 -19z m1715 -1927 c0 -114 -4 -138 -44 -296
-52 -202 -103 -353 -153 -452 -39 -78 -102 -174 -127 -195 -26 -22 -20 5 13
52 37 54 123 226 162 324 71 179 119 437 119 646 1 107 1 111 15 78 11 -23 15
-71 15 -157z m-426 -1081 c-52 -80 -201 -225 -314 -305 -169 -120 -378 -216
-580 -268 -118 -30 -118 -23 0 14 58 18 128 42 157 54 168 68 374 195 514 316
42 36 79 63 81 60 6 -6 107 103 146 158 41 56 38 36 -4 -29z m-2720 -329 c263
-229 502 -370 796 -468 150 -51 152 -59 5 -21 -194 51 -416 148 -570 251 -102
67 -246 186 -306 252 -63 68 -169 201 -169 210 0 4 33 -26 73 -65 39 -40 116
-112 171 -159z"/>
<path class ="st0" d="M2180 3953 c-184 -130 -311 -262 -437 -455 -80 -122 -162 -292 -208
-431 -42 -129 -46 -163 -6 -57 67 180 162 353 284 516 76 102 258 302 375 411
37 34 65 62 62 62 -3 0 -34 -20 -70 -46z"/>
<path class ="st0" d="M7183 3610 c-323 -41 -566 -190 -672 -413 -53 -111 -66 -171 -65
-307 1 -182 46 -310 147 -418 106 -112 205 -163 522 -272 297 -101 378 -149
432 -254 38 -73 38 -179 1 -252 -82 -157 -311 -239 -527 -189 -97 23 -196 80
-274 158 l-69 68 -96 -90 c-53 -49 -124 -117 -157 -150 l-59 -61 49 -51 c169
-172 430 -269 725 -269 446 1 768 213 856 565 23 95 24 287 1 375 -50 191
-168 322 -375 417 -42 20 -167 66 -278 104 -235 79 -329 123 -389 184 -103
103 -95 279 17 381 164 148 507 130 677 -35 l50 -49 153 160 152 161 -39 34
c-100 85 -261 158 -414 187 -105 20 -276 27 -368 16z"/>
<path class ="st0" d="M9040 2820 c-469 -60 -783 -427 -757 -885 22 -384 260 -676 632 -776
117 -32 336 -32 455 -1 108 29 273 109 328 158 l42 39 -131 142 -132 142 -54
-49 c-158 -144 -435 -129 -597 33 -154 153 -189 403 -84 599 37 70 135 165
203 197 67 32 180 54 239 47 65 -7 158 -52 230 -111 l58 -48 136 136 136 136
-34 37 c-141 148 -427 236 -670 204z"/>
<path class ="st0" d="M10828 2820 c-158 -27 -286 -113 -364 -246 l-29 -49 -3 133 -3 132
-199 0 -200 0 0 -810 0 -810 200 0 200 0 0 458 c0 392 2 466 16 513 24 80 50
126 105 185 106 112 286 148 487 97 l22 -5 0 195 0 195 -63 11 c-71 12 -100
12 -169 1z"/>
<path class ="st0" d="M14020 2820 c-162 -26 -309 -122 -371 -242 -11 -21 -24 -38 -29 -38
-6 0 -10 50 -10 125 l0 125 -190 0 -190 0 0 -810 0 -810 200 0 200 0 0 443 c0
243 5 476 10 517 14 105 65 208 131 259 66 53 135 75 235 76 70 0 88 -4 140
-30 47 -24 65 -41 90 -82 51 -86 54 -121 54 -675 l0 -508 199 0 200 0 3 503
c4 490 4 503 26 562 12 33 39 82 60 110 96 127 306 161 439 72 37 -25 56 -48
83 -101 l35 -69 3 -538 3 -539 200 0 200 0 -3 588 c-4 574 -4 589 -26 660 -65
212 -187 339 -373 389 -87 23 -272 22 -358 -1 -130 -35 -231 -105 -307 -211
l-47 -66 -29 53 c-58 107 -167 190 -292 222 -74 20 -215 27 -286 16z"/>
<path class ="st0" d="M11370 2225 c0 -640 2 -661 71 -803 74 -151 192 -242 361 -276 153
-32 325 -12 439 50 68 38 141 110 181 180 l33 59 3 -132 3 -133 189 0 190 0 0
810 0 810 -200 0 -199 0 -3 -507 c-3 -505 -3 -508 -26 -566 -37 -90 -90 -150
-169 -189 -63 -31 -74 -33 -169 -33 -94 0 -103 2 -150 30 -56 35 -106 102
-131 178 -15 46 -18 113 -21 570 l-3 517 -200 0 -199 0 0 -565z"/>
<path class ="st0" d="M17470 2753 c-320 -54 -558 -269 -642 -583 -18 -70 -22 -109 -21
-225 0 -168 20 -253 89 -394 39 -78 62 -110 133 -181 126 -127 254 -195 426
-225 225 -39 450 2 628 115 36 22 99 76 140 120 61 63 86 99 126 182 70 146
86 222 85 393 -1 164 -21 252 -84 381 -100 202 -278 342 -508 400 -77 20 -117
24 -221 23 -69 -1 -137 -4 -151 -6z m275 -178 c185 -33 345 -153 424 -318 57
-116 74 -204 68 -342 -9 -192 -68 -327 -196 -447 -115 -110 -244 -158 -421
-158 -172 0 -306 49 -417 153 -81 76 -130 151 -167 257 -28 78 -30 96 -31 220
0 114 4 147 23 210 53 171 157 297 304 369 131 66 261 83 413 56z"/>
<path class ="st0" d="M19359 2746 c-117 -33 -257 -140 -319 -244 -14 -23 -28 -42 -32 -42
-5 0 -8 24 -8 53 0 30 -3 88 -6 130 l-7 77 -100 0 c-99 0 -99 0 -92 -22 4 -13
10 -362 12 -775 l5 -753 99 0 99 0 0 468 c0 514 4 554 60 668 76 155 207 241
395 258 39 4 84 3 101 -2 l31 -10 11 96 c6 53 9 99 6 102 -12 11 -211 9 -255
-4z"/>
<path class ="st0" d="M20367 2739 c-280 -68 -500 -271 -590 -541 -27 -84 -30 -106 -31
-223 -1 -150 13 -215 73 -340 135 -283 427 -463 753 -465 231 -1 423 89 566
265 l33 40 -5 -215 c-4 -241 -14 -297 -73 -420 -25 -53 -56 -94 -102 -141
-111 -110 -247 -159 -446 -159 -238 0 -430 78 -571 233 l-50 54 -79 -73 -78
-72 55 -55 c268 -268 787 -347 1138 -175 116 58 238 178 298 293 50 99 86 220
101 340 7 58 11 361 11 863 l0 772 -100 0 -100 0 0 -132 -1 -133 -21 30 c-12
17 -51 59 -87 95 -78 76 -178 131 -295 160 -106 27 -289 26 -399 -1z m341
-170 c270 -66 472 -324 472 -604 0 -276 -202 -530 -475 -600 -75 -19 -212 -19
-294 0 -100 24 -211 87 -290 166 -243 243 -243 627 -1 870 156 157 375 219
588 168z"/>
<path class ="st0" d="M16265 1456 c-101 -44 -125 -178 -46 -257 65 -65 157 -65 222 0 124
124 -15 327 -176 257z"/>
</g>
</svg>
