<?xml version="1.0" encoding="utf-8"?>
<!-- Generator: Adobe Illustrator 19.0.0, SVG Export Plug-In . SVG Version: 6.00 Build 0)  -->
<svg version="1.1" id="Capa_1" xmlns="http://www.w3.org/2000/svg" xmlns:xlink="http://www.w3.org/1999/xlink" x="0px" y="0px"
	 viewBox="0 0 500 500" style="enable-background:new 0 0 500 500;" xml:space="preserve">
<style type="text/css">
	.st0{fill:#FFFFFF;}
</style>
<g>
	<g>
		<path id="XMLID_7_" class="st0" d="M336.5,246.3c-2.4-0.7-5-1.5-7.8-2.3v65.2c-17.3-1.3-37.3-2.2-60.1-2.5l-15-118.1h0.2l7.2-14.4
			c51.9,2.8,108.4,23.3,111,24.2c1.6,0.6,2.8,1.7,4.2,2.5c1.4,0.9,3,1.6,4.3,2.6c1.6,1.4,2.7,3.1,3.9,4.7c0.9,1.3,2.1,2.4,2.8,3.9
			c1,1.8,1.5,3.9,2,6c0.3,1.3,1.1,2.4,1.2,3.8l10.7,97.2c-14.1-3.2-32.8-6.4-57.5-8.7L336.5,246.3z"/>
		<path id="XMLID_6_" class="st0" d="M250,168.2c-39.2,0-71-46-71-85.6s31.8-71.7,71-71.7c39.3,0,71,32.1,71,71.7
			C321.1,122.3,289.3,168.2,250,168.2z"/>
		<path id="XMLID_5_" class="st0" d="M138.1,305.6l20.7-16.5l-2.3,21.3c-7,0.7-14,1.3-20.5,2.2L138.1,305.6z"/>
		<path id="XMLID_4_" class="st0" d="M171.3,279.2l40.8-32.2c2.9,1.1,6.1,1.7,9.3,1.7c7.1,0,13.6-3,18.4-7.6l-8.3,65.7
			c-21.7,0.3-41.7,1.1-60.1,2.5L171.3,279.2L171.3,279.2z"/>
		<path id="XMLID_3_" class="st0" d="M246.3,188.7h0.2l-2.5,19.5c-4.7-7.9-12.9-13.5-22.6-13.5c-14.7,0-26.6,12-26.7,26.9
			l-82.3,65.1l-2.1,5.3l-7.8,26.3c-1.2,0.2-2.2,0.5-3.4,0.8l10.7-97.2c0.1-1.5,0.9-2.5,1.2-3.9c0.5-1.9,0.9-4,1.8-5.8
			c0.8-1.5,1.9-2.8,2.9-4c1.2-1.6,2.3-3.2,3.8-4.5c1.4-1.1,3-1.9,4.5-2.7c1.4-0.8,2.5-1.9,4-2.5c2.6-0.9,59.1-21.4,111-24.2
			L246.3,188.7z"/>
		<path id="XMLID_2_" class="st0" d="M66.6,343.6c0,0,9.5-7.9,45.4-14.7l9.9-33.4c0.2-0.6,0.5-1.1,1-1.6l85-67.1
			c-0.6-1.6-1-3.3-1-5.1c0-8.1,6.5-14.6,14.5-14.6s14.5,6.5,14.5,14.6s-6.5,14.6-14.5,14.6c-4,0-7.6-1.7-10.2-4.3l-83.7,66.2
			l-8.7,29.5c27.8-4.8,69.4-8.8,131.3-8.8c153.6,0,183.4,24.7,183.4,24.7v50.3H66.6V343.6z"/>
		<polygon id="XMLID_1_" class="st0" points="497.7,426.3 461,489.1 39,489.1 2.3,426.3 2.3,405.2 497.7,405.2 		"/>
	</g>
</g>
</svg>
