<?xml version="1.0" encoding="utf-8"?>
<!-- Generator: Adobe Illustrator 19.0.0, SVG Export Plug-In . SVG Version: 6.00 Build 0)  -->
<svg version="1.1" id="Capa_1" xmlns="http://www.w3.org/2000/svg" xmlns:xlink="http://www.w3.org/1999/xlink" x="0px" y="0px"
	 viewBox="0 0 189 193" style="enable-background:new 0 0 189 193;" xml:space="preserve">
<style type="text/css">
	.st0{display:none;}
	.st1{display:inline;}
	.st2{fill:none;stroke:#F80E41;stroke-width:4.5716;stroke-linecap:round;stroke-linejoin:round;stroke-miterlimit:3.8637;}
	.st3{fill:#F80E41;}
	.st4{fill:#FFFFFF;}
	.st5{fill:none;stroke:#FFFFFF;stroke-width:4.5716;stroke-linecap:round;stroke-linejoin:round;stroke-miterlimit:3.8637;}
	
		.st6{display:inline;fill:none;stroke:#F80E41;stroke-width:3.9685;stroke-linecap:round;stroke-linejoin:round;stroke-miterlimit:2;}
	
		.st7{display:inline;fill:none;stroke:#F80E41;stroke-width:2.8346;stroke-linecap:round;stroke-linejoin:round;stroke-miterlimit:2;}
	.st8{display:inline;fill:#F80E41;}
	.st9{display:inline;fill:#FFFFFF;}
	.st10{fill:none;stroke:#F80E41;stroke-width:3.9685;stroke-linecap:round;stroke-linejoin:round;stroke-miterlimit:2;}
	.st11{fill:none;stroke:#F80E41;stroke-width:2.8346;stroke-linecap:round;stroke-linejoin:round;stroke-miterlimit:2;}
	.st12{fill:none;stroke:#F80E41;stroke-width:3.9685;stroke-linecap:round;stroke-linejoin:round;stroke-miterlimit:3.8637;}
	.st13{fill:none;stroke:#F80E41;stroke-width:2.2677;stroke-linecap:round;stroke-linejoin:round;stroke-miterlimit:2;}
	.st14{fill:none;stroke:#F80E41;stroke-width:1.9211;stroke-linecap:round;stroke-linejoin:round;stroke-miterlimit:2;}
	.st15{fill:none;stroke:#F80E41;stroke-width:5.8957;stroke-miterlimit:3.8637;}
	.st16{fill:none;stroke:#F80E41;stroke-width:5.8957;stroke-linecap:round;stroke-linejoin:round;stroke-miterlimit:3.8637;}
	.st17{fill:none;stroke:#F80E41;stroke-width:4.4905;stroke-miterlimit:3.8637;}
	.st18{fill:#F51322;}
	.st19{fill:none;stroke:#F51322;stroke-width:3.7067;stroke-linecap:round;stroke-linejoin:round;stroke-miterlimit:3.8637;}
	.st20{fill:none;stroke:#F80E41;stroke-width:5.407;stroke-linecap:round;stroke-linejoin:round;stroke-miterlimit:3.8637;}
	.st21{fill:none;stroke:#F80E41;stroke-width:6.6655;stroke-linecap:round;stroke-linejoin:round;stroke-miterlimit:3.8637;}
	.st22{fill:none;stroke:#F80E41;stroke-width:6.1454;stroke-linecap:round;stroke-linejoin:round;stroke-miterlimit:3.8637;}
	.st23{fill:none;stroke:#F80E41;stroke-width:4.1737;stroke-linecap:round;stroke-linejoin:round;stroke-miterlimit:3.8637;}
	.st24{fill:none;stroke:#F80E41;stroke-width:3.5145;stroke-linecap:round;stroke-linejoin:round;stroke-miterlimit:3.8637;}
	
		.st25{display:inline;fill:none;stroke:#F80E41;stroke-width:4.1737;stroke-linecap:round;stroke-linejoin:round;stroke-miterlimit:3.8637;}
	
		.st26{display:inline;fill:none;stroke:#F80E41;stroke-width:5.3858;stroke-linecap:round;stroke-linejoin:round;stroke-miterlimit:3.8637;}
	
		.st27{display:inline;fill:none;stroke:#F80E41;stroke-width:5.1024;stroke-linecap:round;stroke-linejoin:round;stroke-miterlimit:3.8637;}
	.st28{fill:none;stroke:#F80E41;stroke-width:4.9502;stroke-linecap:round;stroke-linejoin:round;stroke-miterlimit:3.8637;}
	.st29{clip-path:url(#XMLID_708_);}
	.st30{fill:none;stroke:#F80E41;stroke-width:5.1024;stroke-linecap:round;stroke-linejoin:round;stroke-miterlimit:3.8637;}
	.st31{clip-path:url(#XMLID_709_);}
	.st32{clip-path:url(#XMLID_710_);}
	.st33{fill:none;stroke:#FFFFFF;stroke-miterlimit:3.8637;}
	.st34{fill:none;stroke:#F51322;stroke-width:1.0001;stroke-linecap:round;stroke-linejoin:round;stroke-miterlimit:3.8637;}
	.st35{clip-path:url(#XMLID_711_);}
	.st36{fill:none;stroke:#F80E41;stroke-width:5.1024;stroke-linejoin:round;stroke-miterlimit:3.8637;}
	.st37{fill:none;stroke:#F80E41;stroke-width:5.1024;stroke-miterlimit:3.8637;}
	.st38{fill:none;stroke:#FFFFFF;stroke-width:5.1024;stroke-miterlimit:3.8637;}
	.st39{display:inline;fill:#F51322;}
	.st40{display:none;fill:#F80E41;}
	.st41{fill:none;stroke:#F51322;stroke-width:9.013;stroke-linecap:round;stroke-linejoin:round;stroke-miterlimit:3.8637;}
	.st42{fill:none;stroke:#F51322;stroke-width:4.5065;stroke-linecap:round;stroke-linejoin:round;stroke-miterlimit:3.8637;}
	.st43{fill:none;stroke:#F80E41;stroke-miterlimit:3.8637;}
	.st44{clip-path:url(#XMLID_712_);}
	.st45{fill:none;stroke:#F80E41;stroke-width:5.6693;stroke-miterlimit:3.8637;}
	.st46{fill:none;stroke:#F51322;stroke-width:3.0193;stroke-linecap:round;stroke-linejoin:round;stroke-miterlimit:3.8637;}
	.st47{fill:none;stroke:#F80E41;stroke-width:3.9685;stroke-miterlimit:3.8637;}
	.st48{fill:none;stroke:#F51322;stroke-width:3.9685;stroke-linecap:round;stroke-linejoin:round;stroke-miterlimit:3.8637;}
	.st49{fill:none;stroke:#F80E41;stroke-width:3.135;stroke-linecap:round;stroke-linejoin:round;stroke-miterlimit:3.8637;}
</style>
<g id="XMLID_2_" class="st0">
	<g id="XMLID_14_" class="st1">
		<g id="XMLID_40_">
			<path id="XMLID_41_" class="st2" d="M80.1,137.1h32.7c18.8-30.1,21.9-83.5-15.6-111.8C63.3,52.1,57.4,94.1,80.1,137.1z"/>
		</g>
		<g id="XMLID_38_">
			<path id="XMLID_39_" class="st2" d="M67.6,104.1c2.9,9.2,5.9,18,9,26.4c-4.4,2.9-6.4,7.9-4.3,16.2
				C52.8,132.9,51.3,118.7,67.6,104.1z"/>
		</g>
		<g id="XMLID_36_">
			<path id="XMLID_37_" class="st2" d="M126.5,104.1c-2.9,9.2-5.9,18-9,26.4c4.4,2.9,6.4,7.9,4.3,16.2
				C141.3,132.9,142.8,118.7,126.5,104.1z"/>
		</g>
		<g id="XMLID_29_">
			<g id="XMLID_33_">
				<circle id="XMLID_35_" class="st3" cx="97.7" cy="72.2" r="17.4"/>
				<path id="XMLID_34_" class="st3" d="M97.7,72.2"/>
			</g>
			<g id="XMLID_30_">
				<circle id="XMLID_32_" class="st2" cx="97.7" cy="72.2" r="17.4"/>
				<path id="XMLID_31_" class="st2" d="M97.7,72.2"/>
			</g>
		</g>
		<g id="XMLID_22_">
			<g id="XMLID_26_">
				<circle id="XMLID_28_" class="st4" cx="97.7" cy="72.2" r="7.3"/>
				<path id="XMLID_27_" class="st4" d="M97.7,72.2"/>
			</g>
			<g id="XMLID_23_">
				<circle id="XMLID_25_" class="st5" cx="97.7" cy="72.2" r="7.3"/>
				<path id="XMLID_24_" class="st5" d="M97.7,72.2"/>
			</g>
		</g>
		<g id="XMLID_20_">
			<line id="XMLID_21_" class="st2" x1="74.2" y1="122.3" x2="120.5" y2="122.3"/>
		</g>
		<g id="XMLID_18_">
			<line id="XMLID_19_" class="st2" x1="82.8" y1="40.1" x2="111" y2="40.1"/>
		</g>
		<g id="XMLID_15_">
			<path id="XMLID_17_" class="st4" d="M95.5,103.3h2.9c6,10.9,6.6,25.8,0,43.4h-2.7C88.9,131.5,88.8,117,95.5,103.3z"/>
			<path id="XMLID_16_" class="st2" d="M95.5,103.3h2.9c6,10.9,6.6,25.8,0,43.4h-2.7C88.9,131.5,88.8,117,95.5,103.3z"/>
		</g>
	</g>
	<g id="XMLID_9_" class="st1">
		<g id="XMLID_12_">
			<path id="XMLID_13_" class="st2" d="M86,139.2l0.1,17.7c-7.3,0-13.9,2.9-18.7,7.7c-3.1-5.2-8.8-8.7-15.3-8.7
				c-9.8,0-17.8,8-17.8,17.8"/>
		</g>
		<g id="XMLID_10_">
			<path id="XMLID_11_" class="st2" d="M108.1,139.2l-0.1,17.7c7.3,0,13.9,2.9,18.7,7.7c3.1-5.2,8.8-8.7,15.3-8.7
				c9.8,0,17.8,8,17.8,17.8"/>
		</g>
	</g>
	<g id="XMLID_7_" class="st1">
		<polygon id="XMLID_8_" class="st3" points="83.3,40.4 110.3,40.4 97.4,25 		"/>
	</g>
	<g id="XMLID_5_" class="st1">
		<polygon id="XMLID_6_" class="st3" points="74.7,122.9 80.2,136.7 91,136.7 90.1,122.6 		"/>
	</g>
	<g id="XMLID_3_" class="st1">
		<polygon id="XMLID_4_" class="st3" points="118.5,122.9 113,136.7 102.2,136.7 103.1,122.6 		"/>
	</g>
</g>
<g id="XMLID_93_" class="st0">
	<g id="XMLID_116_" class="st1">
		<path id="XMLID_117_" class="st2" d="M146.9,107c0,27.8-22.8,50.4-50.9,50.4S45.1,134.8,45.1,107c0-27.8,22.8-50.4,50.9-50.4
			S146.9,79.2,146.9,107z"/>
	</g>
	<g id="XMLID_113_" class="st1">
		<g id="XMLID_114_">
			<path id="XMLID_115_" class="st2" d="M106.2,44c0,1.2-1,2.2-2.2,2.2H88c-1.2,0-2.2-1-2.2-2.2l0-10.3c0-1.2,1-2.2,2.2-2.2l16.1,0
				c1.2,0,2.2,1,2.2,2.2L106.2,44z"/>
		</g>
	</g>
	<g id="XMLID_106_" class="st1">
		<g id="XMLID_110_">
			<g id="XMLID_111_">
				<path id="XMLID_112_" class="st2" d="M59.9,62.7l-3.7-5.3c-0.4-0.6-0.3-1.5,0.4-1.9l8.3-5.6c0.6-0.4,1.5-0.3,1.9,0.4l3.7,5.3"/>
			</g>
		</g>
		<g id="XMLID_107_">
			<g id="XMLID_108_">
				<path id="XMLID_109_" class="st2" d="M132.1,62.7l3.7-5.3c0.4-0.6,0.3-1.5-0.4-1.9l-8.3-5.6c-0.6-0.4-1.5-0.3-1.9,0.4l-3.7,5.3"
					/>
			</g>
		</g>
	</g>
	<g id="XMLID_104_" class="st1">
		<line id="XMLID_105_" class="st2" x1="96" y1="54.7" x2="96" y2="46.9"/>
	</g>
	<g id="XMLID_101_" class="st1">
		<path id="XMLID_103_" class="st3" d="M132.8,112.9l0-10.4l-9.2-0.8c-0.6-3.4-1.9-6.6-3.6-9.5l6.1-7.3l-7.3-7.4l-7,6
			c-2.8-1.9-5.9-3.3-9.2-4.1l-0.8-9.5H91.5l-0.8,9.3c-3.4,0.6-6.5,1.9-9.4,3.6l-7.2-6.2L66.8,84l5.9,7.1c-1.9,2.8-3.3,5.9-4.1,9.3
			l-9.5,0.8l0,10.4l9.2,0.8c0.6,3.4,1.9,6.6,3.6,9.5l-6.1,7.3l7.3,7.4l7-6c2.8,1.9,5.9,3.3,9.2,4.1l0.8,9.5l10.3,0l0.8-9.3
			c3.4-0.6,6.5-1.9,9.4-3.7l7.2,6.2l7.3-7.4l-5.9-7.1c1.9-2.8,3.3-5.9,4.1-9.3L132.8,112.9z"/>
		<path id="XMLID_102_" class="st2" d="M132.8,112.9l0-10.4l-9.2-0.8c-0.6-3.4-1.9-6.6-3.6-9.5l6.1-7.3l-7.3-7.4l-7,6
			c-2.8-1.9-5.9-3.3-9.2-4.1l-0.8-9.5H91.5l-0.8,9.3c-3.4,0.6-6.5,1.9-9.4,3.6l-7.2-6.2L66.8,84l5.9,7.1c-1.9,2.8-3.3,5.9-4.1,9.3
			l-9.5,0.8l0,10.4l9.2,0.8c0.6,3.4,1.9,6.6,3.6,9.5l-6.1,7.3l7.3,7.4l7-6c2.8,1.9,5.9,3.3,9.2,4.1l0.8,9.5l10.3,0l0.8-9.3
			c3.4-0.6,6.5-1.9,9.4-3.7l7.2,6.2l7.3-7.4l-5.9-7.1c1.9-2.8,3.3-5.9,4.1-9.3L132.8,112.9z"/>
	</g>
	<g id="XMLID_99_" class="st1">
		<polyline id="XMLID_100_" class="st5" points="94.2,97.4 94.2,107.9 99.6,113 		"/>
	</g>
	<g id="XMLID_94_" class="st1">
		<g id="XMLID_97_">
			<path id="XMLID_98_" class="st5" d="M79,102.6c1.6-8,8.6-14.1,17-14.1c8.8,0,16.1,6.6,17.2,15.2"/>
		</g>
		<g id="XMLID_95_">
			<path id="XMLID_96_" class="st5" d="M113.4,109.8c-1.6,8-8.6,14.1-17,14.1c-8.8,0-16.1-6.6-17.2-15.2"/>
		</g>
	</g>
</g>
<g id="XMLID_118_" class="st0">
	<g id="XMLID_146_" class="st1">
		<path id="XMLID_148_" class="st4" d="M150.5,107.1v-18h-9c-1-4.3-2.7-8-4.9-11.7l5.8-6.7L131,59l-6.9,5.6c-3.6-2.3-7.6-4-11.8-5
			l-0.1-8.8H96.5v96.8h15.8l0.1-10.2c4.2-1,8.2-2.7,11.8-5l6.9,6.4l11.4-11.6l-5.8-7.5c2.2-3.7,4-8.2,4.9-12.5L150.5,107.1z"/>
		<path id="XMLID_147_" class="st2" d="M150.5,107.1v-18h-9c-1-4.3-2.7-8-4.9-11.7l5.8-6.7L131,59l-6.9,5.6c-3.6-2.3-7.6-4-11.8-5
			l-0.1-8.8H96.5v96.8h15.8l0.1-10.2c4.2-1,8.2-2.7,11.8-5l6.9,6.4l11.4-11.6l-5.8-7.5c2.2-3.7,4-8.2,4.9-12.5L150.5,107.1z"/>
	</g>
	<g id="XMLID_144_" class="st1">
		<path id="XMLID_145_" class="st3" d="M96.5,147.6h15.8l0.1-10.2c4.2-1,8.2-2.7,11.8-5l6.9,6.4l11.4-11.6l-5.8-7.5
			c2.2-3.7,4-8.2,4.9-12.5l9,0v-18h-9c-1-4.3-2.7-8-4.9-11.7l5.8-6.7L131,59l-6.9,5.6c-3.6-2.3-7.6-4-11.8-5l-0.1-8.8H96.5V147.6z"
			/>
	</g>
	<g id="XMLID_142_" class="st1">
		<line id="XMLID_143_" class="st2" x1="96.5" y1="41.8" x2="96.5" y2="156.6"/>
	</g>
	<g id="XMLID_140_" class="st1">
		<path id="XMLID_141_" class="st5" d="M98.7,109.3h3.9c6.6,0,11.9-5,11.9-11.3c0-6.2-5.3-11.3-11.9-11.3h-3.9"/>
	</g>
	<g id="XMLID_137_" class="st1">
		<path id="XMLID_139_" class="st4" d="M82.9,50.8c-7-0.5-14.8,3.6-16.7,9.5c-8.9-0.3-16,6.9-16,16.4c0,0.7,0.1,1.5,0.1,2.2
			c-6.5,2.4-11.1,9.7-11.1,18.7c0,5.7,1.9,11,4.9,15c-0.5,2.1-0.7,4.3-0.4,6.6c1.2,9.7,9.4,17.2,18.5,16.8
			c2.4,6.2,8.9,11.5,16.6,11.5c12,0,17.6-6.7,17.6-6.7V57.6C96.5,57.6,91.5,51.4,82.9,50.8z"/>
		<path id="XMLID_138_" class="st2" d="M82.9,50.8c-7-0.5-14.8,3.6-16.7,9.5c-8.9-0.3-16,6.9-16,16.4c0,0.7,0.1,1.5,0.1,2.2
			c-6.5,2.4-11.1,9.7-11.1,18.7c0,5.7,1.9,11,4.9,15c-0.5,2.1-0.7,4.3-0.4,6.6c1.2,9.7,9.4,17.2,18.5,16.8
			c2.4,6.2,8.9,11.5,16.6,11.5c12,0,17.6-6.7,17.6-6.7V57.6C96.5,57.6,91.5,51.4,82.9,50.8z"/>
	</g>
	<g id="XMLID_135_" class="st1">
		<path id="XMLID_136_" class="st2" d="M81,79.7c-8.5-0.6-15.4-7.5-15.4-15.4c0-1.4,0.2-2.8,0.6-4.1"/>
	</g>
	<g id="XMLID_133_" class="st1">
		<path id="XMLID_134_" class="st2" d="M61.2,98.3c4.8,3,10.4,1,14.4-3.2c5.1-5.3,13.5-6.9,18.5-1c0.9,1.1,1.7,2.2,2.2,3.5"/>
	</g>
	<g id="XMLID_131_" class="st1">
		<path id="XMLID_132_" class="st2" d="M96.3,71.2c-6.8,1-12.9-3.3-15.2-9.5"/>
	</g>
	<g id="XMLID_129_" class="st1">
		<path id="XMLID_130_" class="st2" d="M96.3,125.3c-6.8-1.8-12.9,1.6-15.2,7.5"/>
	</g>
	<g id="XMLID_127_" class="st1">
		<path id="XMLID_128_" class="st2" d="M65.2,121.5c-3.9-1.2-7.7-4-7.7-7.7"/>
	</g>
	<g id="XMLID_125_" class="st1">
		<path id="XMLID_126_" class="st2" d="M63.4,138.6c-1.4-2.3-2.2-4.9-2.2-7.6c0-7.9,6.6-14.4,15.4-14.4c1.1,0,1.8-0.9,1.8-1.9
			c0-0.9,0,0.4,0,0c0-5.9,5.5-7.9,9-7.7"/>
	</g>
	<g id="XMLID_123_" class="st1">
		<path id="XMLID_124_" class="st2" d="M52.4,90.2c4.3,0.3,7.7,3.7,7.7,7.7c0,4-3.4,7-7.7,6.7"/>
	</g>
	<g id="XMLID_121_" class="st1">
		<path id="XMLID_122_" class="st2" d="M62.7,84c0-4.7,4.1-8.2,9.1-7.9"/>
	</g>
	<g id="XMLID_119_" class="st1">
		<path id="XMLID_120_" class="st5" d="M103.7,71.5c14.7,0,26.6,11.9,26.6,26.6c0,14.7-11.9,26.6-26.6,26.6"/>
	</g>
</g>
<g id="XMLID_149_" class="st0">
	<polyline id="XMLID_215_" class="st6" points="110.5,66.7 110.5,73.6 100.9,83.8 91.3,73.6 91.3,67.4 	"/>
	<polyline id="XMLID_214_" class="st6" points="91.3,125.5 91.3,118.5 100.9,108.4 110.5,118.5 110.5,124.8 	"/>
	<path id="XMLID_213_" class="st6" d="M48,88.4V73.1c0-6.3,4.5-11.5,10-11.5h7.5"/>
	<path id="XMLID_212_" class="st6" d="M67.5,134.8H58c-5.5,0-10-5.1-10-11.5v-15.3"/>
	<polyline id="XMLID_211_" class="st6" points="41.5,88.6 48.5,88.6 58.7,98.2 48.5,107.9 42.3,107.9 	"/>
	<path id="XMLID_210_" class="st6" d="M9.1,75.7c-0.3-0.8-0.4-1.7-0.4-2.5c0-4.1,3.3-7.4,7.3-7.4c4,0,7.3,3.3,7.3,7.4"/>
	<path id="XMLID_209_" class="st6" d="M23.3,124c0,4.1-3.3,7.4-7.3,7.4c-4,0-7.3-3.3-7.3-7.4"/>
	<path id="XMLID_208_" class="st6" d="M8.9,75.4h10.4c13.3,0,24,10.9,24,24.3l0,0c0,13.4-10.8,24.3-24,24.3H8.9"/>
	<path id="XMLID_207_" class="st7" d="M32.7,106.1c1.9-4.9,1.5-10.2-0.8-14.5"/>
	<path id="XMLID_206_" class="st6" d="M-6.9,108.1c5.8,2.1,11,6.3,14.1,12.3c0.8,1.6,1.4,2.8,2,4.7"/>
	<path id="XMLID_205_" class="st6" d="M8.8,75.2C9.4,85.7,6,98.4-4.6,103.4l-2.6,1.2"/>
	<polyline id="XMLID_204_" class="st7" points="24.4,96.5 24.4,101.2 15.1,101.2 	"/>
	<path id="XMLID_203_" class="st7" d="M17.6,117c-2.6,0-4.7-2.1-4.7-4.7c0-2.6,2.1-4.7,4.7-4.7"/>
	<path id="XMLID_202_" class="st7" d="M17.6,94c-2.6,0-4.7-2.1-4.7-4.7c0-2.6,2.1-4.7,4.7-4.7"/>
	<path id="XMLID_201_" class="st6" d="M-13.2,80.6"/>
	<path id="XMLID_200_" class="st6" d="M154.4,88.4V73.1c0-6.3-4.5-11.5-10-11.5h-9.5"/>
	<path id="XMLID_199_" class="st6" d="M133.5,134.8h10.8c5.5,0,10-5.1,10-11.5v-15.3"/>
	<polyline id="XMLID_198_" class="st6" points="160.8,88.6 153.8,88.6 143.6,98.2 153.8,107.9 160.1,107.9 	"/>
	<path id="XMLID_197_" class="st6" d="M193.2,75.7c0.3-0.8,0.4-1.7,0.4-2.5c0-4.1-3.3-7.4-7.3-7.4c-4,0-7.3,3.3-7.3,7.4"/>
	<path id="XMLID_196_" class="st6" d="M179,124c0,4.1,3.3,7.4,7.3,7.4c4,0,7.3-3.3,7.3-7.4"/>
	<path id="XMLID_195_" class="st6" d="M193.4,75.4H183c-13.3,0-24,10.9-24,24.3l0,0c0,13.4,10.8,24.3,24,24.3h10.4"/>
	<path id="XMLID_194_" class="st7" d="M169.6,106.1c-1.9-4.9-1.5-10.2,0.8-14.5"/>
	<path id="XMLID_193_" class="st6" d="M209.3,108.1c-5.8,2.1-11,6.3-14.1,12.3c-0.8,1.6-1.4,2.8-2,4.7"/>
	<path id="XMLID_192_" class="st6" d="M193.5,75.2c-0.6,10.5,2.8,23.2,13.4,28.2l2.6,1.2"/>
	<polyline id="XMLID_191_" class="st7" points="178,96.5 178,101.2 187.2,101.2 	"/>
	<path id="XMLID_190_" class="st7" d="M184.7,117c2.6,0,4.7-2.1,4.7-4.7c0-2.6-2.1-4.7-4.7-4.7"/>
	<path id="XMLID_189_" class="st7" d="M184.7,94c2.6,0,4.7-2.1,4.7-4.7c0-2.6-2.1-4.7-4.7-4.7"/>
	<path id="XMLID_188_" class="st6" d="M215.6,80.6"/>
	<path id="XMLID_187_" class="st6" d="M7.3,126.4c-14.9,0-26.9-12-26.9-26.9s12-26.9,26.9-26.9"/>
	<path id="XMLID_186_" class="st6" d="M195,72.6c14.9,0,26.8,12,26.8,26.9s-12,26.9-26.9,26.9"/>
	<path id="XMLID_185_" class="st8" d="M110.8,73.1h15.3c6.3,0,11.5,4.5,11.5,10v12.5l0,13.4c0,5.5-5.1,10-11.5,10h-15.3l-10.1-12
		l-9.6,12H75.8c-6.3,0-11.5-4.5-11.5-10l0-13.4V83.1c0-5.5,5.1-10,11.5-10H91l10.2,11L110.8,73.1z"/>
	<path id="XMLID_184_" class="st9" d="M116.1,95.4c0.5,0.6,0.5,1.2,0,1.8l-8.1,8.7h-5.1l8.5-9c0.4-0.3,0.4-0.6,0-1l-4.8-5.2
		l-5.2,13.6c-0.3,0.7-0.7,1.2-1.4,1.5h-4.3l-8.2-8.6c-0.5-0.6-0.5-1.2,0-1.8l8.1-8.7h5.1l-8.5,9c-0.4,0.3-0.4,0.6,0,1l4.9,5.2
		l5.4-14.1c0.2-0.6,0.6-1,1.1-1h4.4h0.1L116.1,95.4z"/>
	<g id="XMLID_167_" class="st1">
		<path id="XMLID_183_" class="st10" d="M123.4,34.2c0.8-0.3,1.7-0.4,2.5-0.4c4.1,0,7.4,3.3,7.4,7.3c0,4-3.3,7.3-7.4,7.3"/>
		<path id="XMLID_182_" class="st10" d="M75.1,48.4c-4.1,0-7.4-3.3-7.4-7.3c0-4,3.3-7.3,7.4-7.3"/>
		<path id="XMLID_181_" class="st10" d="M123.7,34v10.4c0,13.3-10.9,24-24.3,24l0,0c-13.4,0-24.3-10.8-24.3-24V34"/>
		<path id="XMLID_180_" class="st11" d="M93.1,57.8c4.9,1.9,10.2,1.5,14.5-0.8"/>
		<path id="XMLID_179_" class="st11" d="M82.1,45.7c0-2.6,2.1-4.7,4.7-4.7c2.6,0,4.7,2.1,4.7,4.7"/>
		<path id="XMLID_178_" class="st11" d="M105.2,45.7c0-2.6,2.1-4.7,4.7-4.7c2.6,0,4.7,2.1,4.7,4.7"/>
		<path id="XMLID_177_" class="st10" d="M118.6,11.9"/>
		<path id="XMLID_176_" class="st10" d="M71.1,32.3c0-14.9,12-26.9,26.9-26.9c14.9,0,26.9,12,26.9,26.9"/>
		<path id="XMLID_175_" class="st12" d="M70.1,48.8l-5,16.5c5.6,4.1,17,4.1,22,0"/>
		<line id="XMLID_174_" class="st12" x1="72.4" y1="31.7" x2="90.5" y2="31.7"/>
		<line id="XMLID_173_" class="st12" x1="90.7" y1="34.8" x2="90.7" y2="22.8"/>
		<line id="XMLID_172_" class="st12" x1="98.7" y1="36.8" x2="98.7" y2="18.8"/>
		<line id="XMLID_171_" class="st12" x1="107.7" y1="34.8" x2="107.7" y2="25.8"/>
		<path id="XMLID_170_" class="st12" d="M129.5,48.8l5,16.5c-5.6,4.1-17,4.1-22,0"/>
		<line id="XMLID_169_" class="st12" x1="108.4" y1="31.7" x2="124.5" y2="31.7"/>
		<path id="XMLID_168_" class="st13" d="M102.7,49.4c0,1.8-1.4,3.2-3.2,3.2s-3.2-1.4-3.2-3.2"/>
	</g>
	<g id="XMLID_150_" class="st1">
		<path id="XMLID_166_" class="st10" d="M77.2,158.4c-0.8,0.3-1.7,0.4-2.5,0.4c-4.1,0-7.4-3.3-7.4-7.3c0-4,3.3-7.3,7.4-7.3"/>
		<path id="XMLID_165_" class="st10" d="M125.6,144.2c4.1,0,7.4,3.3,7.4,7.3c0,4-3.3,7.3-7.4,7.3"/>
		<path id="XMLID_164_" class="st10" d="M77,158.5v-10.4c0-13.3,10.9-24,24.3-24l0,0c13.4,0,24.3,10.8,24.3,24v10.4"/>
		<path id="XMLID_163_" class="st11" d="M107.6,134.8c-4.9-1.9-10.2-1.5-14.5,0.8"/>
		<path id="XMLID_162_" class="st11" d="M118.5,146.9c0,2.6-2.1,4.7-4.7,4.7s-4.7-2.1-4.7-4.7"/>
		<path id="XMLID_161_" class="st11" d="M95.5,146.9c0,2.6-2.1,4.7-4.7,4.7c-2.6,0-4.7-2.1-4.7-4.7"/>
		<path id="XMLID_160_" class="st10" d="M82.1,180.7"/>
		<path id="XMLID_159_" class="st10" d="M129.5,160.2c0,14.9-12,26.9-26.9,26.9c-14.9,0-26.9-12-26.9-26.9"/>
		<path id="XMLID_158_" class="st12" d="M130.5,143.8l5-16.5c-5.6-4.1-17-4.1-22,0"/>
		<line id="XMLID_157_" class="st12" x1="128.3" y1="160.9" x2="110.1" y2="160.9"/>
		<line id="XMLID_156_" class="st12" x1="110" y1="157.8" x2="110" y2="169.8"/>
		<line id="XMLID_155_" class="st12" x1="102" y1="155.8" x2="102" y2="173.8"/>
		<line id="XMLID_154_" class="st12" x1="93" y1="157.8" x2="93" y2="166.8"/>
		<path id="XMLID_153_" class="st12" d="M71.2,143.8l-5-16.5c5.6-4.1,17-4.1,22,0"/>
		<line id="XMLID_152_" class="st12" x1="92.3" y1="160.9" x2="76.1" y2="160.9"/>
		<path id="XMLID_151_" class="st14" d="M97.9,143.2c0-1.8,1.4-3.2,3.2-3.2c1.8,0,3.2,1.4,3.2,3.2"/>
	</g>
</g>
<g id="XMLID_255_" class="st0">
	<g id="XMLID_266_" class="st1">
		<path id="XMLID_267_" class="st15" d="M89.4,46.5l34.1,21.1l22.8,41.6l-3,26.2c0,6.1-12.2,7.6-12.2,0v-18c0-26.7-36.5-27.2-36.5,0
			c0,18.6-10.4,23.8-15.8,18.5c1.7-7.2,1.7-14.4,0-21.6c-5.3-9.9-5.3-19.5,0-28.7l-6.1-7.7L89.4,46.5z"/>
	</g>
	<g id="XMLID_264_" class="st1">
		<polyline id="XMLID_265_" class="st16" points="69.3,27.1 92.9,39.1 68.7,84.7 43.2,70.6 52.3,53 		"/>
	</g>
	<g id="XMLID_261_" class="st1">
		<circle id="XMLID_263_" class="st4" cx="63.5" cy="68.3" r="3.3"/>
		<circle id="XMLID_262_" class="st17" cx="63.5" cy="68.3" r="3.3"/>
	</g>
	<g id="XMLID_256_" class="st1">
		<g id="XMLID_259_">
			<polygon id="XMLID_260_" class="st18" points="125.4,131.5 135.1,142.7 109.1,173.3 83.5,142.7 93.2,131.5 			"/>
		</g>
		<g id="XMLID_257_">
			<path id="XMLID_258_" class="st4" d="M124.2,145.3c0.5,0.7,0.5,1.3,0,1.8l-8.5,9h-5.3l8.8-9.4c0.4-0.3,0.4-0.7,0-1l-5-5.4
				l-5.4,14.1c-0.3,0.7-0.8,1.3-1.4,1.6h-4.4l-8.6-9c-0.5-0.7-0.5-1.3,0-1.8l8.5-9h5.3l-8.8,9.4c-0.4,0.3-0.4,0.7,0,1l5.1,5.4
				l5.6-14.7c0.2-0.6,0.6-1,1.2-1.1h4.6h0.1L124.2,145.3z"/>
		</g>
	</g>
</g>
<g id="XMLID_294_" class="st0">
	<g id="XMLID_312_" class="st1">
		<g id="XMLID_313_">
			<ellipse id="XMLID_315_" class="st3" cx="97.8" cy="156.4" rx="54.1" ry="10.5"/>
			<path id="XMLID_314_" class="st3" d="M97.8,156.4"/>
		</g>
	</g>
	<g id="XMLID_307_" class="st1">
		<path id="XMLID_311_" class="st4" d="M61.7,83c0-7.6,69.6-7.6,69.6,0v59.5c0,7.6-6.2,13.8-13.8,13.8h-42
			c-7.6,0-13.8-6.2-13.8-13.8V83z"/>
		<g id="XMLID_309_">
			<path id="XMLID_310_" class="st19" d="M61.7,83c0-7.6,69.6-7.6,69.6,0v59.5c0,7.6-6.2,13.8-13.8,13.8h-42
				c-7.6,0-13.8-6.2-13.8-13.8V83z"/>
		</g>
		<path id="XMLID_308_" class="st20" d="M61.7,83c0-7.6,69.6-7.6,69.6,0v59.5c0,7.6-6.2,13.8-13.8,13.8h-42
			c-7.6,0-13.8-6.2-13.8-13.8V83z"/>
	</g>
	<g id="XMLID_305_" class="st1">
		<polygon id="XMLID_306_" class="st18" points="113.3,103 122.6,113.7 97.6,143.1 73.1,113.7 82.3,103 		"/>
	</g>
	<g id="XMLID_303_" class="st1">
		<path id="XMLID_304_" class="st4" d="M112.1,116.2c0.5,0.6,0.5,1.2,0,1.8l-8.1,8.7h-5.1l8.5-9c0.4-0.3,0.4-0.6,0-1l-4.8-5.2
			l-5.2,13.6c-0.3,0.7-0.7,1.2-1.4,1.5h-4.3l-8.2-8.6c-0.5-0.6-0.5-1.2,0-1.8l8.1-8.7h5.1l-8.5,9c-0.4,0.3-0.4,0.6,0,1l4.9,5.2
			l5.4-14.1c0.2-0.6,0.6-1,1.1-1h4.4h0.1L112.1,116.2z"/>
	</g>
	<g id="XMLID_301_" class="st1">
		<path id="XMLID_302_" class="st21" d="M134.5,91.1c12.1,0,21.8,9.8,21.8,21.8c0,12.1-9.8,21.8-21.8,21.8"/>
	</g>
	<g id="XMLID_299_" class="st1">
		<path id="XMLID_300_" class="st22" d="M111.8,23.1c0,0-43.7,6.4-17.5,24.3c21.1,14.4,1.7,21.4,1.7,21.4"/>
	</g>
	<g id="XMLID_295_" class="st1">
		<g id="XMLID_296_">
			<ellipse id="XMLID_298_" class="st3" cx="96.7" cy="83.1" rx="36.5" ry="7.5"/>
			<path id="XMLID_297_" class="st3" d="M96.7,83.1"/>
		</g>
	</g>
</g>
<g id="XMLID_316_" class="st0">
	<g id="XMLID_318_" class="st1">
		<path id="XMLID_334_" class="st23" d="M111.9,145.5h19.4c8,0,14.5,5.7,14.5,12.7v15.9"/>
		<path id="XMLID_333_" class="st23" d="M53,174.1v-15.9c0-7,6.5-12.7,14.5-12.7h19.4"/>
		<polyline id="XMLID_332_" class="st23" points="111.6,137.3 111.6,146.2 99.4,159.1 87.2,146.2 87.2,138.3 		"/>
		<path id="XMLID_331_" class="st23" d="M71.7,71.4C59.8,70.9,57.9,81.5,57,86.1c-5.1,3-8.4,8.3-8.4,14.4c0,5.4,2.7,10.2,6.8,13.3
			c-0.7,1.6-1.2,3.3-1.2,5.1c0,7.7,7.4,13.9,16.6,13.9c0.8,0,3.3,0,4.1-0.1"/>
		<path id="XMLID_330_" class="st24" d="M127.1,97c0.8-0.3,1.8-0.5,2.7-0.5c4.4,0,7.9,3.5,7.9,7.8c0,4.3-3.5,7.8-7.9,7.8"/>
		<path id="XMLID_329_" class="st24" d="M65.5,112.1c-4.4,0-7.9-3.5-7.9-7.8c0-4.3,3.5-7.8,7.9-7.8"/>
		<path id="XMLID_328_" class="st23" d="M128.3,96v13.2c0,16.8-13.8,30.5-30.8,30.5l0,0c-17,0-30.8-13.6-30.8-30.5V96"/>
		<path id="XMLID_327_" class="st23" d="M89.4,126.1c6.2,2.5,12.9,1.9,18.4-1"/>
		<path id="XMLID_326_" class="st23" d="M86.9,75.9c-2.6,7.4-8,13.9-15.5,17.8c-2,1-3.6,1.8-5.9,2.6"/>
		<path id="XMLID_325_" class="st23" d="M128.5,95.8c-13.3,0.7-29.4-3.5-35.7-17l-1.5-3.3"/>
		<polyline id="XMLID_324_" class="st23" points="101.6,115.6 95.6,115.6 95.6,103.8 		"/>
		<path id="XMLID_323_" class="st23" d="M75.6,107c0-3.3,2.6-5.9,5.9-5.9s5.9,2.7,5.9,5.9"/>
		<path id="XMLID_322_" class="st23" d="M104.8,107c0-3.3,2.6-5.9,5.9-5.9c3.3,0,5.9,2.7,5.9,5.9"/>
		<path id="XMLID_319_" class="st3" d="M147.7,63.2c0-1.7-1-3.1-2.5-3.7V46.2c0-1.7-1.3-3.1-2.9-3.4c-0.2-0.2-0.4-0.3-0.6-0.5
			L97.5,22.3c-0.5-0.2-1.2-0.2-1.7,0L51.6,42.4c-0.7,0.3-1.2,1.1-1.2,1.9s0.5,1.5,1.2,1.9l18.6,8.5h-0.1v23.2
			c0,6,12.7,11.5,26.5,11.5c13.9,0,26.5-5.5,26.5-11.5V54.7h-0.1l18.6-8.5c0.2-0.1,0.3-0.2,0.4-0.3c0.1,0.1,0.1,0.2,0.1,0.3v13.3
			c-1.5,0.6-2.5,2-2.5,3.7c0,1.7,1,3.1,2.5,3.7v10.2c0,0.8,0.7,1.5,1.5,1.5c0.8,0,1.5-0.7,1.5-1.5V66.9
			C146.7,66.3,147.7,64.9,147.7,63.2z M96.6,26.4l35.9,16.4H96.7c-0.8,0-1.5,0.7-1.5,1.5c0,0.8,0.7,1.5,1.5,1.5h35.9L96.6,62.2
			L57.5,44.3L96.6,26.4z"/>
	</g>
	<path id="XMLID_317_" class="st25" d="M123.5,71.4c11.9-0.5,13.8,10.1,14.7,14.7c5.1,3,8.4,8.3,8.4,14.4c0,5.4-2.7,10.2-6.8,13.3
		c0.7,1.6,1.2,3.3,1.2,5.1c0,7.7-7.4,13.9-16.6,13.9c-0.8,0-3.3,0-4.1-0.1"/>
</g>
<g id="XMLID_335_" class="st0">
	<path id="XMLID_350_" class="st8" d="M143.8,108.2c0,1.5-1.2,2.7-2.7,2.7c-1.5,0-2.7-1.2-2.7-2.7c0-1.5,1.2-2.7,2.7-2.7
		C142.6,105.5,143.8,106.7,143.8,108.2L143.8,108.2z"/>
	<path id="XMLID_342_" class="st8" d="M151.4,101.5l-24-24c-1.5-1.5-3.5-2.4-5.7-2.4c-2.1,0-4.2,0.8-5.7,2.4l-5.6,5.6
		c-0.9,0.9-1.5,1.9-1.9,3l-26.4-4.7c0,0,0,0,0,0C70.2,79,58.6,86.7,56.2,98.6l-1.2,6c-1.3,6.7,3,13.2,9.7,14.5
		c6.7,1.3,13.2-3,14.5-9.7l0.7-3.7l11.8,1l30.9,30.9l5.6,5.6c1.1,1.1,1.1,3,0,4.1c-1.1,1.1-3,1.1-4.1,0l-15-15c-1-1-2.7-1-3.8,0
		c-1,1-1,2.7,0,3.8l15,15c0.5,0.5,0.9,1.3,0.9,2.1c0,0.8-0.3,1.5-0.9,2.1c-1.1,1.1-3,1.1-4.1,0l-15-15c-1-1-2.7-1-3.8,0
		c-1,1-1,2.7,0,3.8l15,15c1.1,1.1,1.1,3,0,4.1c-0.5,0.5-1.3,0.9-2.1,0.9c-0.8,0-1.5-0.3-2.1-0.9l-15-15c-1-1-2.7-1-3.8,0
		c-1,1-1,2.7,0,3.8l15,15c1.1,1.1,1.1,3,0,4.1c-1.1,1.1-3,1.1-4.1,0L32.4,103c-1-1-2.7-1-3.8,0c-1,1-1,2.7,0,3.8l22.6,22.6l-4.2,4.2
		c-1.4,1.4-2.1,3.2-2.1,5.2c0,1.9,0.8,3.8,2.1,5.2l1.4,1.4c1.2,1.2,2.8,1.9,4.4,2.1c0.2,1.7,0.9,3.2,2.1,4.4l1.4,1.4
		c1.2,1.2,2.8,1.9,4.4,2.1c0.2,1.7,0.9,3.2,2.1,4.4l1.4,1.4c1.2,1.2,2.8,1.9,4.4,2.1c0.2,1.7,0.9,3.2,2.1,4.4l1.4,1.4
		c1.4,1.4,3.3,2.1,5.2,2.1s3.7-0.7,5.2-2.1l4.2-4.2l10.1,10.1c1.6,1.6,3.6,2.4,5.8,2.4c2.2,0,4.3-0.9,5.8-2.4
		c1.5-1.5,2.3-3.4,2.4-5.5c2.1-0.1,4-0.9,5.5-2.4c1.5-1.5,2.3-3.5,2.4-5.5c2-0.1,4-0.9,5.5-2.4c1.5-1.5,2.3-3.5,2.4-5.5
		c2-0.1,4-0.9,5.5-2.4c3.2-3.2,3.2-8.5,0-11.7l-3.7-3.7l13.6-13.6l9.4-9.4C154.5,109.7,154.5,104.6,151.4,101.5L151.4,101.5z
		 M50.8,140.2c-0.8-0.8-0.8-2,0-2.7l3.9-3.9l4.1,4.1l-3.9,3.9c-0.8,0.8-2,0.8-2.7,0L50.8,140.2z M58.7,148.1c-0.8-0.8-0.8-2,0-2.7
		l3.9-3.9l4.1,4.1l-3.9,3.9c-0.8,0.8-2,0.8-2.7,0L58.7,148.1z M66.6,156c-0.4-0.4-0.6-0.9-0.6-1.4c0-0.5,0.2-1,0.6-1.4l3.9-3.9
		l4.1,4.1l-3.9,3.9c-0.8,0.8-2,0.8-2.7,0L66.6,156z M78.6,165.3c-0.8,0.8-2,0.8-2.7,0l-1.4-1.4c-0.8-0.8-0.8-2,0-2.7l3.9-3.9
		l4.1,4.1L78.6,165.3z M124.6,132.1l-29.7-29.7c-0.4-0.4-1-0.7-1.7-0.8L78,100.3c-0.1,0-0.2,0-0.2,0c-1.3,0-2.4,0.9-2.6,2.1l-1.2,6
		c-0.8,3.8-4.4,6.2-8.2,5.5c-1.8-0.4-3.4-1.4-4.4-3c-1-1.6-1.4-3.4-1-5.2l1.2-6c1.8-9,10.6-14.8,19.6-13c0,0,0,0,0.1,0l26,4.7
		l29.1,29.1L124.6,132.1z M147.6,109.1l-7.5,7.5l-25.9-25.9c-0.5-0.5-0.8-1.2-0.8-1.9c0-0.7,0.3-1.4,0.8-1.9l5.6-5.6
		c0.5-0.5,1.2-0.8,1.9-0.8s1.4,0.3,1.9,0.8l24,24c0.5,0.5,0.8,1.2,0.8,1.9C148.4,107.9,148.1,108.5,147.6,109.1L147.6,109.1z"/>
	<polyline id="XMLID_341_" class="st26" points="99.2,60.1 99.4,24 116.2,24 116.2,68.6 126.8,68.6 135.9,36.6 152.8,36.6 
		152.8,68.6 193.7,68.6 155.2,99.6 	"/>
	<path id="XMLID_340_" class="st26" d="M24,98.9L-5.3,68.6h23.5c1.1-17.3,11.3-25.2,30.5-23.5v23.5h14.5l0-28.6h22.2l0.1,29.1h14.5"
		/>
	<line id="XMLID_339_" class="st27" x1="143.8" y1="55" x2="151.7" y2="55"/>
	<line id="XMLID_338_" class="st27" x1="143.8" y1="47" x2="151.7" y2="47"/>
	<line id="XMLID_337_" class="st27" x1="63.8" y1="57" x2="71.7" y2="57"/>
	<line id="XMLID_336_" class="st27" x1="63.8" y1="50" x2="71.7" y2="50"/>
</g>
<g id="XMLID_378_" class="st0">
	<g id="XMLID_398_" class="st1">
		<path id="XMLID_399_" class="st28" d="M111.9,50.7l-9.2-9.2L96,48.1c-3-1.9-5.5-3.3-9.9-4.1v-9.4h-6.5h-6.5V44
			c-4.3,0.8-6.9,2.2-9.9,4.1l-6.7-6.7l-9.2,9.2l6.7,6.7c-1.9,3-3.3,5.5-4.1,9.9h-9.4v13h9.4c0.8,4.3,2.2,6.9,4.1,9.9l-6.7,6.7
			l9.2,9.2l6.7-6.7c3,1.9,5.5,3.3,9.9,4.1v9.4h6.5"/>
	</g>
	<g id="XMLID_396_" class="st1">
		<path id="XMLID_397_" class="st28" d="M79.6,93.3C68.8,93.3,60,84.6,60,73.8c0-10.8,8.8-19.6,19.6-19.6h4.3"/>
	</g>
	<g id="XMLID_394_" class="st1">
		<path id="XMLID_395_" class="st28" d="M79.6,82.5c-4.8,0-8.7-3.9-8.7-8.7c0-4.8,3.9-8.7,8.7-8.7"/>
	</g>
	<g id="XMLID_391_" class="st1">
		<path id="XMLID_393_" class="st18" d="M149.1,73.8v-6.5c0-4.8-3.9-8.7-8.7-8.7H94.8c-4.8,0-8.7,3.9-8.7,8.7v6.5H149.1z"/>
		<path id="XMLID_392_" class="st28" d="M149.1,73.8v-6.5c0-4.8-3.9-8.7-8.7-8.7H94.8c-4.8,0-8.7,3.9-8.7,8.7v6.5H149.1z"/>
	</g>
	<g id="XMLID_388_" class="st1">
		<path id="XMLID_390_" class="st18" d="M86.1,145.5v8.7c0,4.2,4.5,8.7,8.7,8.7h45.6c4.2,0,8.7-4.5,8.7-8.7v-8.7H86.1z"/>
		<path id="XMLID_389_" class="st28" d="M86.1,145.5v8.7c0,4.2,4.5,8.7,8.7,8.7h45.6c4.2,0,8.7-4.5,8.7-8.7v-8.7H86.1z"/>
	</g>
	<g id="XMLID_385_" class="st1">
		<polygon id="XMLID_387_" class="st4" points="86.1,108.5 86.1,73.8 149.1,73.8 149.1,145.5 86.1,145.5 		"/>
		<polygon id="XMLID_386_" class="st28" points="86.1,108.5 86.1,73.8 149.1,73.8 149.1,145.5 86.1,145.5 		"/>
	</g>
	<g id="XMLID_383_" class="st1">
		<line id="XMLID_384_" class="st28" x1="110" y1="154.2" x2="125.2" y2="154.2"/>
	</g>
	<g id="XMLID_381_" class="st1">
		<path id="XMLID_382_" class="st28" d="M142.6,84.6h-5.1c-0.5,1.7-1.1,3.3-2,4.8l5.1,5.1l-7.7,7.7l-5.1-5.1c-1.5,0.9-3.1,1.5-4.8,2
			v7.3h-10.9v-7.3c-1.7-0.5-3.3-1.1-4.8-2l-5.1,5.1l-7.7-7.7l5.1-5.1c-0.9-1.5-1.5-3.1-2-4.8h-5.1"/>
	</g>
	<g id="XMLID_379_" class="st1">
		<path id="XMLID_380_" class="st28" d="M110.1,78.1c0,4.2,3.4,7.6,7.6,7.6c4.2,0,7.6-3.4,7.6-7.6"/>
	</g>
</g>
<g id="XMLID_439_" class="st0">
	<g id="XMLID_465_" class="st1">
		<path id="XMLID_466_" class="st3" d="M140.2,117.3c0-3.1,2.5-5.6,5.6-5.6s5.6,2.5,5.6,5.6c0,3.1-2.5,5.6-5.6,5.6
			S140.2,120.4,140.2,117.3z M130.7,107.8c0-3.1,2.5-5.6,5.6-5.6s5.6,2.5,5.6,5.6c0,3.1-2.5,5.6-5.6,5.6S130.7,110.9,130.7,107.8z
			 M130.7,126.8c0-3.1,2.5-5.6,5.6-5.6s5.6,2.5,5.6,5.6s-2.5,5.6-5.6,5.6S130.7,129.9,130.7,126.8z M121.2,117.3
			c0-3.1,2.5-5.6,5.6-5.6s5.6,2.5,5.6,5.6c0,3.1-2.5,5.6-5.6,5.6S121.2,120.4,121.2,117.3z"/>
	</g>
	<g id="XMLID_463_" class="st1">
		<path id="XMLID_464_" class="st2" d="M109.7,100.2c5.8-7.8,15.1-12.8,25.6-12.8c17.6,0,31.9,14.3,31.9,31.9
			c0,17.6-14.3,31.9-31.9,31.9c-10.5,0-19.7-5-25.6-12.8H78.3c-5.8,7.8-15.1,12.8-25.6,12.8c-17.6,0-31.9-14.3-31.9-31.9
			c0-17.6,14.3-31.9,31.9-31.9c10.5,0,19.7,5,25.6,12.8H109.7z"/>
	</g>
	<g id="XMLID_461_" class="st1">
		<polygon id="XMLID_462_" class="st18" points="46.3,104.6 55.3,104.6 55.3,113.8 64.4,113.8 64.4,122.8 55.3,122.8 55.3,131.9 
			46.3,131.9 46.3,122.8 37.2,122.8 37.2,113.8 46.3,113.8 		"/>
	</g>
	<g id="XMLID_457_" class="st1">
		<g id="XMLID_458_">
			<polygon id="XMLID_460_" class="st2" points="85.3,87.2 102.7,87.2 102.7,100.4 85.3,100.4 85.3,87.2 			"/>
			<path id="XMLID_459_" class="st2" d="M94,93.8"/>
		</g>
	</g>
	<g id="XMLID_455_" class="st1">
		<path id="XMLID_456_" class="st2" d="M92.5,86.8c0,0,4.3-15.7,0-24c-8.3-16.2-28.4,0-46.6,0"/>
	</g>
	<g id="XMLID_450_" class="st1">
		<g id="XMLID_451_">
			<defs>
				<line id="XMLID_452_" x1="29.2" y1="70.6" x2="37.2" y2="69.3"/>
			</defs>
			<clipPath id="XMLID_708_">
				<use xlink:href="#XMLID_452_"  style="overflow:visible;"/>
			</clipPath>
			<g id="XMLID_453_" class="st29">
				<line id="XMLID_454_" class="st30" x1="29.2" y1="70.6" x2="37.2" y2="69.3"/>
			</g>
			
				<use xlink:href="#XMLID_452_"  style="overflow:visible;fill:none;stroke:#F80E41;stroke-width:5.1024;stroke-linecap:round;stroke-linejoin:round;stroke-miterlimit:3.8637;"/>
		</g>
	</g>
	<g id="XMLID_445_" class="st1">
		<g id="XMLID_446_">
			<defs>
				<line id="XMLID_447_" x1="30.6" y1="57.4" x2="38.2" y2="60.3"/>
			</defs>
			<clipPath id="XMLID_709_">
				<use xlink:href="#XMLID_447_"  style="overflow:visible;"/>
			</clipPath>
			<g id="XMLID_448_" class="st31">
				<line id="XMLID_449_" class="st30" x1="30.6" y1="57.4" x2="38.2" y2="60.3"/>
			</g>
			
				<use xlink:href="#XMLID_447_"  style="overflow:visible;fill:none;stroke:#F80E41;stroke-width:5.1024;stroke-linecap:round;stroke-linejoin:round;stroke-miterlimit:3.8637;"/>
		</g>
	</g>
	<g id="XMLID_440_" class="st1">
		<g id="XMLID_441_">
			<defs>
				<line id="XMLID_442_" x1="38.8" y1="47.2" x2="44" y2="53.5"/>
			</defs>
			<clipPath id="XMLID_710_">
				<use xlink:href="#XMLID_442_"  style="overflow:visible;"/>
			</clipPath>
			<g id="XMLID_443_" class="st32">
				<line id="XMLID_444_" class="st30" x1="38.8" y1="47.2" x2="44" y2="53.5"/>
			</g>
			
				<use xlink:href="#XMLID_442_"  style="overflow:visible;fill:none;stroke:#F80E41;stroke-width:5.1024;stroke-linecap:round;stroke-linejoin:round;stroke-miterlimit:3.8637;"/>
		</g>
	</g>
</g>
<g id="XMLID_497_" class="st0">
	<g id="XMLID_523_" class="st1">
		<path id="XMLID_528_" class="st3" d="M135.4,13.9H68.3c-8.1,0-14.8,6.6-14.8,14.8V55h-5c-5.1,0-9.3,4.2-9.3,9.3v21.4
			c0,5.1,4.2,9.3,9.3,9.3h1.5v4c0,1.4,0.8,2.7,2.1,3.4c0.5,0.3,1.1,0.4,1.7,0.4c0.8,0,1.6-0.3,2.3-0.8l9.2-7h17.8
			c5.1,0,9.3-4.2,9.3-9.3v-3.2h13.2L123,95.9c0.8,0.6,1.8,0.9,2.8,0.9c2.5,0,4.6-2.1,4.6-4.6v-9.7h5c8.2,0,14.8-6.6,14.8-14.8V28.6
			C150.2,20.5,143.6,13.9,135.4,13.9z M86.9,85.8c0,2.1-1.7,3.8-3.8,3.8H63.4l-7.8,6v-6h-7c-2.1,0-3.8-1.7-3.8-3.8V64.4
			c0-2.1,1.7-3.8,3.8-3.8h5v7.2c0,8.2,6.6,14.8,14.8,14.8h18.6V85.8z M144.7,67.8c0,5.1-4.2,9.3-9.3,9.3h-10.6v13.3L107.5,77H68.3
			c-5.1,0-9.3-4.2-9.3-9.3V28.6c0-5.1,4.2-9.3,9.3-9.3h67.1c5.1,0,9.3,4.2,9.3,9.3V67.8z"/>
		<path id="XMLID_524_" class="st33" d="M135.4,13.9H68.3c-8.1,0-14.8,6.6-14.8,14.8V55h-5c-5.1,0-9.3,4.2-9.3,9.3v21.4
			c0,5.1,4.2,9.3,9.3,9.3h1.5v4c0,1.4,0.8,2.7,2.1,3.4c0.5,0.3,1.1,0.4,1.7,0.4c0.8,0,1.6-0.3,2.3-0.8l9.2-7h17.8
			c5.1,0,9.3-4.2,9.3-9.3v-3.2h13.2L123,95.9c0.8,0.6,1.8,0.9,2.8,0.9c2.5,0,4.6-2.1,4.6-4.6v-9.7h5c8.2,0,14.8-6.6,14.8-14.8V28.6
			C150.2,20.5,143.6,13.9,135.4,13.9z M86.9,85.8c0,2.1-1.7,3.8-3.8,3.8H63.4l-7.8,6v-6h-7c-2.1,0-3.8-1.7-3.8-3.8V64.4
			c0-2.1,1.7-3.8,3.8-3.8h5v7.2c0,8.2,6.6,14.8,14.8,14.8h18.6V85.8z M144.7,67.8c0,5.1-4.2,9.3-9.3,9.3h-10.6v13.3L107.5,77H68.3
			c-5.1,0-9.3-4.2-9.3-9.3V28.6c0-5.1,4.2-9.3,9.3-9.3h67.1c5.1,0,9.3,4.2,9.3,9.3V67.8z"/>
	</g>
	<g id="XMLID_520_" class="st1">
		<path id="XMLID_522_" class="st3" d="M170.6,127.4c-1.3-15.7-14.1-28.6-29.8-30.1c-13.5-1.2-26.2,5.8-32.3,17.8c0,0,0,0.1-0.1,0.1
			l-12.3,28.4c-0.2,0.6-0.2,1.2,0.2,1.7c0.3,0.5,0.9,0.8,1.5,0.8h7v7.3c0,5.4,4.4,9.7,9.7,9.7h4.8v19.5c0,1,0.8,1.8,1.8,1.8
			c1,0,1.8-0.8,1.8-1.8v-21.3c0-1-0.8-1.8-1.8-1.8h-6.6c-3.3,0-6-2.7-6-6v-9.1c0-1-0.8-1.8-1.8-1.8h-6l11.1-25.7
			c5.5-10.6,16.7-16.8,28.7-15.7c13.9,1.3,25.3,12.7,26.5,26.7c0.9,11-4.3,21.5-13.7,27.3c-0.5,0.3-0.9,0.9-0.9,1.6v26.1
			c0,1,0.8,1.8,1.8,1.8c1,0,1.8-0.8,1.8-1.8v-25.1C166.1,150.9,171.6,139.4,170.6,127.4z"/>
		<path id="XMLID_521_" class="st34" d="M170.6,127.4c-1.3-15.7-14.1-28.6-29.8-30.1c-13.5-1.2-26.2,5.8-32.3,17.8
			c0,0,0,0.1-0.1,0.1l-12.3,28.4c-0.2,0.6-0.2,1.2,0.2,1.7c0.3,0.5,0.9,0.8,1.5,0.8h7v7.3c0,5.4,4.4,9.7,9.7,9.7h4.8v19.5
			c0,1,0.8,1.8,1.8,1.8c1,0,1.8-0.8,1.8-1.8v-21.3c0-1-0.8-1.8-1.8-1.8h-6.6c-3.3,0-6-2.7-6-6v-9.1c0-1-0.8-1.8-1.8-1.8h-6
			l11.1-25.7c5.5-10.6,16.7-16.8,28.7-15.7c13.9,1.3,25.3,12.7,26.5,26.7c0.9,11-4.3,21.5-13.7,27.3c-0.5,0.3-0.9,0.9-0.9,1.6v26.1
			c0,1,0.8,1.8,1.8,1.8c1,0,1.8-0.8,1.8-1.8v-25.1C166.1,150.9,171.6,139.4,170.6,127.4z"/>
	</g>
	<g id="XMLID_517_" class="st1">
		<path id="XMLID_519_" class="st3" d="M19.1,135.4c1.3-15.7,14.1-28.6,29.8-30.1c13.5-1.2,26.2,5.8,32.3,17.8c0,0,0,0.1,0.1,0.1
			l12.3,28.4c0.2,0.6,0.2,1.2-0.2,1.7c-0.3,0.5-0.9,0.8-1.5,0.8h-7v7.3c0,5.4-4.4,9.7-9.7,9.7h-4.8v9.5c0,1-0.8,1.8-1.8,1.8
			s-1.8-0.8-1.8-1.8v-11.3c0-1,0.8-1.8,1.8-1.8h6.6c3.3,0,6-2.7,6-6v-9.1c0-1,0.8-1.8,1.8-1.8h6l-11.1-25.7
			c-5.5-10.6-16.7-16.8-28.7-15.7c-13.9,1.3-25.3,12.7-26.5,26.7c-0.9,11,4.3,21.5,13.7,27.3c0.5,0.3,0.9,0.9,0.9,1.6v16.1
			c0,1-0.8,1.8-1.8,1.8c-1,0-1.8-0.8-1.8-1.8v-15.1C23.6,158.9,18.1,147.4,19.1,135.4z"/>
		<path id="XMLID_518_" class="st34" d="M19.1,135.4c1.3-15.7,14.1-28.6,29.8-30.1c13.5-1.2,26.2,5.8,32.3,17.8c0,0,0,0.1,0.1,0.1
			l12.3,28.4c0.2,0.6,0.2,1.2-0.2,1.7c-0.3,0.5-0.9,0.8-1.5,0.8h-7v7.3c0,5.4-4.4,9.7-9.7,9.7h-4.8v9.5c0,1-0.8,1.8-1.8,1.8
			s-1.8-0.8-1.8-1.8v-11.3c0-1,0.8-1.8,1.8-1.8h6.6c3.3,0,6-2.7,6-6v-9.1c0-1,0.8-1.8,1.8-1.8h6l-11.1-25.7
			c-5.5-10.6-16.7-16.8-28.7-15.7c-13.9,1.3-25.3,12.7-26.5,26.7c-0.9,11,4.3,21.5,13.7,27.3c0.5,0.3,0.9,0.9,0.9,1.6v16.1
			c0,1-0.8,1.8-1.8,1.8c-1,0-1.8-0.8-1.8-1.8v-15.1C23.6,158.9,18.1,147.4,19.1,135.4z"/>
	</g>
	<g id="XMLID_515_" class="st1">
		<path id="XMLID_516_" class="st23" d="M114,129.8c0-3.3,2.6-5.9,5.9-5.9c3.3,0,5.9,2.7,5.9,5.9"/>
	</g>
	<g id="XMLID_513_" class="st1">
		<path id="XMLID_514_" class="st23" d="M59,133.1c0-3.3,2.6-5.9,5.9-5.9c3.3,0,5.9,2.7,5.9,5.9"/>
	</g>
	<g id="XMLID_511_" class="st1">
		<line id="XMLID_512_" class="st30" x1="71.4" y1="49.1" x2="133.4" y2="49.1"/>
	</g>
	<g id="XMLID_509_" class="st1">
		<line id="XMLID_510_" class="st30" x1="85.4" y1="62.1" x2="119.4" y2="62.1"/>
	</g>
	<g id="XMLID_507_" class="st1">
		<line id="XMLID_508_" class="st30" x1="94.2" y1="35.6" x2="125.2" y2="35.6"/>
	</g>
	<g id="XMLID_505_" class="st1">
		<line id="XMLID_506_" class="st30" x1="71.3" y1="35.6" x2="86.2" y2="35.6"/>
	</g>
	<g id="XMLID_500_" class="st1">
		<g id="XMLID_501_">
			<defs>
				<line id="XMLID_502_" x1="72.4" y1="62.1" x2="77.4" y2="62.1"/>
			</defs>
			<clipPath id="XMLID_711_">
				<use xlink:href="#XMLID_502_"  style="overflow:visible;"/>
			</clipPath>
			<g id="XMLID_503_" class="st35">
				<line id="XMLID_504_" class="st30" x1="72.4" y1="62.1" x2="106.4" y2="62.1"/>
			</g>
			
				<use xlink:href="#XMLID_502_"  style="overflow:visible;fill:none;stroke:#F80E41;stroke-width:5.1024;stroke-linecap:round;stroke-linejoin:round;stroke-miterlimit:3.8637;"/>
		</g>
	</g>
	<g id="XMLID_498_" class="st1">
		<line id="XMLID_499_" class="st30" x1="127.4" y1="62.1" x2="132.4" y2="62.1"/>
	</g>
</g>
<g id="XMLID_532_" class="st0">
	<g id="XMLID_572_" class="st1">
		<g id="XMLID_573_">
			<path id="XMLID_575_" class="st36" d="M34.7,65.1c0-9.4,7.6-17,17-17h73c9.4,0,17,7.6,17,17v55c0,9.4-7.6,17-17,17h-73
				c-9.4,0-17-7.6-17-17V65.1L34.7,65.1z"/>
			<path id="XMLID_574_" class="st36" d="M88.2,92.6"/>
		</g>
	</g>
	<g id="XMLID_570_" class="st1">
		<path id="XMLID_571_" class="st36" d="M34.8,65.1c0-0.2,0-0.3,0-0.5"/>
	</g>
	<g id="XMLID_567_" class="st1">
		<path id="XMLID_569_" class="st3" d="M34.8,64.6c0.2-9.2,7.7-16.5,16.9-16.5h73c9.4,0,17,7.6,17,17L34.8,64.6z"/>
		<path id="XMLID_568_" class="st36" d="M34.8,64.6c0.2-9.2,7.7-16.5,16.9-16.5h73c9.4,0,17,7.6,17,17L34.8,64.6z"/>
	</g>
	<g id="XMLID_563_" class="st1">
		<g id="XMLID_564_">
			<circle id="XMLID_566_" class="st3" cx="127.8" cy="128.8" r="35.5"/>
			<path id="XMLID_565_" class="st3" d="M127.8,128.8"/>
		</g>
	</g>
	<g id="XMLID_561_" class="st1">
		<path id="XMLID_562_" class="st4" d="M152.7,127.2c0.8,1.1,0.8,2.1,0,3l-14.1,15.1h-8.8l14.6-15.6c0.6-0.5,0.6-1.1,0-1.7l-8.3-8.9
			l-9,23.5c-0.5,1.2-1.3,2.1-2.4,2.7h-7.4l-14.2-15c-0.8-1.1-0.8-2.1,0-3l14.1-15.1h8.8l-14.6,15.6c-0.6,0.5-0.6,1.1,0,1.7l8.4,9
			l9.3-24.4c0.3-1,1-1.7,2-1.8h7.6h0.1L152.7,127.2z"/>
	</g>
	<g id="XMLID_559_" class="st1">
		<path id="XMLID_560_" class="st37" d="M49.5,46.5C49.5,40.7,54.2,36,60,36c5.8,0,10.5,4.7,10.5,10.5"/>
	</g>
	<g id="XMLID_557_" class="st1">
		<path id="XMLID_558_" class="st38" d="M60,57c-5.8,0-10.5-4.7-10.5-10.5"/>
	</g>
	<g id="XMLID_555_" class="st1">
		<path id="XMLID_556_" class="st37" d="M104.5,46.5c0-5.8,4.7-10.5,10.5-10.5c5.8,0,10.5,4.7,10.5,10.5"/>
	</g>
	<g id="XMLID_553_" class="st1">
		<path id="XMLID_554_" class="st38" d="M115,57c-5.8,0-10.5-4.7-10.5-10.5"/>
	</g>
	<g id="XMLID_551_" class="st1">
		<line id="XMLID_552_" class="st30" x1="49.3" y1="79.1" x2="64.2" y2="79.1"/>
	</g>
	<g id="XMLID_549_" class="st1">
		<line id="XMLID_550_" class="st30" x1="78.3" y1="79.1" x2="93.2" y2="79.1"/>
	</g>
	<g id="XMLID_547_" class="st1">
		<line id="XMLID_548_" class="st30" x1="107.3" y1="79.1" x2="122.2" y2="79.1"/>
	</g>
	<g id="XMLID_545_" class="st1">
		<line id="XMLID_546_" class="st30" x1="50.3" y1="90.1" x2="65.2" y2="90.1"/>
	</g>
	<g id="XMLID_543_" class="st1">
		<line id="XMLID_544_" class="st30" x1="79.3" y1="90.1" x2="94.2" y2="90.1"/>
	</g>
	<g id="XMLID_541_" class="st1">
		<line id="XMLID_542_" class="st30" x1="108.3" y1="90.1" x2="123.2" y2="90.1"/>
	</g>
	<g id="XMLID_539_" class="st1">
		<line id="XMLID_540_" class="st30" x1="50.3" y1="101.1" x2="65.2" y2="101.1"/>
	</g>
	<g id="XMLID_537_" class="st1">
		<line id="XMLID_538_" class="st30" x1="79.3" y1="101.1" x2="94.2" y2="101.1"/>
	</g>
	<g id="XMLID_535_" class="st1">
		<line id="XMLID_536_" class="st30" x1="50.3" y1="113.1" x2="65.2" y2="113.1"/>
	</g>
	<g id="XMLID_533_" class="st1">
		<line id="XMLID_534_" class="st30" x1="79.3" y1="113.1" x2="94.2" y2="113.1"/>
	</g>
</g>
<g id="XMLID_576_" class="st0">
	<polygon id="XMLID_589_" class="st39" points="71.3,103.1 93.2,109.8 75.3,168.1 67,156.4 53.5,161.5 	"/>
	<polygon id="XMLID_588_" class="st39" points="97.5,103.1 75.6,109.8 93.4,168.1 101.8,156.4 115.3,161.5 	"/>
	<g id="XMLID_585_" class="st1">
		<circle id="XMLID_587_" class="st4" cx="85.6" cy="95.3" r="38.8"/>
		<path id="XMLID_586_" class="st4" d="M85.6,95.3"/>
	</g>
	<path id="XMLID_577_" class="st39" d="M150.8,50.9c-0.1-0.8-0.7-1.4-1.4-1.7l-13-5.6l-5.6-13c-0.3-0.7-1-1.2-1.7-1.4
		c-0.8-0.1-1.6,0.1-2.1,0.7l-8,8c0,0-7.6,7.6-7.6,7.6c-0.7,0.7-0.9,1.7-0.5,2.6l5.2,12.1l-4.2,4.2c-7.5-6.4-16.9-9.9-26.9-9.9
		c-11.1,0-21.6,4.3-29.4,12.2C47.8,74.6,43.5,85,43.5,96.2c0,11.1,4.3,21.6,12.2,29.4c7.9,7.9,18.3,12.2,29.4,12.2
		s21.6-4.3,29.4-12.2c7.9-7.9,12.2-18.3,12.2-29.4c0-10.6-3.9-20.5-11.1-28.2l4.1-4.1l12.3,5.3c0.3,0.1,0.6,0.2,0.9,0.2
		c0.6,0,1.2-0.2,1.7-0.7L150.2,53C150.8,52.5,151,51.7,150.8,50.9z M127.9,35.7l3.9,9.1l-1.7,1.7l-0.1-0.1l-2.6,2.6l-3.9-8.9
		L127.9,35.7z M115.9,47.7l4.1-4.1l3.9,8.9l-4.1,4.1L115.9,47.7z M119.6,96.2c0,9.2-3.6,17.9-10.1,24.5
		c-6.5,6.5-15.2,10.1-24.5,10.1s-17.9-3.6-24.5-10.1c-6.5-6.5-10.1-15.2-10.1-24.5c0-9.2,3.6-17.9,10.1-24.5
		c6.5-6.5,15.2-10.1,24.5-10.1c8.1,0,15.8,2.8,21.9,7.9l-6.3,6.3c-4.5-3.4-9.9-5.3-15.6-5.3c-6.9,0-13.4,2.7-18.2,7.5
		c-10,10-10,26.4,0,36.4c4.9,4.9,11.3,7.5,18.2,7.5c6.9,0,13.4-2.7,18.2-7.5c9.7-9.7,10-25.1,1.1-35.2l6.3-6.3
		C116.5,79.3,119.6,87.5,119.6,96.2z M103.8,96.2c0,5-1.9,9.7-5.5,13.3c-3.5,3.5-8.2,5.5-13.3,5.5c-5,0-9.7-1.9-13.3-5.5
		c-3.5-3.5-5.5-8.2-5.5-13.3c0-5,1.9-9.7,5.5-13.3c3.5-3.5,8.2-5.5,13.3-5.5c3.9,0,7.5,1.2,10.6,3.3l-6.8,6.8
		c-3.5-1.5-7.6-0.9-10.5,1.9c-3.7,3.7-3.7,9.6,0,13.3c3.7,3.7,9.6,3.7,13.3,0c3.3-3.3,3.6-8.4,1-12.1l6.6-6.6
		C102.2,87.5,103.8,91.7,103.8,96.2z M132.4,64.2l-9.1-3.9l4.1-4.1l9.1,3.9L132.4,64.2z M140,56.5l-9.1-3.9l2.6-2.6
		c0,0,1.7-1.8,1.7-1.8l9.1,3.9L140,56.5z"/>
</g>
<path id="XMLID_590_" class="st40" d="M109.9,161.2c0.9-21.7,7.5-38.4,23.9-43.7l3,5.6C124.4,129.8,116.1,142,109.9,161.2z
	 M71.2,60.7l-14.3,3.3l-7.6,12.6l-7.6-12.6l-14.3-3.3L37,49.6L35.8,35l13.5,5.7L62.8,35l-1.2,14.6L71.2,60.7z M89.5,52.1l2.4-7.4
	l-3.6-6.9l7.8,0l5.4-5.6l2.4,7.4l7,3.4l-6.3,4.6l-1.1,7.7l-6.3-4.6L89.5,52.1z M128.8,61.9l10.5-2.7l5.5-9.4l5.8,9.2l10.6,2.3
	l-7,8.3l1.1,10.8l-10.1-4.1l-9.9,4.4L136,70L128.8,61.9z M91.9,53.9l4.8-0.9l3.9,3.1c-3.7,9.5-4.8,23.6-3.3,42.3
	C90,79,88.2,64.2,91.9,53.9z M55.2,75.3l4.8-8.3l8.9-2.5c17.2,22.2,28.3,55.7,33.4,100.4C90.2,122.8,74.5,92.9,55.2,75.3z
	 M128.7,67.2l5.2,3.9l-1.9,11.1c-12.3,11.8-20.3,36.9-24.2,75.4C104.6,109.7,111.6,79.6,128.7,67.2z M65.7,107.5l-9.2,3.5l-3.9,9
	l-6.2-7.6l-9.8-0.9l5.3-8.2l-2.2-9.6l9.5,2.5l8.4-5l0.5,9.8L65.7,107.5z M64.4,110.9c10.6,8.7,18.3,25.9,23.1,51.5
	c-10.5-21.1-20.8-35.6-31-43.5l2.2-5.9L64.4,110.9z M135.5,114.1l7.5,0l5.2-5.4l2.3,7.2l6.8,3.3l-6.1,4.4l-1.1,7.5l-6.1-4.4
	l-7.4,1.3l2.3-7.2L135.5,114.1z"/>
<g id="XMLID_601_" class="st0">
	<g id="XMLID_639_" class="st1">
		<g id="XMLID_647_">
			<g id="XMLID_648_">
				<polygon id="XMLID_650_" class="st41" points="60,34.6 106.3,34.6 106.3,66.4 60,66.4 60,34.6 				"/>
				<path id="XMLID_649_" class="st41" d="M83.1,50.5"/>
			</g>
		</g>
		<g id="XMLID_640_">
			<g id="XMLID_644_">
				<path id="XMLID_646_" class="st4" d="M34.9,64c0-8.8,7.1-15.9,15.9-15.9H115c8.8,0,15.9,7.1,15.9,15.9v40
					c0,8.8-7.1,15.9-15.9,15.9H50.8c-8.8,0-15.9-7.1-15.9-15.9V64L34.9,64z"/>
				<path id="XMLID_645_" class="st4" d="M82.9,84"/>
			</g>
			<g id="XMLID_641_">
				<path id="XMLID_643_" class="st42" d="M34.9,64c0-8.8,7.1-15.9,15.9-15.9H115c8.8,0,15.9,7.1,15.9,15.9v40
					c0,8.8-7.1,15.9-15.9,15.9H50.8c-8.8,0-15.9-7.1-15.9-15.9V64L34.9,64z"/>
				<path id="XMLID_642_" class="st42" d="M82.9,84"/>
			</g>
		</g>
	</g>
	<g id="XMLID_636_" class="st1">
		<path id="XMLID_638_" class="st3" d="M41.4,103.9c0-0.3,0.1-0.6,0.3-0.8c0.2-0.2,0.5-0.3,0.8-0.3c0.8,0,1.6-0.2,2.4-0.5
			c0.7-0.3,1.4-0.7,1.9-1.3s0.9-1.2,1.3-1.9c0.3-0.7,0.5-1.5,0.5-2.3V81.5c0-0.3,0.1-0.6,0.3-0.8c0.2-0.2,0.5-0.3,0.8-0.3
			c0.3,0,0.6,0.1,0.8,0.3s0.3,0.5,0.3,0.8v15.2c0,1.2-0.2,2.2-0.7,3.2c-0.4,1-1,1.9-1.8,2.6c-0.7,0.7-1.6,1.3-2.6,1.8
			c-1,0.4-2.1,0.7-3.3,0.7c-0.3,0-0.6-0.1-0.8-0.3C41.5,104.5,41.4,104.2,41.4,103.9z"/>
		<path id="XMLID_637_" class="st43" d="M41.4,103.9c0-0.3,0.1-0.6,0.3-0.8c0.2-0.2,0.5-0.3,0.8-0.3c0.8,0,1.6-0.2,2.4-0.5
			c0.7-0.3,1.4-0.7,1.9-1.3s0.9-1.2,1.3-1.9c0.3-0.7,0.5-1.5,0.5-2.3V81.5c0-0.3,0.1-0.6,0.3-0.8c0.2-0.2,0.5-0.3,0.8-0.3
			c0.3,0,0.6,0.1,0.8,0.3s0.3,0.5,0.3,0.8v15.2c0,1.2-0.2,2.2-0.7,3.2c-0.4,1-1,1.9-1.8,2.6c-0.7,0.7-1.6,1.3-2.6,1.8
			c-1,0.4-2.1,0.7-3.3,0.7c-0.3,0-0.6-0.1-0.8-0.3C41.5,104.5,41.4,104.2,41.4,103.9z"/>
	</g>
	<g id="XMLID_629_" class="st1">
		<path id="XMLID_633_" class="st3" d="M54.7,92.7c0-1.7,0.3-3.3,1-4.8c0.6-1.5,1.5-2.8,2.6-3.9c1.1-1.1,2.4-2,3.9-2.6
			c1.5-0.6,3.1-1,4.8-1c1.7,0,3.3,0.3,4.8,1c1.5,0.6,2.8,1.5,3.9,2.6c1.1,1.1,2,2.4,2.6,3.9c0.6,1.5,1,3.1,1,4.8
			c0,1.7-0.3,3.3-1,4.8c-0.6,1.5-1.5,2.8-2.6,3.9c-1.1,1.1-2.4,2-3.9,2.6c-1.5,0.6-3.1,1-4.8,1c-1.7,0-3.3-0.3-4.8-1
			c-1.5-0.6-2.8-1.5-3.9-2.6c-1.1-1.1-2-2.4-2.6-3.9C55,96,54.7,94.4,54.7,92.7z M57.1,92.7c0,1.4,0.3,2.6,0.8,3.9
			c0.5,1.2,1.2,2.3,2.1,3.1c0.9,0.9,1.9,1.6,3.1,2.1c1.2,0.5,2.5,0.8,3.9,0.8c1.4,0,2.6-0.3,3.9-0.8c1.2-0.5,2.3-1.2,3.2-2.1
			c0.9-0.9,1.6-1.9,2.1-3.1c0.5-1.2,0.8-2.5,0.8-3.9c0-1.4-0.3-2.6-0.8-3.9c-0.5-1.2-1.2-2.3-2.1-3.2c-0.9-0.9-2-1.6-3.2-2.1
			c-1.2-0.5-2.5-0.8-3.9-0.8c-1.4,0-2.6,0.3-3.9,0.8c-1.2,0.5-2.3,1.2-3.1,2.1c-0.9,0.9-1.6,2-2.1,3.2
			C57.3,90.1,57.1,91.4,57.1,92.7z"/>
		<path id="XMLID_630_" class="st43" d="M54.7,92.7c0-1.7,0.3-3.3,1-4.8c0.6-1.5,1.5-2.8,2.6-3.9c1.1-1.1,2.4-2,3.9-2.6
			c1.5-0.6,3.1-1,4.8-1c1.7,0,3.3,0.3,4.8,1c1.5,0.6,2.8,1.5,3.9,2.6c1.1,1.1,2,2.4,2.6,3.9c0.6,1.5,1,3.1,1,4.8
			c0,1.7-0.3,3.3-1,4.8c-0.6,1.5-1.5,2.8-2.6,3.9c-1.1,1.1-2.4,2-3.9,2.6c-1.5,0.6-3.1,1-4.8,1c-1.7,0-3.3-0.3-4.8-1
			c-1.5-0.6-2.8-1.5-3.9-2.6c-1.1-1.1-2-2.4-2.6-3.9C55,96,54.7,94.4,54.7,92.7z M57.1,92.7c0,1.4,0.3,2.6,0.8,3.9
			c0.5,1.2,1.2,2.3,2.1,3.1c0.9,0.9,1.9,1.6,3.1,2.1c1.2,0.5,2.5,0.8,3.9,0.8c1.4,0,2.6-0.3,3.9-0.8c1.2-0.5,2.3-1.2,3.2-2.1
			c0.9-0.9,1.6-1.9,2.1-3.1c0.5-1.2,0.8-2.5,0.8-3.9c0-1.4-0.3-2.6-0.8-3.9c-0.5-1.2-1.2-2.3-2.1-3.2c-0.9-0.9-2-1.6-3.2-2.1
			c-1.2-0.5-2.5-0.8-3.9-0.8c-1.4,0-2.6,0.3-3.9,0.8c-1.2,0.5-2.3,1.2-3.1,2.1c-0.9,0.9-1.6,2-2.1,3.2
			C57.3,90.1,57.1,91.4,57.1,92.7z"/>
	</g>
	<g id="XMLID_616_" class="st1">
		<g id="XMLID_626_">
			<circle id="XMLID_628_" class="st4" cx="105.6" cy="96.1" r="36.8"/>
			<path id="XMLID_627_" class="st4" d="M105.6,96.1"/>
		</g>
		<g id="XMLID_620_">
			<defs>
				<circle id="XMLID_621_" cx="105.6" cy="96.1" r="36.8"/>
			</defs>
			<clipPath id="XMLID_712_">
				<use xlink:href="#XMLID_621_"  style="overflow:visible;"/>
			</clipPath>
			<g id="XMLID_622_" class="st44">
				<path id="XMLID_623_" class="st3" d="M53.4,93.4c0-2.8,0.5-5.4,1.6-7.8c1-2.4,2.5-4.6,4.3-6.4c1.8-1.8,3.9-3.3,6.3-4.3
					c2.4-1,5-1.6,7.8-1.6c2.8,0,5.4,0.5,7.8,1.6c2.4,1,4.6,2.5,6.4,4.3c1.8,1.8,3.3,4,4.3,6.4c1,2.4,1.6,5,1.6,7.8
					c0,2.8-0.5,5.4-1.6,7.8c-1,2.4-2.5,4.5-4.3,6.4c-1.8,1.8-4,3.2-6.4,4.3c-2.4,1-5,1.6-7.8,1.6c-2.8,0-5.4-0.5-7.8-1.6
					c-2.4-1-4.5-2.5-6.3-4.3c-1.8-1.8-3.2-3.9-4.3-6.4C53.9,98.8,53.4,96.2,53.4,93.4z M57.3,93.4c0,2.2,0.4,4.3,1.3,6.3
					c0.8,2,2,3.7,3.4,5.1c1.4,1.4,3.2,2.6,5.1,3.4c2,0.8,4.1,1.3,6.3,1.3c2.2,0,4.3-0.4,6.3-1.3c2-0.8,3.7-2,5.2-3.4
					c1.5-1.4,2.6-3.2,3.5-5.1c0.8-2,1.3-4.1,1.3-6.3c0-2.2-0.4-4.3-1.3-6.3c-0.8-2-2-3.7-3.5-5.2c-1.5-1.5-3.2-2.6-5.2-3.5
					c-2-0.8-4.1-1.3-6.3-1.3c-2.2,0-4.3,0.4-6.3,1.3c-2,0.8-3.7,2-5.1,3.5c-1.4,1.5-2.6,3.2-3.4,5.2C57.7,89.1,57.3,91.2,57.3,93.4z
					"/>
			</g>
		</g>
		<g id="XMLID_617_">
			<circle id="XMLID_619_" class="st45" cx="105.6" cy="96.1" r="36.8"/>
			<path id="XMLID_618_" class="st45" d="M105.6,96.1"/>
		</g>
	</g>
	<g id="XMLID_612_" class="st1">
		<path id="XMLID_613_" class="st3" d="M99.1,75.2c0-0.5,0.2-1,0.6-1.4c0.4-0.4,0.8-0.6,1.4-0.6h15.8c1.4,0,2.8,0.3,4.1,0.8
			c1.3,0.6,2.4,1.3,3.4,2.3c1,1,1.7,2.1,2.3,3.4c0.6,1.3,0.8,2.6,0.8,4.1c0,1.8-0.4,3.5-1.3,5.1c-0.8,1.5-2,2.8-3.4,3.7
			c1.4,1,2.6,2.3,3.5,3.8c0.9,1.6,1.4,3.3,1.4,5.3c0,1.5-0.3,2.9-0.8,4.2c-0.6,1.3-1.3,2.5-2.3,3.5c-1,1-2.1,1.8-3.4,2.4
			c-1.3,0.6-2.7,0.9-4.2,0.9h-15.8c-0.5,0-1-0.2-1.4-0.6c-0.4-0.4-0.6-0.8-0.6-1.4V75.2z M115.2,92.6c0-0.5,0.2-1,0.5-1.3
			c0.3-0.3,0.8-0.5,1.3-0.5c0.9,0,1.8-0.2,2.6-0.6c0.8-0.4,1.5-0.9,2.2-1.5c0.6-0.6,1.1-1.3,1.4-2.1c0.3-0.8,0.5-1.7,0.5-2.6
			c0-0.9-0.2-1.8-0.6-2.6c-0.4-0.8-0.9-1.5-1.5-2.2c-0.6-0.6-1.4-1.1-2.2-1.5c-0.8-0.4-1.7-0.6-2.6-0.6H103v31.8h13.9
			c0.9,0,1.8-0.2,2.7-0.6c0.8-0.4,1.6-0.9,2.2-1.6c0.6-0.7,1.1-1.4,1.5-2.3c0.4-0.9,0.6-1.8,0.6-2.7c0-1.7-0.6-3.3-1.7-4.7
			c-1.1-1.4-2.8-2.3-5-2.6c-0.5,0-1-0.2-1.3-0.5C115.4,93.5,115.2,93.1,115.2,92.6z"/>
	</g>
	<g id="XMLID_610_" class="st1">
		<path id="XMLID_611_" class="st18" d="M121.7,133.6c-1.3-1.8-0.8-4.3,1-5.6l4.1-2.9c1.8-1.3,4.3-0.8,5.6,1l22.1,31.7
			c1.3,1.8,0.8,4.3-1,5.6l-4.1,2.9c-1.8,1.3-4.3,0.8-5.6-1L121.7,133.6z"/>
	</g>
	<g id="XMLID_607_" class="st1">
		<path id="XMLID_609_" class="st4" d="M42.3,66.3L42.3,66.3c0-5.9,4.8-10.7,10.6-10.7"/>
		<path id="XMLID_608_" class="st46" d="M42.3,66.3L42.3,66.3c0-5.9,4.8-10.7,10.6-10.7"/>
	</g>
	<g id="XMLID_602_" class="st1">
		<g id="XMLID_603_">
			<g id="XMLID_604_">
				<path id="XMLID_606_" class="st18" d="M119.9,136.4c-0.8-1.3,0-3.1,1.7-4.2l10.8-6.5c1.7-1,3.7-0.8,4.5,0.5l2.6,4.3
					c0.8,1.3,0,3.1-1.7,4.2l-10.8,6.5c-1.7,1-3.7,0.8-4.5-0.5L119.9,136.4L119.9,136.4z"/>
				<path id="XMLID_605_" class="st18" d="M129.6,133.4"/>
			</g>
		</g>
	</g>
</g>
<g id="XMLID_651_">
	<g id="XMLID_678_">
		<polygon id="XMLID_680_" class="st47" points="9.7,41.3 121.7,41.3 121.7,51.8 9.7,51.8 9.7,41.3 		"/>
		<path id="XMLID_679_" class="st47" d="M65.7,46.6"/>
	</g>
	<g id="XMLID_675_">
		<polygon id="XMLID_677_" class="st47" points="52.9,126.3 78.6,126.3 78.6,135.1 52.9,135.1 52.9,126.3 		"/>
		<path id="XMLID_676_" class="st47" d="M65.7,130.7"/>
	</g>
	<line id="XMLID_674_" class="st12" x1="65.7" y1="136.3" x2="65.7" y2="168.8"/>
	<polyline id="XMLID_673_" class="st12" points="35.2,168.1 41.5,168.1 65.5,143.1 	"/>
	<polyline id="XMLID_672_" class="st12" points="96.2,168.1 90,168.1 66,143.1 	"/>
	<g id="XMLID_669_">
		<polygon id="XMLID_671_" class="st47" points="58.6,33.1 72.9,33.1 72.9,40.8 58.6,40.8 58.6,33.1 		"/>
		<path id="XMLID_670_" class="st47" d="M65.7,37"/>
	</g>
	<polyline id="XMLID_668_" class="st12" points="23.2,61.3 23.2,88.6 71.5,88.6 	"/>
	<polyline id="XMLID_667_" class="st12" points="69.2,63.6 59.5,73.3 50,73.3 43.7,79.6 32.5,79.6 24,88.1 	"/>
	<line id="XMLID_666_" class="st12" x1="89" y1="81.3" x2="103.2" y2="81.3"/>
	<line id="XMLID_665_" class="st12" x1="80.2" y1="81.6" x2="83" y2="81.6"/>
	<g id="XMLID_662_">
		<circle id="XMLID_664_" class="st47" cx="84.6" cy="106.7" r="12.9"/>
		<path id="XMLID_663_" class="st47" d="M84.6,106.7"/>
	</g>
	<polyline id="XMLID_661_" class="st47" points="83.5,94.3 83.5,106.1 97.5,106.1 	"/>
	<line id="XMLID_660_" class="st12" x1="23.2" y1="105.3" x2="32.2" y2="105.3"/>
	<line id="XMLID_659_" class="st12" x1="23.5" y1="114.1" x2="53" y2="114.1"/>
	<line id="XMLID_658_" class="st12" x1="38" y1="105.1" x2="40.7" y2="105.1"/>
	<path id="XMLID_657_" class="st4" d="M127.6,100.5l0-11.3c0-1-0.8-1.8-1.8-1.8h-6.6c-3.3,0-6-2.7-6-6v-9.1c0-1-0.8-1.8-1.8-1.8h-6
		l11.1-25.7C121.8,34,133,27.8,145,28.9c13.9,1.3,25.3,12.7,26.5,26.7c0.9,11-4.3,21.5-13.7,27.3c-0.5,0.3-0.9,0.9-0.9,1.6v16.1
		H127.6z"/>
	<path id="XMLID_656_" class="st48" d="M106.7,126.1v-20.3c0.2-2.6,1.8-4.1,4.8-4.8h16.1l0-11.3c0-1-0.8-1.8-1.8-1.8h-6.6
		c-3.3,0-6-2.7-6-6v-9.1c0-1-0.8-1.8-1.8-1.8h-6l11.1-25.7c5.5-10.6,16.7-16.8,28.7-15.7c13.9,1.3,25.3,12.7,26.5,26.7
		c0.9,11-4.3,21.5-13.7,27.3c-0.5,0.3-0.9,0.9-0.9,1.6V101"/>
	<path id="XMLID_655_" class="st48" d="M178.7,126.3V106c-0.2-2.6-1.8-4.1-4.8-4.8h-16.1"/>
	<path id="XMLID_654_" class="st49" d="M118,59c0-2.6,2.1-4.7,4.7-4.7s4.7,2.1,4.7,4.7"/>
	<line id="XMLID_653_" class="st47" x1="117.4" y1="88.1" x2="117.4" y2="102.3"/>
	<polyline id="XMLID_652_" class="st12" points="106.5,126.3 13.1,126.3 13.1,52.3 112.5,52.3 	"/>
</g>
</svg>
